<svg width="57" height="57" viewBox="0 0 57 57" fill="none" xmlns="http://www.w3.org/2000/svg">
<path d="M26.254 28.9609L24.6282 35.6963C26.7185 36.1608 33.1055 38.2511 34.0345 34.4189C34.9635 30.4706 28.3442 29.5416 26.254 28.9609Z" fill="#ED6C0C"/>
<path d="M34.0345 34.5351C35.0796 30.5868 28.3442 29.5417 26.254 29.0771L24.6282 35.6964" fill="#E05A00"/>
<path d="M28.577 19.7871L27.0674 25.9419C28.8093 26.4064 34.1511 28.1483 34.964 24.6645C35.7769 21.0645 30.3189 20.2516 28.577 19.7871Z" fill="#ED6C0C"/>
<path d="M34.964 24.6645C35.8931 21.0645 30.3189 20.2516 28.577 19.7871L27.0674 25.9419" fill="#E05A00"/>
<path d="M35.4285 1.55497C20.4481 -2.1611 5.35152 7.01295 1.63545 21.8772C-2.08062 36.8576 6.9773 51.9542 21.9577 55.6703C36.9381 59.3863 52.0347 50.3284 55.7507 35.348C59.4668 20.4837 50.4089 5.38717 35.4285 1.55497ZM41.0026 24.6643C40.6542 27.3352 39.1445 28.7287 37.0542 29.1933C39.8413 30.5868 41.2348 32.7932 39.8413 36.6254C38.2155 41.3866 34.2672 41.735 29.0415 40.806L27.7641 45.9156L24.7448 44.9866L26.0222 39.9931C25.2093 39.7608 24.3964 39.5286 23.5835 39.4124L22.3061 44.4059L19.2868 43.593L20.5642 38.4834C19.8674 38.2512 19.1707 38.135 18.3578 37.9028L14.4094 36.8576L15.9191 33.3738L18.1255 33.9545C18.9384 34.1867 19.4029 33.6061 19.519 33.2577L21.4932 25.2449C21.6093 25.2449 21.7255 25.2449 21.8416 25.3611C21.7255 25.3611 21.6093 25.2449 21.4932 25.2449L22.8867 19.5547C22.8867 18.8579 22.6545 18.045 21.4932 17.8128L19.2868 17.2321L20.0997 13.9806L24.2803 15.0257C24.8609 15.1419 25.5577 15.3741 26.2544 15.4902L27.5318 10.4968L30.5511 11.3097L29.2737 16.187C30.0866 16.4193 30.8995 16.5354 31.7124 16.7676L32.8737 11.8903L35.893 12.7032L34.6156 17.6967C38.68 18.9741 41.5832 20.9482 41.0026 24.6643Z" fill="#FFB600"/>
<path d="M1.63496 21.877C-2.08111 36.8574 6.97681 51.9539 21.9572 55.67C36.9376 59.386 52.0342 50.3281 55.7502 35.3477C59.4663 20.3673 50.4084 5.27076 35.428 1.55469L1.63496 21.877ZM41.0021 24.664C40.6537 27.3349 39.1441 28.7285 37.0538 29.193C39.8408 30.5865 41.2343 32.7929 39.8408 36.6251C38.215 41.3863 34.2667 41.7347 29.041 40.8057L27.7636 45.9153L24.7443 44.9863L26.0217 39.9928C25.2088 39.7605 24.3959 39.5283 23.583 39.4122L22.3056 44.4056L19.2863 43.5927L20.5637 38.4831C19.8669 38.2509 19.1702 38.1348 18.3573 37.9025L14.409 36.8574L15.9186 33.3735L18.125 33.9542C18.9379 34.1864 19.4024 33.6058 19.5186 33.2574L21.4927 25.2446C21.6088 25.2446 21.725 25.2446 21.8411 25.3608C21.725 25.3608 21.6088 25.2446 21.4927 25.2446L22.8862 19.5544C22.8862 18.8576 22.654 18.0448 21.4927 17.8125L19.2863 17.2319L20.0992 13.9803L24.2798 15.0254C24.8604 15.1416 25.5572 15.3738 26.2539 15.49L27.5313 10.4965L30.5506 11.3094L29.2732 16.1867C30.0861 16.419 30.899 16.5351 31.7119 16.7674L32.8732 11.89L35.8925 12.7029L34.6151 17.6964C38.6795 18.9738 41.5827 20.9479 41.0021 24.664Z" fill="#F6921E"/>
<path d="M55.518 36.3934L40.4215 21.2969C41.0021 22.2259 41.3505 23.3872 41.1183 24.7807C40.7699 27.4516 39.2602 28.8451 37.1699 29.3097C39.957 30.7032 41.3505 32.9096 39.957 36.7418C38.3312 41.503 34.3829 41.8514 29.1572 40.9224L27.8798 46.032L24.7443 44.9868L26.0217 39.9934C25.2088 39.7611 24.3959 39.5289 23.5831 39.4127L22.3057 44.4062L21.6089 44.1739L33.4539 56.0189C43.6731 54.277 52.4987 46.8449 55.518 36.3934Z" fill="#D85107"/>
<path d="M14.4097 36.9746L19.6354 42.2003L20.5644 38.4843C19.8676 38.252 19.1709 38.1359 18.358 37.9036L14.4097 36.9746Z" fill="#E26600"/>
<path d="M35.3127 16.1875L34.8481 17.6972C36.2417 18.1617 37.5191 18.7423 38.5642 19.4391L35.3127 16.1875Z" fill="#E26600"/>
<path d="M30.6666 11.3096L29.3892 16.1869C30.2021 16.4192 31.0149 16.5353 31.8278 16.7675L32.6407 13.2837L30.6666 11.3096Z" fill="#ED6C0C"/>
<path d="M36.1251 12.5869L34.8477 17.5804L34.9638 17.6965C38.4476 18.8578 41.1185 20.7158 41.1185 23.8513L55.0538 37.7865C55.286 36.9736 55.5183 36.1607 55.7506 35.464C55.9828 34.535 56.0989 33.7221 56.2151 32.7931L36.1251 12.5869Z" fill="#ED6C0C"/>
<path d="M38.7959 54.6247L28.2283 44.0571L27.7638 45.799L24.7445 44.9861L25.6735 41.3862L23.5832 39.2959L22.3058 44.2894L19.2865 43.4765V43.3604L19.1704 43.4765L31.8283 56.1343C34.2669 56.0182 36.5895 55.4376 38.7959 54.6247Z" fill="#ED6C0C"/>
<path d="M41.6993 53.2312L29.1575 40.6895C29.1575 40.6895 29.1575 40.6895 29.0414 40.6895L27.764 45.7991L24.8608 45.1023L35.4284 55.6699C37.6348 55.0892 39.7251 54.2763 41.6993 53.2312Z" fill="#E05A00"/>
</svg>
