<svg width="20" height="20" viewBox="0 0 20 20" fill="none" xmlns="http://www.w3.org/2000/svg">
<path d="M2.79489 5.05613C2.79489 3.80713 3.80689 2.79513 5.05589 2.79413H6.08489C6.68189 2.79413 7.25389 2.55713 7.67789 2.13713L8.39689 1.41713C9.27789 0.531134 10.7099 0.527134 11.5959 1.40813L11.5969 1.40913L11.6059 1.41713L12.3259 2.13713C12.7499 2.55813 13.3219 2.79413 13.9189 2.79413H14.9469C16.1959 2.79413 17.2089 3.80613 17.2089 5.05613V6.08313C17.2089 6.68013 17.4449 7.25313 17.8659 7.67713L18.5859 8.39713C19.4719 9.27813 19.4769 10.7101 18.5959 11.5961L18.5949 11.5971L18.5859 11.6061L17.8659 12.3261C17.4449 12.7491 17.2089 13.3211 17.2089 13.9181V14.9471C17.2089 16.1961 16.1969 17.2081 14.9479 17.2081H14.9469H13.9169C13.3199 17.2081 12.7469 17.4451 12.3239 17.8661L11.6039 18.5851C10.7239 19.4711 9.29289 19.4761 8.40689 18.5971C8.40589 18.5961 8.40489 18.5951 8.40389 18.5941L8.39489 18.5851L7.67589 17.8661C7.25289 17.4451 6.67989 17.2091 6.08289 17.2081H5.05589C3.80689 17.2081 2.79489 16.1961 2.79489 14.9471V13.9161C2.79489 13.3191 2.55789 12.7471 2.13689 12.3241L1.41789 11.6041C0.531886 10.7241 0.526886 9.29313 1.40689 8.40713C1.40689 8.40613 1.40789 8.40513 1.40889 8.40413L1.41789 8.39513L2.13689 7.67513C2.55789 7.25113 2.79489 6.67913 2.79489 6.08113V5.05613" stroke="white" stroke-linecap="round" stroke-linejoin="round"/>
<path d="M6.36718 10.0017H13.6362" stroke="white" stroke-linecap="round" stroke-linejoin="round"/>
<path d="M10.0021 13.6365V6.36742" stroke="white" stroke-linecap="round" stroke-linejoin="round"/>
</svg>
