<svg width="80" height="80" viewBox="0 0 80 80" fill="none" xmlns="http://www.w3.org/2000/svg">
<g clip-path="url(#clip0)">
<path d="M79.1886 42.7853C80.2705 42.2444 80.2705 40.4864 79.1886 39.9454C70.8042 35.3475 62.2846 31.1553 53.0888 28.7212C51.7365 28.4507 50.3842 29.9383 51.1955 31.1553C53.0888 33.86 55.3877 36.1589 58.0924 38.1874C39.1599 37.6465 19.5512 35.0771 0.889175 39.5397C-0.463151 39.8102 -0.192689 42.1089 1.15985 41.9737C20.4981 39.5397 39.701 41.433 59.0392 41.7032C57.0107 44.0022 54.9823 46.3011 52.9538 48.4649C52.0072 49.4115 52.5481 51.4402 54.1709 51.305C63.096 50.2229 71.4804 47.2478 79.1886 42.7853ZM63.096 41.2978C64.3131 40.4864 64.0426 38.1874 62.1494 38.1874C62.0141 38.1874 61.8789 38.1874 61.8789 38.1874C60.2561 36.5646 58.6333 35.0771 57.0105 33.3191C63.2312 35.4828 69.0462 38.1874 74.8612 41.2975C69.5871 44.0022 64.1778 46.0307 58.3628 47.1125C59.7152 45.625 61.0675 44.0022 62.555 42.5144C63.096 42.2444 63.2312 41.7032 63.096 41.2978Z" fill="#3F176D"/>
</g>
<defs>
<clipPath id="clip0">
<rect width="80" height="80" fill="white" transform="translate(80) rotate(90)"/>
</clipPath>
</defs>
</svg>
