<svg width="88" height="88" viewBox="0 0 88 88" fill="none" xmlns="http://www.w3.org/2000/svg">
<path d="M76.6092 63.778C78.0005 62.1733 78.7667 60.1181 78.7667 57.9906C78.7667 53.1138 74.7997 49.1462 69.9234 49.1462C67.3557 49.1462 64.9189 50.2602 63.2373 52.2025C61.8461 53.8082 61.0801 55.8638 61.0801 57.9906C61.0801 62.8669 65.0471 66.8339 69.9234 66.8339C72.4914 66.8337 74.9284 65.7198 76.6092 63.778ZM63.6603 57.9906C63.6603 56.4843 64.2025 55.0285 65.1875 53.8919C65.1875 53.8917 65.1877 53.8915 65.1879 53.8915C66.379 52.5155 68.1051 51.7264 69.9234 51.7264C73.377 51.7264 76.1867 54.5366 76.1867 57.9908C76.1867 59.4972 75.6446 60.9525 74.6591 62.0889C73.468 63.465 71.7418 64.2541 69.9234 64.2541C66.4699 64.2537 63.6603 61.4441 63.6603 57.9906Z" fill="white"/>
<path d="M81.8398 46.1671C78.7554 43.0579 74.667 41.2892 70.328 41.1871C65.7575 41.0795 61.4446 42.7764 58.1797 45.9654C54.9139 49.1552 53.1152 53.4258 53.1152 57.9904C53.1152 60.1741 53.5313 62.3036 54.352 64.3197C54.6205 64.9795 55.3733 65.2967 56.0332 65.0282C56.693 64.7595 57.0103 64.0069 56.7416 63.3471C56.0472 61.6414 55.6954 59.8391 55.6954 57.9904C55.6954 54.1265 57.2179 50.5115 59.9825 47.8111C62.7462 45.1118 66.4001 43.6738 70.2672 43.7666C73.9363 43.8529 77.3958 45.3509 80.0082 47.9844C82.6205 50.6177 84.0911 54.0894 84.1493 57.7596C84.1993 60.9255 83.231 63.937 81.34 66.481L74.325 76.154C73.061 77.8972 72.1894 79.8481 71.7348 81.9522L71.2097 84.382C71.0796 84.9836 70.5387 85.4198 69.9234 85.4198C69.3081 85.4198 68.7672 84.9832 68.6373 84.3818L68.112 81.9522C67.6572 79.8479 66.7857 77.897 65.5215 76.1538L59.4605 67.7964C59.0423 67.2198 58.2357 67.0912 57.6587 67.5095C57.0821 67.9279 56.9535 68.7343 57.3719 69.3113L63.4329 77.6686C64.4856 79.1202 65.2115 80.7448 65.5901 82.4974L66.1152 84.927C66.4998 86.7078 68.1014 88 69.9231 88C71.7448 88 73.3463 86.7075 73.7309 84.927L74.2562 82.4972C74.6348 80.7449 75.3605 79.1204 76.4132 77.6686L83.4192 68.0078C85.6436 65.0156 86.7878 61.4577 86.7287 57.7185C86.6603 53.3783 84.924 49.276 81.8398 46.1671Z" fill="white"/>
<path d="M14.9822 21.1296C17.1128 21.1296 19.1351 20.2051 20.5295 18.5943C21.684 17.2626 22.3199 15.5573 22.3199 13.7919C22.3199 12.7208 22.0925 11.6859 21.6439 10.7159C21.3449 10.0691 20.5781 9.78724 19.9317 10.0863C19.2849 10.3852 19.0032 11.1519 19.3021 11.7985C19.5924 12.4267 19.7399 13.0976 19.7399 13.7919C19.7399 14.9363 19.3279 16.0416 18.5794 16.9048C17.6746 17.9499 16.3636 18.5496 14.9822 18.5496C12.3589 18.5496 10.2247 16.4154 10.2247 13.7921C10.2247 12.6479 10.6367 11.5421 11.3852 10.6784C12.29 9.63324 13.601 9.03357 14.9824 9.03357C15.2261 9.03357 15.4707 9.05213 15.7096 9.08857C16.4139 9.19685 17.072 8.71285 17.1798 8.00851C17.2876 7.30433 16.8041 6.64588 16.0997 6.53829C15.7321 6.48208 15.3562 6.45355 14.9822 6.45355C12.8517 6.45355 10.8294 7.37807 9.43461 8.9894C8.2803 10.3218 7.64453 12.0275 7.64453 13.7921C7.6447 17.8379 10.9363 21.1296 14.9822 21.1296Z" fill="white"/>
<path d="M9.57773 29.698C10.3996 30.8312 10.9661 32.0993 11.2618 33.4674L11.6822 35.413C12.0156 36.9563 13.4035 38.0762 14.9825 38.0762C16.5615 38.0762 17.9494 36.9561 18.2829 35.413L18.7033 33.4676C18.9989 32.0993 19.5656 30.8312 20.3873 29.6982L25.9951 21.9655C27.8101 19.5242 28.7439 16.6209 28.6956 13.5698C28.6395 10.0281 27.2229 6.68053 24.7065 4.144C22.1896 1.60713 18.8537 0.164063 15.3127 0.0805317C11.5837 -0.00798392 8.06437 1.3775 5.40014 3.97952C2.73539 6.58222 1.26758 10.0668 1.26758 13.7913C1.26758 16.761 2.20206 19.5877 3.96103 21.9533L9.57773 29.698ZM7.20294 5.82511C9.30119 3.77567 12.0536 2.65659 14.9806 2.65659C15.0705 2.65659 15.1614 2.65762 15.2517 2.65986C18.1227 2.72741 20.8299 3.89977 22.8745 5.96089C24.9191 8.02201 26.0702 10.7385 26.1155 13.6105C26.1547 16.0883 25.3969 18.445 23.9154 20.4384L18.2987 28.1831C17.2657 29.6076 16.5533 31.2021 16.1815 32.9222L15.7611 34.8677C15.6824 35.2319 15.355 35.4961 14.9827 35.4961C14.6104 35.4961 14.2828 35.2319 14.2043 34.8679L13.7839 32.9224C13.4121 31.2024 12.6998 29.608 11.6665 28.1833L6.04089 20.4262C4.60642 18.4966 3.84811 16.2022 3.84811 13.7913C3.84759 10.7675 5.03937 7.93831 7.20294 5.82511Z" fill="white"/>
<path d="M74.1408 14.7751C73.6602 15.301 73.697 16.1171 74.2229 16.5976C74.4704 16.8238 74.7819 16.9352 75.0928 16.9352C75.4424 16.9352 75.7911 16.7937 76.0455 16.5153L76.0678 16.4912C76.0989 16.4577 76.1299 16.424 76.1582 16.391C77.136 15.2634 77.6745 13.8191 77.6745 12.3243C77.6745 8.8978 74.887 6.10999 71.4609 6.10999C69.6713 6.10999 67.9679 6.88274 66.7874 8.23024C66.318 8.76614 66.3718 9.58117 66.9077 10.0506C67.4436 10.5201 68.2587 10.4663 68.7282 9.93025C69.4188 9.14203 70.4148 8.68983 71.4611 8.68983C73.4646 8.68983 75.0947 10.3202 75.0947 12.3241C75.0947 13.1981 74.7801 14.042 74.2076 14.7025L74.1408 14.7751Z" fill="white"/>
<path d="M61.7434 6.94339C62.3219 7.35915 63.1282 7.22681 63.5438 6.64828C65.4269 4.02667 68.4754 2.50386 71.6972 2.58275C74.2095 2.64187 76.5784 3.66797 78.368 5.47162C80.1574 7.27545 81.1648 9.65282 81.2045 12.1658C81.2387 14.334 80.5756 16.3967 79.2779 18.1428L77.9443 19.9816C77.526 20.5583 77.6546 21.3649 78.2312 21.7832C78.46 21.9493 78.7248 22.029 78.9873 22.029C79.3865 22.029 79.7803 21.8441 80.0326 21.4962L81.3573 19.6695C82.9882 17.4755 83.8274 14.8666 83.784 12.1249C83.7338 8.94212 82.4605 5.93379 80.1995 3.65456C77.938 1.37515 74.9401 0.0783569 71.7579 0.00341942C67.6825 -0.0914555 63.8289 1.82873 61.4483 5.14317C61.3345 5.30181 60.9961 6.10996 61.5384 6.75948C61.5989 6.82651 61.6669 6.88856 61.7434 6.94339Z" fill="white"/>
<path d="M59.6339 77.2515C59.6358 76.894 59.4914 76.5378 59.2037 76.2813C58.6719 75.8071 57.8564 75.8539 57.3823 76.3856C56.563 77.3045 55.709 78.1467 54.841 78.8936C53.0205 79.5234 51.1587 80.0029 49.2628 80.3343C50.7014 77.2387 51.9355 72.9822 52.8782 67.8283C53.0066 67.1276 52.5422 66.4556 51.8414 66.3273C51.1416 66.1991 50.4687 66.6632 50.3405 67.3641C49.2779 73.1728 47.8007 77.883 46.1529 80.741C45.0761 80.8348 43.9902 80.8841 42.8953 80.8841C41.7965 80.8841 40.71 80.8327 39.6356 80.7373C37.7351 77.4494 36.1656 71.9499 35.0972 65.2222C37.6506 65.4296 40.2584 65.5367 42.8953 65.5367C45.3375 65.5367 47.8031 65.4442 50.2232 65.2619C50.9336 65.2083 51.4662 64.589 51.4128 63.8786C51.3592 63.1681 50.7385 62.6368 50.0295 62.6891C47.6736 62.8666 45.2734 62.9567 42.8953 62.9567C40.1216 62.9567 37.3847 62.8347 34.7148 62.6018C34.0185 57.3904 33.61 51.5721 33.5588 45.5478H54.4787C55.1911 45.5478 55.7688 44.9703 55.7688 44.2577C55.7688 43.661 55.363 43.1603 54.8128 43.013C54.7661 37.0562 54.385 31.3448 53.7238 26.1846C58.0295 26.6894 62.1223 27.4912 65.8615 28.5563C66.6552 31.4171 67.2351 34.4196 67.5738 37.4809C67.6469 38.1409 68.2057 38.629 68.8545 38.629C68.9017 38.629 68.9497 38.6264 68.998 38.6211C69.7061 38.5427 70.2166 37.9051 70.1382 37.1969C69.8467 34.5628 69.3833 31.968 68.7648 29.4603C72.2703 30.6511 75.39 32.0909 77.9884 33.7472C78.6366 35.9142 79.0864 38.1502 79.3231 40.4301C79.3918 41.0935 79.9519 41.587 80.6045 41.587C80.6491 41.587 80.6941 41.5847 80.7395 41.5799C81.4481 41.5064 81.9629 40.8723 81.8895 40.1637C80.8942 30.5755 76.3967 21.7129 69.2261 15.209C62.0042 8.65881 52.6532 5.05133 42.8955 5.05133C38.9147 5.05133 34.9865 5.64636 31.2202 6.81975C30.5399 7.03167 30.1603 7.75492 30.3722 8.43521C30.5841 9.11531 31.3068 9.49447 31.9876 9.28324C33.4764 8.81935 34.9929 8.45342 36.5286 8.18427C34.8181 11.87 33.4072 17.1781 32.4349 23.5459C30.9655 23.707 29.5111 23.8983 28.0801 24.1276C27.3766 24.2403 26.8977 24.902 27.0105 25.6055C27.1232 26.3092 27.785 26.7872 28.4884 26.6751C29.6663 26.4862 30.8593 26.3217 32.0646 26.1806C31.8584 27.7907 31.6788 29.4583 31.5284 31.1758C31.4662 31.8855 31.9911 32.5115 32.7008 32.5735C32.7391 32.5769 32.7771 32.5785 32.8149 32.5785C33.4764 32.5785 34.0397 32.0725 34.0984 31.401C34.2641 29.511 34.4681 27.6783 34.705 25.9149C37.3905 25.681 40.1271 25.5588 42.8955 25.5588C45.6692 25.5588 48.4062 25.6808 51.0761 25.9137C51.7723 31.1251 52.1809 36.9434 52.2321 42.9676H33.5606C33.5777 40.9129 33.633 38.86 33.7305 36.8482C33.7648 36.1365 33.216 35.5316 32.5045 35.4973C31.7898 35.4648 31.1879 36.0119 31.1535 36.7233C31.0542 38.7765 30.9978 40.8711 30.9808 42.9675H17.86C17.8685 42.593 17.88 42.209 17.8956 41.8082C17.9235 41.0963 17.369 40.4966 16.6571 40.4686C15.9484 40.438 15.3453 40.995 15.3175 41.7071C15.3005 42.1428 15.2877 42.5606 15.279 42.9673H6.29284C6.41161 39.5537 6.99994 36.1915 8.04923 32.9549C8.26889 32.2772 7.89747 31.5496 7.21977 31.33C6.54189 31.1103 5.81452 31.4818 5.59486 32.1595C4.33055 36.0605 3.68945 40.1307 3.68945 44.2574C3.68945 54.7297 7.76753 64.5753 15.1726 71.9805C22.5778 79.3856 32.4232 83.4636 42.8957 83.4636C48.8113 83.4636 54.4981 82.1777 59.7979 79.6416C60.4405 79.3342 60.7123 78.5638 60.4048 77.9213C60.2449 77.5884 59.9603 77.356 59.6339 77.2515ZM53.3545 23.5494C52.3918 17.2395 50.9913 11.909 49.2649 8.18942C51.168 8.52406 53.0358 9.00824 54.8527 9.63506C58.0704 12.4078 60.9171 16.3244 63.0932 20.9836C63.7862 22.4674 64.411 24.0293 64.9644 25.65C61.336 24.7087 57.43 23.9992 53.3545 23.5494ZM76.6413 30.0009C74.0625 28.6549 71.1368 27.4779 67.946 26.4929C67.2399 24.181 66.3993 21.9652 65.4309 19.8919C64.1353 17.118 62.6082 14.5859 60.9084 12.3648C63.2534 13.691 65.4636 15.2805 67.4924 17.1207C71.4831 20.7403 74.587 25.1411 76.6413 30.0009ZM42.8953 22.9793C40.2619 22.9793 37.6544 23.0855 35.0903 23.2919C36.1745 16.5161 37.7711 11.0113 39.6385 7.77624C40.7182 7.68119 41.8045 7.63186 42.8953 7.63186C43.9881 7.63186 45.0752 7.68153 46.1544 7.77744C48.0552 11.0656 49.6251 16.5659 50.6937 23.2948C48.1401 23.0875 45.5326 22.9793 42.8953 22.9793ZM36.5267 80.329C34.607 79.9911 32.7389 79.5021 30.9339 78.8768C26.5614 75.1098 23.0893 69.5053 20.8228 62.8675C24.452 63.8089 28.3602 64.5172 32.4362 64.9669C33.3991 71.278 34.8 76.6091 36.5267 80.329ZM32.0669 62.3314C27.7587 61.8265 23.6637 61.024 19.9229 59.958C18.6799 55.4676 17.9633 50.5913 17.8587 45.5482H30.9784C31.0269 51.4887 31.4076 57.1843 32.0669 62.3314ZM6.29439 45.5482H15.2786C15.3727 50.2328 15.9768 54.7892 17.0297 59.0569C13.526 57.8671 10.4079 56.4284 7.80981 54.7736C6.92792 51.8352 6.40559 48.7433 6.29439 45.5482ZM9.16109 58.522C11.7378 59.8657 14.6626 61.0396 17.8499 62.0231C19.4934 67.3974 21.8738 72.2151 24.8541 76.1227C17.8765 72.1568 12.3208 65.9668 9.16109 58.522Z" fill="white"/>
</svg>
