<svg width="74" height="75" viewBox="0 0 74 75" fill="none" xmlns="http://www.w3.org/2000/svg">
<g clip-path="url(#clip0)">
<path d="M72.1327 42.6976H33.9133C33.5334 42.6976 33.1692 42.8508 32.9017 43.1233C32.6341 43.3958 32.4853 43.7648 32.4883 44.1486L32.6342 62.7412C32.6405 63.5318 33.2766 64.1694 34.0592 64.1694H46.632C47.4188 64.1694 48.0569 63.5248 48.0569 62.7298C48.0569 61.9348 47.4188 61.2901 46.632 61.2901H35.4728L35.3495 45.5769H70.7188L70.8421 61.2901H59.5597C58.7728 61.2901 58.1347 61.9348 58.1347 62.7298C58.1347 63.5248 58.7728 64.1694 59.5597 64.1694H72.2786C72.6585 64.1694 73.0227 64.0163 73.2902 63.7437C73.5578 63.4712 73.7066 63.1022 73.7036 62.7184L73.5577 44.1259C73.5514 43.335 72.9153 42.6976 72.1327 42.6976Z" fill="#100C52"/>
<path d="M72.1327 42.6976H33.9133C33.5334 42.6976 33.1692 42.8508 32.9017 43.1233C32.6341 43.3958 32.4853 43.7648 32.4883 44.1486L32.6342 62.7412C32.6405 63.5318 33.2766 64.1694 34.0592 64.1694H46.632C47.4188 64.1694 48.0569 63.5248 48.0569 62.7298C48.0569 61.9348 47.4188 61.2901 46.632 61.2901H35.4728L35.3495 45.5769H70.7188L70.8421 61.2901H59.5597C58.7728 61.2901 58.1347 61.9348 58.1347 62.7298C58.1347 63.5248 58.7728 64.1694 59.5597 64.1694H72.2786C72.6585 64.1694 73.0227 64.0163 73.2902 63.7437C73.5578 63.4712 73.7066 63.1022 73.7036 62.7184L73.5577 44.1259C73.5514 43.335 72.9153 42.6976 72.1327 42.6976Z" fill="url(#paint0_linear)"/>
<path d="M54.4374 62.1788C54.2077 61.6221 53.6425 61.2592 53.0451 61.2918C52.4524 61.3242 51.9314 61.739 51.7585 62.3118C51.5879 62.8763 51.788 63.5144 52.2541 63.872C52.7364 64.2421 53.4077 64.2641 53.913 63.9265C54.4741 63.5515 54.6909 62.8043 54.4374 62.1788Z" fill="#100C52"/>
<path d="M54.4374 62.1788C54.2077 61.6221 53.6425 61.2592 53.0451 61.2918C52.4524 61.3242 51.9314 61.739 51.7585 62.3118C51.5879 62.8763 51.788 63.5144 52.2541 63.872C52.7364 64.2421 53.4077 64.2641 53.913 63.9265C54.4741 63.5515 54.6909 62.8043 54.4374 62.1788Z" fill="url(#paint1_linear)"/>
<path d="M13.9548 40.0854C6.67097 40.0854 0.745117 46.0734 0.745117 53.4335C0.745117 60.7937 6.67097 66.7817 13.9548 66.7817C21.2387 66.7817 27.1647 60.7937 27.1647 53.4335C27.1647 46.0734 21.2387 40.0854 13.9548 40.0854ZM13.9548 63.9024C8.24243 63.9024 3.59505 59.2061 3.59505 53.4335C3.59505 47.6611 8.24243 42.9648 13.9548 42.9648C19.6674 42.9648 24.3147 47.6611 24.3147 53.4335C24.3147 59.2061 19.6674 63.9024 13.9548 63.9024Z" fill="#100C52"/>
<path d="M13.9548 40.0854C6.67097 40.0854 0.745117 46.0734 0.745117 53.4335C0.745117 60.7937 6.67097 66.7817 13.9548 66.7817C21.2387 66.7817 27.1647 60.7937 27.1647 53.4335C27.1647 46.0734 21.2387 40.0854 13.9548 40.0854ZM13.9548 63.9024C8.24243 63.9024 3.59505 59.2061 3.59505 53.4335C3.59505 47.6611 8.24243 42.9648 13.9548 42.9648C19.6674 42.9648 24.3147 47.6611 24.3147 53.4335C24.3147 59.2061 19.6674 63.9024 13.9548 63.9024Z" fill="url(#paint2_linear)"/>
<path d="M13.9548 8.67389C6.67097 8.67389 0.745117 14.6617 0.745117 22.0219C0.745117 29.382 6.67097 35.37 13.9548 35.37C21.2387 35.37 27.1647 29.382 27.1647 22.0219C27.1647 14.6617 21.2387 8.67389 13.9548 8.67389ZM13.9548 32.4907C8.24243 32.4907 3.59505 27.7944 3.59505 22.0219C3.59505 16.2494 8.24243 11.5531 13.9548 11.5531C19.6674 11.5531 24.3147 16.2494 24.3147 22.0219C24.3147 27.7944 19.6674 32.4907 13.9548 32.4907Z" fill="#100C52"/>
<path d="M13.9548 8.67389C6.67097 8.67389 0.745117 14.6617 0.745117 22.0219C0.745117 29.382 6.67097 35.37 13.9548 35.37C21.2387 35.37 27.1647 29.382 27.1647 22.0219C27.1647 14.6617 21.2387 8.67389 13.9548 8.67389ZM13.9548 32.4907C8.24243 32.4907 3.59505 27.7944 3.59505 22.0219C3.59505 16.2494 8.24243 11.5531 13.9548 11.5531C19.6674 11.5531 24.3147 16.2494 24.3147 22.0219C24.3147 27.7944 19.6674 32.4907 13.9548 32.4907Z" fill="url(#paint3_linear)"/>
<path d="M17.6776 18.2605C17.1213 17.6982 16.2188 17.6984 15.6624 18.2607L13.9551 19.9858L12.248 18.2607C11.6919 17.6986 10.7894 17.6985 10.2328 18.2605C9.67639 18.8226 9.67625 19.7342 10.2327 20.2965L11.9402 22.0219L10.2327 23.7474C9.67625 24.3095 9.67639 25.2211 10.2328 25.7833C10.511 26.0645 10.8756 26.205 11.2403 26.205C11.6049 26.205 11.9697 26.0643 12.2479 25.7832L13.9551 24.058L15.6624 25.7832C15.9405 26.0643 16.3053 26.205 16.67 26.205C17.0346 26.205 17.3993 26.0643 17.6774 25.7833C18.2339 25.2213 18.234 24.3097 17.6776 23.7474L15.97 22.0219L17.6776 20.2965C18.2342 19.7343 18.234 18.8227 17.6776 18.2605Z" fill="#100C52"/>
<path d="M17.6776 18.2605C17.1213 17.6982 16.2188 17.6984 15.6624 18.2607L13.9551 19.9858L12.248 18.2607C11.6919 17.6986 10.7894 17.6985 10.2328 18.2605C9.67639 18.8226 9.67625 19.7342 10.2327 20.2965L11.9402 22.0219L10.2327 23.7474C9.67625 24.3095 9.67639 25.2211 10.2328 25.7833C10.511 26.0645 10.8756 26.205 11.2403 26.205C11.6049 26.205 11.9697 26.0643 12.2479 25.7832L13.9551 24.058L15.6624 25.7832C15.9405 26.0643 16.3053 26.205 16.67 26.205C17.0346 26.205 17.3993 26.0643 17.6774 25.7833C18.2339 25.2213 18.234 24.3097 17.6776 23.7474L15.97 22.0219L17.6776 20.2965C18.2342 19.7343 18.234 18.8227 17.6776 18.2605Z" fill="url(#paint4_linear)"/>
<path d="M34.0592 32.758H72.2786C72.6585 32.758 73.0227 32.6048 73.2902 32.3323C73.5578 32.0598 73.7066 31.6908 73.7036 31.307L73.5577 12.7144C73.5514 11.9238 72.9153 11.2861 72.1327 11.2861H33.9133C33.5334 11.2861 33.1692 11.4395 32.9017 11.7118C32.6341 11.9844 32.4853 12.3533 32.4883 12.7372L32.6342 31.3297C32.6405 32.1204 33.2766 32.758 34.0592 32.758ZM70.719 14.1653L70.8423 29.8786H35.4729L35.3497 14.1653H70.719Z" fill="#100C52"/>
<path d="M34.0592 32.758H72.2786C72.6585 32.758 73.0227 32.6048 73.2902 32.3323C73.5578 32.0598 73.7066 31.6908 73.7036 31.307L73.5577 12.7144C73.5514 11.9238 72.9153 11.2861 72.1327 11.2861H33.9133C33.5334 11.2861 33.1692 11.4395 32.9017 11.7118C32.6341 11.9844 32.4853 12.3533 32.4883 12.7372L32.6342 31.3297C32.6405 32.1204 33.2766 32.758 34.0592 32.758ZM70.719 14.1653L70.8423 29.8786H35.4729L35.3497 14.1653H70.719Z" fill="url(#paint5_linear)"/>
<path d="M42.8595 20.4308H65.9173C66.7043 20.4308 67.3423 19.7861 67.3423 18.9912C67.3423 18.1962 66.7043 17.5515 65.9173 17.5515H42.8595C42.0727 17.5515 41.4346 18.1962 41.4346 18.9912C41.4346 19.7861 42.0727 20.4308 42.8595 20.4308Z" fill="#100C52"/>
<path d="M42.8595 20.4308H65.9173C66.7043 20.4308 67.3423 19.7861 67.3423 18.9912C67.3423 18.1962 66.7043 17.5515 65.9173 17.5515H42.8595C42.0727 17.5515 41.4346 18.1962 41.4346 18.9912C41.4346 19.7861 42.0727 20.4308 42.8595 20.4308Z" fill="url(#paint6_linear)"/>
<path d="M42.8595 26.4923H57.7168C58.5038 26.4923 59.1417 25.8478 59.1417 25.0527C59.1417 24.2577 58.5038 23.613 57.7168 23.613H42.8595C42.0727 23.613 41.4346 24.2577 41.4346 25.0527C41.4346 25.8478 42.0727 26.4923 42.8595 26.4923Z" fill="#100C52"/>
<path d="M42.8595 26.4923H57.7168C58.5038 26.4923 59.1417 25.8478 59.1417 25.0527C59.1417 24.2577 58.5038 23.613 57.7168 23.613H42.8595C42.0727 23.613 41.4346 24.2577 41.4346 25.0527C41.4346 25.8478 42.0727 26.4923 42.8595 26.4923Z" fill="url(#paint7_linear)"/>
<path d="M42.8595 52.3063H65.9173C66.7043 52.3063 67.3423 51.6616 67.3423 50.8666C67.3423 50.0715 66.7043 49.4269 65.9173 49.4269H42.8595C42.0727 49.4269 41.4346 50.0715 41.4346 50.8666C41.4346 51.6616 42.0727 52.3063 42.8595 52.3063Z" fill="#100C52"/>
<path d="M42.8595 52.3063H65.9173C66.7043 52.3063 67.3423 51.6616 67.3423 50.8666C67.3423 50.0715 66.7043 49.4269 65.9173 49.4269H42.8595C42.0727 49.4269 41.4346 50.0715 41.4346 50.8666C41.4346 51.6616 42.0727 52.3063 42.8595 52.3063Z" fill="url(#paint8_linear)"/>
<path d="M59.1417 56.9279C59.1417 56.133 58.5038 55.4883 57.7168 55.4883H42.8595C42.0727 55.4883 41.4346 56.133 41.4346 56.9279C41.4346 57.7229 42.0727 58.3676 42.8595 58.3676H57.7168C58.5036 58.3676 59.1417 57.7231 59.1417 56.9279Z" fill="#100C52"/>
<path d="M59.1417 56.9279C59.1417 56.133 58.5038 55.4883 57.7168 55.4883H42.8595C42.0727 55.4883 41.4346 56.133 41.4346 56.9279C41.4346 57.7229 42.0727 58.3676 42.8595 58.3676H57.7168C58.5036 58.3676 59.1417 57.7231 59.1417 56.9279Z" fill="url(#paint9_linear)"/>
<path d="M17.5588 50.0169C16.9216 49.5511 16.0305 49.6953 15.569 50.3393L13.3029 53.5032L12.1697 52.4102C11.6007 51.8611 10.6986 51.882 10.1551 52.4573C9.61163 53.0323 9.63243 53.9436 10.2017 54.4927L12.5158 56.725C12.782 56.9818 13.135 57.1235 13.4996 57.1235C13.5428 57.1235 13.5861 57.1215 13.6293 57.1176C14.0391 57.0797 14.4129 56.8647 14.6542 56.5278L17.8777 52.0273C18.3393 51.3833 18.1965 50.4832 17.5588 50.0169Z" fill="#100C52"/>
<path d="M17.5588 50.0169C16.9216 49.5511 16.0305 49.6953 15.569 50.3393L13.3029 53.5032L12.1697 52.4102C11.6007 51.8611 10.6986 51.882 10.1551 52.4573C9.61163 53.0323 9.63243 53.9436 10.2017 54.4927L12.5158 56.725C12.782 56.9818 13.135 57.1235 13.4996 57.1235C13.5428 57.1235 13.5861 57.1215 13.6293 57.1176C14.0391 57.0797 14.4129 56.8647 14.6542 56.5278L17.8777 52.0273C18.3393 51.3833 18.1965 50.4832 17.5588 50.0169Z" fill="url(#paint10_linear)"/>
</g>
<defs>
<linearGradient id="paint0_linear" x1="53.096" y1="42.6976" x2="53.096" y2="64.1694" gradientUnits="userSpaceOnUse">
<stop stop-color="#0F0B52"/>
<stop offset="1" stop-color="#100C52"/>
</linearGradient>
<linearGradient id="paint1_linear" x1="53.1204" y1="61.2898" x2="53.1204" y2="64.1654" gradientUnits="userSpaceOnUse">
<stop stop-color="#0F0B52"/>
<stop offset="1" stop-color="#100C52"/>
</linearGradient>
<linearGradient id="paint2_linear" x1="13.9549" y1="40.0854" x2="13.9549" y2="66.7817" gradientUnits="userSpaceOnUse">
<stop stop-color="#0F0B52"/>
<stop offset="1" stop-color="#100C52"/>
</linearGradient>
<linearGradient id="paint3_linear" x1="13.9549" y1="8.67389" x2="13.9549" y2="35.37" gradientUnits="userSpaceOnUse">
<stop stop-color="#0F0B52"/>
<stop offset="1" stop-color="#100C52"/>
</linearGradient>
<linearGradient id="paint4_linear" x1="13.9552" y1="17.8389" x2="13.9552" y2="26.205" gradientUnits="userSpaceOnUse">
<stop stop-color="#0F0B52"/>
<stop offset="1" stop-color="#100C52"/>
</linearGradient>
<linearGradient id="paint5_linear" x1="53.096" y1="11.2861" x2="53.096" y2="32.758" gradientUnits="userSpaceOnUse">
<stop stop-color="#0F0B52"/>
<stop offset="1" stop-color="#100C52"/>
</linearGradient>
<linearGradient id="paint6_linear" x1="54.3884" y1="17.5515" x2="54.3884" y2="20.4308" gradientUnits="userSpaceOnUse">
<stop stop-color="#0F0B52"/>
<stop offset="1" stop-color="#100C52"/>
</linearGradient>
<linearGradient id="paint7_linear" x1="50.2882" y1="23.613" x2="50.2882" y2="26.4923" gradientUnits="userSpaceOnUse">
<stop stop-color="#0F0B52"/>
<stop offset="1" stop-color="#100C52"/>
</linearGradient>
<linearGradient id="paint8_linear" x1="54.3884" y1="49.4269" x2="54.3884" y2="52.3063" gradientUnits="userSpaceOnUse">
<stop stop-color="#0F0B52"/>
<stop offset="1" stop-color="#100C52"/>
</linearGradient>
<linearGradient id="paint9_linear" x1="50.2882" y1="55.4883" x2="50.2882" y2="58.3676" gradientUnits="userSpaceOnUse">
<stop stop-color="#0F0B52"/>
<stop offset="1" stop-color="#100C52"/>
</linearGradient>
<linearGradient id="paint10_linear" x1="13.9546" y1="49.7437" x2="13.9546" y2="57.1235" gradientUnits="userSpaceOnUse">
<stop stop-color="#0F0B52"/>
<stop offset="1" stop-color="#100C52"/>
</linearGradient>
<clipPath id="clip0">
<rect width="72.9582" height="73.7103" fill="white" transform="translate(0.745117 0.872559)"/>
</clipPath>
</defs>
</svg>
