<svg width="62" height="63" viewBox="0 0 62 63" fill="none" xmlns="http://www.w3.org/2000/svg">
<g clip-path="url(#clip0)">
<path d="M61.2894 27.3119L50.7303 15.1712C50.5005 14.9069 50.17 14.7556 49.823 14.7556H12.1763C11.8292 14.7556 11.4988 14.9069 11.2689 15.1712L0.709784 27.3119C0.394456 27.6745 0.317561 28.1912 0.513249 28.6324C0.586995 28.7988 0.694526 28.9425 0.825307 29.0573C0.82785 29.0601 0.829788 29.0633 0.832331 29.0663L30.0937 62.5861C30.3235 62.8494 30.6532 63 30.9996 63C31.3459 63 31.6756 62.8493 31.9055 62.5861L61.1668 29.0663C61.1694 29.0634 61.1714 29.0602 61.1738 29.0573C61.3045 28.9425 61.412 28.7986 61.4859 28.6324C61.6816 28.1912 61.6047 27.6745 61.2894 27.3119ZM47.6758 17.2164L42.2942 26.0319L33.6699 17.2164H47.6758ZM39.7249 26.8962H22.2743L30.9996 17.9774L39.7249 26.8962ZM28.3292 17.2165L19.7049 26.0321L14.3234 17.2165H28.3292ZM11.9883 18.0601L17.3825 26.8962H4.30336L11.9883 18.0601ZM4.32371 29.3572H18.6343L28.5199 57.0748L4.32371 29.3572ZM33.5241 57.0234L40.4311 38.0284C40.6628 37.3909 40.3422 36.6832 39.7149 36.4477C39.0873 36.212 38.391 36.5379 38.1594 37.1754L31.0106 56.8355L21.2104 29.3572H57.6754L33.5241 57.0234ZM44.6167 26.8962L50.0108 18.0601L57.6958 26.8962H44.6167Z" fill="#100C52"/>
<path d="M61.2894 27.3119L50.7303 15.1712C50.5005 14.9069 50.17 14.7556 49.823 14.7556H12.1763C11.8292 14.7556 11.4988 14.9069 11.2689 15.1712L0.709784 27.3119C0.394456 27.6745 0.317561 28.1912 0.513249 28.6324C0.586995 28.7988 0.694526 28.9425 0.825307 29.0573C0.82785 29.0601 0.829788 29.0633 0.832331 29.0663L30.0937 62.5861C30.3235 62.8494 30.6532 63 30.9996 63C31.3459 63 31.6756 62.8493 31.9055 62.5861L61.1668 29.0663C61.1694 29.0634 61.1714 29.0602 61.1738 29.0573C61.3045 28.9425 61.412 28.7986 61.4859 28.6324C61.6816 28.1912 61.6047 27.6745 61.2894 27.3119ZM47.6758 17.2164L42.2942 26.0319L33.6699 17.2164H47.6758ZM39.7249 26.8962H22.2743L30.9996 17.9774L39.7249 26.8962ZM28.3292 17.2165L19.7049 26.0321L14.3234 17.2165H28.3292ZM11.9883 18.0601L17.3825 26.8962H4.30336L11.9883 18.0601ZM4.32371 29.3572H18.6343L28.5199 57.0748L4.32371 29.3572ZM33.5241 57.0234L40.4311 38.0284C40.6628 37.3909 40.3422 36.6832 39.7149 36.4477C39.0873 36.212 38.391 36.5379 38.1594 37.1754L31.0106 56.8355L21.2104 29.3572H57.6754L33.5241 57.0234ZM44.6167 26.8962L50.0108 18.0601L57.6958 26.8962H44.6167Z" fill="url(#paint0_linear)"/>
<path d="M31 0C30.3313 0 29.7891 0.550881 29.7891 1.23047V7.56898C29.7891 8.24857 30.3313 8.79945 31 8.79945C31.6687 8.79945 32.2109 8.24857 32.2109 7.56898V1.23047C32.2109 0.550881 31.6687 0 31 0Z" fill="#100C52"/>
<path d="M31 0C30.3313 0 29.7891 0.550881 29.7891 1.23047V7.56898C29.7891 8.24857 30.3313 8.79945 31 8.79945C31.6687 8.79945 32.2109 8.24857 32.2109 7.56898V1.23047C32.2109 0.550881 31.6687 0 31 0Z" fill="url(#paint1_linear)"/>
<path d="M42.0271 4.8633C41.5542 4.38281 40.7877 4.38281 40.3144 4.8633L35.9035 9.34529C35.4306 9.82578 35.4306 10.6049 35.9035 11.0854C36.1401 11.3257 36.45 11.4458 36.7599 11.4458C37.0697 11.4458 37.3796 11.3256 37.6161 11.0854L42.0271 6.60343C42.4999 6.12293 42.4999 5.3438 42.0271 4.8633Z" fill="#100C52"/>
<path d="M42.0271 4.8633C41.5542 4.38281 40.7877 4.38281 40.3144 4.8633L35.9035 9.34529C35.4306 9.82578 35.4306 10.6049 35.9035 11.0854C36.1401 11.3257 36.45 11.4458 36.7599 11.4458C37.0697 11.4458 37.3796 11.3256 37.6161 11.0854L42.0271 6.60343C42.4999 6.12293 42.4999 5.3438 42.0271 4.8633Z" fill="url(#paint2_linear)"/>
<path d="M25.8609 9.34529L21.4501 4.8633C20.9773 4.38281 20.2108 4.38281 19.7375 4.8633C19.2646 5.3438 19.2646 6.12293 19.7375 6.60343L24.1484 11.0854C24.3849 11.3257 24.6948 11.4458 25.0047 11.4458C25.3146 11.4458 25.6244 11.3256 25.8609 11.0854C26.3338 10.6049 26.3338 9.82578 25.8609 9.34529Z" fill="#100C52"/>
<path d="M25.8609 9.34529L21.4501 4.8633C20.9773 4.38281 20.2108 4.38281 19.7375 4.8633C19.2646 5.3438 19.2646 6.12293 19.7375 6.60343L24.1484 11.0854C24.3849 11.3257 24.6948 11.4458 25.0047 11.4458C25.3146 11.4458 25.6244 11.3256 25.8609 11.0854C26.3338 10.6049 26.3338 9.82578 25.8609 9.34529Z" fill="url(#paint3_linear)"/>
<path d="M40.8604 34.2513C41.5291 34.2513 42.0713 33.7004 42.0713 33.0209C42.0713 32.3413 41.5291 31.7904 40.8604 31.7904C40.1916 31.7904 39.6494 32.3413 39.6494 33.0209C39.6494 33.7004 40.1916 34.2513 40.8604 34.2513Z" fill="#100C52"/>
<path d="M40.8604 34.2513C41.5291 34.2513 42.0713 33.7004 42.0713 33.0209C42.0713 32.3413 41.5291 31.7904 40.8604 31.7904C40.1916 31.7904 39.6494 32.3413 39.6494 33.0209C39.6494 33.7004 40.1916 34.2513 40.8604 34.2513Z" fill="url(#paint4_linear)"/>
</g>
<defs>
<linearGradient id="paint0_linear" x1="30.9996" y1="14.7556" x2="30.9996" y2="63" gradientUnits="userSpaceOnUse">
<stop stop-color="#0F0B52"/>
<stop offset="1" stop-color="#100C52"/>
</linearGradient>
<linearGradient id="paint1_linear" x1="31" y1="0" x2="31" y2="8.79945" gradientUnits="userSpaceOnUse">
<stop stop-color="#0F0B52"/>
<stop offset="1" stop-color="#100C52"/>
</linearGradient>
<linearGradient id="paint2_linear" x1="38.9653" y1="4.50293" x2="38.9653" y2="11.4458" gradientUnits="userSpaceOnUse">
<stop stop-color="#0F0B52"/>
<stop offset="1" stop-color="#100C52"/>
</linearGradient>
<linearGradient id="paint3_linear" x1="22.7992" y1="4.50293" x2="22.7992" y2="11.4458" gradientUnits="userSpaceOnUse">
<stop stop-color="#0F0B52"/>
<stop offset="1" stop-color="#100C52"/>
</linearGradient>
<linearGradient id="paint4_linear" x1="40.8604" y1="31.7904" x2="40.8604" y2="34.2513" gradientUnits="userSpaceOnUse">
<stop stop-color="#0F0B52"/>
<stop offset="1" stop-color="#100C52"/>
</linearGradient>
<clipPath id="clip0">
<rect width="62" height="63" fill="white"/>
</clipPath>
</defs>
</svg>
