<svg width="92" height="92" viewBox="0 0 92 92" fill="none" xmlns="http://www.w3.org/2000/svg">
<path d="M92 46C92 20.6362 71.3638 0 46 0C38.0479 0 30.3006 2.05961 23.4318 5.93548H17.8065V0H8.90323V18.8259C3.08645 26.7497 0 36.1278 0 46C0 71.3653 20.6362 92 46 92C51.6521 92 57.1691 90.9836 62.3997 88.9863C65.3853 90.8841 68.9169 92 72.7097 92C77.3364 92 81.8117 90.3366 85.3107 87.3169L83.3713 85.0703C80.411 87.6255 76.6256 89.0323 72.7097 89.0323C63.71 89.0323 56.3871 81.7094 56.3871 72.7097C56.3871 63.71 63.71 56.3871 72.7097 56.3871C81.7094 56.3871 89.0323 63.71 89.0323 72.7097C89.0323 76.4713 87.7888 80.0074 85.4339 82.935L87.7472 84.7958C90.4894 81.3844 92 77.093 92 72.7097C92 68.9139 90.8826 65.3823 88.9833 62.3953C90.9791 57.1632 92 51.6521 92 46ZM23.7419 14.8387H26.7097V17.8065V35.6129H23.7419V14.8387ZM17.8065 8.90323H20.7742V11.871V35.6129H17.8065V8.90323ZM11.871 2.96774H14.8387V5.93548V35.6129H11.871V2.96774ZM44.5161 88.9952C21.9672 88.225 3.77497 70.0328 3.00484 47.4839H44.5161V88.9952ZM44.5161 44.5161H3.0271C3.26897 37.2926 5.27516 30.3897 8.90323 24.2361V38.5806H14.8387H17.8065H20.7742H23.7419H26.7097H29.6774H32.6452H35.6129H41.5484V23.7419H35.6129V17.8065H29.6774V11.871H23.7419V9.18813C30.0202 5.38348 37.1546 3.27194 44.5161 3.01968V44.5161ZM29.6774 35.6129V20.7742H32.6452V23.7419V35.6129H29.6774ZM35.6129 35.6129V26.7097H38.5806V35.6129H35.6129ZM88.9952 44.5161H76.2917L87.2041 33.6037C88.2517 37.0775 88.8661 40.7352 88.9952 44.5161ZM81.5179 21.7387L64.9446 38.3121L67.0428 40.4103L83.1428 24.3103C84.2943 26.2749 85.2929 28.3375 86.1268 30.4846L72.0954 44.5161H62.9369L64.8556 42.5975L62.7574 40.4993L58.7405 44.5161H49.5821L77.4388 16.6594C78.9197 18.2472 80.2863 19.9417 81.5179 21.7387ZM47.4839 3.00484C51.2648 3.13394 54.9225 3.74826 58.3963 4.79587L47.4839 15.7083V3.00484ZM47.4839 33.2595L65.5174 15.226L63.4192 13.1278L47.4839 29.0631V19.9046L61.5154 5.87316C63.6625 6.70561 65.7251 7.70426 67.6897 8.85723L65.2992 11.2477L67.3974 13.3459L70.2613 10.4821C72.0583 11.7137 73.7528 13.0788 75.3406 14.5612L47.4839 42.4179V33.2595ZM72.7097 53.4194C62.0733 53.4194 53.4194 62.0733 53.4194 72.7097C53.4194 78.2905 55.8158 83.309 59.616 86.8346C55.706 88.139 51.6387 88.8587 47.4839 88.9981V47.4839H88.9981C88.8587 51.6372 88.133 55.7015 86.8302 59.6115C83.3045 55.8128 78.2876 53.4194 72.7097 53.4194Z" fill="white"/>
<path d="M36.0537 53.8537L18.2471 71.6603L20.3456 73.7588L38.1522 55.9522L36.0537 53.8537Z" fill="white"/>
<path d="M34.1293 65.2903C31.675 65.2903 29.6777 67.2876 29.6777 69.7419C29.6777 72.1962 31.675 74.1935 34.1293 74.1935C36.5837 74.1935 38.581 72.1962 38.581 69.7419C38.581 67.2876 36.5837 65.2903 34.1293 65.2903ZM34.1293 71.2258C33.3117 71.2258 32.6455 70.561 32.6455 69.7419C32.6455 68.9228 33.3117 68.258 34.1293 68.258C34.947 68.258 35.6132 68.9228 35.6132 69.7419C35.6132 70.561 34.947 71.2258 34.1293 71.2258Z" fill="white"/>
<path d="M22.2583 53.4193C19.8039 53.4193 17.8066 55.4166 17.8066 57.8709C17.8066 60.3252 19.8039 62.3225 22.2583 62.3225C24.7126 62.3225 26.7099 60.3252 26.7099 57.8709C26.7099 55.4166 24.7126 53.4193 22.2583 53.4193ZM22.2583 59.3548C21.4406 59.3548 20.7744 58.69 20.7744 57.8709C20.7744 57.0518 21.4406 56.3871 22.2583 56.3871C23.0759 56.3871 23.7421 57.0518 23.7421 57.8709C23.7421 58.69 23.0759 59.3548 22.2583 59.3548Z" fill="white"/>
<path d="M72.7099 71.2258C71.0732 71.2258 69.7422 69.8948 69.7422 68.2581C69.7422 66.6214 71.0732 65.2903 72.7099 65.2903C74.3466 65.2903 75.6776 66.6214 75.6776 68.2581H78.6454C78.6454 65.4996 76.746 63.1966 74.1938 62.5333V59.3549H71.226V62.5333C68.6738 63.1966 66.7744 65.4996 66.7744 68.2581C66.7744 71.5315 69.4365 74.1936 72.7099 74.1936C74.3466 74.1936 75.6776 75.5246 75.6776 77.1613C75.6776 78.798 74.3466 80.1291 72.7099 80.1291C71.0732 80.1291 69.7422 78.798 69.7422 77.1613H66.7744C66.7744 79.9198 68.6738 82.2228 71.226 82.8861V86.0645H74.1938V82.8861C76.746 82.2228 78.6454 79.9198 78.6454 77.1613C78.6454 73.8879 75.9833 71.2258 72.7099 71.2258Z" fill="white"/>
<path d="M86.0644 71.2258H83.0967V74.1936H86.0644V71.2258Z" fill="white"/>
<path d="M62.3222 71.2258H59.3545V74.1936H62.3222V71.2258Z" fill="white"/>
</svg>
