<svg width="242" height="66" viewBox="0 0 242 66" fill="none" xmlns="http://www.w3.org/2000/svg">
<path d="M27.5214 65.3406V0L3.64085 23.8805C-1.21362 28.735 -1.21362 36.6056 3.64086 41.4601L27.5214 65.3406Z" fill="#5252DD"/>
<path d="M27.5214 65.3406V0L51.4019 23.8805C56.2564 28.735 56.2564 36.6056 51.4019 41.4601L27.5214 65.3406Z" fill="#5252DD"/>
<rect opacity="0.39" x="19.2197" y="42.7104" width="11.7197" height="11.7197" transform="rotate(-45 19.2197 42.7104)" fill="#2F2FA0"/>
<path d="M27.5068 65.4999V49.4038L22.5972 54.2172C20.825 55.9546 20.8109 58.804 22.5658 60.5589L27.5068 65.4999Z" fill="url(#paint0_linear)"/>
<path d="M27.5068 65.4999V49.4038L32.3509 54.248C34.0814 55.9784 34.0952 58.7797 32.382 60.5272L27.5068 65.4999Z" fill="url(#paint1_linear)"/>
<rect x="19.2197" y="8.28711" width="11.7197" height="11.7197" transform="rotate(-45 19.2197 8.28711)" fill="#7DFFEC"/>
<path d="M19.2197 24.5425L27.5068 16.2554L35.7939 24.5425L27.5068 32.8296L19.2197 24.5425Z" fill="#22DDE1"/>
<path d="M10.7734 32.8296L19.2199 24.5425L27.507 32.8296L19.2199 41.1167L10.7734 32.8296Z" fill="#15CEE3"/>
<path d="M10.7735 41.1167L10.7735 32.8296L19.2199 41.1167L10.7735 48.6069L10.7735 41.1167Z" fill="#0CB4E0"/>
<path d="M19.2195 16.5742L19.2195 8.28706L27.3473 16.4148L19.2195 24.5425L19.2195 16.5742Z" fill="#4BEFE3"/>
<path d="M35.7941 16.5742L35.7941 8.28706L27.6664 16.4148L35.7941 24.5425L35.7941 16.5742Z" fill="#4BEFE3"/>
<path d="M44.2402 41.1167L44.2402 32.8296L35.7937 41.1167L44.2402 48.6069L44.2402 41.1167Z" fill="#0CB4E0"/>
<path d="M27.5068 32.8296L35.7939 24.5425L44.2404 32.8296L35.7939 41.1167L27.5068 32.8296Z" fill="#15CEE3"/>
<rect x="19.2197" y="41.1167" width="11.7197" height="11.7197" transform="rotate(-45 19.2197 41.1167)" fill="#0CB4E0"/>
<path d="M79.5823 43.8778C78.3568 43.8778 77.1411 43.7578 75.9353 43.5177C74.7493 43.2976 73.7709 42.9975 73 42.6174V39.3462C73.9883 39.8264 75.0261 40.1865 76.1132 40.4266C77.2004 40.6667 78.2678 40.7867 79.3154 40.7867C80.6398 40.7867 81.6479 40.5366 82.3397 40.0364C83.0316 39.5363 83.3775 38.846 83.3775 37.9657C83.3775 37.3455 83.2194 36.8353 82.9031 36.4352C82.5868 36.015 82.1223 35.6549 81.5095 35.3548C80.8968 35.0347 79.9579 34.6245 78.6928 34.1243C76.7557 33.324 75.3522 32.4337 74.4825 31.4534C73.6128 30.473 73.1779 29.2526 73.1779 27.7921C73.1779 26.6517 73.4843 25.6413 74.097 24.761C74.7098 23.8807 75.5697 23.2004 76.6766 22.7203C77.7835 22.2401 79.0585 22 80.5014 22C81.6874 22 82.7351 22.1 83.6443 22.3001C84.5734 22.4802 85.4826 22.7703 86.3721 23.1704V26.3516C84.6524 25.5113 82.913 25.0911 81.1537 25.0911C79.8887 25.0911 78.9102 25.3312 78.2184 25.8114C77.5266 26.2715 77.1806 26.9318 77.1806 27.7921C77.1806 28.4123 77.3388 28.9225 77.655 29.3226C77.9713 29.7028 78.3864 30.0329 78.9003 30.313C79.434 30.5731 80.3828 30.9932 81.7467 31.5734C83.1304 32.1536 84.2176 32.7238 85.0082 33.284C85.8187 33.8442 86.4216 34.5045 86.8169 35.2647C87.232 36.005 87.4395 36.9153 87.4395 37.9957C87.4395 39.8564 86.7774 41.3069 85.453 42.3473C84.1286 43.3676 82.1717 43.8778 79.5823 43.8778Z" fill="white"/>
<path d="M90.4159 29.0225H94.0332V30.7631C94.8041 30.0229 95.6442 29.4727 96.5534 29.1125C97.4627 28.7524 98.5004 28.5723 99.6667 28.5723C101.11 28.5723 102.394 28.8925 103.521 29.5327C104.668 30.1529 105.557 31.0432 106.19 32.2036C106.842 33.3441 107.168 34.6745 107.168 36.1951C107.168 37.6956 106.842 39.0261 106.19 40.1865C105.557 41.3469 104.668 42.2572 103.521 42.9175C102.394 43.5577 101.11 43.8778 99.6667 43.8778C98.5795 43.8778 97.5516 43.7278 96.5831 43.4277C95.6343 43.1075 94.8239 42.6374 94.1518 42.0172V50H90.4159V29.0225ZM98.7475 40.9068C100.092 40.9068 101.199 40.4666 102.068 39.5863C102.938 38.706 103.373 37.5756 103.373 36.1951C103.373 34.8146 102.938 33.6942 102.068 32.8339C101.199 31.9736 100.092 31.5434 98.7475 31.5434C97.6801 31.5434 96.7313 31.8335 95.9011 32.4137C95.0709 32.9939 94.4878 33.7742 94.1518 34.7546V37.6656C94.4681 38.6459 95.0413 39.4362 95.8715 40.0364C96.7214 40.6166 97.6801 40.9068 98.7475 40.9068Z" fill="white"/>
<path d="M114.6 43.8778C112.9 43.8778 111.506 43.4277 110.419 42.5273C109.332 41.607 108.788 40.3766 108.788 38.836C108.788 37.2354 109.302 35.985 110.33 35.0847C111.358 34.1844 112.801 33.7342 114.659 33.7342C116.458 33.7342 118.01 34.1043 119.314 34.8446V34.4544C119.314 33.4341 118.998 32.6938 118.365 32.2337C117.753 31.7735 116.754 31.5434 115.371 31.5434C114.501 31.5434 113.641 31.6334 112.791 31.8135C111.941 31.9736 111.19 32.2036 110.538 32.5038V29.5327C111.131 29.2526 111.921 29.0225 112.91 28.8424C113.918 28.6624 114.886 28.5723 115.815 28.5723C118.286 28.5723 120.115 29.1125 121.301 30.1929C122.487 31.2533 123.08 32.7338 123.08 34.6345V43.4277H119.551V42.0172C118.939 42.6174 118.237 43.0775 117.446 43.3976C116.675 43.7178 115.727 43.8778 114.6 43.8778ZM115.519 41.1168C116.349 41.1168 117.1 40.9568 117.772 40.6367C118.444 40.2965 118.958 39.8364 119.314 39.2562V37.6656C118.227 36.8853 116.982 36.4952 115.578 36.4952C113.582 36.4952 112.584 37.2755 112.584 38.836C112.584 39.5963 112.831 40.1665 113.325 40.5466C113.839 40.9268 114.57 41.1168 115.519 41.1168Z" fill="white"/>
<path d="M133.653 43.8778C131.993 43.8778 130.53 43.5777 129.265 42.9775C128.02 42.3773 127.051 41.507 126.36 40.3666C125.668 39.2262 125.322 37.8557 125.322 36.2551C125.322 34.6545 125.668 33.284 126.36 32.1436C127.071 30.9832 128.05 30.1029 129.295 29.5027C130.56 28.8825 132.033 28.5723 133.713 28.5723C135.927 28.5723 137.696 29.0125 139.02 29.8928V32.9239C137.735 32.0036 136.095 31.5434 134.098 31.5434C132.576 31.5434 131.361 31.9335 130.451 32.7138C129.562 33.4741 129.117 34.6545 129.117 36.2551C129.117 37.8357 129.562 39.0061 130.451 39.7663C131.361 40.5266 132.556 40.9068 134.039 40.9068C136.035 40.9068 137.755 40.4266 139.198 39.4662V42.4673C138.486 42.9475 137.676 43.2976 136.767 43.5177C135.877 43.7578 134.839 43.8778 133.653 43.8778Z" fill="white"/>
<path d="M150.164 43.8778C147.515 43.8778 145.42 43.2076 143.878 41.8671C142.336 40.5266 141.566 38.6559 141.566 36.2551C141.566 33.8942 142.248 32.0236 143.611 30.6431C144.975 29.2626 146.922 28.5723 149.452 28.5723C151.113 28.5723 152.526 28.8925 153.692 29.5327C154.878 30.1729 155.768 31.0532 156.361 32.1736C156.954 33.274 157.25 34.5345 157.25 35.955V37.6956H145.124C145.381 39.8364 147.219 40.9068 150.638 40.9068C151.548 40.9068 152.477 40.8267 153.426 40.6667C154.374 40.5066 155.205 40.2865 155.916 40.0064V42.9175C155.244 43.1976 154.374 43.4277 153.307 43.6077C152.259 43.7878 151.212 43.8778 150.164 43.8778ZM153.722 35.1147C153.683 33.9743 153.277 33.094 152.506 32.4737C151.755 31.8535 150.718 31.5434 149.393 31.5434C148.089 31.5434 147.061 31.8635 146.31 32.5038C145.558 33.144 145.163 34.0143 145.124 35.1147H153.722Z" fill="white"/>
<path d="M160.227 22.4502H163.992V43.4277H160.227V22.4502Z" fill="white"/>
<path d="M167.552 29.0225H171.169V30.9732C171.842 30.1529 172.642 29.5527 173.571 29.1726C174.5 28.7724 175.479 28.5723 176.506 28.5723C178.424 28.5723 179.857 29.1025 180.806 30.1629C181.754 31.2033 182.229 32.5938 182.229 34.3344V43.4277H178.493V34.6945C178.493 32.5938 177.524 31.5434 175.587 31.5434C174.737 31.5434 173.937 31.7535 173.186 32.1736C172.435 32.5738 171.802 33.184 171.288 34.0043V43.4277H167.552V29.0225Z" fill="white"/>
<path d="M183.724 29.0225H187.49L191.344 38.9861L195.199 29.0225H198.964L193.094 43.4277H189.595L183.724 29.0225Z" fill="white"/>
<path d="M208.74 43.8778C206.091 43.8778 203.996 43.2076 202.454 41.8671C200.913 40.5266 200.142 38.6559 200.142 36.2551C200.142 33.8942 200.824 32.0236 202.188 30.6431C203.551 29.2626 205.498 28.5723 208.029 28.5723C209.689 28.5723 211.102 28.8925 212.268 29.5327C213.454 30.1729 214.344 31.0532 214.937 32.1736C215.53 33.274 215.826 34.5345 215.826 35.955V37.6956H203.7C203.957 39.8364 205.795 40.9068 209.215 40.9068C210.124 40.9068 211.053 40.8267 212.002 40.6667C212.95 40.5066 213.781 40.2865 214.492 40.0064V42.9175C213.82 43.1976 212.95 43.4277 211.883 43.6077C210.835 43.7878 209.788 43.8778 208.74 43.8778ZM212.298 35.1147C212.259 33.9743 211.853 33.094 211.082 32.4737C210.331 31.8535 209.294 31.5434 207.969 31.5434C206.665 31.5434 205.637 31.8635 204.886 32.5038C204.135 33.144 203.739 34.0143 203.7 35.1147H212.298Z" fill="white"/>
<path d="M224.347 43.8778C223.319 43.8778 222.222 43.7578 221.056 43.5177C219.89 43.2776 218.981 42.9475 218.328 42.5273V39.3162C219.099 39.7964 220.018 40.1865 221.086 40.4866C222.153 40.7667 223.161 40.9068 224.11 40.9068C225.059 40.9068 225.751 40.8267 226.185 40.6667C226.62 40.4866 226.838 40.1665 226.838 39.7063C226.838 39.3462 226.719 39.0561 226.482 38.836C226.265 38.5959 225.899 38.3859 225.385 38.2058C224.891 38.0057 224.12 37.7656 223.072 37.4855C221.886 37.1454 220.947 36.7953 220.255 36.4352C219.583 36.075 219.069 35.6249 218.714 35.0847C218.378 34.5245 218.21 33.8042 218.21 32.9239C218.21 31.4834 218.773 30.403 219.9 29.6827C221.026 28.9425 222.548 28.5723 224.466 28.5723C225.454 28.5723 226.433 28.6724 227.401 28.8725C228.389 29.0525 229.16 29.3126 229.714 29.6527V32.7438C229.121 32.3837 228.399 32.0936 227.549 31.8735C226.699 31.6534 225.83 31.5434 224.94 31.5434C223.972 31.5434 223.24 31.6434 222.746 31.8435C222.252 32.0236 222.005 32.3837 222.005 32.9239C222.005 33.284 222.133 33.5741 222.39 33.7942C222.667 33.9943 223.023 34.1743 223.458 34.3344C223.893 34.4745 224.683 34.6945 225.83 34.9946C227.055 35.3348 228.014 35.7049 228.706 36.105C229.398 36.5052 229.892 36.9854 230.188 37.5456C230.485 38.1058 230.633 38.806 230.633 39.6463C230.633 40.9268 230.089 41.9571 229.002 42.7374C227.935 43.4977 226.383 43.8778 224.347 43.8778Z" fill="white"/>
<path d="M238.887 43.8778C237.325 43.8778 236.139 43.4377 235.329 42.5573C234.518 41.677 234.113 40.4366 234.113 38.836V31.9035H231.978V29.0225H234.113V24.701H237.849V29.0225H241.259V31.9035H237.849V38.3558C237.849 39.2762 238.017 39.9364 238.353 40.3365C238.689 40.7167 239.302 40.9068 240.191 40.9068C240.804 40.9068 241.407 40.7667 242 40.4866V43.3676C241.15 43.7078 240.112 43.8778 238.887 43.8778Z" fill="white"/>
<defs>
<linearGradient id="paint0_linear" x1="27.4583" y1="49.4038" x2="27.4583" y2="65.4999" gradientUnits="userSpaceOnUse">
<stop stop-color="#EA9D57"/>
<stop offset="0.567708" stop-color="#FF8642"/>
<stop offset="1" stop-color="#FF7DD8"/>
</linearGradient>
<linearGradient id="paint1_linear" x1="27.4583" y1="49.4038" x2="27.4583" y2="65.4999" gradientUnits="userSpaceOnUse">
<stop stop-color="#EA9D57"/>
<stop offset="0.567708" stop-color="#FF8642"/>
<stop offset="1" stop-color="#FF7DD8"/>
</linearGradient>
</defs>
</svg>
