<svg width="68" height="69" viewBox="0 0 68 69" fill="none" xmlns="http://www.w3.org/2000/svg">
<g clip-path="url(#clip0)">
<path d="M67.1741 43.8326C66.931 43.5864 66.5937 43.4452 66.2498 43.4452C65.906 43.4452 65.5686 43.5865 65.3255 43.8326C65.0823 44.0786 64.9424 44.4196 64.9424 44.7673C64.9424 45.115 65.0821 45.4562 65.3255 45.7019C65.5686 45.9479 65.906 46.0895 66.2498 46.0895C66.5937 46.0895 66.931 45.948 67.1741 45.7019C67.4174 45.456 67.5573 45.115 67.5573 44.7673C67.5573 44.4196 67.4174 44.0784 67.1741 43.8326Z" fill="#100C52"/>
<path d="M67.1741 43.8326C66.931 43.5864 66.5937 43.4452 66.2498 43.4452C65.906 43.4452 65.5686 43.5865 65.3255 43.8326C65.0823 44.0786 64.9424 44.4196 64.9424 44.7673C64.9424 45.115 65.0821 45.4562 65.3255 45.7019C65.5686 45.9479 65.906 46.0895 66.2498 46.0895C66.5937 46.0895 66.931 45.948 67.1741 45.7019C67.4174 45.456 67.5573 45.115 67.5573 44.7673C67.5573 44.4196 67.4174 44.0784 67.1741 43.8326Z" fill="url(#paint0_linear)"/>
<path d="M66.2498 48.8659C65.5278 48.8659 64.9423 49.458 64.9423 50.188V59.3066C64.9423 61.4937 63.1828 63.273 61.02 63.273H7.15342C5.07864 63.273 3.37596 61.6352 3.24077 59.5711H20.5329C21.2548 59.5711 21.8403 58.979 21.8403 58.2489C21.8403 57.5189 21.2548 56.9268 20.5329 56.9268H3.23109V35.4656C4.40871 36.4119 5.89697 36.9794 7.51467 36.9794H11.9192V39.1462C11.9192 42.1352 14.324 44.567 17.2797 44.567H17.6591C20.6148 44.567 23.0196 42.1352 23.0196 39.1462V36.9794H45.1537V39.1462C45.1537 42.1352 47.5585 44.567 50.5142 44.567H50.8936C53.8494 44.567 56.2541 42.1352 56.2541 39.1462V36.9794H60.6586C62.2763 36.9794 63.7645 36.4119 64.9422 35.4656V39.6218C64.9422 40.3519 65.5277 40.944 66.2497 40.944C66.9716 40.944 67.5571 40.3519 67.5571 39.6218V22.0224C67.5572 18.3771 64.6246 15.4117 61.02 15.4117H49.0117V10.3942C49.0117 6.60422 45.9626 3.52087 42.2147 3.52087H25.9587C22.2108 3.52087 19.1617 6.60422 19.1617 10.3942V15.4117H7.15342C3.5488 15.4117 0.616211 18.3773 0.616211 22.0224V59.3065C0.616211 62.9516 3.5488 65.9172 7.15342 65.9172H61.02C64.6246 65.9172 67.5572 62.9516 67.5572 59.3065V50.188C67.5572 49.4578 66.9718 48.8659 66.2498 48.8659ZM20.4049 39.1461C20.4049 40.677 19.1731 41.9226 17.6592 41.9226H17.2798C15.7659 41.9226 14.5342 40.677 14.5342 39.1461V34.3182H20.4049V39.1461ZM53.6394 39.1461C53.6394 40.677 52.4076 41.9226 50.8938 41.9226H50.5143C49.0004 41.9226 47.7687 40.677 47.7687 39.1461V34.3182H53.6394V39.1461ZM21.7766 10.3942C21.7766 8.06227 23.6528 6.16514 25.9587 6.16514H42.2147C44.5208 6.16514 46.3968 8.0624 46.3968 10.3942V15.4117H43.7819V10.1315C43.7819 9.40145 43.1964 8.8094 42.4745 8.8094H25.699C24.977 8.8094 24.3915 9.40145 24.3915 10.1315V15.4119H21.7766V10.3942ZM41.1672 11.4537V15.4119H27.0064V11.4537H41.1672ZM3.23109 22.0224C3.23109 19.8353 4.99065 18.056 7.15342 18.056H61.02C63.1828 18.056 64.9423 19.8353 64.9423 22.0224V30.0033C64.9423 32.3917 63.0208 34.335 60.6588 34.335H56.2543V33.3927C56.2543 32.445 55.4918 31.674 54.5546 31.674H46.8535C45.9163 31.674 45.1538 32.445 45.1538 33.3927V34.335H23.0197V33.3927C23.0197 32.445 22.2572 31.674 21.3201 31.674H13.6188C12.6817 31.674 11.9192 32.445 11.9192 33.3927V34.335H7.51467C5.15264 34.3351 3.23109 32.3919 3.23109 30.0034V22.0224Z" fill="#100C52"/>
<path d="M66.2498 48.8659C65.5278 48.8659 64.9423 49.458 64.9423 50.188V59.3066C64.9423 61.4937 63.1828 63.273 61.02 63.273H7.15342C5.07864 63.273 3.37596 61.6352 3.24077 59.5711H20.5329C21.2548 59.5711 21.8403 58.979 21.8403 58.2489C21.8403 57.5189 21.2548 56.9268 20.5329 56.9268H3.23109V35.4656C4.40871 36.4119 5.89697 36.9794 7.51467 36.9794H11.9192V39.1462C11.9192 42.1352 14.324 44.567 17.2797 44.567H17.6591C20.6148 44.567 23.0196 42.1352 23.0196 39.1462V36.9794H45.1537V39.1462C45.1537 42.1352 47.5585 44.567 50.5142 44.567H50.8936C53.8494 44.567 56.2541 42.1352 56.2541 39.1462V36.9794H60.6586C62.2763 36.9794 63.7645 36.4119 64.9422 35.4656V39.6218C64.9422 40.3519 65.5277 40.944 66.2497 40.944C66.9716 40.944 67.5571 40.3519 67.5571 39.6218V22.0224C67.5572 18.3771 64.6246 15.4117 61.02 15.4117H49.0117V10.3942C49.0117 6.60422 45.9626 3.52087 42.2147 3.52087H25.9587C22.2108 3.52087 19.1617 6.60422 19.1617 10.3942V15.4117H7.15342C3.5488 15.4117 0.616211 18.3773 0.616211 22.0224V59.3065C0.616211 62.9516 3.5488 65.9172 7.15342 65.9172H61.02C64.6246 65.9172 67.5572 62.9516 67.5572 59.3065V50.188C67.5572 49.4578 66.9718 48.8659 66.2498 48.8659ZM20.4049 39.1461C20.4049 40.677 19.1731 41.9226 17.6592 41.9226H17.2798C15.7659 41.9226 14.5342 40.677 14.5342 39.1461V34.3182H20.4049V39.1461ZM53.6394 39.1461C53.6394 40.677 52.4076 41.9226 50.8938 41.9226H50.5143C49.0004 41.9226 47.7687 40.677 47.7687 39.1461V34.3182H53.6394V39.1461ZM21.7766 10.3942C21.7766 8.06227 23.6528 6.16514 25.9587 6.16514H42.2147C44.5208 6.16514 46.3968 8.0624 46.3968 10.3942V15.4117H43.7819V10.1315C43.7819 9.40145 43.1964 8.8094 42.4745 8.8094H25.699C24.977 8.8094 24.3915 9.40145 24.3915 10.1315V15.4119H21.7766V10.3942ZM41.1672 11.4537V15.4119H27.0064V11.4537H41.1672ZM3.23109 22.0224C3.23109 19.8353 4.99065 18.056 7.15342 18.056H61.02C63.1828 18.056 64.9423 19.8353 64.9423 22.0224V30.0033C64.9423 32.3917 63.0208 34.335 60.6588 34.335H56.2543V33.3927C56.2543 32.445 55.4918 31.674 54.5546 31.674H46.8535C45.9163 31.674 45.1538 32.445 45.1538 33.3927V34.335H23.0197V33.3927C23.0197 32.445 22.2572 31.674 21.3201 31.674H13.6188C12.6817 31.674 11.9192 32.445 11.9192 33.3927V34.335H7.51467C5.15264 34.3351 3.23109 32.3919 3.23109 30.0034V22.0224Z" fill="url(#paint1_linear)"/>
<path d="M25.6965 56.9269H25.6756C24.9536 56.9269 24.3682 57.5189 24.3682 58.249C24.3682 58.9791 24.9536 59.5711 25.6756 59.5711H25.6965C26.4185 59.5711 27.004 58.9791 27.004 58.249C27.004 57.5188 26.4185 56.9269 25.6965 56.9269Z" fill="#100C52"/>
<path d="M25.6965 56.9269H25.6756C24.9536 56.9269 24.3682 57.5189 24.3682 58.249C24.3682 58.9791 24.9536 59.5711 25.6756 59.5711H25.6965C26.4185 59.5711 27.004 58.9791 27.004 58.249C27.004 57.5188 26.4185 56.9269 25.6965 56.9269Z" fill="url(#paint2_linear)"/>
</g>
<defs>
<linearGradient id="paint0_linear" x1="66.2498" y1="43.4452" x2="66.2498" y2="46.0895" gradientUnits="userSpaceOnUse">
<stop stop-color="#0F0B52"/>
<stop offset="1" stop-color="#100C52"/>
</linearGradient>
<linearGradient id="paint1_linear" x1="34.0867" y1="3.52087" x2="34.0867" y2="65.9172" gradientUnits="userSpaceOnUse">
<stop stop-color="#0F0B52"/>
<stop offset="1" stop-color="#100C52"/>
</linearGradient>
<linearGradient id="paint2_linear" x1="25.6861" y1="56.9269" x2="25.6861" y2="59.5711" gradientUnits="userSpaceOnUse">
<stop stop-color="#0F0B52"/>
<stop offset="1" stop-color="#100C52"/>
</linearGradient>
<clipPath id="clip0">
<rect width="66.941" height="67.6932" fill="white" transform="translate(0.616211 0.872559)"/>
</clipPath>
</defs>
</svg>
