<svg width="29" height="45" viewBox="0 0 29 45" fill="none" xmlns="http://www.w3.org/2000/svg">
<path d="M19.4505 38.6067C19.4505 40.1987 18.8921 41.552 17.7753 42.6664C16.6585 43.741 15.2824 44.2783 13.6471 44.2783C12.8494 44.2783 12.0915 44.139 11.3736 43.8604C10.6955 43.5818 10.0773 43.1838 9.51888 42.6664C9.00036 42.149 8.58156 41.552 8.26247 40.8753C7.94338 40.1987 7.78384 39.4624 7.78384 38.6664C7.78384 37.9102 7.92344 37.1937 8.20264 36.5171C8.52173 35.8007 8.94053 35.1838 9.45905 34.6664C10.0175 34.149 10.6556 33.751 11.3736 33.4724C12.0915 33.1539 12.8494 32.9947 13.6471 32.9947C14.4448 32.9947 15.1827 33.1539 15.8608 33.4724C16.5787 33.751 17.1969 34.149 17.7155 34.6664C18.2739 35.144 18.6927 35.741 18.9719 36.4574C19.291 37.134 19.4505 37.8505 19.4505 38.6067ZM9.27956 11.3828C8.64139 12.5768 7.96333 13.4127 7.24538 13.8903C6.52743 14.3281 5.70976 14.547 4.79239 14.547C3.43626 14.547 2.31945 14.1291 1.44196 13.2932C0.60435 12.4176 0.185547 11.3231 0.185547 10.0097C0.185547 9.69126 0.225433 9.25345 0.305205 8.69623C0.384977 8.13902 0.644236 7.5221 1.08298 6.84549C2.39922 4.69623 4.19409 3.06439 6.4676 1.94996C8.7411 0.835534 11.2739 0.27832 14.0659 0.27832C15.8608 0.27832 17.5958 0.517127 19.271 0.99474C20.9861 1.43255 22.5018 2.14897 23.818 3.14399C25.1343 4.09922 26.1912 5.33305 26.989 6.84549C27.7867 8.35792 28.1855 10.149 28.1855 12.2186C28.1855 13.5321 28.026 14.6863 27.7069 15.6813C27.3878 16.6763 26.9291 17.5918 26.3309 18.4276C25.7724 19.2634 25.0744 20.0594 24.2368 20.8156C23.4391 21.5321 22.5217 22.2883 21.4847 23.0843C20.5673 23.8405 19.9092 24.4773 19.5103 24.9947C19.1115 25.4724 18.7525 26.1689 18.4334 27.0843C17.875 28.7559 17.1371 29.8306 16.2197 30.3082C15.3024 30.746 14.4448 30.9649 13.6471 30.9649C13.2482 30.9649 12.7696 30.9052 12.2112 30.7858C11.6927 30.6266 11.1941 30.3878 10.7155 30.0694C10.2368 29.7112 9.81803 29.2335 9.45905 28.6365C9.13996 28.0395 8.98042 27.2634 8.98042 26.3082C8.98042 25.0345 9.37928 23.8405 10.177 22.7261C11.0146 21.6117 12.1713 20.3579 13.6471 18.9649L15.6214 17.1141C16.3793 16.4375 16.9776 15.8007 17.4163 15.2037C17.8551 14.5669 18.0744 13.7908 18.0744 12.8753C18.0744 11.6017 17.6756 10.5868 16.8779 9.83056C16.12 9.07434 15.063 8.69623 13.7069 8.69623C12.6699 8.69623 11.7724 8.93504 11.0146 9.41265C10.2967 9.89026 9.71831 10.547 9.27956 11.3828Z" fill="url(#paint0_linear)"/>
<defs>
<linearGradient id="paint0_linear" x1="14.1855" y1="0.27832" x2="14.1855" y2="44.2783" gradientUnits="userSpaceOnUse">
<stop stop-color="#A23AFF"/>
<stop offset="1" stop-color="#5C39FF"/>
</linearGradient>
</defs>
</svg>
