<svg width="133" height="133" viewBox="0 0 133 133" fill="none" xmlns="http://www.w3.org/2000/svg">
<path d="M20.8007 60.5591H35.7177C36.3197 60.5585 36.8969 60.3191 37.3227 59.8935C37.7485 59.4679 37.988 58.8908 37.9888 58.2888V53.2457C37.9888 52.8323 37.8246 52.4359 37.5323 52.1436C37.2401 51.8513 36.8436 51.6871 36.4303 51.6871C36.0169 51.6871 35.6205 51.8513 35.3282 52.1436C35.0359 52.4359 34.8717 52.8323 34.8717 53.2457V57.4419H21.6467V44.238H28.2591C28.6724 44.238 29.0689 44.0738 29.3612 43.7815C29.6534 43.4892 29.8177 43.0928 29.8177 42.6794C29.8177 42.2661 29.6534 41.8696 29.3612 41.5773C29.0689 41.2851 28.6724 41.1208 28.2591 41.1208H20.8007C20.1986 41.1214 19.6214 41.3607 19.1956 41.7864C18.7698 42.212 18.5303 42.7892 18.5295 43.3912V58.2888C18.5304 58.8908 18.7699 59.4679 19.1957 59.8935C19.6215 60.3191 20.1987 60.5585 20.8007 60.5591Z" fill="#0F0B52"/>
<path d="M20.8007 60.5591H35.7177C36.3197 60.5585 36.8969 60.3191 37.3227 59.8935C37.7485 59.4679 37.988 58.8908 37.9888 58.2888V53.2457C37.9888 52.8323 37.8246 52.4359 37.5323 52.1436C37.2401 51.8513 36.8436 51.6871 36.4303 51.6871C36.0169 51.6871 35.6205 51.8513 35.3282 52.1436C35.0359 52.4359 34.8717 52.8323 34.8717 53.2457V57.4419H21.6467V44.238H28.2591C28.6724 44.238 29.0689 44.0738 29.3612 43.7815C29.6534 43.4892 29.8177 43.0928 29.8177 42.6794C29.8177 42.2661 29.6534 41.8696 29.3612 41.5773C29.0689 41.2851 28.6724 41.1208 28.2591 41.1208H20.8007C20.1986 41.1214 19.6214 41.3607 19.1956 41.7864C18.7698 42.212 18.5303 42.7892 18.5295 43.3912V58.2888C18.5304 58.8908 18.7699 59.4679 19.1957 59.8935C19.6215 60.3191 20.1987 60.5585 20.8007 60.5591Z" fill="url(#paint0_linear)"/>
<path d="M39.2767 40.2463C39.1194 40.1154 38.9378 40.0167 38.7424 39.956C38.5469 39.8952 38.3414 39.8736 38.1376 39.8922C37.9338 39.9109 37.7356 39.9695 37.5544 40.0648C37.3733 40.16 37.2126 40.2901 37.0817 40.4474L29.6467 49.3815L27.261 47.4512C27.1022 47.3196 26.9188 47.2209 26.7216 47.1607C26.5243 47.1005 26.3171 47.0801 26.1118 47.1005C25.9066 47.121 25.7075 47.1821 25.526 47.2801C25.3446 47.3781 25.1844 47.5111 25.0547 47.6715C24.925 47.8319 24.8285 48.0164 24.7707 48.2144C24.7128 48.4124 24.6949 48.6198 24.7178 48.8248C24.7407 49.0298 24.8041 49.2281 24.9043 49.4084C25.0045 49.5887 25.1394 49.7473 25.3014 49.8751L28.1692 52.1953C28.6404 52.5829 29.2384 52.7825 29.848 52.7555C30.4576 52.7286 31.0356 52.477 31.4708 52.0493L31.5334 51.9893L39.4781 42.4419C39.6091 42.2845 39.7078 42.1029 39.7685 41.9074C39.8293 41.7118 39.851 41.5063 39.8323 41.3024C39.8136 41.0985 39.7549 40.9003 39.6596 40.7191C39.5643 40.5379 39.4342 40.3772 39.2767 40.2463Z" fill="#0F0B52"/>
<path d="M39.2767 40.2463C39.1194 40.1154 38.9378 40.0167 38.7424 39.956C38.5469 39.8952 38.3414 39.8736 38.1376 39.8922C37.9338 39.9109 37.7356 39.9695 37.5544 40.0648C37.3733 40.16 37.2126 40.2901 37.0817 40.4474L29.6467 49.3815L27.261 47.4512C27.1022 47.3196 26.9188 47.2209 26.7216 47.1607C26.5243 47.1005 26.3171 47.0801 26.1118 47.1005C25.9066 47.121 25.7075 47.1821 25.526 47.2801C25.3446 47.3781 25.1844 47.5111 25.0547 47.6715C24.925 47.8319 24.8285 48.0164 24.7707 48.2144C24.7128 48.4124 24.6949 48.6198 24.7178 48.8248C24.7407 49.0298 24.8041 49.2281 24.9043 49.4084C25.0045 49.5887 25.1394 49.7473 25.3014 49.8751L28.1692 52.1953C28.6404 52.5829 29.2384 52.7825 29.848 52.7555C30.4576 52.7286 31.0356 52.477 31.4708 52.0493L31.5334 51.9893L39.4781 42.4419C39.6091 42.2845 39.7078 42.1029 39.7685 41.9074C39.8293 41.7118 39.851 41.5063 39.8323 41.3024C39.8136 41.0985 39.7549 40.9003 39.6596 40.7191C39.5643 40.5379 39.4342 40.3772 39.2767 40.2463Z" fill="url(#paint1_linear)"/>
<path d="M114.842 42.2073H54.0247C53.6113 42.2073 53.2149 42.3715 52.9226 42.6638C52.6303 42.9561 52.4661 43.3525 52.4661 43.7659C52.4661 44.1792 52.6303 44.5757 52.9226 44.868C53.2149 45.1603 53.6113 45.3245 54.0247 45.3245H114.842C115.256 45.3245 115.652 45.1603 115.944 44.868C116.237 44.5757 116.401 44.1792 116.401 43.7659C116.401 43.3525 116.237 42.9561 115.944 42.6638C115.652 42.3715 115.256 42.2073 114.842 42.2073Z" fill="#0F0B52"/>
<path d="M114.842 42.2073H54.0247C53.6113 42.2073 53.2149 42.3715 52.9226 42.6638C52.6303 42.9561 52.4661 43.3525 52.4661 43.7659C52.4661 44.1792 52.6303 44.5757 52.9226 44.868C53.2149 45.1603 53.6113 45.3245 54.0247 45.3245H114.842C115.256 45.3245 115.652 45.1603 115.944 44.868C116.237 44.5757 116.401 44.1792 116.401 43.7659C116.401 43.3525 116.237 42.9561 115.944 42.6638C115.652 42.3715 115.256 42.2073 114.842 42.2073Z" fill="url(#paint2_linear)"/>
<path d="M114.842 55.1206H54.0247C53.6113 55.1206 53.2149 55.2848 52.9226 55.5771C52.6303 55.8694 52.4661 56.2658 52.4661 56.6792C52.4661 57.0926 52.6303 57.489 52.9226 57.7813C53.2149 58.0736 53.6113 58.2378 54.0247 58.2378H114.842C115.256 58.2378 115.652 58.0736 115.944 57.7813C116.237 57.489 116.401 57.0926 116.401 56.6792C116.401 56.2658 116.237 55.8694 115.944 55.5771C115.652 55.2848 115.256 55.1206 114.842 55.1206Z" fill="#0F0B52"/>
<path d="M114.842 55.1206H54.0247C53.6113 55.1206 53.2149 55.2848 52.9226 55.5771C52.6303 55.8694 52.4661 56.2658 52.4661 56.6792C52.4661 57.0926 52.6303 57.489 52.9226 57.7813C53.2149 58.0736 53.6113 58.2378 54.0247 58.2378H114.842C115.256 58.2378 115.652 58.0736 115.944 57.7813C116.237 57.489 116.401 57.0926 116.401 56.6792C116.401 56.2658 116.237 55.8694 115.944 55.5771C115.652 55.2848 115.256 55.1206 114.842 55.1206Z" fill="url(#paint3_linear)"/>
<path d="M36.4303 84.721C36.0169 84.721 35.6205 84.8852 35.3282 85.1775C35.0359 85.4698 34.8717 85.8662 34.8717 86.2796V90.4764H21.6467V77.272H28.2591C28.6724 77.272 29.0689 77.1078 29.3612 76.8155C29.6534 76.5232 29.8177 76.1267 29.8177 75.7134C29.8177 75.3 29.6534 74.9036 29.3612 74.6113C29.0689 74.319 28.6724 74.1548 28.2591 74.1548H20.8007C20.1987 74.1554 19.6215 74.3948 19.1957 74.8204C18.7699 75.246 18.5304 75.8231 18.5295 76.4251V91.3227C18.5303 91.9248 18.7698 92.5019 19.1956 92.9276C19.6214 93.3533 20.1986 93.5927 20.8007 93.5933H35.7177C36.3198 93.5927 36.897 93.3533 37.3228 92.9276C37.7486 92.5019 37.9881 91.9248 37.9888 91.3227V86.2796C37.9888 85.8662 37.8246 85.4698 37.5323 85.1775C37.2401 84.8852 36.8436 84.721 36.4303 84.721Z" fill="#0F0B52"/>
<path d="M36.4303 84.721C36.0169 84.721 35.6205 84.8852 35.3282 85.1775C35.0359 85.4698 34.8717 85.8662 34.8717 86.2796V90.4764H21.6467V77.272H28.2591C28.6724 77.272 29.0689 77.1078 29.3612 76.8155C29.6534 76.5232 29.8177 76.1267 29.8177 75.7134C29.8177 75.3 29.6534 74.9036 29.3612 74.6113C29.0689 74.319 28.6724 74.1548 28.2591 74.1548H20.8007C20.1987 74.1554 19.6215 74.3948 19.1957 74.8204C18.7699 75.246 18.5304 75.8231 18.5295 76.4251V91.3227C18.5303 91.9248 18.7698 92.5019 19.1956 92.9276C19.6214 93.3533 20.1986 93.5927 20.8007 93.5933H35.7177C36.3198 93.5927 36.897 93.3533 37.3228 92.9276C37.7486 92.5019 37.9881 91.9248 37.9888 91.3227V86.2796C37.9888 85.8662 37.8246 85.4698 37.5323 85.1775C37.2401 84.8852 36.8436 84.721 36.4303 84.721Z" fill="url(#paint4_linear)"/>
<path d="M39.2767 73.2798C39.1193 73.1489 38.9377 73.0502 38.7423 72.9895C38.5468 72.9288 38.3413 72.9071 38.1375 72.9258C37.9336 72.9445 37.7355 73.0032 37.5543 73.0985C37.3732 73.1937 37.2126 73.3238 37.0816 73.4811L29.6474 82.415L27.2617 80.4849C27.1029 80.3536 26.9196 80.2551 26.7225 80.1951C26.5254 80.135 26.3183 80.1147 26.1133 80.1352C25.9082 80.1558 25.7093 80.2168 25.528 80.3147C25.3467 80.4126 25.1866 80.5455 25.0569 80.7057C24.9273 80.8659 24.8307 81.0502 24.7728 81.2479C24.7149 81.4457 24.6967 81.653 24.7194 81.8578C24.7421 82.0626 24.8052 82.2609 24.9051 82.4411C25.0049 82.6214 25.1395 82.7801 25.301 82.908L28.1688 85.2282C28.6401 85.6158 29.238 85.8154 29.8476 85.7885C30.4571 85.7616 31.0352 85.5101 31.4705 85.0825L31.5331 85.0222L39.4777 75.4748C39.6087 75.3175 39.7073 75.1359 39.7681 74.9404C39.8288 74.745 39.8505 74.5395 39.8318 74.3357C39.8131 74.1318 39.7545 73.9337 39.6593 73.7525C39.564 73.5713 39.434 73.4107 39.2767 73.2798Z" fill="#0F0B52"/>
<path d="M39.2767 73.2798C39.1193 73.1489 38.9377 73.0502 38.7423 72.9895C38.5468 72.9288 38.3413 72.9071 38.1375 72.9258C37.9336 72.9445 37.7355 73.0032 37.5543 73.0985C37.3732 73.1937 37.2126 73.3238 37.0816 73.4811L29.6474 82.415L27.2617 80.4849C27.1029 80.3536 26.9196 80.2551 26.7225 80.1951C26.5254 80.135 26.3183 80.1147 26.1133 80.1352C25.9082 80.1558 25.7093 80.2168 25.528 80.3147C25.3467 80.4126 25.1866 80.5455 25.0569 80.7057C24.9273 80.8659 24.8307 81.0502 24.7728 81.2479C24.7149 81.4457 24.6967 81.653 24.7194 81.8578C24.7421 82.0626 24.8052 82.2609 24.9051 82.4411C25.0049 82.6214 25.1395 82.7801 25.301 82.908L28.1688 85.2282C28.6401 85.6158 29.238 85.8154 29.8476 85.7885C30.4571 85.7616 31.0352 85.5101 31.4705 85.0825L31.5331 85.0222L39.4777 75.4748C39.6087 75.3175 39.7073 75.1359 39.7681 74.9404C39.8288 74.745 39.8505 74.5395 39.8318 74.3357C39.8131 74.1318 39.7545 73.9337 39.6593 73.7525C39.564 73.5713 39.434 73.4107 39.2767 73.2798Z" fill="url(#paint5_linear)"/>
<path d="M114.842 75.2412H102.179C101.766 75.2412 101.37 75.4054 101.077 75.6977C100.785 75.99 100.621 76.3864 100.621 76.7998C100.621 77.2132 100.785 77.6096 101.077 77.9019C101.37 78.1942 101.766 78.3584 102.179 78.3584H114.842C115.256 78.3584 115.652 78.1942 115.944 77.9019C116.237 77.6096 116.401 77.2132 116.401 76.7998C116.401 76.3864 116.237 75.99 115.944 75.6977C115.652 75.4054 115.256 75.2412 114.842 75.2412Z" fill="#0F0B52"/>
<path d="M114.842 75.2412H102.179C101.766 75.2412 101.37 75.4054 101.077 75.6977C100.785 75.99 100.621 76.3864 100.621 76.7998C100.621 77.2132 100.785 77.6096 101.077 77.9019C101.37 78.1942 101.766 78.3584 102.179 78.3584H114.842C115.256 78.3584 115.652 78.1942 115.944 77.9019C116.237 77.6096 116.401 77.2132 116.401 76.7998C116.401 76.3864 116.237 75.99 115.944 75.6977C115.652 75.4054 115.256 75.2412 114.842 75.2412Z" fill="url(#paint6_linear)"/>
<path d="M73.777 75.2412H54.0247C53.6113 75.2412 53.2149 75.4054 52.9226 75.6977C52.6303 75.99 52.4661 76.3864 52.4661 76.7998C52.4661 77.2132 52.6303 77.6096 52.9226 77.9019C53.2149 78.1942 53.6113 78.3584 54.0247 78.3584H73.777C74.1903 78.3584 74.5868 78.1942 74.8791 77.9019C75.1714 77.6096 75.3356 77.2132 75.3356 76.7998C75.3356 76.3864 75.1714 75.99 74.8791 75.6977C74.5868 75.4054 74.1903 75.2412 73.777 75.2412Z" fill="#0F0B52"/>
<path d="M73.777 75.2412H54.0247C53.6113 75.2412 53.2149 75.4054 52.9226 75.6977C52.6303 75.99 52.4661 76.3864 52.4661 76.7998C52.4661 77.2132 52.6303 77.6096 52.9226 77.9019C53.2149 78.1942 53.6113 78.3584 54.0247 78.3584H73.777C74.1903 78.3584 74.5868 78.1942 74.8791 77.9019C75.1714 77.6096 75.3356 77.2132 75.3356 76.7998C75.3356 76.3864 75.1714 75.99 74.8791 75.6977C74.5868 75.4054 74.1903 75.2412 73.777 75.2412Z" fill="url(#paint7_linear)"/>
<path d="M59.348 88.1545H54.0247C53.6113 88.1545 53.2149 88.3187 52.9226 88.611C52.6303 88.9033 52.4661 89.2998 52.4661 89.7131C52.4661 90.1265 52.6303 90.5229 52.9226 90.8152C53.2149 91.1075 53.6113 91.2717 54.0247 91.2717H59.348C59.7614 91.2717 60.1578 91.1075 60.4501 90.8152C60.7424 90.5229 60.9066 90.1265 60.9066 89.7131C60.9066 89.2998 60.7424 88.9033 60.4501 88.611C60.1578 88.3187 59.7614 88.1545 59.348 88.1545Z" fill="#0F0B52"/>
<path d="M59.348 88.1545H54.0247C53.6113 88.1545 53.2149 88.3187 52.9226 88.611C52.6303 88.9033 52.4661 89.2998 52.4661 89.7131C52.4661 90.1265 52.6303 90.5229 52.9226 90.8152C53.2149 91.1075 53.6113 91.2717 54.0247 91.2717H59.348C59.7614 91.2717 60.1578 91.1075 60.4501 90.8152C60.7424 90.5229 60.9066 90.1265 60.9066 89.7131C60.9066 89.2998 60.7424 88.9033 60.4501 88.611C60.1578 88.3187 59.7614 88.1545 59.348 88.1545Z" fill="url(#paint8_linear)"/>
<path d="M122.704 2.59766H10.2961C8.3929 2.59965 6.56824 3.35649 5.2224 4.70214C3.87656 6.04778 3.11946 7.87233 3.11719 9.7755V102.927C3.1189 104.829 3.87434 106.652 5.21795 107.997C6.56156 109.343 8.38374 110.101 10.2852 110.105L69.7291 110.526L72.7403 122.358C72.7455 122.379 72.7515 122.401 72.7578 122.422C73.4387 124.734 74.8521 126.762 76.7854 128.201C78.7186 129.641 81.0671 130.413 83.4772 130.402H105.209C108.177 130.398 111.022 129.217 113.12 127.118C115.218 125.02 116.398 122.174 116.401 119.206V110.452L122.749 110.106C124.645 110.092 126.458 109.33 127.794 107.986C129.13 106.641 129.881 104.824 129.883 102.928V9.7755C129.881 7.87233 129.123 6.04778 127.778 4.70214C126.432 3.35649 124.607 2.59965 122.704 2.59766ZM10.2961 5.71484H122.704C123.781 5.71587 124.813 6.14399 125.574 6.90526C126.336 7.66653 126.764 8.69877 126.766 9.7755V25.556H6.23438V9.7755C6.23568 8.69877 6.66406 7.66653 7.42552 6.90526C8.18699 6.14399 9.21934 5.71587 10.2961 5.71484ZM113.284 119.206C113.282 121.348 112.43 123.401 110.917 124.915C109.403 126.43 107.35 127.282 105.209 127.285H83.4772C81.7437 127.293 80.0544 126.739 78.6619 125.706C77.2695 124.674 76.2489 123.218 75.7529 121.557L72.4538 108.592C71.6761 105.539 70.6386 102.558 69.3527 99.6819L69.0977 99.0767C70.7585 99.0766 72.3945 99.4799 73.8651 100.252C75.3357 101.024 76.5968 102.141 77.54 103.508L80.2203 107.392V113.18C80.2203 113.593 80.3845 113.99 80.6768 114.282C80.9691 114.574 81.3655 114.738 81.7789 114.738C82.1923 114.738 82.5887 114.574 82.881 114.282C83.1733 113.99 83.3375 113.593 83.3375 113.18V70.8196C83.3375 70.0421 83.6464 69.2964 84.1962 68.7466C84.746 68.1968 85.4917 67.8879 86.2692 67.8879C87.0467 67.8879 87.7924 68.1968 88.3422 68.7466C88.892 69.2964 89.2009 70.0421 89.2009 70.8196V98.4865C89.201 98.6387 89.2234 98.7902 89.2674 98.9359V105.29C89.2674 105.703 89.4316 106.099 89.7239 106.392C90.0162 106.684 90.4126 106.848 90.826 106.848C91.2394 106.848 91.6358 106.684 91.9281 106.392C92.2204 106.099 92.3846 105.703 92.3846 105.29V96.5845C92.3846 95.9679 92.6295 95.3765 93.0656 94.9405C93.5016 94.5045 94.0929 94.2596 94.7095 94.2596C95.3261 94.2596 95.9175 94.5045 96.3535 94.9405C96.7895 95.3765 97.0344 95.9679 97.0344 96.5845V98.3509C96.9941 98.6229 96.9738 98.8975 96.9736 99.1725V105.291C96.9736 105.704 97.1378 106.1 97.4301 106.393C97.7224 106.685 98.1189 106.849 98.5322 106.849H98.5626C98.5626 106.849 98.5826 106.849 98.593 106.849C99.0064 106.849 99.4028 106.685 99.6951 106.393C99.9874 106.1 100.152 105.704 100.152 105.291V98.6296C100.284 98.0272 100.635 97.495 101.136 97.1353C101.637 96.7756 102.253 96.6138 102.867 96.681C103.48 96.7482 104.047 97.0397 104.458 97.4994C104.869 97.9591 105.096 98.5546 105.095 99.1715V106.906C105.095 107.319 105.259 107.716 105.552 108.008C105.844 108.3 106.24 108.465 106.654 108.465C107.067 108.465 107.464 108.3 107.756 108.008C108.048 107.716 108.212 107.319 108.212 106.906V101.614C108.209 101.279 108.272 100.947 108.398 100.636C108.524 100.326 108.71 100.043 108.946 99.8048C109.182 99.5667 109.462 99.3776 109.772 99.2486C110.081 99.1195 110.413 99.0531 110.748 99.0531C111.083 99.0531 111.415 99.1195 111.724 99.2486C112.033 99.3776 112.314 99.5667 112.55 99.8048C112.786 100.043 112.972 100.326 113.098 100.636C113.224 100.947 113.287 101.279 113.283 101.614L113.284 119.206ZM122.704 106.99C122.676 106.99 122.648 106.99 122.62 106.993L116.401 107.33V101.615C116.402 100.602 116.131 99.6061 115.615 98.7334C115.099 97.8607 114.357 97.1431 113.468 96.6557C112.579 96.1684 111.575 95.9294 110.562 95.9637C109.549 95.9981 108.563 96.3046 107.709 96.851C107.382 96.1268 106.904 95.4804 106.308 94.9546C105.712 94.4288 105.011 94.0356 104.252 93.801C103.492 93.5664 102.692 93.4958 101.903 93.5938C101.114 93.6918 100.355 93.9562 99.6762 94.3695C99.3807 93.7006 98.9529 93.0985 98.4184 92.5995C97.884 92.1004 97.2542 91.7146 96.5667 91.4654C95.8793 91.2162 95.1485 91.1088 94.4184 91.1495C93.6884 91.1903 92.9741 91.3783 92.3186 91.7025V70.8196C92.3186 69.2154 91.6813 67.6768 90.5469 66.5424C89.4126 65.408 87.874 64.7707 86.2697 64.7707C84.6655 64.7707 83.1269 65.408 81.9925 66.5424C80.8581 67.6768 80.2208 69.2154 80.2208 70.8196V101.904L80.106 101.738C78.8762 99.9551 77.2318 98.4979 75.3142 97.4914C73.3967 96.4849 71.2633 95.9592 69.0977 95.9595C68.5758 95.9596 68.0622 96.0902 67.6038 96.3395C67.1453 96.5888 66.7565 96.9489 66.4727 97.3869C66.189 97.8248 66.0193 98.3268 65.9791 98.8472C65.939 99.3675 66.0296 99.8896 66.2428 100.366L66.5055 100.953C67.4414 103.049 68.238 105.203 68.8901 107.403L10.295 106.988C9.2187 106.986 8.18681 106.558 7.42561 105.797C6.66441 105.036 6.23602 104.005 6.23438 102.928V28.6732H126.766V102.928C126.764 104.005 126.336 105.037 125.574 105.798C124.813 106.56 123.781 106.988 122.704 106.989L122.704 106.99Z" fill="#0F0B52"/>
<path d="M122.704 2.59766H10.2961C8.3929 2.59965 6.56824 3.35649 5.2224 4.70214C3.87656 6.04778 3.11946 7.87233 3.11719 9.7755V102.927C3.1189 104.829 3.87434 106.652 5.21795 107.997C6.56156 109.343 8.38374 110.101 10.2852 110.105L69.7291 110.526L72.7403 122.358C72.7455 122.379 72.7515 122.401 72.7578 122.422C73.4387 124.734 74.8521 126.762 76.7854 128.201C78.7186 129.641 81.0671 130.413 83.4772 130.402H105.209C108.177 130.398 111.022 129.217 113.12 127.118C115.218 125.02 116.398 122.174 116.401 119.206V110.452L122.749 110.106C124.645 110.092 126.458 109.33 127.794 107.986C129.13 106.641 129.881 104.824 129.883 102.928V9.7755C129.881 7.87233 129.123 6.04778 127.778 4.70214C126.432 3.35649 124.607 2.59965 122.704 2.59766ZM10.2961 5.71484H122.704C123.781 5.71587 124.813 6.14399 125.574 6.90526C126.336 7.66653 126.764 8.69877 126.766 9.7755V25.556H6.23438V9.7755C6.23568 8.69877 6.66406 7.66653 7.42552 6.90526C8.18699 6.14399 9.21934 5.71587 10.2961 5.71484ZM113.284 119.206C113.282 121.348 112.43 123.401 110.917 124.915C109.403 126.43 107.35 127.282 105.209 127.285H83.4772C81.7437 127.293 80.0544 126.739 78.6619 125.706C77.2695 124.674 76.2489 123.218 75.7529 121.557L72.4538 108.592C71.6761 105.539 70.6386 102.558 69.3527 99.6819L69.0977 99.0767C70.7585 99.0766 72.3945 99.4799 73.8651 100.252C75.3357 101.024 76.5968 102.141 77.54 103.508L80.2203 107.392V113.18C80.2203 113.593 80.3845 113.99 80.6768 114.282C80.9691 114.574 81.3655 114.738 81.7789 114.738C82.1923 114.738 82.5887 114.574 82.881 114.282C83.1733 113.99 83.3375 113.593 83.3375 113.18V70.8196C83.3375 70.0421 83.6464 69.2964 84.1962 68.7466C84.746 68.1968 85.4917 67.8879 86.2692 67.8879C87.0467 67.8879 87.7924 68.1968 88.3422 68.7466C88.892 69.2964 89.2009 70.0421 89.2009 70.8196V98.4865C89.201 98.6387 89.2234 98.7902 89.2674 98.9359V105.29C89.2674 105.703 89.4316 106.099 89.7239 106.392C90.0162 106.684 90.4126 106.848 90.826 106.848C91.2394 106.848 91.6358 106.684 91.9281 106.392C92.2204 106.099 92.3846 105.703 92.3846 105.29V96.5845C92.3846 95.9679 92.6295 95.3765 93.0656 94.9405C93.5016 94.5045 94.0929 94.2596 94.7095 94.2596C95.3261 94.2596 95.9175 94.5045 96.3535 94.9405C96.7895 95.3765 97.0344 95.9679 97.0344 96.5845V98.3509C96.9941 98.6229 96.9738 98.8975 96.9736 99.1725V105.291C96.9736 105.704 97.1378 106.1 97.4301 106.393C97.7224 106.685 98.1189 106.849 98.5322 106.849H98.5626C98.5626 106.849 98.5826 106.849 98.593 106.849C99.0064 106.849 99.4028 106.685 99.6951 106.393C99.9874 106.1 100.152 105.704 100.152 105.291V98.6296C100.284 98.0272 100.635 97.495 101.136 97.1353C101.637 96.7756 102.253 96.6138 102.867 96.681C103.48 96.7482 104.047 97.0397 104.458 97.4994C104.869 97.9591 105.096 98.5546 105.095 99.1715V106.906C105.095 107.319 105.259 107.716 105.552 108.008C105.844 108.3 106.24 108.465 106.654 108.465C107.067 108.465 107.464 108.3 107.756 108.008C108.048 107.716 108.212 107.319 108.212 106.906V101.614C108.209 101.279 108.272 100.947 108.398 100.636C108.524 100.326 108.71 100.043 108.946 99.8048C109.182 99.5667 109.462 99.3776 109.772 99.2486C110.081 99.1195 110.413 99.0531 110.748 99.0531C111.083 99.0531 111.415 99.1195 111.724 99.2486C112.033 99.3776 112.314 99.5667 112.55 99.8048C112.786 100.043 112.972 100.326 113.098 100.636C113.224 100.947 113.287 101.279 113.283 101.614L113.284 119.206ZM122.704 106.99C122.676 106.99 122.648 106.99 122.62 106.993L116.401 107.33V101.615C116.402 100.602 116.131 99.6061 115.615 98.7334C115.099 97.8607 114.357 97.1431 113.468 96.6557C112.579 96.1684 111.575 95.9294 110.562 95.9637C109.549 95.9981 108.563 96.3046 107.709 96.851C107.382 96.1268 106.904 95.4804 106.308 94.9546C105.712 94.4288 105.011 94.0356 104.252 93.801C103.492 93.5664 102.692 93.4958 101.903 93.5938C101.114 93.6918 100.355 93.9562 99.6762 94.3695C99.3807 93.7006 98.9529 93.0985 98.4184 92.5995C97.884 92.1004 97.2542 91.7146 96.5667 91.4654C95.8793 91.2162 95.1485 91.1088 94.4184 91.1495C93.6884 91.1903 92.9741 91.3783 92.3186 91.7025V70.8196C92.3186 69.2154 91.6813 67.6768 90.5469 66.5424C89.4126 65.408 87.874 64.7707 86.2697 64.7707C84.6655 64.7707 83.1269 65.408 81.9925 66.5424C80.8581 67.6768 80.2208 69.2154 80.2208 70.8196V101.904L80.106 101.738C78.8762 99.9551 77.2318 98.4979 75.3142 97.4914C73.3967 96.4849 71.2633 95.9592 69.0977 95.9595C68.5758 95.9596 68.0622 96.0902 67.6038 96.3395C67.1453 96.5888 66.7565 96.9489 66.4727 97.3869C66.189 97.8248 66.0193 98.3268 65.9791 98.8472C65.939 99.3675 66.0296 99.8896 66.2428 100.366L66.5055 100.953C67.4414 103.049 68.238 105.203 68.8901 107.403L10.295 106.988C9.2187 106.986 8.18681 106.558 7.42561 105.797C6.66441 105.036 6.23602 104.005 6.23438 102.928V28.6732H126.766V102.928C126.764 104.005 126.336 105.037 125.574 105.798C124.813 106.56 123.781 106.988 122.704 106.989L122.704 106.99Z" fill="url(#paint9_linear)"/>
<path d="M16.1572 21.4128C17.3389 21.4128 18.494 21.0624 19.4765 20.4059C20.4591 19.7494 21.2248 18.8163 21.677 17.7246C22.1292 16.6329 22.2476 15.4316 22.017 14.2726C21.7865 13.1137 21.2175 12.0491 20.3819 11.2135C19.5463 10.378 18.4818 9.80896 17.3228 9.57843C16.1639 9.34789 14.9626 9.46621 13.8708 9.91842C12.7791 10.3706 11.846 11.1364 11.1895 12.1189C10.533 13.1014 10.1826 14.2566 10.1826 15.4382C10.1843 17.0223 10.8143 18.541 11.9344 19.6611C13.0545 20.7812 14.5732 21.4112 16.1572 21.4128ZM16.1572 12.5829C16.7224 12.5829 17.2748 12.7505 17.7447 13.0645C18.2146 13.3784 18.5809 13.8247 18.7971 14.3468C19.0134 14.869 19.07 15.4435 18.9597 15.9978C18.8495 16.5521 18.5773 17.0612 18.1777 17.4608C17.7781 17.8604 17.269 18.1326 16.7147 18.2428C16.1604 18.3531 15.5859 18.2965 15.0637 18.0802C14.5416 17.864 14.0953 17.4977 13.7814 17.0278C13.4674 16.5579 13.2998 16.0055 13.2998 15.4403C13.3005 14.6827 13.6018 13.9563 14.1375 13.4206C14.6732 12.8848 15.3996 12.5836 16.1572 12.5829Z" fill="#0F0B52"/>
<path d="M16.1572 21.4128C17.3389 21.4128 18.494 21.0624 19.4765 20.4059C20.4591 19.7494 21.2248 18.8163 21.677 17.7246C22.1292 16.6329 22.2476 15.4316 22.017 14.2726C21.7865 13.1137 21.2175 12.0491 20.3819 11.2135C19.5463 10.378 18.4818 9.80896 17.3228 9.57843C16.1639 9.34789 14.9626 9.46621 13.8708 9.91842C12.7791 10.3706 11.846 11.1364 11.1895 12.1189C10.533 13.1014 10.1826 14.2566 10.1826 15.4382C10.1843 17.0223 10.8143 18.541 11.9344 19.6611C13.0545 20.7812 14.5732 21.4112 16.1572 21.4128ZM16.1572 12.5829C16.7224 12.5829 17.2748 12.7505 17.7447 13.0645C18.2146 13.3784 18.5809 13.8247 18.7971 14.3468C19.0134 14.869 19.07 15.4435 18.9597 15.9978C18.8495 16.5521 18.5773 17.0612 18.1777 17.4608C17.7781 17.8604 17.269 18.1326 16.7147 18.2428C16.1604 18.3531 15.5859 18.2965 15.0637 18.0802C14.5416 17.864 14.0953 17.4977 13.7814 17.0278C13.4674 16.5579 13.2998 16.0055 13.2998 15.4403C13.3005 14.6827 13.6018 13.9563 14.1375 13.4206C14.6732 12.8848 15.3996 12.5836 16.1572 12.5829Z" fill="url(#paint10_linear)"/>
<path d="M31.9078 21.4128C33.0895 21.4128 34.2446 21.0624 35.2272 20.4059C36.2097 19.7494 36.9755 18.8163 37.4277 17.7246C37.8799 16.6329 37.9982 15.4316 37.7676 14.2726C37.5371 13.1137 36.9681 12.0491 36.1325 11.2135C35.297 10.378 34.2324 9.80896 33.0734 9.57843C31.9145 9.34789 30.7132 9.46621 29.6215 9.91842C28.5297 10.3706 27.5966 11.1364 26.9401 12.1189C26.2836 13.1014 25.9332 14.2566 25.9332 15.4382C25.9349 17.0223 26.5649 18.541 27.685 19.6611C28.8051 20.7812 30.3238 21.4112 31.9078 21.4128ZM31.9078 12.5829C32.473 12.5829 33.0254 12.7505 33.4953 13.0645C33.9652 13.3784 34.3315 13.8247 34.5478 14.3468C34.764 14.869 34.8206 15.4435 34.7104 15.9978C34.6001 16.5521 34.328 17.0612 33.9283 17.4608C33.5287 17.8604 33.0196 18.1326 32.4653 18.2428C31.911 18.3531 31.3365 18.2965 30.8143 18.0802C30.2922 17.864 29.846 17.4977 29.532 17.0278C29.218 16.5579 29.0504 16.0055 29.0504 15.4403C29.0511 14.6827 29.3524 13.9563 29.8881 13.4206C30.4238 12.8848 31.1502 12.5836 31.9078 12.5829Z" fill="#0F0B52"/>
<path d="M31.9078 21.4128C33.0895 21.4128 34.2446 21.0624 35.2272 20.4059C36.2097 19.7494 36.9755 18.8163 37.4277 17.7246C37.8799 16.6329 37.9982 15.4316 37.7676 14.2726C37.5371 13.1137 36.9681 12.0491 36.1325 11.2135C35.297 10.378 34.2324 9.80896 33.0734 9.57843C31.9145 9.34789 30.7132 9.46621 29.6215 9.91842C28.5297 10.3706 27.5966 11.1364 26.9401 12.1189C26.2836 13.1014 25.9332 14.2566 25.9332 15.4382C25.9349 17.0223 26.5649 18.541 27.685 19.6611C28.8051 20.7812 30.3238 21.4112 31.9078 21.4128ZM31.9078 12.5829C32.473 12.5829 33.0254 12.7505 33.4953 13.0645C33.9652 13.3784 34.3315 13.8247 34.5478 14.3468C34.764 14.869 34.8206 15.4435 34.7104 15.9978C34.6001 16.5521 34.328 17.0612 33.9283 17.4608C33.5287 17.8604 33.0196 18.1326 32.4653 18.2428C31.911 18.3531 31.3365 18.2965 30.8143 18.0802C30.2922 17.864 29.846 17.4977 29.532 17.0278C29.218 16.5579 29.0504 16.0055 29.0504 15.4403C29.0511 14.6827 29.3524 13.9563 29.8881 13.4206C30.4238 12.8848 31.1502 12.5836 31.9078 12.5829Z" fill="url(#paint11_linear)"/>
<path d="M47.6586 21.4128C48.8402 21.4128 49.9954 21.0624 50.9779 20.4059C51.9604 19.7494 52.7262 18.8163 53.1784 17.7246C53.6306 16.6329 53.7489 15.4316 53.5184 14.2726C53.2878 13.1137 52.7188 12.0491 51.8833 11.2135C51.0477 10.378 49.9831 9.80896 48.8242 9.57843C47.6652 9.34789 46.4639 9.46621 45.3722 9.91842C44.2805 10.3706 43.3474 11.1364 42.6909 12.1189C42.0344 13.1014 41.684 14.2566 41.684 15.4382C41.6856 17.0223 42.3156 18.541 43.4357 19.6611C44.5558 20.7812 46.0745 21.4112 47.6586 21.4128ZM47.6586 12.5829C48.2237 12.5829 48.7762 12.7505 49.2461 13.0645C49.716 13.3784 50.0822 13.8247 50.2985 14.3468C50.5148 14.869 50.5713 15.4435 50.4611 15.9978C50.3508 16.5521 50.0787 17.0612 49.6791 17.4608C49.2795 17.8604 48.7703 18.1326 48.216 18.2428C47.6617 18.3531 47.0872 18.2965 46.5651 18.0802C46.043 17.864 45.5967 17.4977 45.2827 17.0278C44.9687 16.5579 44.8011 16.0055 44.8011 15.4403C44.8018 14.6827 45.1031 13.9563 45.6388 13.4206C46.1746 12.8848 46.9009 12.5836 47.6586 12.5829Z" fill="#0F0B52"/>
<path d="M47.6586 21.4128C48.8402 21.4128 49.9954 21.0624 50.9779 20.4059C51.9604 19.7494 52.7262 18.8163 53.1784 17.7246C53.6306 16.6329 53.7489 15.4316 53.5184 14.2726C53.2878 13.1137 52.7188 12.0491 51.8833 11.2135C51.0477 10.378 49.9831 9.80896 48.8242 9.57843C47.6652 9.34789 46.4639 9.46621 45.3722 9.91842C44.2805 10.3706 43.3474 11.1364 42.6909 12.1189C42.0344 13.1014 41.684 14.2566 41.684 15.4382C41.6856 17.0223 42.3156 18.541 43.4357 19.6611C44.5558 20.7812 46.0745 21.4112 47.6586 21.4128ZM47.6586 12.5829C48.2237 12.5829 48.7762 12.7505 49.2461 13.0645C49.716 13.3784 50.0822 13.8247 50.2985 14.3468C50.5148 14.869 50.5713 15.4435 50.4611 15.9978C50.3508 16.5521 50.0787 17.0612 49.6791 17.4608C49.2795 17.8604 48.7703 18.1326 48.216 18.2428C47.6617 18.3531 47.0872 18.2965 46.5651 18.0802C46.043 17.864 45.5967 17.4977 45.2827 17.0278C44.9687 16.5579 44.8011 16.0055 44.8011 15.4403C44.8018 14.6827 45.1031 13.9563 45.6388 13.4206C46.1746 12.8848 46.9009 12.5836 47.6586 12.5829Z" fill="url(#paint12_linear)"/>
<path d="M70.916 16.7029H121.553C121.966 16.7029 122.363 16.5387 122.655 16.2464C122.947 15.9541 123.112 15.5577 123.112 15.1443C123.112 14.7309 122.947 14.3345 122.655 14.0422C122.363 13.7499 121.966 13.5857 121.553 13.5857H70.916C70.5027 13.5857 70.1062 13.7499 69.8139 14.0422C69.5216 14.3345 69.3574 14.7309 69.3574 15.1443C69.3574 15.5577 69.5216 15.9541 69.8139 16.2464C70.1062 16.5387 70.5027 16.7029 70.916 16.7029Z" fill="#0F0B52"/>
<path d="M70.916 16.7029H121.553C121.966 16.7029 122.363 16.5387 122.655 16.2464C122.947 15.9541 123.112 15.5577 123.112 15.1443C123.112 14.7309 122.947 14.3345 122.655 14.0422C122.363 13.7499 121.966 13.5857 121.553 13.5857H70.916C70.5027 13.5857 70.1062 13.7499 69.8139 14.0422C69.5216 14.3345 69.3574 14.7309 69.3574 15.1443C69.3574 15.5577 69.5216 15.9541 69.8139 16.2464C70.1062 16.5387 70.5027 16.7029 70.916 16.7029Z" fill="url(#paint13_linear)"/>
<defs>
<linearGradient id="paint0_linear" x1="28.2592" y1="41.1208" x2="28.2592" y2="57.0557" gradientUnits="userSpaceOnUse">
<stop stop-color="#802891" stop-opacity="0.45"/>
<stop offset="1" stop-color="#0F0B52"/>
</linearGradient>
<linearGradient id="paint1_linear" x1="32.2735" y1="39.8857" x2="32.2735" y2="50.4379" gradientUnits="userSpaceOnUse">
<stop stop-color="#802891" stop-opacity="0.45"/>
<stop offset="1" stop-color="#0F0B52"/>
</linearGradient>
<linearGradient id="paint2_linear" x1="84.4335" y1="42.2073" x2="84.4335" y2="44.7626" gradientUnits="userSpaceOnUse">
<stop stop-color="#802891" stop-opacity="0.45"/>
<stop offset="1" stop-color="#0F0B52"/>
</linearGradient>
<linearGradient id="paint3_linear" x1="84.4335" y1="55.1206" x2="84.4335" y2="57.676" gradientUnits="userSpaceOnUse">
<stop stop-color="#802891" stop-opacity="0.45"/>
<stop offset="1" stop-color="#0F0B52"/>
</linearGradient>
<linearGradient id="paint4_linear" x1="28.2592" y1="74.1548" x2="28.2592" y2="90.0899" gradientUnits="userSpaceOnUse">
<stop stop-color="#802891" stop-opacity="0.45"/>
<stop offset="1" stop-color="#0F0B52"/>
</linearGradient>
<linearGradient id="paint5_linear" x1="32.2741" y1="72.9193" x2="32.2741" y2="83.471" gradientUnits="userSpaceOnUse">
<stop stop-color="#802891" stop-opacity="0.45"/>
<stop offset="1" stop-color="#0F0B52"/>
</linearGradient>
<linearGradient id="paint6_linear" x1="108.511" y1="75.2412" x2="108.511" y2="77.7966" gradientUnits="userSpaceOnUse">
<stop stop-color="#802891" stop-opacity="0.45"/>
<stop offset="1" stop-color="#0F0B52"/>
</linearGradient>
<linearGradient id="paint7_linear" x1="63.9008" y1="75.2412" x2="63.9008" y2="77.7966" gradientUnits="userSpaceOnUse">
<stop stop-color="#802891" stop-opacity="0.45"/>
<stop offset="1" stop-color="#0F0B52"/>
</linearGradient>
<linearGradient id="paint8_linear" x1="56.6863" y1="88.1545" x2="56.6863" y2="90.7099" gradientUnits="userSpaceOnUse">
<stop stop-color="#802891" stop-opacity="0.45"/>
<stop offset="1" stop-color="#0F0B52"/>
</linearGradient>
<linearGradient id="paint9_linear" x1="66.5" y1="2.59766" x2="66.5" y2="107.368" gradientUnits="userSpaceOnUse">
<stop stop-color="#802891" stop-opacity="0.45"/>
<stop offset="1" stop-color="#0F0B52"/>
</linearGradient>
<linearGradient id="paint10_linear" x1="16.1572" y1="9.46362" x2="16.1572" y2="19.2592" gradientUnits="userSpaceOnUse">
<stop stop-color="#802891" stop-opacity="0.45"/>
<stop offset="1" stop-color="#0F0B52"/>
</linearGradient>
<linearGradient id="paint11_linear" x1="31.9078" y1="9.46362" x2="31.9078" y2="19.2592" gradientUnits="userSpaceOnUse">
<stop stop-color="#802891" stop-opacity="0.45"/>
<stop offset="1" stop-color="#0F0B52"/>
</linearGradient>
<linearGradient id="paint12_linear" x1="47.6586" y1="9.46362" x2="47.6586" y2="19.2592" gradientUnits="userSpaceOnUse">
<stop stop-color="#802891" stop-opacity="0.45"/>
<stop offset="1" stop-color="#0F0B52"/>
</linearGradient>
<linearGradient id="paint13_linear" x1="96.2345" y1="13.5857" x2="96.2345" y2="16.1411" gradientUnits="userSpaceOnUse">
<stop stop-color="#802891" stop-opacity="0.45"/>
<stop offset="1" stop-color="#0F0B52"/>
</linearGradient>
</defs>
</svg>
