<svg width="19" height="19" viewBox="0 0 19 19" fill="none" xmlns="http://www.w3.org/2000/svg">
<path d="M13.6563 11.8751C13.2118 11.8774 12.7736 11.9793 12.3738 12.1736C11.974 12.3678 11.623 12.6493 11.3466 12.9973L7.00625 10.2839C7.16444 9.77334 7.16444 9.2269 7.00625 8.71637L11.3466 6.00293C11.7871 6.54842 12.4065 6.92038 13.095 7.05293C13.7835 7.18547 14.4967 7.07004 15.1083 6.72709C15.7198 6.38413 16.1903 5.83579 16.4363 5.17919C16.6822 4.5226 16.6879 3.80013 16.4522 3.13977C16.2165 2.47941 15.7547 1.92379 15.1486 1.57132C14.5424 1.21885 13.8311 1.09229 13.1406 1.21406C12.4501 1.33583 11.825 1.69807 11.376 2.23661C10.927 2.77515 10.6831 3.45523 10.6875 4.15637C10.6903 4.42188 10.7303 4.6857 10.8063 4.94012L6.46594 7.65356C6.08276 7.17119 5.55901 6.81996 4.96729 6.64857C4.37556 6.47719 3.74518 6.49412 3.16351 6.69704C2.58184 6.89995 2.07771 7.27879 1.72098 7.78104C1.36425 8.28329 1.17261 8.88408 1.17261 9.50012C1.17261 10.1162 1.36425 10.717 1.72098 11.2192C2.07771 11.7215 2.58184 12.1003 3.16351 12.3032C3.74518 12.5061 4.37556 12.5231 4.96729 12.3517C5.55901 12.1803 6.08276 11.8291 6.46594 11.3467L10.8063 14.0601C10.7303 14.3145 10.6903 14.5784 10.6875 14.8439C10.6875 15.431 10.8616 16.005 11.1878 16.4932C11.514 16.9814 11.9777 17.3619 12.5202 17.5866C13.0626 17.8113 13.6595 17.8701 14.2354 17.7556C14.8113 17.641 15.3403 17.3583 15.7555 16.9431C16.1707 16.5279 16.4534 15.9989 16.568 15.423C16.6825 14.8472 16.6237 14.2502 16.399 13.7078C16.1743 13.1653 15.7938 12.7017 15.3056 12.3754C14.8174 12.0492 14.2434 11.8751 13.6563 11.8751ZM13.6563 2.37512C14.0085 2.37512 14.3529 2.47959 14.6459 2.67532C14.9388 2.87104 15.1671 3.14924 15.3019 3.47472C15.4367 3.8002 15.472 4.15835 15.4033 4.50388C15.3345 4.8494 15.1649 5.16679 14.9158 5.41591C14.6667 5.66502 14.3493 5.83467 14.0038 5.9034C13.6582 5.97213 13.3001 5.93685 12.9746 5.80203C12.6491 5.66721 12.3709 5.43891 12.1752 5.14598C11.9795 4.85306 11.875 4.50867 11.875 4.15637C11.875 3.68395 12.0627 3.23089 12.3967 2.89684C12.7308 2.56279 13.1838 2.37512 13.6563 2.37512ZM4.15625 11.2814C3.80395 11.2814 3.45957 11.1769 3.16664 10.9812C2.87372 10.7855 2.64541 10.5073 2.51059 10.1818C2.37577 9.8563 2.3405 9.49815 2.40923 9.15262C2.47796 8.80709 2.64761 8.4897 2.89672 8.24059C3.14583 7.99147 3.46322 7.82183 3.80875 7.7531C4.15428 7.68437 4.51243 7.71964 4.83791 7.85446C5.16339 7.98928 5.44158 8.21759 5.63731 8.51051C5.83303 8.80344 5.9375 9.14782 5.9375 9.50012C5.9375 9.97254 5.74984 10.4256 5.41579 10.7597C5.08174 11.0937 4.62867 11.2814 4.15625 11.2814ZM13.6563 16.6251C13.304 16.6251 12.9596 16.5207 12.6666 16.3249C12.3737 16.1292 12.1454 15.851 12.0106 15.5255C11.8758 15.2 11.8405 14.8419 11.9092 14.4964C11.978 14.1508 12.1476 13.8334 12.3967 13.5843C12.6458 13.3352 12.9632 13.1656 13.3087 13.0968C13.6543 13.0281 14.0124 13.0634 14.3379 13.1982C14.6634 13.333 14.9416 13.5613 15.1373 13.8543C15.333 14.1472 15.4375 14.4916 15.4375 14.8439C15.4375 15.3163 15.2498 15.7694 14.9158 16.1034C14.5817 16.4375 14.1287 16.6251 13.6563 16.6251Z" fill="white"/>
</svg>
