<svg width="74" height="75" viewBox="0 0 74 75" fill="none" xmlns="http://www.w3.org/2000/svg">
<g clip-path="url(#clip0)">
<path d="M26.597 56.1824C26.0079 56.1824 25.5303 56.6648 25.5303 57.2601V62.9358C25.5303 63.5311 26.0079 64.0135 26.597 64.0135C27.1861 64.0135 27.6637 63.5311 27.6637 62.9358V57.2601C27.6637 56.6648 27.1861 56.1824 26.597 56.1824Z" fill="#100C52"/>
<path d="M26.597 56.1824C26.0079 56.1824 25.5303 56.6648 25.5303 57.2601V62.9358C25.5303 63.5311 26.0079 64.0135 26.597 64.0135C27.1861 64.0135 27.6637 63.5311 27.6637 62.9358V57.2601C27.6637 56.6648 27.1861 56.1824 26.597 56.1824Z" fill="url(#paint0_linear)"/>
<path d="M47.2454 56.1824C46.6563 56.1824 46.1787 56.6648 46.1787 57.2601V62.9358C46.1787 63.5311 46.6563 64.0135 47.2454 64.0135C47.8345 64.0135 48.3121 63.5311 48.3121 62.9358V57.2601C48.3121 56.6648 47.8345 56.1824 47.2454 56.1824Z" fill="#100C52"/>
<path d="M47.2454 56.1824C46.6563 56.1824 46.1787 56.6648 46.1787 57.2601V62.9358C46.1787 63.5311 46.6563 64.0135 47.2454 64.0135C47.8345 64.0135 48.3121 63.5311 48.3121 62.9358V57.2601C48.3121 56.6648 47.8345 56.1824 47.2454 56.1824Z" fill="url(#paint1_linear)"/>
<path d="M67.9726 52.4199L64.4008 50.9722V50.0505C65.102 49.6568 65.7315 49.1445 66.2613 48.5399C68.5206 48.8093 70.6823 47.8981 72.0817 46.065C73.5289 44.1694 73.83 41.7264 72.8873 39.53L71.2834 35.7937C71.1628 35.5129 71.0798 35.2168 71.0366 34.9138C70.691 32.4868 69.4904 30.2659 67.6561 28.6602C65.8218 27.0545 63.475 26.1703 61.048 26.1703C58.621 26.1703 56.2743 27.0545 54.4399 28.6602C52.6058 30.2659 51.4051 32.4867 51.0595 34.9138C51.0162 35.2169 50.9333 35.5131 50.8127 35.7937L49.2089 39.53C48.2662 41.7263 48.5673 44.1692 50.0145 46.065C51.2525 47.6866 53.0866 48.5903 55.0572 48.5902C55.3114 48.5902 55.5681 48.5749 55.8261 48.5443C56.3068 49.0951 56.8706 49.5694 57.4986 49.9471V50.972L53.9269 52.4199C53.6941 52.5143 53.4668 52.6211 53.2452 52.7392C52.5541 51.455 51.5675 50.332 50.3398 49.4789L45.6876 46.2465C45.7145 45.6529 45.4795 45.055 45.0009 44.6447L43.1106 43.0241C42.9314 42.8704 42.73 42.7543 42.5172 42.6754V40.4935C44.5154 39.0293 45.9323 36.8046 46.3476 34.2425H46.4613C48.4952 34.2425 50.1499 32.5708 50.1499 30.5161C50.1499 29.6388 49.8475 28.8318 49.3436 28.1945L50.1061 22.7182C50.6557 18.7703 47.9276 15.0815 44.0244 14.4949L43.8726 14.4722C42.6246 12.4142 40.6916 10.9294 38.3722 10.265L38.093 10.185C35.0181 9.3041 31.7289 9.82988 29.0689 11.6278C28.5792 11.9587 28.4478 12.6281 28.7754 13.1227C29.1029 13.6173 29.7653 13.7502 30.2551 13.4191C32.3944 11.9732 35.039 11.5503 37.511 12.2586L37.7902 12.3387C39.7309 12.8946 41.3241 14.1903 42.2761 15.9871C42.9311 17.2233 43.2202 18.5828 43.1368 19.9427L42.4137 19.3148C41.7527 18.7408 40.7809 18.7256 40.103 19.2788L39.1545 20.0529H33.74C30.2265 20.0529 27.368 22.9409 27.368 26.4906V26.7899C27.0851 26.7909 26.81 26.8251 26.5455 26.8873C25.3395 23.4573 25.6796 19.5928 27.4922 16.4317C27.7874 15.9165 27.6136 15.2572 27.1039 14.9588C26.5941 14.6606 25.9416 14.8361 25.6462 15.3511C23.4542 19.1742 23.0987 23.8746 24.6746 27.9883C24.066 28.6531 23.6932 29.5412 23.6932 30.5161C23.6932 32.5708 25.3479 34.2425 27.3818 34.2425H27.4956C27.9109 36.8046 29.3278 39.0293 31.3259 40.4935V42.6754C31.1132 42.7541 30.9118 42.8704 30.7327 43.024L28.8422 44.6447C28.3636 45.055 28.1286 45.653 28.1555 46.2465L23.5034 49.4789C22.558 50.1357 21.7552 50.9525 21.1203 51.8798C20.7089 51.6501 20.28 51.4539 19.836 51.2949L16.6774 50.1646V49.3152C18.2863 48.311 19.4429 46.6369 19.765 44.6809H20.2424C22.1139 44.6809 23.6365 43.1427 23.6365 41.2519C23.6365 40.403 23.329 39.6259 22.8214 39.0264L23.0118 36.7487C23.2765 33.4687 21.8599 30.3574 19.2223 28.4266C16.5847 26.4955 13.2171 26.1042 10.2144 27.3796L8.0882 28.2828C4.79604 29.017 2.59562 32.2042 3.06568 35.5896L3.5413 39.0153C3.02814 39.6163 2.7168 40.3978 2.7168 41.2519C2.7168 43.1427 4.23935 44.6809 6.11094 44.6809H6.58826C6.8895 46.51 7.9208 48.092 9.36897 49.1109V50.1646L6.21036 51.2948C5.76803 51.4531 5.33224 51.6514 4.91523 51.8845C4.39965 52.1725 4.21276 52.8282 4.49778 53.349C4.69235 53.7047 5.0566 53.9054 5.43223 53.9054C5.60674 53.9054 5.78382 53.862 5.94738 53.7706C6.26213 53.5948 6.59025 53.4453 6.92236 53.3265L9.65172 52.3498C10.2044 53.6807 11.5072 54.6179 13.023 54.6179C14.5387 54.6179 15.8415 53.6807 16.3942 52.3498L19.1236 53.3266C19.4669 53.4493 19.7983 53.6021 20.1159 53.7814C19.6922 54.8666 19.4651 56.036 19.4651 57.236V63.6296C19.4651 64.2249 19.9427 64.7073 20.5318 64.7073C21.1209 64.7073 21.5985 64.2249 21.5985 63.6296V57.236C21.5985 54.8455 22.7625 52.6096 24.712 51.255L29.1547 48.1681L30.9756 50.6279C31.3671 51.1567 31.9808 51.4546 32.6138 51.4546C32.811 51.4546 33.0101 51.4257 33.2048 51.3658L35.8546 50.551V64.0808C35.8546 64.6761 36.3323 65.1585 36.9214 65.1585C37.5105 65.1585 37.9881 64.6761 37.9881 64.0808V50.551L40.6382 51.3659C40.8329 51.4257 41.0318 51.4546 41.2289 51.4546C41.8618 51.4546 42.4757 51.1565 42.8671 50.6279L44.6879 48.1681L49.1306 51.255C51.0802 52.6096 52.2441 54.8455 52.2441 57.236V63.6296C52.2441 64.2249 52.7217 64.7073 53.3108 64.7073C53.8999 64.7073 54.3775 64.2249 54.3775 63.6296V57.236C54.3775 56.3872 54.2636 55.5536 54.0474 54.7541C54.2636 54.6266 54.4885 54.5148 54.721 54.4206L57.8183 53.165C58.367 54.3582 59.5639 55.1881 60.9496 55.1881C62.3354 55.1881 63.5322 54.3584 64.0809 53.1651L67.1784 54.4206C69.137 55.2144 70.4024 57.1049 70.4024 59.2369V61.0612C70.4024 61.6565 70.88 62.1389 71.4691 62.1389C72.0582 62.1389 72.5358 61.6565 72.5358 61.0612V59.2369C72.5357 56.2194 70.7445 53.5436 67.9726 52.4199ZM25.8262 30.5159C25.8262 29.6543 26.5165 28.9531 27.3676 28.9455V32.0861C26.5166 32.0786 25.8262 31.3775 25.8262 30.5159ZM20.2421 42.5254H19.8569V39.9779H20.2421C20.9373 39.9779 21.5028 40.5494 21.5028 41.2517C21.5028 41.9539 20.9373 42.5254 20.2421 42.5254ZM4.84994 41.2518C4.84994 40.5494 5.41544 39.9781 6.11066 39.9781H6.49581V42.5255H6.11066C5.41559 42.5254 4.84994 41.954 4.84994 41.2518ZM7.79137 34.5006C7.08379 35.4878 6.65596 36.6245 6.5335 37.8225H6.11066C5.91495 37.8225 5.72351 37.8403 5.53676 37.8725L5.17821 35.2899C4.85933 32.9937 6.3715 30.8333 8.62071 30.3716C8.68955 30.3576 8.75696 30.3366 8.82182 30.309L11.0412 29.3662C13.3512 28.3849 15.9415 28.6863 17.9704 30.1715C19.9993 31.657 21.089 34.0501 20.8857 36.5699L20.7773 37.8653C20.6029 37.8373 20.4243 37.8224 20.2421 37.8224H19.8475C19.7556 36.9086 18.9897 36.193 18.0614 36.193H15.4273C13.5501 36.193 11.6924 35.5618 10.1967 34.4158L9.89493 34.1846C9.57805 33.9418 9.17042 33.8363 8.77744 33.8955C8.38404 33.9547 8.02463 34.1753 7.79137 34.5006ZM9.51931 35.7648C9.51902 35.7652 9.51888 35.7655 9.51874 35.7658C9.51888 35.7655 9.51917 35.7652 9.51931 35.7648ZM8.62938 38.5398C8.62938 37.7604 8.81528 37.0072 9.17128 36.329C10.988 37.6336 13.1966 38.3487 15.4275 38.3487H17.7235V43.5697C17.7235 46.1029 15.6836 48.1638 13.1764 48.1638C10.6692 48.1638 8.62938 46.1029 8.62938 43.5697V38.5398ZM13.0228 52.4624C12.1842 52.4624 11.5021 51.7731 11.5021 50.9261V50.1044C12.0373 50.2445 12.5984 50.3192 13.1764 50.3192C13.6449 50.3192 14.1021 50.2698 14.5437 50.1766V50.9261C14.5437 51.7731 13.8614 52.4624 13.0228 52.4624ZM46.4747 32.0861V28.9455C47.3258 28.953 48.0161 29.6543 48.0161 30.5159C48.0161 31.3775 47.3258 32.0786 46.4747 32.0861ZM47.993 22.4176L47.3683 26.9037C47.0822 26.8303 46.7828 26.7908 46.4746 26.7896V26.7024C46.4746 24.9648 45.9426 23.2935 44.9793 21.897C45.3993 20.2626 45.3845 18.5799 44.9497 16.9806C47.0102 17.869 48.3187 20.0786 47.993 22.4176ZM29.5012 32.6775V26.4903C29.5012 24.129 31.4026 22.2081 33.7397 22.2081H39.5313C39.7752 22.2081 40.0117 22.1236 40.2014 21.9688L41.2302 21.1292L42.1858 21.959C43.5556 23.1485 44.3411 24.8776 44.3411 26.7024V32.6774C44.3411 36.8111 41.0126 40.1739 36.9211 40.1739C32.8296 40.1739 29.5012 36.8111 29.5012 32.6775ZM36.9212 42.3295C38.1423 42.3295 39.3091 42.0944 40.3835 41.6708V43.0517L36.9212 44.7669L33.459 43.0517V41.6708C34.5332 42.0943 35.7002 42.3295 36.9212 42.3295ZM32.6453 49.2845L30.3474 46.1805L32.0253 44.742L35.8544 46.6388V48.2977L32.6453 49.2845ZM41.197 49.2845L37.9879 48.2979V46.6389L41.817 44.7421L43.4949 46.1807L41.197 49.2845ZM51.7036 44.7486C50.7379 43.4835 50.5369 41.8535 51.1661 40.3878L52.7699 36.6514C52.9659 36.195 53.1009 35.7138 53.171 35.2209C53.7309 31.2901 57.1173 28.3259 61.048 28.3259C64.9788 28.3259 68.3651 31.2901 68.9249 35.2209C68.9951 35.7137 69.13 36.1949 69.326 36.6514L70.9298 40.3878C71.5589 41.8533 71.358 43.4835 70.3923 44.7486C69.6772 45.6852 68.6638 46.2619 67.5516 46.4002C67.7813 45.7973 67.931 45.1546 67.9861 44.4846C68.0347 43.8915 67.5981 43.3707 67.0111 43.3216C66.4246 43.2734 65.9087 43.7136 65.8599 44.3066C65.6544 46.8137 63.5407 48.7775 61.048 48.7775C58.3845 48.7775 56.2178 46.5885 56.2178 43.8975V38.7275C56.2178 37.5811 56.5518 36.4537 57.1669 35.4967C58.5472 36.5612 60.2487 37.17 61.9867 37.2164L65.8783 37.3202V39.8026C65.8783 40.398 66.3559 40.8804 66.945 40.8804C67.5341 40.8804 68.0117 40.398 68.0117 39.8026V37.0283C68.0117 36.0147 67.226 35.1998 66.2232 35.1732L62.0429 35.062C60.6893 35.0258 59.3656 34.5305 58.3155 33.6676L58.0399 33.441C57.7148 33.1738 57.3064 33.0514 56.8896 33.0967C56.473 33.1417 56.0993 33.3486 55.8378 33.6789C54.7069 35.1064 54.084 36.8994 54.084 38.7279V43.8979C54.084 44.7784 54.2462 45.6208 54.5399 46.3982C53.4297 46.2589 52.4177 45.6841 51.7036 44.7486ZM60.9495 53.0325C60.2228 53.0325 59.6316 52.4353 59.6316 51.701V50.7864C60.0891 50.8822 60.5627 50.9331 61.0479 50.9331C61.4629 50.9331 61.8701 50.8937 62.2672 50.8213V51.7012C62.2674 52.4353 61.6761 53.0325 60.9495 53.0325Z" fill="#100C52"/>
<path d="M67.9726 52.4199L64.4008 50.9722V50.0505C65.102 49.6568 65.7315 49.1445 66.2613 48.5399C68.5206 48.8093 70.6823 47.8981 72.0817 46.065C73.5289 44.1694 73.83 41.7264 72.8873 39.53L71.2834 35.7937C71.1628 35.5129 71.0798 35.2168 71.0366 34.9138C70.691 32.4868 69.4904 30.2659 67.6561 28.6602C65.8218 27.0545 63.475 26.1703 61.048 26.1703C58.621 26.1703 56.2743 27.0545 54.4399 28.6602C52.6058 30.2659 51.4051 32.4867 51.0595 34.9138C51.0162 35.2169 50.9333 35.5131 50.8127 35.7937L49.2089 39.53C48.2662 41.7263 48.5673 44.1692 50.0145 46.065C51.2525 47.6866 53.0866 48.5903 55.0572 48.5902C55.3114 48.5902 55.5681 48.5749 55.8261 48.5443C56.3068 49.0951 56.8706 49.5694 57.4986 49.9471V50.972L53.9269 52.4199C53.6941 52.5143 53.4668 52.6211 53.2452 52.7392C52.5541 51.455 51.5675 50.332 50.3398 49.4789L45.6876 46.2465C45.7145 45.6529 45.4795 45.055 45.0009 44.6447L43.1106 43.0241C42.9314 42.8704 42.73 42.7543 42.5172 42.6754V40.4935C44.5154 39.0293 45.9323 36.8046 46.3476 34.2425H46.4613C48.4952 34.2425 50.1499 32.5708 50.1499 30.5161C50.1499 29.6388 49.8475 28.8318 49.3436 28.1945L50.1061 22.7182C50.6557 18.7703 47.9276 15.0815 44.0244 14.4949L43.8726 14.4722C42.6246 12.4142 40.6916 10.9294 38.3722 10.265L38.093 10.185C35.0181 9.3041 31.7289 9.82988 29.0689 11.6278C28.5792 11.9587 28.4478 12.6281 28.7754 13.1227C29.1029 13.6173 29.7653 13.7502 30.2551 13.4191C32.3944 11.9732 35.039 11.5503 37.511 12.2586L37.7902 12.3387C39.7309 12.8946 41.3241 14.1903 42.2761 15.9871C42.9311 17.2233 43.2202 18.5828 43.1368 19.9427L42.4137 19.3148C41.7527 18.7408 40.7809 18.7256 40.103 19.2788L39.1545 20.0529H33.74C30.2265 20.0529 27.368 22.9409 27.368 26.4906V26.7899C27.0851 26.7909 26.81 26.8251 26.5455 26.8873C25.3395 23.4573 25.6796 19.5928 27.4922 16.4317C27.7874 15.9165 27.6136 15.2572 27.1039 14.9588C26.5941 14.6606 25.9416 14.8361 25.6462 15.3511C23.4542 19.1742 23.0987 23.8746 24.6746 27.9883C24.066 28.6531 23.6932 29.5412 23.6932 30.5161C23.6932 32.5708 25.3479 34.2425 27.3818 34.2425H27.4956C27.9109 36.8046 29.3278 39.0293 31.3259 40.4935V42.6754C31.1132 42.7541 30.9118 42.8704 30.7327 43.024L28.8422 44.6447C28.3636 45.055 28.1286 45.653 28.1555 46.2465L23.5034 49.4789C22.558 50.1357 21.7552 50.9525 21.1203 51.8798C20.7089 51.6501 20.28 51.4539 19.836 51.2949L16.6774 50.1646V49.3152C18.2863 48.311 19.4429 46.6369 19.765 44.6809H20.2424C22.1139 44.6809 23.6365 43.1427 23.6365 41.2519C23.6365 40.403 23.329 39.6259 22.8214 39.0264L23.0118 36.7487C23.2765 33.4687 21.8599 30.3574 19.2223 28.4266C16.5847 26.4955 13.2171 26.1042 10.2144 27.3796L8.0882 28.2828C4.79604 29.017 2.59562 32.2042 3.06568 35.5896L3.5413 39.0153C3.02814 39.6163 2.7168 40.3978 2.7168 41.2519C2.7168 43.1427 4.23935 44.6809 6.11094 44.6809H6.58826C6.8895 46.51 7.9208 48.092 9.36897 49.1109V50.1646L6.21036 51.2948C5.76803 51.4531 5.33224 51.6514 4.91523 51.8845C4.39965 52.1725 4.21276 52.8282 4.49778 53.349C4.69235 53.7047 5.0566 53.9054 5.43223 53.9054C5.60674 53.9054 5.78382 53.862 5.94738 53.7706C6.26213 53.5948 6.59025 53.4453 6.92236 53.3265L9.65172 52.3498C10.2044 53.6807 11.5072 54.6179 13.023 54.6179C14.5387 54.6179 15.8415 53.6807 16.3942 52.3498L19.1236 53.3266C19.4669 53.4493 19.7983 53.6021 20.1159 53.7814C19.6922 54.8666 19.4651 56.036 19.4651 57.236V63.6296C19.4651 64.2249 19.9427 64.7073 20.5318 64.7073C21.1209 64.7073 21.5985 64.2249 21.5985 63.6296V57.236C21.5985 54.8455 22.7625 52.6096 24.712 51.255L29.1547 48.1681L30.9756 50.6279C31.3671 51.1567 31.9808 51.4546 32.6138 51.4546C32.811 51.4546 33.0101 51.4257 33.2048 51.3658L35.8546 50.551V64.0808C35.8546 64.6761 36.3323 65.1585 36.9214 65.1585C37.5105 65.1585 37.9881 64.6761 37.9881 64.0808V50.551L40.6382 51.3659C40.8329 51.4257 41.0318 51.4546 41.2289 51.4546C41.8618 51.4546 42.4757 51.1565 42.8671 50.6279L44.6879 48.1681L49.1306 51.255C51.0802 52.6096 52.2441 54.8455 52.2441 57.236V63.6296C52.2441 64.2249 52.7217 64.7073 53.3108 64.7073C53.8999 64.7073 54.3775 64.2249 54.3775 63.6296V57.236C54.3775 56.3872 54.2636 55.5536 54.0474 54.7541C54.2636 54.6266 54.4885 54.5148 54.721 54.4206L57.8183 53.165C58.367 54.3582 59.5639 55.1881 60.9496 55.1881C62.3354 55.1881 63.5322 54.3584 64.0809 53.1651L67.1784 54.4206C69.137 55.2144 70.4024 57.1049 70.4024 59.2369V61.0612C70.4024 61.6565 70.88 62.1389 71.4691 62.1389C72.0582 62.1389 72.5358 61.6565 72.5358 61.0612V59.2369C72.5357 56.2194 70.7445 53.5436 67.9726 52.4199ZM25.8262 30.5159C25.8262 29.6543 26.5165 28.9531 27.3676 28.9455V32.0861C26.5166 32.0786 25.8262 31.3775 25.8262 30.5159ZM20.2421 42.5254H19.8569V39.9779H20.2421C20.9373 39.9779 21.5028 40.5494 21.5028 41.2517C21.5028 41.9539 20.9373 42.5254 20.2421 42.5254ZM4.84994 41.2518C4.84994 40.5494 5.41544 39.9781 6.11066 39.9781H6.49581V42.5255H6.11066C5.41559 42.5254 4.84994 41.954 4.84994 41.2518ZM7.79137 34.5006C7.08379 35.4878 6.65596 36.6245 6.5335 37.8225H6.11066C5.91495 37.8225 5.72351 37.8403 5.53676 37.8725L5.17821 35.2899C4.85933 32.9937 6.3715 30.8333 8.62071 30.3716C8.68955 30.3576 8.75696 30.3366 8.82182 30.309L11.0412 29.3662C13.3512 28.3849 15.9415 28.6863 17.9704 30.1715C19.9993 31.657 21.089 34.0501 20.8857 36.5699L20.7773 37.8653C20.6029 37.8373 20.4243 37.8224 20.2421 37.8224H19.8475C19.7556 36.9086 18.9897 36.193 18.0614 36.193H15.4273C13.5501 36.193 11.6924 35.5618 10.1967 34.4158L9.89493 34.1846C9.57805 33.9418 9.17042 33.8363 8.77744 33.8955C8.38404 33.9547 8.02463 34.1753 7.79137 34.5006ZM9.51931 35.7648C9.51902 35.7652 9.51888 35.7655 9.51874 35.7658C9.51888 35.7655 9.51917 35.7652 9.51931 35.7648ZM8.62938 38.5398C8.62938 37.7604 8.81528 37.0072 9.17128 36.329C10.988 37.6336 13.1966 38.3487 15.4275 38.3487H17.7235V43.5697C17.7235 46.1029 15.6836 48.1638 13.1764 48.1638C10.6692 48.1638 8.62938 46.1029 8.62938 43.5697V38.5398ZM13.0228 52.4624C12.1842 52.4624 11.5021 51.7731 11.5021 50.9261V50.1044C12.0373 50.2445 12.5984 50.3192 13.1764 50.3192C13.6449 50.3192 14.1021 50.2698 14.5437 50.1766V50.9261C14.5437 51.7731 13.8614 52.4624 13.0228 52.4624ZM46.4747 32.0861V28.9455C47.3258 28.953 48.0161 29.6543 48.0161 30.5159C48.0161 31.3775 47.3258 32.0786 46.4747 32.0861ZM47.993 22.4176L47.3683 26.9037C47.0822 26.8303 46.7828 26.7908 46.4746 26.7896V26.7024C46.4746 24.9648 45.9426 23.2935 44.9793 21.897C45.3993 20.2626 45.3845 18.5799 44.9497 16.9806C47.0102 17.869 48.3187 20.0786 47.993 22.4176ZM29.5012 32.6775V26.4903C29.5012 24.129 31.4026 22.2081 33.7397 22.2081H39.5313C39.7752 22.2081 40.0117 22.1236 40.2014 21.9688L41.2302 21.1292L42.1858 21.959C43.5556 23.1485 44.3411 24.8776 44.3411 26.7024V32.6774C44.3411 36.8111 41.0126 40.1739 36.9211 40.1739C32.8296 40.1739 29.5012 36.8111 29.5012 32.6775ZM36.9212 42.3295C38.1423 42.3295 39.3091 42.0944 40.3835 41.6708V43.0517L36.9212 44.7669L33.459 43.0517V41.6708C34.5332 42.0943 35.7002 42.3295 36.9212 42.3295ZM32.6453 49.2845L30.3474 46.1805L32.0253 44.742L35.8544 46.6388V48.2977L32.6453 49.2845ZM41.197 49.2845L37.9879 48.2979V46.6389L41.817 44.7421L43.4949 46.1807L41.197 49.2845ZM51.7036 44.7486C50.7379 43.4835 50.5369 41.8535 51.1661 40.3878L52.7699 36.6514C52.9659 36.195 53.1009 35.7138 53.171 35.2209C53.7309 31.2901 57.1173 28.3259 61.048 28.3259C64.9788 28.3259 68.3651 31.2901 68.9249 35.2209C68.9951 35.7137 69.13 36.1949 69.326 36.6514L70.9298 40.3878C71.5589 41.8533 71.358 43.4835 70.3923 44.7486C69.6772 45.6852 68.6638 46.2619 67.5516 46.4002C67.7813 45.7973 67.931 45.1546 67.9861 44.4846C68.0347 43.8915 67.5981 43.3707 67.0111 43.3216C66.4246 43.2734 65.9087 43.7136 65.8599 44.3066C65.6544 46.8137 63.5407 48.7775 61.048 48.7775C58.3845 48.7775 56.2178 46.5885 56.2178 43.8975V38.7275C56.2178 37.5811 56.5518 36.4537 57.1669 35.4967C58.5472 36.5612 60.2487 37.17 61.9867 37.2164L65.8783 37.3202V39.8026C65.8783 40.398 66.3559 40.8804 66.945 40.8804C67.5341 40.8804 68.0117 40.398 68.0117 39.8026V37.0283C68.0117 36.0147 67.226 35.1998 66.2232 35.1732L62.0429 35.062C60.6893 35.0258 59.3656 34.5305 58.3155 33.6676L58.0399 33.441C57.7148 33.1738 57.3064 33.0514 56.8896 33.0967C56.473 33.1417 56.0993 33.3486 55.8378 33.6789C54.7069 35.1064 54.084 36.8994 54.084 38.7279V43.8979C54.084 44.7784 54.2462 45.6208 54.5399 46.3982C53.4297 46.2589 52.4177 45.6841 51.7036 44.7486ZM60.9495 53.0325C60.2228 53.0325 59.6316 52.4353 59.6316 51.701V50.7864C60.0891 50.8822 60.5627 50.9331 61.0479 50.9331C61.4629 50.9331 61.8701 50.8937 62.2672 50.8213V51.7012C62.2674 52.4353 61.6761 53.0325 60.9495 53.0325Z" fill="url(#paint2_linear)"/>
<path d="M2.75703 55.2083C2.2268 54.9483 1.5889 55.1728 1.33204 55.7085C0.760565 56.9013 0.470703 58.177 0.470703 59.5003V62.9358C0.470703 63.5311 0.948307 64.0135 1.53742 64.0135C2.12653 64.0135 2.60413 63.5311 2.60413 62.9358V59.5003C2.60413 58.5051 2.82217 57.5455 3.25241 56.6478C3.50913 56.1121 3.2874 55.4675 2.75703 55.2083Z" fill="#100C52"/>
<path d="M2.75703 55.2083C2.2268 54.9483 1.5889 55.1728 1.33204 55.7085C0.760565 56.9013 0.470703 58.177 0.470703 59.5003V62.9358C0.470703 63.5311 0.948307 64.0135 1.53742 64.0135C2.12653 64.0135 2.60413 63.5311 2.60413 62.9358V59.5003C2.60413 58.5051 2.82217 57.5455 3.25241 56.6478C3.50913 56.1121 3.2874 55.4675 2.75703 55.2083Z" fill="url(#paint3_linear)"/>
</g>
<defs>
<linearGradient id="paint0_linear" x1="26.597" y1="56.1824" x2="26.597" y2="64.0135" gradientUnits="userSpaceOnUse">
<stop stop-color="#0F0B52"/>
<stop offset="1" stop-color="#100C52"/>
</linearGradient>
<linearGradient id="paint1_linear" x1="47.2454" y1="56.1824" x2="47.2454" y2="64.0135" gradientUnits="userSpaceOnUse">
<stop stop-color="#0F0B52"/>
<stop offset="1" stop-color="#100C52"/>
</linearGradient>
<linearGradient id="paint2_linear" x1="38.0727" y1="9.76703" x2="38.0727" y2="65.1585" gradientUnits="userSpaceOnUse">
<stop stop-color="#0F0B52"/>
<stop offset="1" stop-color="#100C52"/>
</linearGradient>
<linearGradient id="paint3_linear" x1="1.91498" y1="55.1" x2="1.91498" y2="64.0135" gradientUnits="userSpaceOnUse">
<stop stop-color="#0F0B52"/>
<stop offset="1" stop-color="#100C52"/>
</linearGradient>
<clipPath id="clip0">
<rect width="72.9582" height="73.7103" fill="white" transform="translate(0.470703 0.607422)"/>
</clipPath>
</defs>
</svg>
