<svg width="57" height="57" viewBox="0 0 57 57" fill="none" xmlns="http://www.w3.org/2000/svg">
<path d="M26.2537 28.9619L24.6279 35.6973C26.7182 36.1618 33.1052 38.2521 34.0342 34.4199C34.9633 30.4716 28.344 29.5426 26.2537 28.9619Z" fill="#ED6C0C"/>
<path d="M34.0342 34.5361C35.0794 30.5878 28.344 29.5426 26.2537 29.0781L24.6279 35.6974" fill="#E05A00"/>
<path d="M28.577 19.7881L27.0674 25.9428C28.8093 26.4073 34.1511 28.1492 34.964 24.6654C35.7769 21.0655 30.3189 20.2526 28.577 19.7881Z" fill="#ED6C0C"/>
<path d="M34.964 24.6654C35.8931 21.0655 30.3189 20.2526 28.577 19.7881L27.0674 25.9428" fill="#E05A00"/>
<path d="M35.429 1.55595C20.4485 -2.16012 5.35201 7.01393 1.63594 21.8782C-2.08013 36.8586 6.97779 51.9552 21.9582 55.6712C36.9386 59.3873 52.0352 50.3294 55.7512 35.349C59.4673 20.4847 50.4094 5.38815 35.429 1.55595ZM41.0031 24.6653C40.6547 27.3362 39.145 28.7297 37.0547 29.1942C39.8418 30.5878 41.2353 32.7942 39.8418 36.6264C38.216 41.3876 34.2677 41.736 29.042 40.8069L27.7646 45.9165L24.7453 44.9875L26.0227 39.9941C25.2098 39.7618 24.3969 39.5295 23.584 39.4134L22.3066 44.4069L19.2873 43.594L20.5647 38.4844C19.8679 38.2521 19.1711 38.136 18.3583 37.9038L14.4099 36.8586L15.9196 33.3748L18.126 33.9554C18.9389 34.1877 19.4034 33.6071 19.5195 33.2587L21.4937 25.2459C21.6098 25.2459 21.7259 25.2459 21.8421 25.362C21.7259 25.362 21.6098 25.2459 21.4937 25.2459L22.8872 19.5557C22.8872 18.8589 22.655 18.046 21.4937 17.8138L19.2873 17.2331L20.1002 13.9816L24.2807 15.0267C24.8614 15.1428 25.5581 15.3751 26.2549 15.4912L27.5323 10.4977L30.5516 11.3106L29.2742 16.188C30.0871 16.4202 30.9 16.5364 31.7129 16.7686L32.8742 11.8913L35.8935 12.7042L34.6161 17.6976C38.6805 18.975 41.5837 20.9492 41.0031 24.6653Z" fill="#FFB600"/>
<path d="M1.63496 21.8779C-2.08111 36.8583 6.97681 51.9549 21.9572 55.6709C36.9376 59.387 52.0342 50.3291 55.7502 35.3487C59.4663 20.3683 50.4084 5.27173 35.428 1.55566L1.63496 21.8779ZM41.0021 24.665C40.6537 27.3359 39.1441 28.7294 37.0538 29.1939C39.8408 30.5875 41.2343 32.7939 39.8408 36.6261C38.215 41.3873 34.2667 41.7357 29.041 40.8067L27.7636 45.9163L24.7443 44.9872L26.0217 39.9938C25.2088 39.7615 24.3959 39.5293 23.583 39.4131L22.3056 44.4066L19.2863 43.5937L20.5637 38.4841C19.8669 38.2519 19.1702 38.1357 18.3573 37.9035L14.409 36.8583L15.9186 33.3745L18.125 33.9552C18.9379 34.1874 19.4024 33.6068 19.5186 33.2584L21.4927 25.2456C21.6088 25.2456 21.725 25.2456 21.8411 25.3617C21.725 25.3617 21.6088 25.2456 21.4927 25.2456L22.8862 19.5554C22.8862 18.8586 22.654 18.0457 21.4927 17.8135L19.2863 17.2328L20.0992 13.9813L24.2798 15.0264C24.8604 15.1425 25.5572 15.3748 26.2539 15.4909L27.5313 10.4975L30.5506 11.3103L29.2732 16.1877C30.0861 16.4199 30.899 16.5361 31.7119 16.7683L32.8732 11.891L35.8925 12.7039L34.6151 17.6973C38.6795 18.9747 41.5827 20.9489 41.0021 24.665Z" fill="#F6921E"/>
<path d="M55.5176 36.3944L40.421 21.2979C41.0016 22.2269 41.35 23.3881 41.1178 24.7817C40.7694 27.4526 39.2597 28.8461 37.1694 29.3106C39.9565 30.7042 41.35 32.9106 39.9565 36.7428C38.3307 41.504 34.3824 41.8524 29.1567 40.9234L27.8793 46.0329L24.7438 44.9878L26.0212 39.9943C25.2083 39.7621 24.3955 39.5298 23.5826 39.4137L22.3052 44.4072L21.6084 44.1749L33.4534 56.0199C43.6726 54.278 52.4982 46.8458 55.5176 36.3944Z" fill="#D85107"/>
<path d="M14.4092 36.9756L19.6349 42.2013L20.5639 38.4852C19.8672 38.253 19.1704 38.1369 18.3575 37.9046L14.4092 36.9756Z" fill="#E26600"/>
<path d="M35.3122 16.1885L34.8477 17.6981C36.2412 18.1626 37.5186 18.7433 38.5637 19.44L35.3122 16.1885Z" fill="#E26600"/>
<path d="M30.6661 11.3105L29.3887 16.1879C30.2016 16.4201 31.0145 16.5363 31.8273 16.7685L32.6402 13.2847L30.6661 11.3105Z" fill="#ED6C0C"/>
<path d="M36.1251 12.5879L34.8477 17.5814L34.9638 17.6975C38.4476 18.8588 41.1185 20.7168 41.1185 23.8522L55.0538 37.7875C55.286 36.9746 55.5183 36.1617 55.7506 35.465C55.9828 34.5359 56.0989 33.723 56.2151 32.794L36.1251 12.5879Z" fill="#ED6C0C"/>
<path d="M38.7954 54.6257L28.2278 44.0581L27.7633 45.8L24.744 44.9871L25.673 41.3872L23.5828 39.2969L22.3054 44.2903L19.286 43.4775V43.3613L19.1699 43.4775L31.8278 56.1353C34.2665 56.0192 36.589 55.4386 38.7954 54.6257Z" fill="#ED6C0C"/>
<path d="M41.6998 53.2322L29.158 40.6904C29.158 40.6904 29.158 40.6904 29.0419 40.6904L27.7645 45.8L24.8613 45.1033L35.4289 55.6708C37.6353 55.0902 39.7256 54.2773 41.6998 53.2322Z" fill="#E05A00"/>
</svg>
