<svg width="29" height="29" viewBox="0 0 29 29" fill="none" xmlns="http://www.w3.org/2000/svg">
<path d="M12.967 14.3838L12.1387 17.8153C13.2036 18.0519 16.4576 19.1169 16.9309 17.1645C17.4042 15.1529 14.0319 14.6796 12.967 14.3838Z" fill="#ED6C0C"/>
<path d="M16.9309 17.2241C17.4634 15.2125 14.0319 14.68 12.967 14.4434L12.1387 17.8157" fill="#E05A00"/>
<path d="M14.151 9.70996L13.3818 12.8456C14.2693 13.0823 16.9908 13.9697 17.405 12.1948C17.8191 10.3608 15.0384 9.94662 14.151 9.70996Z" fill="#ED6C0C"/>
<path d="M17.405 12.1948C17.8783 10.3608 15.0384 9.94662 14.151 9.70996L13.3818 12.8456" fill="#E05A00"/>
<path d="M17.6421 0.421057C10.01 -1.47218 2.31871 3.20175 0.425471 10.7747C-1.46777 18.4068 3.147 26.0981 10.7791 27.9913C18.4112 29.8846 26.1025 25.2698 27.9957 17.6377C29.889 10.0647 25.2742 2.37346 17.6421 0.421057ZM20.482 12.1946C20.3045 13.5554 19.5353 14.2654 18.4704 14.502C19.8903 15.212 20.6003 16.3361 19.8903 18.2885C19.062 20.7142 17.0505 20.8917 14.3881 20.4184L13.7373 23.0216L12.199 22.5483L12.8498 20.0042C12.4357 19.8859 12.0216 19.7676 11.6074 19.7084L10.9566 22.2525L9.41835 21.8383L10.0692 19.2351C9.71417 19.1168 9.35919 19.0576 8.94504 18.9393L6.93348 18.4068L7.7026 16.6319L8.82671 16.9277C9.24086 17.0461 9.47752 16.7502 9.53668 16.5727L10.5425 12.4905C10.6016 12.4905 10.6608 12.4904 10.72 12.5496C10.6608 12.5496 10.6016 12.4905 10.5425 12.4905L11.2524 9.59143C11.2524 9.23645 11.1341 8.8223 10.5425 8.70397L9.41835 8.40816L9.8325 6.75157L11.9624 7.28405C12.2582 7.34321 12.6132 7.46154 12.9682 7.5207L13.619 4.97666L15.1572 5.39081L14.5064 7.87568C14.9206 7.99401 15.3347 8.05317 15.7489 8.1715L16.3405 5.68663L17.8788 6.10077L17.228 8.64481C19.2987 9.29561 20.7778 10.3014 20.482 12.1946Z" fill="#FFB600"/>
<path d="M0.424495 10.7745C-1.46874 18.4067 3.14602 26.0979 10.7781 27.9912C18.4103 29.8844 26.1015 25.2696 27.9948 17.6375C29.888 10.0054 25.2732 2.31414 17.6411 0.420898L0.424495 10.7745ZM20.481 12.1945C20.3035 13.5552 19.5344 14.2652 18.4694 14.5019C19.8893 15.2118 20.5993 16.3359 19.8893 18.2883C19.0611 20.714 17.0495 20.8915 14.3871 20.4182L13.7363 23.0214L12.1981 22.5481L12.8489 20.0041C12.4347 19.8858 12.0206 19.7674 11.6064 19.7083L10.9556 22.2523L9.41737 21.8382L10.0682 19.235C9.71319 19.1166 9.35821 19.0575 8.94407 18.9391L6.9325 18.4067L7.70163 16.6318L8.82574 16.9276C9.23988 17.0459 9.47654 16.7501 9.5357 16.5726L10.5415 12.4903C10.6006 12.4903 10.6598 12.4903 10.719 12.5495C10.6598 12.5495 10.6006 12.4903 10.5415 12.4903L11.2514 9.59127C11.2514 9.23629 11.1331 8.82214 10.5415 8.70382L9.41737 8.408L9.83152 6.75141L11.9614 7.28389C12.2572 7.34305 12.6122 7.46138 12.9672 7.52054L13.618 4.9765L15.1563 5.39065L14.5055 7.87552C14.9196 7.99385 15.3337 8.05301 15.7479 8.17134L16.3395 5.68647L17.8778 6.10061L17.227 8.64465C19.2977 9.29545 20.7768 10.3012 20.481 12.1945Z" fill="#F6921E"/>
<path d="M27.8764 18.1708L20.1851 10.4795C20.4809 10.9528 20.6584 11.5444 20.5401 12.2544C20.3626 13.6152 19.5935 14.3251 18.5285 14.5618C19.9485 15.2718 20.6584 16.3959 19.9484 18.3483C19.1202 20.774 17.1086 20.9515 14.4462 20.4782L13.7954 23.0814L12.198 22.5489L12.8488 20.0048C12.4347 19.8865 12.0205 19.7682 11.6064 19.709L10.9556 22.2531L10.6006 22.1347L16.6353 28.1694C21.8417 27.282 26.3381 23.4955 27.8764 18.1708Z" fill="#D85107"/>
<path d="M6.93262 18.4668L9.59498 21.1292L10.0683 19.2359C9.71331 19.1176 9.35833 19.0584 8.94418 18.9401L6.93262 18.4668Z" fill="#E26600"/>
<path d="M17.5824 7.87598L17.3457 8.6451C18.0557 8.88176 18.7065 9.17758 19.2389 9.53256L17.5824 7.87598Z" fill="#E26600"/>
<path d="M15.2143 5.3916L14.5635 7.87648C14.9776 7.9948 15.3918 8.05397 15.8059 8.17229L16.2201 6.39738L15.2143 5.3916Z" fill="#ED6C0C"/>
<path d="M17.9955 6.04199L17.3447 8.58603L17.4039 8.64519C19.1788 9.23683 20.5396 10.1835 20.5396 11.7809L27.6392 18.8805C27.7575 18.4664 27.8759 18.0522 27.9942 17.6972C28.1125 17.2239 28.1717 16.8098 28.2308 16.3365L17.9955 6.04199Z" fill="#ED6C0C"/>
<path d="M19.3561 27.459L13.9722 22.0751L13.7355 22.9626L12.1973 22.5484L12.6706 20.7144L11.6056 19.6494L10.9548 22.1935L9.41659 21.7793V21.7201L9.35742 21.7793L15.8063 28.2281C17.0487 28.169 18.232 27.8732 19.3561 27.459Z" fill="#ED6C0C"/>
<path d="M20.8365 26.7491L14.4469 20.3594C14.4469 20.3594 14.4469 20.3594 14.3877 20.3594L13.7369 22.9626L12.2578 22.6076L17.6417 27.9915C18.7658 27.6957 19.8308 27.2815 20.8365 26.7491Z" fill="#E05A00"/>
</svg>
