<svg width="57" height="57" viewBox="0 0 57 57" fill="none" xmlns="http://www.w3.org/2000/svg">
<g clip-path="url(#clip0)">
<path d="M52.9734 19.1783V30.0211L45.1161 32.9373L4.7089 20.8963L4.16113 18.4587V16.3966C4.16113 13.4021 6.58866 10.9746 9.58199 10.9746H44.7698C49.3 10.9746 52.9734 14.6481 52.9734 19.1783Z" fill="#665E66"/>
<path d="M52.9733 25.6051V30.0208L48.3077 39.5387L4.16113 24.7343V22.8222C4.16113 19.8278 6.58866 17.4014 9.58199 17.4014H44.7697C49.2998 17.4014 52.9733 21.0738 52.9733 25.6051Z" fill="#544F57"/>
<path d="M43.8332 12.94C43.8332 19.7238 38.3332 25.2227 31.5494 25.2227C31.341 25.2227 31.1339 25.2171 30.9289 25.207C24.4334 24.8837 19.2656 19.5156 19.2656 12.94C19.2656 8.97949 21.1406 5.45577 24.0517 3.21145C26.1259 1.60892 28.7262 0.65625 31.5494 0.65625C38.3332 0.65625 43.8332 6.15625 43.8332 12.94Z" fill="#FFE07D"/>
<path d="M33.2395 25.1081C32.6867 25.1841 32.1233 25.2239 31.5494 25.2239C24.7657 25.2239 19.2666 19.7248 19.2666 12.94C19.2666 6.15635 24.7657 0.657227 31.5494 0.657227C32.1233 0.657227 32.6866 0.697017 33.2395 0.77299C27.2553 1.59579 22.6468 6.73025 22.6468 12.94C22.6468 19.1509 27.2553 24.2853 33.2395 25.1081Z" fill="#FFC250"/>
<path d="M35.7138 15.4789C35.7138 19.4406 33.8387 22.9642 30.9289 25.2074C24.4334 24.8842 19.2656 19.516 19.2656 12.9405C19.2656 8.97995 21.1406 5.45623 24.0517 3.21191C30.5471 3.53515 35.7138 8.90343 35.7138 15.4789Z" fill="#FFC250"/>
<path d="M21.0159 29.5454C27.7998 29.5454 33.2993 24.0459 33.2993 17.262C33.2993 10.478 27.7998 4.97852 21.0159 4.97852C14.2319 4.97852 8.73242 10.478 8.73242 17.262C8.73242 24.0459 14.2319 29.5454 21.0159 29.5454Z" fill="#FFE07D"/>
<path d="M22.7053 29.4304C22.1525 29.5064 21.5891 29.5462 21.0152 29.5462C14.2315 29.5462 8.73242 24.047 8.73242 17.2623C8.73242 10.4786 14.2315 4.97949 21.0152 4.97949C21.5891 4.97949 22.1524 5.01928 22.7053 5.09525C16.7212 5.91806 12.1126 11.0525 12.1126 17.2623C12.1126 23.473 16.7212 28.6076 22.7053 29.4304Z" fill="#FFC250"/>
<path d="M20.9199 9.64769L16.2477 15.7851C15.4153 16.8786 16.1951 18.4523 17.5694 18.4523H20.0149V24.1592C20.0149 25.3188 21.5096 25.7866 22.1707 24.834L25.826 19.567C26.5904 18.4655 25.8021 16.9589 24.4613 16.9589H23.0451V10.3646C23.0451 9.23143 21.6062 8.74607 20.9199 9.64769Z" fill="#FFC250"/>
<path d="M52.9734 30.0211V48.4213C52.9734 52.9527 49.3 56.6251 44.7698 56.6251H35.3347L33.347 55.9785L32.1791 56.625H29.3834L28.1006 56.1055L26.2276 56.625H23.4307L22.2342 55.6762L20.2749 56.625H9.58199C6.58877 56.625 4.16113 54.1974 4.16113 51.2041V16.3965C4.16113 17.8938 4.76771 19.2484 5.74957 20.2289C6.73022 21.2107 8.08593 21.8173 9.58199 21.8173H44.7698C49.3 21.8173 52.9734 25.4896 52.9734 30.0211Z" fill="#5252DD"/>
<path d="M9.78531 21.8173V56.6249H9.58199C6.58877 56.6249 4.16113 54.1974 4.16113 51.2041V16.3965C4.16113 17.8938 4.76771 19.2484 5.74957 20.2289C6.73022 21.2106 8.08593 21.8173 9.58199 21.8173H9.78531Z" fill="#6767FF"/>
<path d="M23.4308 49.7486V56.6257H20.2751V50.4031L14.0712 44.1981C13.4541 43.5821 13.4541 42.5829 14.0712 41.9669C14.6872 41.3509 15.6864 41.3509 16.3024 41.9669L22.968 48.6337C23.2637 48.9293 23.4308 49.3301 23.4308 49.7486Z" fill="#FFC250"/>
<path d="M41.5393 40.1072L35.3355 46.3123V56.6257H32.1797V45.6579C32.1797 45.2394 32.3456 44.8385 32.6413 44.5429L39.3081 37.876C39.9241 37.2601 40.9233 37.2601 41.5393 37.876C42.1552 38.492 42.1552 39.4913 41.5393 40.1072Z" fill="#FFC250"/>
<path d="M29.3835 40.7969V56.6257H26.2277V41.4513L22.005 37.2286C21.389 36.6115 21.389 35.6134 22.005 34.9962C22.6209 34.3802 23.6202 34.3802 24.2362 34.9962L28.9207 39.6818C29.2176 39.9775 29.3835 40.3784 29.3835 40.7969Z" fill="#FFC250"/>
<path d="M15.1867 46.2503C16.9364 46.2503 18.3548 44.8319 18.3548 43.0822C18.3548 41.3325 16.9364 39.9141 15.1867 39.9141C13.437 39.9141 12.0186 41.3325 12.0186 43.0822C12.0186 44.8319 13.437 46.2503 15.1867 46.2503Z" fill="#FFE07D"/>
<path d="M16.2752 46.0595C15.9362 46.1833 15.5693 46.2512 15.1859 46.2512C13.4362 46.2512 12.0186 44.8323 12.0186 43.0826C12.0186 41.333 13.4362 39.9141 15.1859 39.9141C15.5693 39.9141 15.9362 39.9818 16.2752 40.1058C15.0621 40.5511 14.196 41.7152 14.196 43.0827C14.196 44.4501 15.0619 45.6142 16.2752 46.0595Z" fill="#FFC250"/>
<path d="M40.423 42.1595C42.1727 42.1595 43.5911 40.7411 43.5911 38.9914C43.5911 37.2417 42.1727 35.8232 40.423 35.8232C38.6733 35.8232 37.2549 37.2417 37.2549 38.9914C37.2549 40.7411 38.6733 42.1595 40.423 42.1595Z" fill="#FFE07D"/>
<path d="M41.5116 41.9686C41.1726 42.0925 40.8056 42.1604 40.4222 42.1604C38.6726 42.1604 37.2549 40.7415 37.2549 38.9918C37.2549 37.2421 38.6726 35.8232 40.4222 35.8232C40.8056 35.8232 41.1726 35.891 41.5116 36.015C40.2984 36.4603 39.4323 37.6244 39.4323 38.9919C39.4322 40.3592 40.2983 41.5234 41.5116 41.9686Z" fill="#FFC250"/>
<path d="M23.1203 39.2806C24.87 39.2806 26.2884 37.8622 26.2884 36.1125C26.2884 34.3628 24.87 32.9443 23.1203 32.9443C21.3706 32.9443 19.9521 34.3628 19.9521 36.1125C19.9521 37.8622 21.3706 39.2806 23.1203 39.2806Z" fill="#FFE07D"/>
<path d="M24.2088 39.0887C23.8698 39.2126 23.5029 39.2805 23.1195 39.2805C21.3698 39.2805 19.9521 37.8616 19.9521 36.1119C19.9521 34.3622 21.3698 32.9434 23.1195 32.9434C23.5029 32.9434 23.8698 33.0111 24.2088 33.1351C22.9957 33.5804 22.1296 34.7445 22.1296 36.112C22.1296 37.4793 22.9957 38.6434 24.2088 39.0887Z" fill="#FFC250"/>
<path d="M48.643 7.63213H46.9619V5.951C46.9619 4.42902 45.728 3.19531 44.2062 3.19531C42.6843 3.19531 41.4505 4.42913 41.4505 5.951V7.63213H39.7694C38.2474 7.63213 37.0137 8.86595 37.0137 10.3878C37.0137 11.9098 38.2475 13.1435 39.7694 13.1435H41.4505V14.8246C41.4505 16.3466 42.6843 17.5803 44.2062 17.5803C45.728 17.5803 46.9619 16.3465 46.9619 14.8246V13.1435H48.643C50.165 13.1435 51.3987 11.9097 51.3987 10.3878C51.3988 8.86584 50.165 7.63213 48.643 7.63213Z" fill="#F9F6F6"/>
</g>
<defs>
<clipPath id="clip0">
<rect width="55.9685" height="55.9685" fill="white" transform="translate(0.583984 0.65625)"/>
</clipPath>
</defs>
</svg>
