<svg width="56" height="55" viewBox="0 0 56 55" fill="none" xmlns="http://www.w3.org/2000/svg">
<g clip-path="url(#clip0)">
<path d="M28.1191 41.708L12.874 34.4053L28.1053 54.515L30.3936 51.4936V40.6151L28.1191 41.708Z" fill="#708299"/>
<path d="M28.1044 0.620117L10.6104 31.4179H45.5988L28.1044 0.620117Z" fill="#708299"/>
<path d="M45.5989 31.4635L28.1045 0.620117V31.4635H45.5989Z" fill="#68788E"/>
<path d="M22.8115 17.7256H26.2448V21.0941H22.8115V17.7256Z" fill="white"/>
<path d="M28.1037 23.0545L28.0349 23.0225L10.6113 31.4437H10.6268L28.0504 39.8649L28.1192 39.8328L30.3919 38.7415V24.1541L28.1037 23.0545Z" fill="#3C3C47"/>
<path d="M22.8115 11.3545H26.2448V14.723H22.8115V11.3545Z" fill="white"/>
<path d="M28.1183 41.7089L28.1045 54.5159L43.3467 34.3926L28.1183 41.7089Z" fill="#68788E"/>
<path d="M45.5666 31.4437L28.1049 23.0545L28.0361 23.0225L28.0516 39.8649L28.1204 39.8328L45.5821 31.4437H45.5666Z" fill="#31313B"/>
</g>
<defs>
<clipPath id="clip0">
<rect width="54.9321" height="53.8956" fill="white" transform="translate(0.632812 0.620117)"/>
</clipPath>
</defs>
</svg>
