<svg width="28" height="28" viewBox="0 0 28 28" fill="none" xmlns="http://www.w3.org/2000/svg">
<g clip-path="url(#clip0)">
<path d="M14.0033 20.9334L6.23633 17.2129L13.9963 27.4582L15.1621 25.9189V20.3766L14.0033 20.9334Z" fill="#708299"/>
<path d="M13.9957 0L5.08301 15.6906H22.9087L13.9957 0Z" fill="#708299"/>
<path d="M22.909 15.7139L13.9961 0V15.7139H22.909Z" fill="#68788E"/>
<path d="M11.2998 8.71484H13.049V10.431H11.2998V8.71484Z" fill="white"/>
<path d="M13.9959 11.4294L13.9608 11.4131L5.08398 15.7035H5.09188L13.9687 19.9938L14.0038 19.9775L15.1617 19.4215V11.9896L13.9959 11.4294Z" fill="#3C3C47"/>
<path d="M11.2998 5.46875H13.049V7.1849H11.2998V5.46875Z" fill="white"/>
<path d="M14.0031 20.9335L13.9961 27.4583L21.7616 17.2061L14.0031 20.9335Z" fill="#68788E"/>
<path d="M22.8922 15.7035L13.996 11.4294L13.9609 11.4131L13.9688 19.9938L14.0039 19.9775L22.9001 15.7035H22.8922Z" fill="#31313B"/>
</g>
<defs>
<clipPath id="clip0">
<rect width="27.9864" height="27.4584" fill="white"/>
</clipPath>
</defs>
</svg>
