<svg width="57" height="57" viewBox="0 0 57 57" fill="none" xmlns="http://www.w3.org/2000/svg">
<g clip-path="url(#clip0)">
<path d="M28.7743 56.6609C44.2296 56.6609 56.7586 44.1319 56.7586 28.6766C56.7586 13.2214 44.2296 0.692383 28.7743 0.692383C13.319 0.692383 0.790039 13.2214 0.790039 28.6766C0.790039 44.1319 13.319 56.6609 28.7743 56.6609Z" fill="#72F4C3"/>
<path d="M56.7582 28.6766C56.7582 44.1316 44.2289 56.6609 28.774 56.6609C28.0329 56.6609 27.2976 56.6316 26.5713 56.5753C40.9959 55.4515 52.3517 43.3895 52.3517 28.6766C52.3517 13.9638 40.9959 1.90183 26.5713 0.777975C27.2976 0.721679 28.0329 0.692383 28.774 0.692383C44.2289 0.692383 56.7582 13.2217 56.7582 28.6766Z" fill="#69E8B4"/>
<path d="M28.7731 53.1399C42.2833 53.1399 53.2356 42.1876 53.2356 28.6773C53.2356 15.1671 42.2833 4.21484 28.7731 4.21484C15.2628 4.21484 4.31055 15.1671 4.31055 28.6773C4.31055 42.1876 15.2628 53.1399 28.7731 53.1399Z" fill="#DCFBED"/>
<path d="M53.2363 28.6772C53.2363 42.1872 42.2839 53.1395 28.774 53.1395C27.9596 53.1395 27.1546 53.0998 26.3613 53.0215C38.7379 51.8099 48.4098 41.3728 48.4098 28.6772C48.4098 15.9817 38.7379 5.54453 26.3613 4.3329C27.1546 4.25463 27.9597 4.21484 28.774 4.21484C42.2839 4.21495 53.2363 15.1673 53.2363 28.6772Z" fill="#9FF7D3"/>
<path d="M28.7731 49.1984C40.1065 49.1984 49.2941 40.0108 49.2941 28.6773C49.2941 17.3439 40.1065 8.15625 28.7731 8.15625C17.4396 8.15625 8.25195 17.3439 8.25195 28.6773C8.25195 40.0108 17.4396 49.1984 28.7731 49.1984Z" fill="#27E19D"/>
<path d="M49.2955 28.6767C49.2955 39.9921 40.0894 49.1981 28.7741 49.1981C27.7764 49.1981 26.7955 49.1261 25.8359 48.9887C35.7639 47.5584 43.4183 38.9943 43.4183 28.6767C43.4183 18.3591 35.7639 9.79498 25.8359 8.36472C26.7954 8.22731 27.7763 8.15527 28.7741 8.15527C40.0894 8.15527 49.2955 17.3613 49.2955 28.6767Z" fill="#26D192"/>
<path d="M40.3059 26.839C38.0903 26.3035 35.0229 25.9354 31.6685 25.8027C31.5662 25.7988 31.4682 25.8138 31.3766 25.8431V24.169H38.8797C39.3843 24.169 39.7937 23.7596 39.7937 23.2551V19.8778C39.7937 19.3734 39.3842 18.9639 38.8797 18.9639H18.6692C18.1646 18.9639 17.7552 19.3734 17.7552 19.8778V23.255C17.7552 23.7594 18.1647 24.1689 18.6692 24.1689H26.1722V25.8904C26.051 25.8317 25.9142 25.8011 25.7709 25.8071C22.4418 25.9441 19.4007 26.3135 17.2077 26.8476C14.4729 27.5136 13.1992 28.3727 13.1992 29.5513C13.1992 30.8598 14.7857 31.7881 18.1919 32.4726C20.4006 32.9165 23.1706 33.2041 26.1722 33.3101V44.5852C26.1722 45.0898 26.5817 45.4992 27.0862 45.4992H30.4626C30.967 45.4992 31.3765 45.0897 31.3765 44.5852V33.3101C34.3782 33.2042 37.1482 32.9165 39.3568 32.4726C42.7631 31.7881 44.3495 30.8598 44.3495 29.5513C44.3496 28.3679 43.0647 27.506 40.3059 26.839ZM19.0403 30.9152C16.2727 30.4115 15.2103 29.823 14.9383 29.554C15.1263 29.3703 15.812 28.8794 18.0697 28.3819C20.1109 27.9322 22.8706 27.6172 25.8406 27.495C25.9595 27.4901 26.0715 27.4606 26.1723 27.4119V31.6201C23.525 31.5239 21.0555 31.282 19.0403 30.9152ZM38.5086 30.9152C36.4934 31.2821 34.0239 31.524 31.3765 31.6201V27.4501C31.4478 27.473 31.523 27.4876 31.6015 27.4906C34.596 27.609 37.3813 27.9229 39.4444 28.3742C41.5434 28.8335 42.3807 29.3236 42.6124 29.552C42.3441 29.8199 41.2833 30.4102 38.5086 30.9152Z" fill="#26D192"/>
<path d="M39.7933 18.4638V21.841C39.7933 22.3458 39.3841 22.755 38.8793 22.755H31.9393C31.6283 22.755 31.3762 23.0071 31.3762 23.3181V43.1711C31.3762 43.676 30.9671 44.0851 30.4623 44.0851H27.0859C26.5811 44.0851 26.1719 43.676 26.1719 43.1711V23.3181C26.1719 23.0071 25.9198 22.755 25.6088 22.755H18.6689C18.164 22.755 17.7549 22.3458 17.7549 21.841V18.4638C17.7549 17.959 18.164 17.5498 18.6689 17.5498H38.8794C39.3841 17.5497 39.7933 17.959 39.7933 18.4638Z" fill="#DCFBED"/>
<path d="M31.3763 31.6201V33.3101C30.5254 33.3394 29.6552 33.3549 28.7741 33.3549C27.8929 33.3549 27.0229 33.3394 26.1719 33.3101V31.6201C27.0228 31.6512 27.8929 31.6667 28.7741 31.6667C29.6551 31.6667 30.5253 31.6512 31.3763 31.6201Z" fill="#72F4C3"/>
<path d="M39.8524 25.2747C37.5968 24.7713 34.6204 24.4402 31.3772 24.3242V26.0145C34.2533 26.1203 36.929 26.4019 39.0067 26.8208C41.447 27.3151 42.3818 27.8636 42.6193 28.1091C42.3648 28.376 41.3153 28.9774 38.5191 29.492C35.8547 29.983 32.3929 30.2533 28.7746 30.2533C25.1564 30.2533 21.6947 29.983 19.0302 29.492C16.2341 28.9774 15.1845 28.376 14.93 28.1091C15.1676 27.8636 16.1023 27.3151 18.5426 26.8208C20.6203 26.4019 23.296 26.1203 26.1721 26.0145V24.3242C22.9289 24.4402 19.9525 24.7713 17.6969 25.2747C14.6283 25.9571 13.1992 26.858 13.1992 28.1092C13.1992 29.4246 14.7848 30.3592 18.1903 31.0506C21.0269 31.626 24.7848 31.9425 28.7747 31.9425C32.7647 31.9425 36.5224 31.626 39.3592 31.0506C42.7647 30.3592 44.3503 29.4244 44.3503 28.1092C44.3501 26.8581 42.921 25.9571 39.8524 25.2747Z" fill="#9FF7D3"/>
</g>
<defs>
<clipPath id="clip0">
<rect width="55.9685" height="55.9685" fill="white" transform="translate(0.790039 0.692383)"/>
</clipPath>
</defs>
</svg>
