<svg width="29" height="29" viewBox="0 0 29 29" fill="none" xmlns="http://www.w3.org/2000/svg">
<g clip-path="url(#clip0)">
<path d="M14.2572 28.5145C22.1313 28.5145 28.5145 22.1313 28.5145 14.2572C28.5145 6.38318 22.1313 0 14.2572 0C6.38318 0 0 6.38318 0 14.2572C0 22.1313 6.38318 28.5145 14.2572 28.5145Z" fill="#72F4C3"/>
<path d="M28.5142 14.2572C28.5142 22.1311 22.1309 28.5145 14.257 28.5145C13.8794 28.5145 13.5048 28.4995 13.1348 28.4708C20.4837 27.8983 26.2692 21.753 26.2692 14.2572C26.2692 6.76143 20.4837 0.616179 13.1348 0.0436071C13.5048 0.0149255 13.8794 0 14.257 0C22.1309 0 28.5142 6.38334 28.5142 14.2572Z" fill="#69E8B4"/>
<path d="M14.2569 26.7209C21.1401 26.7209 26.7199 21.141 26.7199 14.2579C26.7199 7.37479 21.1401 1.79492 14.2569 1.79492C7.37381 1.79492 1.79395 7.37479 1.79395 14.2579C1.79395 21.141 7.37381 26.7209 14.2569 26.7209Z" fill="#DCFBED"/>
<path d="M26.7204 14.2579C26.7204 21.1408 21.1405 26.7207 14.2575 26.7207C13.8426 26.7207 13.4325 26.7005 13.0283 26.6606C19.3339 26.0433 24.2614 20.7259 24.2614 14.2579C24.2614 7.78981 19.3339 2.47236 13.0283 1.85507C13.4325 1.81519 13.8427 1.79492 14.2575 1.79492C21.1405 1.79498 26.7204 7.3749 26.7204 14.2579Z" fill="#9FF7D3"/>
<path d="M14.2567 24.7126C20.0308 24.7126 24.7116 20.0318 24.7116 14.2577C24.7116 8.48357 20.0308 3.80273 14.2567 3.80273C8.4826 3.80273 3.80176 8.48357 3.80176 14.2577C3.80176 20.0318 8.4826 24.7126 14.2567 24.7126Z" fill="#27E19D"/>
<path d="M24.7118 14.2578C24.7118 20.0227 20.0215 24.713 14.2567 24.713C13.7484 24.713 13.2486 24.6763 12.7598 24.6063C17.8178 23.8776 21.7175 19.5144 21.7175 14.2578C21.7175 9.00133 17.8178 4.63812 12.7598 3.90944C13.2486 3.83944 13.7483 3.80273 14.2567 3.80273C20.0215 3.80273 24.7118 8.49297 24.7118 14.2578Z" fill="#26D192"/>
<path d="M20.1324 13.3208C19.0036 13.0479 17.4408 12.8604 15.7319 12.7928C15.6797 12.7908 15.6298 12.7984 15.5832 12.8134V11.9605H19.4058C19.6629 11.9605 19.8714 11.7519 19.8714 11.4948V9.77424C19.8714 9.51722 19.6628 9.30859 19.4058 9.30859H9.10905C8.85198 9.30859 8.64341 9.51722 8.64341 9.77424V11.4948C8.64341 11.7518 8.85203 11.9604 9.10905 11.9604H12.9317V12.8375C12.8699 12.8076 12.8002 12.792 12.7272 12.795C11.0311 12.8648 9.48175 13.053 8.3645 13.3251C6.97119 13.6645 6.32227 14.1021 6.32227 14.7026C6.32227 15.3692 7.13053 15.8422 8.8659 16.1909C9.99116 16.4171 11.4024 16.5636 12.9317 16.6176V22.362C12.9317 22.619 13.1403 22.8276 13.3973 22.8276H15.1175C15.3745 22.8276 15.5831 22.619 15.5831 22.362V16.6176C17.1124 16.5637 18.5236 16.4171 19.6489 16.1909C21.3842 15.8422 22.1925 15.3692 22.1925 14.7026C22.1926 14.0997 21.5379 13.6606 20.1324 13.3208ZM9.29813 15.3975C7.88811 15.1409 7.34684 14.841 7.20827 14.704C7.30407 14.6104 7.65342 14.3603 8.80364 14.1068C9.84358 13.8777 11.2496 13.7173 12.7627 13.655C12.8233 13.6525 12.8804 13.6374 12.9317 13.6127V15.7566C11.583 15.7076 10.3248 15.5843 9.29813 15.3975ZM19.2167 15.3975C18.19 15.5844 16.9319 15.7076 15.5831 15.7566V13.6321C15.6194 13.6438 15.6577 13.6512 15.6977 13.6528C17.2234 13.7131 18.6424 13.873 19.6935 14.1029C20.7629 14.3369 21.1894 14.5866 21.3075 14.7029C21.1708 14.8394 20.6303 15.1402 19.2167 15.3975Z" fill="#26D192"/>
<path d="M19.8715 9.05451V10.7751C19.8715 11.0323 19.6631 11.2408 19.4059 11.2408H15.8701C15.7117 11.2408 15.5833 11.3692 15.5833 11.5276V21.6422C15.5833 21.8994 15.3748 22.1079 15.1176 22.1079H13.3975C13.1403 22.1079 12.9318 21.8994 12.9318 21.6422V11.5276C12.9318 11.3692 12.8034 11.2408 12.6449 11.2408H9.1092C8.85201 11.2408 8.64355 11.0323 8.64355 10.7751V9.05451C8.64355 8.79732 8.85201 8.58887 9.1092 8.58887H19.4059C19.6631 8.58881 19.8715 8.79732 19.8715 9.05451Z" fill="#DCFBED"/>
<path d="M15.5831 15.7568V16.6178C15.1496 16.6328 14.7063 16.6407 14.2574 16.6407C13.8085 16.6407 13.3652 16.6328 12.9316 16.6178V15.7568C13.3651 15.7727 13.8085 15.7806 14.2574 15.7806C14.7063 15.7806 15.1496 15.7727 15.5831 15.7568Z" fill="#72F4C3"/>
<path d="M19.9013 12.5243C18.7522 12.2678 17.2358 12.0991 15.5834 12.04V12.9012C17.0488 12.9551 18.4119 13.0986 19.4705 13.312C20.7138 13.5638 21.19 13.8432 21.311 13.9683C21.1814 14.1043 20.6467 14.4107 19.222 14.6729C17.8646 14.9231 16.1009 15.0607 14.2575 15.0607C12.4141 15.0607 10.6505 14.9231 9.293 14.6729C7.86845 14.4107 7.33369 14.1043 7.20404 13.9683C7.32512 13.8432 7.80129 13.5638 9.04456 13.312C10.1031 13.0986 11.4663 12.9551 12.9316 12.9012V12.04C11.2793 12.0991 9.76288 12.2678 8.61372 12.5243C7.05033 12.872 6.32227 13.3309 6.32227 13.9684C6.32227 14.6385 7.13008 15.1147 8.86506 15.4669C10.3103 15.7601 12.2248 15.9213 14.2576 15.9213C16.2903 15.9213 18.2048 15.7601 19.6501 15.4669C21.3851 15.1147 22.1929 14.6385 22.1929 13.9684C22.1928 13.331 21.4647 12.872 19.9013 12.5243Z" fill="#9FF7D3"/>
</g>
<defs>
<clipPath id="clip0">
<rect width="28.5145" height="28.5145" fill="white"/>
</clipPath>
</defs>
</svg>
