<svg width="54" height="54" viewBox="0 0 54 54" fill="none" xmlns="http://www.w3.org/2000/svg">
<path d="M24.5569 27.2393L22.9883 33.7377C25.0051 34.1859 31.1674 36.2027 32.0637 32.5053C32.9601 28.6958 26.5737 27.7995 24.5569 27.2393Z" fill="#ED6C0C"/>
<path d="M32.0637 32.6176C33.0721 28.8081 26.5737 27.7997 24.5569 27.3516L22.9883 33.738" fill="#E05A00"/>
<path d="M26.7984 18.3877L25.3418 24.326C27.0224 24.7741 32.1764 26.4548 32.9607 23.0935C33.745 19.6202 28.479 18.8359 26.7984 18.3877Z" fill="#ED6C0C"/>
<path d="M32.9607 23.0935C33.857 19.6202 28.479 18.8359 26.7984 18.3877L25.3418 24.326" fill="#E05A00"/>
<path d="M33.4084 0.797388C18.9548 -2.78798 4.38927 6.0634 0.803898 20.4049C-2.78147 34.8584 5.95787 49.424 20.4114 53.0093C34.8649 56.5947 49.4305 47.8554 53.0159 33.4018C56.6012 19.0604 47.8619 4.4948 33.4084 0.797388ZM38.7864 23.0939C38.4503 25.6709 36.9937 27.0154 34.977 27.4636C37.666 28.8081 39.0105 30.9369 37.666 34.6343C36.0974 39.2281 32.2879 39.5642 27.246 38.6679L26.0135 43.5977L23.1004 42.7014L24.3329 37.8836C23.5486 37.6595 22.7643 37.4354 21.98 37.3233L20.7475 42.1412L17.8344 41.3569L19.0669 36.427C18.3946 36.2029 17.7224 36.0909 16.9381 35.8668L13.1286 34.8584L14.5852 31.4971L16.714 32.0573C17.4983 32.2814 17.9464 31.7212 18.0585 31.3851L19.9632 23.6541C20.0753 23.6541 20.1873 23.6541 20.2993 23.7662C20.1873 23.7662 20.0753 23.6541 19.9632 23.6541L21.3077 18.164C21.3077 17.4918 21.0836 16.7075 19.9632 16.4834L17.8344 15.9232L18.6187 12.786L22.6522 13.7944C23.2125 13.9064 23.8847 14.1305 24.557 14.2425L25.7894 9.42468L28.7026 10.209L27.4701 14.9148C28.2544 15.1389 29.0387 15.2509 29.823 15.475L30.9434 10.7692L33.8565 11.5535L32.6241 16.3713C36.5456 17.6038 39.3466 19.5085 38.7864 23.0939Z" fill="#FFB600"/>
<path d="M0.803898 20.4053C-2.78147 34.8589 5.95787 49.4244 20.4114 53.0098C34.8649 56.5952 49.4305 47.8558 53.0159 33.4023C56.6012 18.9488 47.8619 4.38322 33.4084 0.797852L0.803898 20.4053ZM38.7864 23.0944C38.4503 25.6714 36.9937 27.0159 34.977 27.464C37.666 28.8086 39.0105 30.9374 37.666 34.6348C36.0974 39.2285 32.2879 39.5647 27.246 38.6683L26.0135 43.5982L23.1004 42.7019L24.3329 37.884C23.5486 37.6599 22.7643 37.4359 21.98 37.3238L20.7475 42.1417L17.8344 41.3573L19.0669 36.4275C18.3946 36.2034 17.7224 36.0913 16.9381 35.8672L13.1286 34.8589L14.5852 31.4976L16.714 32.0578C17.4983 32.2819 17.9464 31.7217 18.0585 31.3855L19.9632 23.6546C20.0753 23.6546 20.1873 23.6546 20.2993 23.7666C20.1873 23.7666 20.0753 23.6546 19.9632 23.6546L21.3077 18.1645C21.3077 17.4922 21.0836 16.7079 19.9632 16.4838L17.8344 15.9236L18.6187 12.7864L22.6522 13.7948C23.2125 13.9069 23.8847 14.1309 24.557 14.243L25.7894 9.42515L28.7026 10.2094L27.4701 14.9152C28.2544 15.1393 29.0387 15.2514 29.823 15.4755L30.9434 10.7697L33.8565 11.554L32.6241 16.3718C36.5456 17.6043 39.3466 19.509 38.7864 23.0944Z" fill="#F6921E"/>
<path d="M52.7917 34.4103L38.2261 19.8447C38.7863 20.7411 39.1225 21.8615 38.8984 23.206C38.5623 25.783 37.1057 27.1275 35.0889 27.5757C37.778 28.9202 39.1225 31.049 37.778 34.7464C36.2094 39.3402 32.3999 39.6763 27.358 38.78L26.1255 43.7098L23.1004 42.7015L24.3328 37.8836C23.5485 37.6595 22.7642 37.4354 21.9799 37.3234L20.7475 42.1412L20.0752 41.9172L31.5036 53.3455C41.3633 51.6649 49.8786 44.4941 52.7917 34.4103Z" fill="#D85107"/>
<path d="M13.1289 34.9707L18.1708 40.0126L19.0672 36.4273C18.3949 36.2032 17.7227 36.0911 16.9384 35.867L13.1289 34.9707Z" fill="#E26600"/>
<path d="M33.2968 14.915L32.8486 16.3716C34.1931 16.8198 35.4256 17.38 36.434 18.0522L33.2968 14.915Z" fill="#E26600"/>
<path d="M28.8145 10.209L27.582 14.9148C28.3663 15.1389 29.1506 15.2509 29.9349 15.475L30.7192 12.1137L28.8145 10.209Z" fill="#ED6C0C"/>
<path d="M34.0811 11.4414L32.8486 16.2592L32.9607 16.3713C36.322 17.4917 38.8989 19.2844 38.8989 22.3096L52.3441 35.7547C52.5682 34.9704 52.7923 34.1861 53.0163 33.5138C53.2404 32.6175 53.3525 31.8332 53.4645 30.9369L34.0811 11.4414Z" fill="#ED6C0C"/>
<path d="M36.6579 52.0006L26.462 41.8047L26.0138 43.4853L23.1007 42.701L23.9971 39.2277L21.9803 37.2109L20.7478 42.0288L17.8347 41.2445V41.1324L17.7227 41.2445L29.9353 53.4571C32.2882 53.3451 34.5291 52.7849 36.6579 52.0006Z" fill="#ED6C0C"/>
<path d="M39.4591 50.6563L27.3585 38.5557C27.3585 38.5557 27.3585 38.5557 27.2464 38.5557L26.014 43.4855L23.2129 42.8133L33.4088 53.0092C35.5376 52.449 37.5544 51.6647 39.4591 50.6563Z" fill="#E05A00"/>
</svg>
