<svg width="53" height="52" viewBox="0 0 53 52" fill="none" xmlns="http://www.w3.org/2000/svg">
<path d="M26.5195 39.6436L11.8105 32.5977L26.5061 52.0001L28.7139 49.0849V38.5891L26.5195 39.6436Z" fill="#708299"/>
<path d="M26.5057 0L9.62695 29.7146H43.3848L26.5057 0Z" fill="#708299"/>
<path d="M43.385 29.7586L26.5059 0V29.7586H43.385Z" fill="#68788E"/>
<path d="M21.3994 16.5039H24.7119V19.7539H21.3994V16.5039Z" fill="white"/>
<path d="M26.505 21.6452L26.4387 21.6143L9.62793 29.7393H9.64289L26.4537 37.8643L26.52 37.8333L28.7128 36.7804V22.7061L26.505 21.6452Z" fill="#3C3C47"/>
<path d="M21.3994 10.3564H24.7119V13.6064H21.3994V10.3564Z" fill="white"/>
<path d="M26.5192 39.643L26.5059 51.9995L41.2119 32.584L26.5192 39.643Z" fill="#68788E"/>
<path d="M43.3533 29.7393L26.5058 21.6452L26.4395 21.6143L26.4544 37.8643L26.5207 37.8333L43.3683 29.7393H43.3533Z" fill="#31313B"/>
</svg>
