<svg width="151" height="151" viewBox="0 0 151 151" fill="none" xmlns="http://www.w3.org/2000/svg">
<g clip-path="url(#clip0)">
<path d="M132.635 92.6815V10.4122C132.635 4.71669 128.002 0.0830078 122.306 0.0830078H10.3292C4.63368 0.0833028 0 4.71669 0 10.4122V124.658C0 130.353 4.63368 134.987 10.3292 134.987H12.1918C13.4135 134.987 14.4039 133.997 14.4039 132.775C14.4039 131.553 13.4135 130.563 12.1918 130.563H10.3292C7.07323 130.563 4.42427 127.914 4.42427 124.658V10.4122C4.42427 7.15623 7.07323 4.50728 10.3292 4.50728H122.306C125.562 4.50728 128.211 7.15594 128.211 10.4122V91.1654C125.792 90.5428 123.257 90.2113 120.647 90.2113C103.91 90.2113 90.2937 103.828 90.2937 120.564C90.2937 124.066 90.8919 127.43 91.9876 130.563H22.5027C21.281 130.563 20.2906 131.553 20.2906 132.775C20.2906 133.997 21.281 134.987 22.5027 134.987H93.9446C99.0853 144.466 109.127 150.918 120.647 150.918C137.384 150.918 151 137.301 151 120.564C151 108.084 143.427 97.3394 132.635 92.6815ZM120.647 146.493C106.349 146.493 94.718 134.862 94.718 120.564C94.718 106.267 106.35 94.6355 120.647 94.6355C134.944 94.6355 146.576 106.267 146.576 120.564C146.576 134.862 134.944 146.493 120.647 146.493Z" fill="#5252DD"/>
<path d="M130.972 117.348V111.757C130.972 106.063 126.341 101.432 120.647 101.432C114.954 101.432 110.322 106.064 110.322 111.757V117.348C108.871 118.069 107.87 119.562 107.87 121.289V132.651C107.87 135.079 109.845 137.055 112.274 137.055H129.02C131.448 137.055 133.424 135.079 133.424 132.651V132.024C133.424 130.803 132.434 129.812 131.212 129.812C129.99 129.812 129 130.803 129 132.024V132.63H112.294V121.31H129V121.76C129 122.982 129.99 123.972 131.212 123.972C132.434 123.972 133.424 122.982 133.424 121.76V121.289C133.424 119.562 132.423 118.069 130.972 117.348ZM126.548 116.885H114.746V111.757C114.746 108.503 117.393 105.856 120.647 105.856C123.901 105.856 126.548 108.503 126.548 111.757V116.885Z" fill="#5252DD"/>
<path d="M66.3176 106.433C85.6649 106.433 101.405 87.5914 101.405 64.4324C101.405 52.8565 97.5615 42.0772 90.5826 34.0802C89.7795 33.1593 88.3823 33.0643 87.4615 33.8678C86.5412 34.6712 86.4462 36.0684 87.2494 36.989C93.5245 44.1799 96.9807 53.9262 96.9807 64.4321C96.9807 85.1516 83.2254 102.008 66.3176 102.008C49.4101 102.008 35.6547 85.1516 35.6547 64.4321C35.6547 43.7124 49.4101 26.8559 66.3176 26.8559C71.1448 26.8559 75.7652 28.1947 80.0505 30.8345C81.089 31.4751 82.4532 31.1516 83.0941 30.1116C83.7347 29.0713 83.4112 27.7086 82.3709 27.068C77.4482 24.035 71.8969 22.4316 66.3176 22.4316C46.9705 22.4316 31.2305 41.2728 31.2305 64.4321C31.2302 87.5911 46.9705 106.433 66.3176 106.433Z" fill="#5252DD"/>
<path d="M38.9658 64.4318C38.9658 82.4282 51.2358 97.0693 66.3173 97.0693C81.399 97.0693 93.6687 82.4282 93.6687 64.4318C93.6687 46.4353 81.3987 31.7939 66.3173 31.7939C51.2355 31.7939 38.9658 46.4353 38.9658 64.4318ZM89.2444 64.4318C89.2444 79.9887 78.9595 92.645 66.3173 92.645C53.6753 92.645 43.3901 79.9887 43.3901 64.4318C43.3901 48.8749 53.6753 36.2182 66.3173 36.2182C78.9595 36.2182 89.2444 48.8749 89.2444 64.4318Z" fill="#5252DD"/>
<path d="M45.2988 64.4319V66.6004C45.2988 69.6528 47.782 72.136 50.8348 72.136C53.8875 72.136 56.3707 69.6528 56.3707 66.6004V64.4319C56.3707 57.5374 60.8327 51.928 66.3176 51.928C71.8026 51.928 76.2646 57.5371 76.2646 64.4319C76.2646 71.3267 71.8026 76.9358 66.3176 76.9358L66.266 76.9355C64.1869 76.9222 62.4957 75.1885 62.4957 73.0707L62.496 64.4319C62.496 61.6726 64.2462 59.3413 66.3176 59.3413C68.3894 59.3413 70.1396 61.6726 70.1396 64.4319C70.1396 66.068 69.5323 67.6044 68.5298 68.5636V64.4319C68.5298 63.2102 67.5393 62.2198 66.3176 62.2198C65.096 62.2198 64.1055 63.2102 64.1055 64.4319V69.0514C64.1055 70.6521 64.9954 72.0918 66.428 72.8082C67.8567 73.5229 69.5379 73.3731 70.8157 72.4159C73.1626 70.6577 74.5639 67.6728 74.5639 64.4319C74.5639 59.1853 70.8646 54.9171 66.3176 54.9171C61.7707 54.9171 58.0717 59.1856 58.0717 64.4319L58.0714 73.0707C58.0714 77.6127 61.7344 81.3311 66.2374 81.36L66.3176 81.3603C74.2418 81.3603 80.6889 73.7665 80.6889 64.4322C80.6889 55.0979 74.2421 47.5041 66.3176 47.5041C58.3932 47.5041 51.9464 55.0979 51.9464 64.4322V66.6007C51.9464 67.2136 51.448 67.7121 50.8348 67.7121C50.2216 67.7121 49.7231 67.2136 49.7231 66.6007V64.4322C49.7231 53.1014 57.1671 43.8833 66.3174 43.8833C75.4676 43.8833 82.9116 53.1014 82.9116 64.4322C82.9116 75.7631 75.4676 84.9809 66.3174 84.9809C65.0957 84.9809 64.1052 85.9713 64.1052 87.193C64.1052 88.4147 65.0957 89.4051 66.3174 89.4051C77.9069 89.4051 87.3359 78.2023 87.3359 64.4322C87.3359 50.6621 77.9069 39.459 66.3174 39.459C54.7275 39.4587 45.2988 50.6618 45.2988 64.4319Z" fill="#5252DD"/>
<path d="M25.4905 96.3496C24.2688 96.3496 23.2783 97.3401 23.2783 98.5617V102.595C23.2783 105.036 25.2642 107.022 27.7052 107.022H32.4168C33.6385 107.022 34.6289 106.031 34.6289 104.809C34.6289 103.588 33.6385 102.597 32.4168 102.597L27.7029 102.595V98.5617C27.7026 97.3401 26.7121 96.3496 25.4905 96.3496Z" fill="#5252DD"/>
<path d="M27.7052 21.8428C25.2642 21.8428 23.2783 23.8287 23.2783 26.2694V30.3023C23.2783 31.524 24.2688 32.5144 25.4905 32.5144C26.7121 32.5144 27.7026 31.524 27.7026 30.3023L27.7052 26.267H32.4168C33.6385 26.267 34.6289 25.2766 34.6289 24.0549C34.6289 22.8332 33.6385 21.8428 32.4168 21.8428H27.7052Z" fill="#5252DD"/>
<path d="M107.145 32.5144C108.367 32.5144 109.357 31.524 109.357 30.3023V26.2694C109.357 23.8287 107.372 21.8428 104.931 21.8428H100.219C98.997 21.8428 98.0068 22.8332 98.0068 24.0549C98.0068 25.2766 98.997 26.267 100.219 26.267L104.933 26.2694V30.3023C104.933 31.524 105.923 32.5144 107.145 32.5144Z" fill="#5252DD"/>
<path d="M24.9428 16.7801C26.3178 16.7801 27.4325 15.6655 27.4325 14.2905C27.4325 12.9155 26.3178 11.8008 24.9428 11.8008C23.5678 11.8008 22.4531 12.9155 22.4531 14.2905C22.4531 15.6655 23.5678 16.7801 24.9428 16.7801Z" fill="#5252DD"/>
<path d="M35.2924 16.7801C36.6674 16.7801 37.7821 15.6655 37.7821 14.2905C37.7821 12.9155 36.6674 11.8008 35.2924 11.8008C33.9174 11.8008 32.8027 12.9155 32.8027 14.2905C32.8027 15.6655 33.9174 16.7801 35.2924 16.7801Z" fill="#5252DD"/>
<path d="M45.6411 16.7801C47.0161 16.7801 48.1307 15.6655 48.1307 14.2905C48.1307 12.9155 47.0161 11.8008 45.6411 11.8008C44.266 11.8008 43.1514 12.9155 43.1514 14.2905C43.1514 15.6655 44.266 16.7801 45.6411 16.7801Z" fill="#5252DD"/>
<path d="M21.3379 113.956C21.3379 115.178 22.3283 116.168 23.55 116.168H47.5113C48.733 116.168 49.7234 115.178 49.7234 113.956C49.7234 112.735 48.733 111.744 47.5113 111.744H23.55C22.3283 111.744 21.3379 112.735 21.3379 113.956Z" fill="#5252DD"/>
<path d="M23.55 123.562H47.5113C48.733 123.562 49.7234 122.572 49.7234 121.35C49.7234 120.128 48.733 119.138 47.5113 119.138H23.55C22.3283 119.138 21.3379 120.128 21.3379 121.35C21.3379 122.572 22.3283 123.562 23.55 123.562Z" fill="#5252DD"/>
</g>
<defs>
<clipPath id="clip0">
<rect width="151" height="151" fill="white"/>
</clipPath>
</defs>
</svg>
