<svg width="131" height="131" viewBox="0 0 131 131" fill="none" xmlns="http://www.w3.org/2000/svg">
<g opacity="0.5">
<path d="M118.69 91.071C117.699 90.6943 116.589 91.1926 116.212 92.1842C114.252 97.3425 111.543 102.12 108.185 106.397C107.101 105.005 105.962 103.662 104.772 102.373C111.128 93.9078 114.614 83.5184 114.614 72.9237C114.614 59.6669 109.39 47.2324 99.9057 37.911C99.1494 37.1678 97.9332 37.1775 97.1898 37.9345C96.4461 38.6913 96.4568 39.9073 97.2133 40.6507C105.957 49.244 110.772 60.7056 110.772 72.9237C110.772 82.4943 107.685 91.8831 102.046 99.599C96.2507 94.0522 89.4326 89.6522 81.8982 86.6423L83.348 85.2371C85.5878 83.0657 87.3897 80.5569 88.7035 77.7803C89.157 76.8215 88.7478 75.6763 87.789 75.2227C86.8307 74.7692 85.6851 75.1784 85.2313 76.1372C84.1155 78.4956 82.582 80.6294 80.6744 82.4787L78.7628 84.3313C77.9203 85.1483 77.5564 86.3227 77.7894 87.4731C78.0225 88.6232 78.8148 89.5634 79.9089 89.9874C90.1576 93.9616 99.0257 100.658 105.647 109.399C102.964 112.346 99.9466 115.009 96.6294 117.339C87.4829 123.763 76.7187 127.158 65.5001 127.158C49.6142 127.158 35.3015 120.293 25.3734 109.373C31.9922 100.644 40.8526 93.9575 51.0911 89.9874C52.1854 89.5631 52.978 88.6232 53.2111 87.4728C53.4444 86.3224 53.0802 85.148 52.2377 84.331L50.3264 82.4784C45.2332 77.5411 42.9016 70.6839 43.9301 63.6651C44.9586 56.6465 49.1591 50.7463 55.4547 47.4777C61.745 44.2122 69.2553 44.212 75.5452 47.4777C83.4064 51.5594 87.989 59.9168 87.2199 68.7696C87.1282 69.8265 87.9104 70.7577 88.967 70.8493C90.0244 70.9449 90.9553 70.1589 91.0468 69.1023C91.951 58.6953 86.561 48.8691 77.3154 44.0686C69.9168 40.2271 61.083 40.2274 53.6846 44.0686C46.2796 47.9133 41.3387 54.8531 40.1292 63.1086C38.9196 71.3641 41.6616 79.4294 47.6525 85.2371L49.1023 86.6423C41.5669 89.6527 34.7478 94.0532 28.9521 99.6011C23.3136 91.8849 20.2284 82.4943 20.2284 72.9237C20.2284 62.4801 23.886 52.2821 30.5276 44.2084C31.2014 43.3891 31.0836 42.1788 30.2646 41.5048C29.4451 40.8307 28.235 40.9485 27.561 41.7678C20.3552 50.5273 16.387 61.592 16.387 72.9235C16.387 83.5182 19.8714 93.9088 26.2269 102.374C25.0445 103.655 23.9134 104.989 22.8352 106.371C15.5905 97.1502 11.265 85.5324 11.265 72.9232C11.265 43.0178 35.5947 18.6881 65.5001 18.6881C68.8406 18.6881 72.1976 18.9975 75.4774 19.6073C76.5205 19.8014 77.5228 19.113 77.7169 18.0702C77.9108 17.0273 77.2224 16.0247 76.1796 15.8306C72.6688 15.1778 69.0757 14.8467 65.5001 14.8467C49.9873 14.8467 35.4031 20.8877 24.434 31.8569C13.4646 42.826 7.42383 57.4104 7.42383 72.9232C7.42383 88.436 13.4649 103.02 24.434 113.989C35.4031 124.959 49.9876 131 65.5001 131C77.5131 131 89.0408 127.363 98.8372 120.482C108.413 113.757 115.662 104.443 119.803 93.548C120.18 92.5571 119.681 91.4477 118.69 91.071Z" fill="#DDDDDD"/>
<path d="M109.996 35.6056C109.314 34.7931 108.103 34.6878 107.29 35.3695C106.478 36.0518 106.372 37.2631 107.054 38.0754C115.232 47.8156 119.735 60.1917 119.735 72.924C119.735 76.8497 119.309 80.7793 118.47 84.6033C118.243 85.6395 118.899 86.6636 119.935 86.8913C120.073 86.9217 120.212 86.9363 120.348 86.9363C121.231 86.9363 122.026 86.3243 122.222 85.4269C123.121 81.3329 123.577 77.1263 123.577 72.924C123.576 59.2897 118.753 46.0365 109.996 35.6056Z" fill="#DDDDDD"/>
<path d="M33.5232 35.6763C32.7188 36.3677 32.6271 37.5806 33.3188 38.385C33.6986 38.827 34.2359 39.0537 34.7763 39.0537C35.2196 39.0537 35.6649 38.901 36.0276 38.5896C44.2321 31.5362 54.699 27.652 65.5002 27.652C69.7598 27.652 73.9805 28.2474 78.0456 29.4219C79.0646 29.7159 80.1297 29.1286 80.4237 28.1096C80.7179 27.0906 80.1304 26.0258 79.1117 25.7313C74.6999 24.4569 70.1204 23.8105 65.5002 23.8105C53.7804 23.8103 42.4241 28.0244 33.5232 35.6763Z" fill="#DDDDDD"/>
</g>
</svg>
