<svg width="54" height="54" viewBox="0 0 54 54" fill="none" xmlns="http://www.w3.org/2000/svg">
<path d="M27 54C41.9117 54 54 41.9117 54 27C54 12.0883 41.9117 0 27 0C12.0883 0 0 12.0883 0 27C0 41.9117 12.0883 54 27 54Z" fill="#72F4C3"/>
<path d="M54.0002 27C54.0002 41.9114 41.9116 54 27.0002 54C26.2852 54 25.5757 53.9717 24.875 53.9174C38.7922 52.8331 49.7487 41.1954 49.7487 27C49.7487 12.8046 38.7922 1.16691 24.875 0.082582C25.5757 0.0282656 26.2852 0 27.0002 0C41.9116 0 54.0002 12.0886 54.0002 27Z" fill="#69E8B4"/>
<path d="M26.9996 50.6027C40.0347 50.6027 50.6017 40.0356 50.6017 27.0006C50.6017 13.9655 40.0347 3.39844 26.9996 3.39844C13.9645 3.39844 3.39746 13.9655 3.39746 27.0006C3.39746 40.0356 13.9645 50.6027 26.9996 50.6027Z" fill="#DCFBED"/>
<path d="M50.6016 27.0004C50.6016 40.0352 40.0345 50.6023 26.9997 50.6023C26.2139 50.6023 25.4373 50.5641 24.6719 50.4884C36.6132 49.3195 45.9448 39.2495 45.9448 27.0004C45.9448 14.7514 36.6132 4.68136 24.6719 3.51234C25.4373 3.43683 26.214 3.39844 26.9997 3.39844C40.0345 3.39854 50.6016 13.9657 50.6016 27.0004Z" fill="#9FF7D3"/>
<path d="M26.9995 46.7989C37.9344 46.7989 46.7989 37.9344 46.7989 26.9995C46.7989 16.0647 37.9344 7.2002 26.9995 7.2002C16.0647 7.2002 7.2002 16.0647 7.2002 26.9995C7.2002 37.9344 16.0647 46.7989 26.9995 46.7989Z" fill="#27E19D"/>
<path d="M46.7995 26.9998C46.7995 37.9172 37.9172 46.7995 26.9998 46.7995C26.0372 46.7995 25.0908 46.73 24.165 46.5974C33.7438 45.2175 41.129 36.9545 41.129 26.9998C41.129 17.0452 33.7438 8.78223 24.165 7.40227C25.0907 7.2697 26.0371 7.2002 26.9998 7.2002C37.9172 7.2002 46.7995 16.0825 46.7995 26.9998Z" fill="#26D192"/>
<path d="M38.126 25.2271C35.9883 24.7104 33.0288 24.3553 29.7923 24.2272C29.6936 24.2234 29.5991 24.2379 29.5107 24.2662V22.651H36.7499C37.2367 22.651 37.6317 22.2559 37.6317 21.7692V18.5107C37.6317 18.024 37.2366 17.6289 36.7499 17.6289H17.2502C16.7634 17.6289 16.3684 18.024 16.3684 18.5107V21.7691C16.3684 22.2558 16.7635 22.6509 17.2502 22.6509H24.4894V24.3118C24.3724 24.2552 24.2405 24.2257 24.1022 24.2315C20.8901 24.3636 17.956 24.72 15.8402 25.2353C13.2016 25.8779 11.9727 26.7068 11.9727 27.844C11.9727 29.1064 13.5033 30.0021 16.7897 30.6625C18.9207 31.0908 21.5933 31.3683 24.4894 31.4705V42.3491C24.4894 42.8359 24.8845 43.2309 25.3712 43.2309H28.6288C29.1155 43.2309 29.5106 42.8358 29.5106 42.3491V31.4705C32.4067 31.3684 35.0793 31.0908 37.2103 30.6625C40.4967 30.0021 42.0273 29.1064 42.0273 27.844C42.0275 26.7022 40.7877 25.8705 38.126 25.2271ZM17.6083 29.1599C14.938 28.6739 13.913 28.1061 13.6506 27.8466C13.832 27.6693 14.4936 27.1957 16.6718 26.7157C18.6412 26.2818 21.3039 25.9779 24.1694 25.86C24.2841 25.8553 24.3922 25.8268 24.4895 25.7798V29.84C21.9352 29.7472 19.5526 29.5138 17.6083 29.1599ZM36.3918 29.1599C34.4475 29.5139 32.0649 29.7473 29.5106 29.84V25.8167C29.5794 25.8388 29.652 25.8528 29.7277 25.8558C32.6169 25.97 35.3042 26.2728 37.2948 26.7083C39.32 27.1514 40.1277 27.6243 40.3513 27.8446C40.0924 28.1031 39.0689 28.6726 36.3918 29.1599Z" fill="#26D192"/>
<path d="M37.6314 17.1455V20.404C37.6314 20.891 37.2366 21.2858 36.7496 21.2858H30.0537C29.7536 21.2858 29.5104 21.529 29.5104 21.829V40.9839C29.5104 41.4709 29.1157 41.8657 28.6286 41.8657H25.371C24.8839 41.8657 24.4892 41.4709 24.4892 40.9839V21.829C24.4892 21.529 24.2459 21.2858 23.9459 21.2858H17.25C16.7629 21.2858 16.3682 20.891 16.3682 20.404V17.1455C16.3682 16.6584 16.7629 16.2637 17.25 16.2637H36.7497C37.2366 16.2636 37.6314 16.6584 37.6314 17.1455Z" fill="#DCFBED"/>
<path d="M29.5106 29.8398V31.4704C28.6896 31.4987 27.8501 31.5136 26.9999 31.5136C26.1498 31.5136 25.3103 31.4987 24.4893 31.4704V29.8398C25.3102 29.8698 26.1498 29.8848 26.9999 29.8848C27.85 29.8848 28.6895 29.8698 29.5106 29.8398Z" fill="#72F4C3"/>
<path d="M37.6884 23.7178C35.5121 23.2321 32.6404 22.9127 29.5113 22.8008V24.4316C32.2862 24.5337 34.8678 24.8054 36.8724 25.2096C39.2269 25.6865 40.1288 26.2156 40.358 26.4525C40.1124 26.7101 39.0998 27.2903 36.402 27.7868C33.8313 28.2606 30.4913 28.5213 27.0003 28.5213C23.5092 28.5213 20.1694 28.2606 17.5986 27.7868C14.9008 27.2903 13.8881 26.7101 13.6425 26.4525C13.8718 26.2156 14.7736 25.6865 17.1281 25.2096C19.1327 24.8054 21.7143 24.5337 24.4893 24.4316V22.8008C21.3601 22.9127 18.4884 23.2321 16.3122 23.7178C13.3514 24.3763 11.9727 25.2454 11.9727 26.4526C11.9727 27.7217 13.5025 28.6235 16.7881 29.2906C19.5251 29.8458 23.1508 30.1511 27.0004 30.1511C30.85 30.1511 34.4756 29.8458 37.2126 29.2906C40.4983 28.6235 42.0281 27.7216 42.0281 26.4526C42.0279 25.2455 40.6491 24.3763 37.6884 23.7178Z" fill="#9FF7D3"/>
</svg>
