<svg width="208" height="175" viewBox="0 0 208 175" fill="none" xmlns="http://www.w3.org/2000/svg">
<g opacity="0.03">
<path d="M205.77 69.5672L199.638 67.5046L216.141 18.4379C216.712 16.7429 215.799 14.9094 214.106 14.3398L195.531 8.09209L195.931 -13.2797C195.946 -14.1722 195.595 -15.0298 194.96 -15.6529C194.323 -16.2779 193.457 -16.6096 192.566 -16.5748L164.39 -15.4571L159.062 -36.7372C158.852 -37.5752 158.317 -38.2961 157.572 -38.7357C156.833 -39.1845 155.941 -39.311 155.108 -39.0855L98.9171 -24.4041L73.0393 -33.1082C61.1856 -37.0806 48.3531 -30.7066 44.353 -18.8623L7.21994 91.537C3.24902 103.391 9.62102 116.225 21.4656 120.224L162.532 167.672C164.225 168.242 166.061 167.33 166.631 165.636L179.009 128.836L185.141 130.899C191.916 133.178 199.255 129.533 201.534 122.76L213.911 85.9601C216.191 79.1837 212.546 71.8462 205.77 69.5672ZM203.707 75.7002C207.095 76.8397 208.918 80.5076 207.778 83.897C206.638 87.284 202.969 89.1056 199.581 87.9661L193.449 85.9035L197.575 73.6376L203.707 75.7002ZM208.975 19.4418L198.661 50.1074L194.776 48.8008L195.406 14.8779L208.975 19.4418ZM188.347 46.6382L179.407 43.6314L179.483 15.2689C179.487 13.8765 178.6 12.6358 177.279 12.1924C174.161 11.1546 171.587 8.91117 170.133 5.96388L168.94 3.56103C168.379 2.43023 167.21 1.72815 165.946 1.76525L63.9319 4.79099L60.6618 3.69106C56.5731 2.31498 53.2049 -0.640586 51.3126 -4.51675L189.394 -9.95834L188.347 46.6382ZM172.943 41.4571L81.6143 10.7385L164.069 8.29522L164.338 8.84071C166.187 12.5903 169.239 15.614 173.007 17.4247L172.943 41.4571ZM153.569 -31.9968L157.771 -15.192L77.0836 -12.0111L153.569 -31.9968ZM70.9762 -26.9745L87.4916 -21.4195L49.7156 -11.5504C49.6784 -13.3299 49.9384 -15.1053 50.4867 -16.7992C53.3443 -25.2593 62.5104 -29.8126 70.9762 -26.9745ZM161.528 160.506L23.529 114.09C15.0693 111.233 10.5179 102.067 13.3537 93.6001L45.4325 -1.77275C45.4527 -1.73601 45.4757 -1.70004 45.493 -1.65999C45.6525 -1.34024 45.8322 -1.03506 46.0055 -0.72348C46.1768 -0.413449 46.3561 -0.0638915 46.5525 0.255447C46.7496 0.575043 46.9517 0.846683 47.1525 1.14013C47.3541 1.43383 47.5651 1.76321 47.7899 2.06646C48.0169 2.36613 48.2496 2.61811 48.4784 2.89444C48.7074 3.17001 48.9472 3.47484 49.2121 3.75564C49.4776 4.0349 49.738 4.27311 50.0013 4.5362C50.265 4.79775 50.5123 5.04951 50.7873 5.30545C51.0631 5.56166 51.3969 5.80057 51.703 6.04301C52.0104 6.28673 52.2337 6.49534 52.524 6.7008C52.8675 6.9541 53.2357 7.17464 53.599 7.40467C53.882 7.58112 54.1302 7.76903 54.4096 7.9306C54.8291 8.17693 55.2796 8.38923 55.7151 8.60842C55.9602 8.72938 56.1919 8.86723 56.4432 8.98255C57.1461 9.29942 57.8663 9.58016 58.5984 9.82555L62.5874 11.1672L62.5919 11.2988L62.9594 11.2924L196.598 56.2419L187.315 83.8401L153.582 72.494C141.728 68.507 128.883 74.8846 124.895 86.7407C120.908 98.5961 127.288 111.44 139.141 115.427L172.874 126.773L161.528 160.506ZM195.4 120.697C194.261 124.084 190.591 125.906 187.204 124.766L141.204 109.294C132.737 106.446 128.181 97.2722 131.029 88.8038C133.878 80.3347 143.051 75.7804 151.519 78.6285L197.518 94.1006C198.262 94.3421 199.022 94.514 199.797 94.6171C199.981 94.6456 200.165 94.6692 200.351 94.6853C201.094 94.7686 201.845 94.7851 202.592 94.7383L202.713 94.7235C203.215 94.6851 203.713 94.6132 204.206 94.5163L195.4 120.697Z" fill="black"/>
<path d="M100.191 34.0557L112.459 38.1818L110.396 44.3148L98.1286 40.1886L100.191 34.0557Z" fill="black"/>
<path d="M75.6602 25.8047L87.926 29.9303L85.8632 36.0633L73.5973 31.9377L75.6602 25.8047Z" fill="black"/>
<path d="M173.792 58.8115L184.303 62.3469L182.24 68.4799L171.729 64.9445L173.792 58.8115Z" fill="black"/>
<path d="M149.26 50.5596L161.526 54.6852L159.463 60.8182L147.197 56.6925L149.26 50.5596Z" fill="black"/>
<path d="M52.03 17.3782L48.5937 22.8447C50.1148 23.8022 51.7411 24.5794 53.441 25.158L61.329 27.8111L63.3918 21.6782L55.5038 19.025C54.2872 18.6124 53.121 18.0601 52.03 17.3782Z" fill="black"/>
<path d="M124.726 42.3076L136.992 46.4335L134.929 52.5665L122.663 48.4406L124.726 42.3076Z" fill="black"/>
<path d="M25.2126 97.1107L21.7766 102.576C23.2974 103.535 24.9235 104.313 26.6234 104.891L34.5113 107.544L36.5744 101.411L28.6865 98.7575C27.4701 98.344 26.3031 97.7941 25.2126 97.1107Z" fill="black"/>
<path d="M146.974 138.544L157.485 142.079L155.421 148.213L144.911 144.678L146.974 138.544Z" fill="black"/>
<path d="M73.374 113.788L85.6415 117.914L83.5784 124.048L71.3109 119.922L73.374 113.788Z" fill="black"/>
<path d="M122.441 130.292L134.707 134.418L132.644 140.551L120.378 136.426L122.441 130.292Z" fill="black"/>
<path d="M48.8418 105.537L61.1077 109.663L59.0446 115.797L46.7787 111.671L48.8418 105.537Z" fill="black"/>
<path d="M97.9072 122.04L110.174 126.166L108.111 132.3L95.8441 128.174L97.9072 122.04Z" fill="black"/>
<path d="M149.456 84.7615C144.376 83.0526 138.871 85.7851 137.162 90.8664C135.453 95.9462 138.186 101.453 143.267 103.162C148.348 104.871 153.853 102.135 155.561 97.0552C157.27 91.9738 154.537 86.4704 149.456 84.7615ZM145.33 97.0282C143.637 96.4588 142.726 94.623 143.295 92.9295C143.865 91.2352 145.7 90.3251 147.393 90.8944C149.087 91.4641 149.999 93.2983 149.429 94.9926C148.859 96.6861 147.024 97.5978 145.33 97.0282Z" fill="black"/>
</g>
</svg>
