<svg width="43" height="43" viewBox="0 0 43 43" fill="none" xmlns="http://www.w3.org/2000/svg">
<path d="M32.2505 41.6562V1.34375H8.06299L1.34424 8.0625V41.6562H32.2505Z" fill="#E2E7F6"/>
<path d="M4.03174 18.8125H29.563V37.625H4.03174V18.8125Z" fill="#F7FAFD"/>
<path d="M8.06299 1.34375V8.0625H1.34424" fill="#C8CDED"/>
<path d="M8.06299 37.625V30.9062H12.0942V37.625" fill="#78A0D4"/>
<path d="M8.06299 30.9062H10.7505V35.6094H8.06299V30.9062Z" fill="#8FB8E5"/>
<path d="M14.7817 37.625V28.2188H18.813V37.625" fill="#5E87CA"/>
<path d="M14.7817 28.2188H17.4692V35.6094H14.7817V28.2188Z" fill="#78A0D4"/>
<path d="M21.5005 37.625V25.5312H25.5317V37.625" fill="#4C6CB5"/>
<path d="M21.5005 25.5312H24.188V35.6094H21.5005V25.5312Z" fill="#5E87CA"/>
<path d="M22.3961 16.1243H16.1248L9.40674 22.8438L12.7661 26.2031L18.813 20.1562H31.5786L39.6411 12.0938L41.6567 14.1094V6.71875H34.2661L36.2817 8.73438L28.8911 16.125H24.188" fill="#D23F34"/>
<path d="M34.938 36.2812C38.6487 36.2812 41.6567 33.2732 41.6567 29.5625C41.6567 25.8518 38.6487 22.8438 34.938 22.8438C31.2273 22.8438 28.2192 25.8518 28.2192 29.5625C28.2192 33.2732 31.2273 36.2812 34.938 36.2812Z" fill="#78A0D4"/>
<path d="M37.8223 33.3969L34.463 30.0375C34.337 29.9115 34.2662 29.7407 34.2661 29.5625V26.875H35.6099V29.2843L38.7724 32.4469L37.8223 33.3969Z" fill="#C0DAFC"/>
<path d="M34.938 30.9062C35.6801 30.9062 36.2817 30.3046 36.2817 29.5625C36.2817 28.8204 35.6801 28.2188 34.938 28.2188C34.1959 28.2188 33.5942 28.8204 33.5942 29.5625C33.5942 30.3046 34.1959 30.9062 34.938 30.9062Z" fill="#4C6CB5"/>
<path d="M24.188 13.4375V17.4688L18.813 13.4375H12.0942C11.7379 13.4375 11.3961 13.2959 11.1441 13.0439C10.8921 12.7919 10.7505 12.4501 10.7505 12.0938V5.375C10.7505 5.01862 10.8921 4.67683 11.1441 4.42483C11.3961 4.17282 11.7379 4.03125 12.0942 4.03125H26.8755C27.2319 4.03125 27.5737 4.17282 27.8257 4.42483C28.0777 4.67683 28.2192 5.01862 28.2192 5.375V12.0938C28.2192 12.4501 28.0777 12.7919 27.8257 13.0439C27.5737 13.2959 27.2319 13.4375 26.8755 13.4375H24.188Z" fill="#F0AE42"/>
<path d="M26.2036 4.03125H12.0942C11.7379 4.03125 11.3961 4.17282 11.1441 4.42483C10.8921 4.67683 10.7505 5.01862 10.7505 5.375V12.0938H24.8599C25.2162 12.0938 25.558 11.9522 25.81 11.7002C26.062 11.4482 26.2036 11.1064 26.2036 10.75V4.03125Z" fill="#F9D266"/>
<path d="M14.1099 6.71875H24.8599V8.0625H14.1099V6.71875Z" fill="#FCE797"/>
<path d="M12.7661 9.40625H26.2036V10.75H12.7661V9.40625Z" fill="#FCE797"/>
</svg>
