<svg width="47" height="47" viewBox="0 0 47 47" fill="none" xmlns="http://www.w3.org/2000/svg">
<g clip-path="url(#clip0)">
<path d="M23.5011 5.08008C13.329 5.08008 5.08301 13.3261 5.08301 23.4982C5.08301 33.6703 13.329 41.9163 23.5011 41.9163C33.6732 41.9163 41.9193 33.6703 41.9193 23.4982C41.9193 13.3261 33.6732 5.08008 23.5011 5.08008ZM23.5011 38.0792C15.4485 38.0792 8.92012 31.5509 8.92012 23.4982C8.92012 15.4455 15.4485 8.91719 23.5011 8.91719C31.5538 8.91719 38.0822 15.4455 38.0822 23.4982C38.0822 31.5509 31.5538 38.0792 23.5011 38.0792Z" fill="#5252DD"/>
<path d="M23.5007 3.54461C33.6852 3.54461 42.2096 11.169 43.3278 21.2796L43.5035 22.8673L47.0008 19.3704L45.9156 18.2853L44.6269 19.5728C42.7698 9.45766 33.946 2.00977 23.5007 2.00977C22.9697 2.00977 22.4339 2.02888 21.9097 2.0671L22.0217 3.59819C22.5092 3.56222 23.0065 3.54461 23.5007 3.54461Z" fill="black"/>
<path d="M23.5008 43.451C13.3163 43.451 4.79187 35.8259 3.67372 25.716L3.49797 24.1279L0.000732422 27.6252L1.08592 28.7104L2.3742 27.4225C4.23167 37.538 13.0555 44.9859 23.5008 44.9859C24.0333 44.9859 24.5699 44.9667 25.0922 44.9274L24.9787 43.3971C24.4938 43.4334 23.9965 43.451 23.5008 43.451Z" fill="black"/>
<path d="M23.501 8.14941C15.038 8.14941 8.15259 15.0349 8.15259 23.4979C8.15259 31.9609 15.038 38.8463 23.501 38.8463C31.964 38.8463 38.8495 31.9609 38.8495 23.4979C38.8495 15.0349 31.964 8.14941 23.501 8.14941ZM24.2685 37.2721V33.4743H22.7336V37.2721C15.7301 36.8847 10.1142 31.2688 9.7264 24.2653H13.5245V22.7304H9.7264C10.1142 15.727 15.7301 10.1111 22.7336 9.72323V13.5214H24.2685V9.72323C31.2719 10.1111 36.8878 15.727 37.2753 22.7304H33.4775V24.2653H37.2753C36.8878 31.2688 31.2719 36.8847 24.2685 37.2721Z" fill="black"/>
<path d="M24.2689 21.3363V15.0557H22.7341V21.3363C21.843 21.6541 21.1992 22.4979 21.1992 23.4973C21.1992 24.7665 22.2319 25.7996 23.5015 25.7996C24.5005 25.7996 25.3447 25.1558 25.6625 24.2647H28.8734V22.7299H25.6625C25.4309 22.0798 24.919 21.5679 24.2689 21.3363ZM23.5015 24.2647C23.0777 24.2647 22.7341 23.92 22.7341 23.4973C22.7341 23.0743 23.0777 22.7299 23.5015 22.7299C23.9249 22.7299 24.2689 23.0743 24.2689 23.4973C24.2689 23.92 23.9249 24.2647 23.5015 24.2647Z" fill="black"/>
<path d="M18.5554 2.57321L20.0599 2.27344L20.3597 3.77868L18.8552 4.07808L18.5554 2.57321Z" fill="black"/>
<path d="M14.5691 3.93875L15.9874 3.35156L16.5742 4.76987L15.1563 5.35668L14.5691 3.93875Z" fill="black"/>
<path d="M10.925 6.05719L12.2013 5.20508L13.0538 6.48137L11.7772 7.33385L10.925 6.05719Z" fill="black"/>
<path d="M7.76367 8.84593L8.84885 7.76074L9.93404 8.84593L8.84885 9.93111L7.76367 8.84593Z" fill="black"/>
<path d="M5.2063 12.1978L6.05916 10.9219L7.33507 11.7747L6.48259 13.0506L5.2063 12.1978Z" fill="black"/>
<path d="M3.35425 15.9834L3.94181 14.5654L5.35974 15.153L4.77218 16.5709L3.35425 15.9834Z" fill="black"/>
<path d="M2.2771 20.058L2.5765 18.5527L4.08174 18.8518L3.78272 20.3574L2.2771 20.058Z" fill="black"/>
<path d="M26.6414 43.2135L28.1458 42.9141L28.4456 44.4193L26.9411 44.7187L26.6414 43.2135Z" fill="black"/>
<path d="M30.428 42.2245L31.8463 41.6377L32.4331 43.056L31.0152 43.6428L30.428 42.2245Z" fill="black"/>
<path d="M33.9504 40.514L35.2279 39.6611L36.08 40.9378L34.8029 41.7907L33.9504 40.514Z" fill="black"/>
<path d="M37.0662 38.1487L38.1513 37.0635L39.2365 38.1487L38.1513 39.2338L37.0662 38.1487Z" fill="black"/>
<path d="M39.6672 35.2224L40.5201 33.9453L41.7964 34.7978L40.9439 36.0748L39.6672 35.2224Z" fill="black"/>
<path d="M41.6421 31.8427L42.2289 30.4248L43.6472 31.0116L43.06 32.4299L41.6421 31.8427Z" fill="black"/>
<path d="M42.9194 28.1461L43.2192 26.6416L44.7244 26.9414L44.4247 28.4459L42.9194 28.1461Z" fill="black"/>
</g>
<defs>
<clipPath id="clip0">
<rect width="47" height="47" fill="white" transform="translate(0.000732422)"/>
</clipPath>
</defs>
</svg>
