<svg width="47" height="47" viewBox="0 0 47 47" fill="none" xmlns="http://www.w3.org/2000/svg">
<g clip-path="url(#clip0)">
<path d="M23.4997 5.08008C13.3276 5.08008 5.08154 13.3261 5.08154 23.4982C5.08154 33.6703 13.3276 41.9163 23.4997 41.9163C33.6718 41.9163 41.9178 33.6703 41.9178 23.4982C41.9178 13.3261 33.6718 5.08008 23.4997 5.08008ZM23.4997 38.0792C15.447 38.0792 8.91865 31.5509 8.91865 23.4982C8.91865 15.4455 15.447 8.91719 23.4997 8.91719C31.5524 8.91719 38.0807 15.4455 38.0807 23.4982C38.0807 31.5509 31.5524 38.0792 23.4997 38.0792Z" fill="#F0BC5E"/>
<path d="M23.4993 3.54461C33.6837 3.54461 42.2082 11.169 43.3263 21.2796L43.5021 22.8673L46.9993 19.3704L45.9141 18.2853L44.6255 19.5728C42.7684 9.45766 33.9445 2.00977 23.4993 2.00977C22.9683 2.00977 22.4324 2.02888 21.9082 2.0671L22.0202 3.59819C22.5078 3.56222 23.005 3.54461 23.4993 3.54461Z" fill="black"/>
<path d="M23.4993 43.451C13.3149 43.451 4.79041 35.8259 3.67225 25.716L3.49651 24.1279L-0.000732422 27.6252L1.08445 28.7104L2.37273 27.4225C4.23021 37.538 13.0541 44.9859 23.4993 44.9859C24.0318 44.9859 24.5684 44.9667 25.0907 44.9274L24.9772 43.3971C24.4923 43.4334 23.9951 43.451 23.4993 43.451Z" fill="black"/>
<path d="M23.4996 8.14941C15.0366 8.14941 8.15112 15.0349 8.15112 23.4979C8.15112 31.9609 15.0366 38.8463 23.4996 38.8463C31.9626 38.8463 38.848 31.9609 38.848 23.4979C38.848 15.0349 31.9626 8.14941 23.4996 8.14941ZM24.267 37.2721V33.4743H22.7321V37.2721C15.7287 36.8847 10.1128 31.2688 9.72494 24.2653H13.5231V22.7304H9.72494C10.1128 15.727 15.7287 10.1111 22.7321 9.72323V13.5214H24.267V9.72323C31.2705 10.1111 36.8864 15.727 37.2738 22.7304H33.4761V24.2653H37.2738C36.8864 31.2688 31.2705 36.8847 24.267 37.2721Z" fill="black"/>
<path d="M24.2674 21.3363V15.0557H22.7326V21.3363C21.8415 21.6541 21.1978 22.4979 21.1978 23.4973C21.1978 24.7665 22.2305 25.7996 23.5 25.7996C24.499 25.7996 25.3433 25.1558 25.661 24.2647H28.872V22.7299H25.661C25.4294 22.0798 24.9176 21.5679 24.2674 21.3363ZM23.5 24.2647C23.0762 24.2647 22.7326 23.92 22.7326 23.4973C22.7326 23.0743 23.0762 22.7299 23.5 22.7299C23.9235 22.7299 24.2674 23.0743 24.2674 23.4973C24.2674 23.92 23.9235 24.2647 23.5 24.2647Z" fill="black"/>
<path d="M18.554 2.57321L20.0585 2.27344L20.3582 3.77868L18.8537 4.07808L18.554 2.57321Z" fill="black"/>
<path d="M14.5676 3.93875L15.9859 3.35156L16.5727 4.76987L15.1548 5.35668L14.5676 3.93875Z" fill="black"/>
<path d="M10.9236 6.05719L12.1999 5.20508L13.0524 6.48137L11.7757 7.33385L10.9236 6.05719Z" fill="black"/>
<path d="M7.76221 8.84593L8.84739 7.76074L9.93257 8.84593L8.84739 9.93111L7.76221 8.84593Z" fill="black"/>
<path d="M5.20483 12.1978L6.05769 10.9219L7.33361 11.7747L6.48112 13.0506L5.20483 12.1978Z" fill="black"/>
<path d="M3.35278 15.9834L3.94034 14.5654L5.35827 15.153L4.77072 16.5709L3.35278 15.9834Z" fill="black"/>
<path d="M2.27563 20.058L2.57503 18.5527L4.08028 18.8518L3.78125 20.3574L2.27563 20.058Z" fill="black"/>
<path d="M26.6399 43.2135L28.1444 42.9141L28.4442 44.4193L26.9397 44.7187L26.6399 43.2135Z" fill="black"/>
<path d="M30.4265 42.2245L31.8448 41.6377L32.4316 43.056L31.0137 43.6428L30.4265 42.2245Z" fill="black"/>
<path d="M33.949 40.514L35.2264 39.6611L36.0785 40.9378L34.8015 41.7907L33.949 40.514Z" fill="black"/>
<path d="M37.0647 38.1487L38.1499 37.0635L39.2351 38.1487L38.1499 39.2338L37.0647 38.1487Z" fill="black"/>
<path d="M39.6658 35.2224L40.5186 33.9453L41.7949 34.7978L40.9424 36.0748L39.6658 35.2224Z" fill="black"/>
<path d="M41.6406 31.8427L42.2274 30.4248L43.6457 31.0116L43.0586 32.4299L41.6406 31.8427Z" fill="black"/>
<path d="M42.918 28.1461L43.2177 26.6416L44.723 26.9414L44.4232 28.4459L42.918 28.1461Z" fill="black"/>
</g>
<defs>
<clipPath id="clip0">
<rect width="47" height="47" fill="white" transform="translate(-0.000732422)"/>
</clipPath>
</defs>
</svg>
