<svg width="152" height="152" viewBox="0 0 152 152" fill="none" xmlns="http://www.w3.org/2000/svg">
<path d="M133 123.025C128.939 124.474 124.141 125.756 118.75 126.825C114.356 127.704 109.582 128.44 104.5 129.034C99.9875 129.556 95.2138 129.984 90.25 130.245C85.6425 130.483 80.8925 130.625 76 130.625C71.1075 130.625 66.3575 130.483 61.75 130.245C56.7863 129.984 52.0125 129.556 47.5 129.034C42.4175 128.44 37.6437 127.704 33.25 126.825C27.8587 125.756 23.0613 124.474 19 123.025C10.0462 119.842 4.75 115.9 4.75 111.625V125.875C4.75 130.15 10.0462 134.092 19 137.275C23.0613 138.724 27.8587 140.006 33.25 141.075C37.6437 141.954 42.4175 142.69 47.5 143.284C52.0125 143.806 56.7863 144.234 61.75 144.495C66.3575 144.733 71.1075 144.875 76 144.875C80.8925 144.875 85.6425 144.733 90.25 144.495C95.2138 144.234 99.9875 143.806 104.5 143.284C109.582 142.69 114.356 141.954 118.75 141.075C124.141 140.006 128.939 138.724 133 137.275C141.954 134.092 147.25 130.15 147.25 125.875V111.625C147.25 115.9 141.954 119.842 133 123.025Z" fill="#FFC729"/>
<path d="M136.729 58.52C134.496 57.3087 133 54.9575 133 52.25C133 48.3075 136.183 45.125 140.125 45.125C144.068 45.125 147.25 48.3075 147.25 52.25C147.25 56.1925 144.068 59.375 140.125 59.375C138.89 59.375 137.726 59.0662 136.729 58.52Z" fill="#FF826E"/>
<path d="M144.875 16.625L130.625 26.125V21.375H114V11.875H130.625V7.125L144.875 16.625Z" fill="#B4DD7F"/>
<path d="M147.25 111.625C147.25 115.9 141.954 119.842 133 123.025C128.939 124.474 124.141 125.756 118.75 126.825C114.356 127.704 109.582 128.44 104.5 129.034C99.9875 129.556 95.2138 129.984 90.25 130.245C85.6425 130.483 80.8925 130.625 76 130.625C71.1075 130.625 66.3575 130.483 61.75 130.245C56.7863 129.984 52.0125 129.556 47.5 129.034C42.4175 128.44 37.6437 127.704 33.25 126.825C27.8587 125.756 23.0613 124.474 19 123.025C10.0462 119.842 4.75 115.9 4.75 111.625C4.75 101.127 36.6463 92.625 76 92.625C78.8262 92.625 81.605 92.6725 84.3362 92.7437C119.771 93.86 147.25 101.887 147.25 111.625Z" fill="#FCD770"/>
<path d="M125.756 78.945C127.229 79.7525 128.25 81.32 128.25 83.125C128.25 85.7375 126.113 87.875 123.5 87.875C120.888 87.875 118.75 85.7375 118.75 83.125C118.75 82.6975 118.797 82.27 118.916 81.89C119.462 79.8712 121.315 78.375 123.5 78.375C124.307 78.375 125.091 78.5888 125.756 78.945Z" fill="#FF826E"/>
<path d="M76 121.125C100.922 121.125 121.125 116.872 121.125 111.625C121.125 106.378 100.922 102.125 76 102.125C51.0782 102.125 30.875 106.378 30.875 111.625C30.875 116.872 51.0782 121.125 76 121.125Z" fill="#FFEAA7"/>
<path d="M106.875 19V57C106.875 59.6125 104.737 61.75 102.125 61.75H83.125L78.945 78.4462C78.6125 79.8 77.4012 80.75 76 80.75C74.5987 80.75 73.3875 79.8 73.055 78.4462L68.875 61.75H49.875C47.2625 61.75 45.125 59.6125 45.125 57V19C45.125 16.3875 47.2625 14.25 49.875 14.25H102.125C104.737 14.25 106.875 16.3875 106.875 19Z" fill="#E6E9ED"/>
<path d="M101.959 77.235C101.413 79.2538 99.56 80.75 97.375 80.75C96.2825 80.75 95.285 80.3938 94.4775 79.7525C93.3612 78.8975 92.625 77.52 92.625 76C92.625 73.3875 94.7625 71.25 97.375 71.25C99.9875 71.25 102.125 73.3875 102.125 76C102.125 76.4275 102.078 76.855 101.959 77.235Z" fill="#FF826E"/>
<path d="M38 54.625V64.125H21.375V68.875L7.125 59.375L21.375 49.875V54.625H38Z" fill="#B4DD7F"/>
<path d="M76 99.75C58.3561 99.75 28.5 102.251 28.5 111.625C28.5 120.999 58.3561 123.5 76 123.5C93.6439 123.5 123.5 120.999 123.5 111.625C123.5 102.251 93.6439 99.75 76 99.75ZM76 118.75C49.5757 118.75 34.1169 114.062 33.2405 111.701C34.1169 109.188 49.5757 104.5 76 104.5C102.158 104.5 117.57 109.096 118.729 111.625C117.57 114.154 102.158 118.75 76 118.75Z" fill="black"/>
<path d="M89.0435 90.5825L95.1472 82.7331C95.8526 82.9682 96.5912 83.125 97.375 83.125C99.7951 83.125 101.933 81.9066 103.22 80.0565L116.43 83.6594C116.707 87.3335 119.752 90.25 123.5 90.25C127.428 90.25 130.625 87.0532 130.625 83.125C130.625 81.2891 129.908 79.629 128.763 78.3631L137.869 61.4484C138.596 61.6289 139.344 61.75 140.125 61.75C145.364 61.75 149.625 57.4893 149.625 52.25C149.625 47.0107 145.364 42.75 140.125 42.75C134.886 42.75 130.625 47.0107 130.625 52.25C130.625 55.0002 131.817 57.4584 133.689 59.1945L124.581 76.1093C124.227 76.0546 123.87 76 123.5 76C121.08 76 118.945 77.2184 117.655 79.0685L104.445 75.4656C104.168 71.7915 101.12 68.875 97.375 68.875C93.4467 68.875 90.25 72.0718 90.25 76C90.25 77.4131 90.6751 78.7217 91.3876 79.8309L83.2034 90.3521C80.7999 90.2856 78.3964 90.25 76 90.25C40.3085 90.25 2.375 97.7407 2.375 111.625V125.875C2.375 139.759 40.3085 147.25 76 147.25C111.691 147.25 149.625 139.759 149.625 125.875V111.625C149.625 99.4294 120.353 92.1666 89.0435 90.5825ZM140.125 47.5C142.745 47.5 144.875 49.6304 144.875 52.25C144.875 54.8696 142.745 57 140.125 57C137.505 57 135.375 54.8696 135.375 52.25C135.375 49.6304 137.505 47.5 140.125 47.5ZM123.5 80.75C124.811 80.75 125.875 81.814 125.875 83.125C125.875 84.436 124.811 85.5 123.5 85.5C122.189 85.5 121.125 84.436 121.125 83.125C121.125 81.814 122.189 80.75 123.5 80.75ZM97.375 73.625C98.686 73.625 99.75 74.689 99.75 76C99.75 77.311 98.686 78.375 97.375 78.375C96.064 78.375 95 77.311 95 76C95 74.689 96.064 73.625 97.375 73.625ZM7.125 125.875V119.581C9.52612 121.45 12.7537 123.134 16.625 124.623V133.751C10.4476 131.152 7.125 128.34 7.125 125.875ZM130.625 126.26V135.525C127.837 136.446 124.657 137.315 121.125 138.113V128.708C124.512 127.984 127.694 127.165 130.625 126.26ZM116.375 139.101C113.416 139.662 110.24 140.165 106.875 140.607V131.1C110.145 130.682 113.323 130.195 116.375 129.644V139.101ZM102.125 141.175C99.0993 141.498 95.9262 141.766 92.625 141.977V132.461C95.836 132.252 99.0114 131.981 102.125 131.656V141.175ZM87.875 142.239C84.8136 142.374 81.6406 142.455 78.375 142.483V132.986C81.5409 132.957 84.7162 132.867 87.875 132.722V142.239ZM73.625 142.483C70.3594 142.455 67.1864 142.374 64.125 142.239V132.72C67.2838 132.865 70.4591 132.955 73.625 132.983V142.483ZM59.375 141.977C56.0737 141.766 52.9007 141.498 49.875 141.175V131.656C52.9886 131.983 56.164 132.254 59.375 132.461V141.977ZM45.125 140.607C41.7596 140.165 38.5843 139.662 35.625 139.101V129.644C38.6769 130.198 41.8546 130.682 45.125 131.1V140.607ZM30.875 138.116C27.3434 137.318 24.1632 136.446 21.375 135.527V126.262C24.3057 127.167 27.4883 127.986 30.875 128.713V138.116ZM135.375 133.753V124.626C139.246 123.137 142.474 121.453 144.875 119.584V125.875C144.875 128.34 141.552 131.152 135.375 133.753ZM76 128.25C33.326 128.25 7.125 118.567 7.125 111.625C7.125 104.683 33.326 95 76 95C118.674 95 144.875 104.683 144.875 111.625C144.875 118.567 118.674 128.25 76 128.25Z" fill="black"/>
<path d="M73.625 54.625H78.375V49.875C82.3033 49.875 85.5 46.6782 85.5 42.75C85.5 38.8218 82.3033 35.625 78.375 35.625H73.625C72.314 35.625 71.25 34.561 71.25 33.25C71.25 31.939 72.314 30.875 73.625 30.875H80.75V33.25H85.5V26.125H78.375V21.375H73.625V26.125C69.6967 26.125 66.5 29.3217 66.5 33.25C66.5 37.1783 69.6967 40.375 73.625 40.375H78.375C79.686 40.375 80.75 41.439 80.75 42.75C80.75 44.061 79.686 45.125 78.375 45.125H71.25V42.75H66.5V49.875H73.625V54.625Z" fill="black"/>
<path d="M49.875 64.125H67.0225L70.7465 79.0234C71.3498 81.4387 73.511 83.125 76 83.125C78.489 83.125 80.6503 81.4388 81.2535 79.021L84.9775 64.125H102.125C106.053 64.125 109.25 60.9282 109.25 57V19C109.25 15.0717 106.053 11.875 102.125 11.875H49.875C45.9467 11.875 42.75 15.0717 42.75 19V57C42.75 60.9282 45.9467 64.125 49.875 64.125ZM47.5 19C47.5 17.689 48.564 16.625 49.875 16.625H102.125C103.436 16.625 104.5 17.689 104.5 19V57C104.5 58.311 103.436 59.375 102.125 59.375H81.2725L76.6484 77.8691C76.4987 78.4629 75.5036 78.4605 75.354 77.8715L70.7275 59.375H49.875C48.564 59.375 47.5 58.311 47.5 57V19Z" fill="black"/>
<path d="M23.7499 66.5H37.9999V61.75H18.9999V64.4385L11.407 59.375L18.9999 54.3115V57H37.9999V52.25H23.7499V45.4385L2.84277 59.375L23.7499 73.3115V66.5Z" fill="black"/>
<path d="M128.25 30.5615L149.157 16.625L128.25 2.68848V9.49998H114V14.25H133V11.5615L140.593 16.625L133 21.6885V19H114V23.75H128.25V30.5615Z" fill="black"/>
</svg>
