<svg width="176" height="176" viewBox="0 0 176 176" fill="none" xmlns="http://www.w3.org/2000/svg">
<g clip-path="url(#clip0)">
<path d="M70.9851 67.6392C84.4095 67.6392 95.2921 56.7566 95.2921 43.3323C95.2921 29.908 84.4095 19.0254 70.9851 19.0254C57.5608 19.0254 46.6782 29.908 46.6782 43.3323C46.6782 56.7566 57.5608 67.6392 70.9851 67.6392Z" fill="#FCE25C"/>
<path d="M46.8691 46.3301C48.348 58.3383 58.5773 67.6381 70.9853 67.6381C83.3936 67.6381 93.6229 58.3383 95.1014 46.3301H46.8691Z" fill="#E6B700"/>
<path d="M26.885 63.6927V160.921C26.885 166.674 31.549 171.338 37.3024 171.338H166.477V53.2754H37.3024C31.549 53.2754 26.885 57.9394 26.885 63.6927Z" fill="#6F71FE"/>
<path d="M157.796 53.2754H166.477V171.338H157.796V53.2754Z" fill="#7B7BFF"/>
<path d="M40.7749 67.166H152.587V157.449H40.7749V67.166Z" fill="#DCF5FF"/>
<path d="M173.422 133.142H135.156C131.358 133.142 128.281 130.064 128.281 126.267V98.3477C128.281 94.5506 131.358 91.4727 135.156 91.4727H173.422V133.142Z" fill="#5051DB"/>
<path d="M152.587 122.724C158.341 122.724 163.005 118.06 163.005 112.307C163.005 106.554 158.341 101.89 152.587 101.89C146.834 101.89 142.17 106.554 142.17 112.307C142.17 118.06 146.834 122.724 152.587 122.724Z" fill="#FCDD2E"/>
<path d="M157.341 103.039C158.074 104.465 158.49 106.08 158.49 107.793C158.49 113.546 153.826 118.21 148.073 118.21C146.36 118.21 144.745 117.794 143.319 117.061C145.047 120.423 148.547 122.725 152.587 122.725C158.341 122.725 163.005 118.061 163.005 112.307C163.005 108.268 160.703 104.767 157.341 103.039Z" fill="#E6B700"/>
<path d="M10.2176 119.946C14.4368 119.946 17.8571 116.526 17.8571 112.306C17.8571 108.087 14.4368 104.667 10.2176 104.667C5.99845 104.667 2.57812 108.087 2.57812 112.306C2.57812 116.526 5.99845 119.946 10.2176 119.946Z" fill="#FCDD2E"/>
<path d="M57.7901 91.4723C62.0093 91.4723 65.4296 88.052 65.4296 83.8329C65.4296 79.6137 62.0093 76.1934 57.7901 76.1934C53.571 76.1934 50.1506 79.6137 50.1506 83.8329C50.1506 88.052 53.571 91.4723 57.7901 91.4723Z" fill="#FCDD2E"/>
<path d="M77.5829 123.072C81.802 123.072 85.2224 119.652 85.2224 115.432C85.2224 111.213 81.802 107.793 77.5829 107.793C73.3637 107.793 69.9434 111.213 69.9434 115.432C69.9434 119.652 73.3637 123.072 77.5829 123.072Z" fill="#FCDD2E"/>
<path d="M26.8856 150.851C31.1048 150.851 34.5251 147.431 34.5251 143.212C34.5251 138.993 31.1048 135.572 26.8856 135.572C22.6664 135.572 19.2461 138.993 19.2461 143.212C19.2461 147.431 22.6664 150.851 26.8856 150.851Z" fill="#FCDD2E"/>
<path d="M132.447 53.2759C145.872 53.2759 156.754 42.3934 156.754 28.969C156.754 15.5447 145.872 4.66211 132.447 4.66211C119.023 4.66211 108.14 15.5447 108.14 28.969C108.14 42.3934 119.023 53.2759 132.447 53.2759Z" fill="#FCE25C"/>
<path d="M147 9.49902C150.038 13.5563 151.837 18.5943 151.837 24.0524C151.837 37.4768 140.955 48.3593 127.53 48.3593C122.072 48.3593 117.034 46.5601 112.977 43.5224C117.41 49.4435 124.481 53.2759 132.447 53.2759C145.872 53.2759 156.754 42.3932 156.754 28.969C156.754 21.003 152.922 13.9324 147 9.49902Z" fill="#E6B700"/>
<path d="M173.422 88.8943H169.055V53.2753C169.055 51.8511 167.901 50.6972 166.477 50.6972H148.253C154.962 45.8039 159.332 37.889 159.332 28.9684C159.332 14.1438 147.272 2.08301 132.447 2.08301C117.623 2.08301 105.562 14.1438 105.562 28.9684C105.562 37.889 109.933 45.8039 116.641 50.6972H96.843C97.5212 48.317 97.8704 45.853 97.8704 43.3316C97.8704 28.5071 85.81 16.4463 70.9854 16.4463C56.1608 16.4463 44.1004 28.5071 44.1004 43.3316C44.1004 45.8534 44.4496 48.317 45.1278 50.6972H37.3031C30.1372 50.6972 24.3076 56.5272 24.3076 63.693V77.83C24.3076 79.2542 25.4619 80.4082 26.8857 80.4082C28.3095 80.4082 29.4638 79.2542 29.4638 77.83V63.693C29.4638 59.3703 32.9804 55.8534 37.3031 55.8534H163.9V88.894H155.165V67.1652C155.165 65.741 154.011 64.5871 152.587 64.5871H80.4712C79.0474 64.5871 77.8931 65.741 77.8931 67.1652C77.8931 68.5894 79.0474 69.7433 80.4712 69.7433H150.009V88.894H135.155C131.067 88.894 127.577 91.5037 126.262 95.1444H69.2488C68.5651 95.1444 67.9092 95.4159 67.4259 95.8993L53.5968 109.728H43.3531V69.7433H68.3451C69.7689 69.7433 70.9232 68.5894 70.9232 67.1652C70.9232 65.741 69.7689 64.5871 68.3451 64.5871H40.7749C39.3511 64.5871 38.1968 65.741 38.1968 67.1652V109.728H29.4632V89.841C29.4632 88.4168 28.3088 87.2629 26.885 87.2629C25.4612 87.2629 24.3069 88.4168 24.3069 89.841V109.728H20.1049C18.9595 105.339 14.961 102.089 10.2176 102.089C4.58356 102.09 0 106.673 0 112.307C0 117.941 4.58356 122.524 10.2176 122.524C14.9614 122.524 18.9595 119.275 20.1049 114.885H24.3069V133.324C19.9172 134.47 16.6674 138.468 16.6674 143.212C16.6674 147.955 19.9169 151.954 24.3069 153.099V160.921C24.3069 168.086 30.1366 173.916 37.3024 173.916H142.17C143.594 173.916 144.748 172.762 144.748 171.338C144.748 169.914 143.594 168.76 142.17 168.76H37.3024C32.9797 168.76 29.4632 165.244 29.4632 160.921V153.099C33.0289 152.169 35.8421 149.356 36.7723 145.79H38.1965V157.449C38.1965 158.873 39.3508 160.027 40.7746 160.027H152.587C154.011 160.027 155.165 158.873 155.165 157.449V135.72H163.899V168.761H154.213C152.79 168.761 151.635 169.914 151.635 171.339C151.635 172.763 152.79 173.917 154.213 173.917H166.477C167.901 173.917 169.055 172.763 169.055 171.339V135.72H173.422C174.846 135.72 176 134.566 176 133.141V91.4721C176 90.0483 174.846 88.8943 173.422 88.8943ZM49.2563 43.332C49.2563 31.3506 59.0037 21.6029 70.9851 21.6029C82.9665 21.6029 92.7139 31.3502 92.7139 43.332C92.7139 45.8754 92.2769 48.3445 91.4275 50.6975H79.8012C80.0535 49.9447 80.1924 49.1407 80.1924 48.304C80.1924 46.401 79.4832 44.6613 78.3169 43.332C79.4829 42.0027 80.1924 40.2633 80.1924 38.36C80.1924 34.5086 77.2932 31.3238 73.5632 30.8679V28.416C73.5632 26.9918 72.4089 25.8379 70.9851 25.8379C69.5612 25.8379 68.4069 26.9918 68.4069 28.416V30.8099H64.3558C62.932 30.8099 61.7777 31.9638 61.7777 33.388V43.332V50.6975H50.5426C49.6928 48.3442 49.2563 45.875 49.2563 43.332ZM72.6423 35.9661C73.9623 35.9661 75.0362 37.04 75.0362 38.36C75.0362 39.68 73.9623 40.7539 72.6423 40.7539H66.934V35.9661H72.6423ZM66.934 50.6972V45.9098H72.6423C73.9623 45.9098 75.0362 46.9836 75.0362 48.3036C75.0362 49.6236 73.9623 50.6972 72.6423 50.6972H66.934ZM110.718 28.9684C110.718 16.987 120.465 7.23926 132.447 7.23926C144.428 7.23926 154.176 16.9866 154.176 28.9684C154.176 40.9494 144.428 50.6972 132.447 50.6972C120.465 50.6972 110.718 40.9498 110.718 28.9684ZM10.2176 117.368C7.42672 117.368 5.15625 115.098 5.15625 112.307C5.15625 109.516 7.42672 107.246 10.2176 107.246C13.0085 107.246 15.279 109.516 15.279 112.307C15.279 115.098 13.0082 117.368 10.2176 117.368ZM54.6645 114.885C55.3482 114.885 56.0041 114.613 56.4874 114.13L70.3165 100.301H125.702V112.854H87.4699C86.3246 108.465 82.3264 105.215 77.5827 105.215C71.9486 105.215 67.365 109.798 67.365 115.433C67.365 121.067 71.9486 125.65 77.5827 125.65C82.3264 125.65 86.3246 122.401 87.4699 118.011H125.702V126.267C125.702 127.814 126.078 129.274 126.74 130.564H67.5125C66.9584 130.564 66.4187 130.743 65.9742 131.073L53.1166 140.634H43.3531V114.885H54.6645V114.885ZM82.6437 115.432C82.6437 118.223 80.3732 120.494 77.5827 120.494C74.7918 120.494 72.5213 118.223 72.5213 115.432C72.5213 112.641 74.7918 110.371 77.5827 110.371C80.3732 110.371 82.6437 112.642 82.6437 115.432ZM26.885 148.273C24.0941 148.273 21.8237 146.003 21.8237 143.212C21.8237 140.421 24.0941 138.15 26.885 138.15C29.6759 138.15 31.9464 140.421 31.9464 143.212C31.9464 146.003 29.6759 148.273 26.885 148.273ZM36.7727 140.634C35.8421 137.068 33.0292 134.255 29.4635 133.324V114.885H38.1968V140.634H36.7727ZM150.009 154.87H43.3531V145.79H53.9701C54.5243 145.79 55.0639 145.611 55.5084 145.281L68.366 135.72H135.155H135.225H150.009V154.87ZM170.844 130.563H135.225H135.155C132.785 130.563 130.858 128.636 130.858 126.266V98.3471C130.858 95.9776 132.785 94.0502 135.155 94.0502H170.844V130.563Z" fill="black"/>
<path d="M152.587 99.3115C145.421 99.3115 139.592 105.141 139.592 112.307C139.592 119.473 145.421 125.303 152.587 125.303C159.753 125.303 165.583 119.473 165.583 112.307C165.583 105.141 159.753 99.3115 152.587 99.3115ZM152.587 120.147C148.265 120.147 144.748 116.63 144.748 112.307C144.748 107.985 148.265 104.468 152.587 104.468C156.91 104.468 160.426 107.984 160.426 112.307C160.426 116.63 156.91 120.147 152.587 120.147Z" fill="black"/>
<path d="M57.7901 73.6152C52.1561 73.6152 47.5725 78.1988 47.5725 83.8329C47.5725 89.4669 52.1561 94.0505 57.7901 94.0505C62.5339 94.0505 66.532 90.801 67.6774 86.411H94.945C96.3689 86.411 97.5232 85.257 97.5232 83.8329C97.5232 82.4087 96.3689 81.2547 94.945 81.2547H67.6774C66.532 76.865 62.5335 73.6152 57.7901 73.6152ZM57.7901 88.8942C54.9992 88.8942 52.7288 86.6238 52.7288 83.8329C52.7288 81.0419 54.9992 78.7715 57.7901 78.7715C60.581 78.7715 62.8515 81.0419 62.8515 83.8329C62.8515 86.6238 60.5807 88.8942 57.7901 88.8942Z" fill="black"/>
<path d="M125.85 142.717H75.8469C74.4231 142.717 73.2688 143.871 73.2688 145.295C73.2688 146.719 74.4231 147.873 75.8469 147.873H125.85C127.274 147.873 128.428 146.719 128.428 145.295C128.428 143.871 127.274 142.717 125.85 142.717Z" fill="black"/>
<path d="M135.026 16.5047V14.0527C135.026 12.6286 133.871 11.4746 132.448 11.4746C131.024 11.4746 129.869 12.6286 129.869 14.0527V16.4466H125.818C124.395 16.4466 123.24 17.6006 123.24 19.0247V28.9687V38.9124C123.24 40.3365 124.395 41.4905 125.818 41.4905H129.869V43.884C129.869 45.3082 131.024 46.4622 132.448 46.4622C133.871 46.4622 135.026 45.3082 135.026 43.884V41.4324C138.756 40.9766 141.655 37.7918 141.655 33.9404C141.655 32.0374 140.946 30.2977 139.779 28.9684C140.945 27.6391 141.655 25.8997 141.655 23.9964C141.655 20.1454 138.756 16.9605 135.026 16.5047ZM128.396 21.6029H134.105C135.425 21.6029 136.499 22.6767 136.499 23.9967C136.499 25.3167 135.425 26.3906 134.105 26.3906H128.396V21.6029ZM134.105 36.3343H128.396V31.5465H134.105C135.425 31.5465 136.499 32.6204 136.499 33.9404C136.499 35.2604 135.425 36.3343 134.105 36.3343Z" fill="black"/>
</g>
<defs>
<clipPath id="clip0">
<rect width="176" height="176" fill="white"/>
</clipPath>
</defs>
</svg>
