<svg width="159" height="159" viewBox="0 0 159 159" fill="none" xmlns="http://www.w3.org/2000/svg">
<path d="M79.5 154.031C58.9194 154.031 40.2866 145.689 26.799 132.201L17.3906 141.609V114.281H44.7188L35.5812 123.419C46.8205 134.658 62.3479 141.609 79.5 141.609" fill="#FC8A46"/>
<path d="M79.5 4.96875C100.081 4.96875 118.713 13.3113 132.201 26.799L141.609 17.3906V44.7188H114.281L123.419 35.5812C112.179 24.3419 96.6521 17.3906 79.5 17.3906" fill="#FC8A46"/>
<path d="M79.5 119.25C101.453 119.25 119.25 101.453 119.25 79.5C119.25 57.5467 101.453 39.75 79.5 39.75C57.5467 39.75 39.75 57.5467 39.75 79.5C39.75 101.453 57.5467 119.25 79.5 119.25Z" fill="#FC8A46"/>
<path d="M79.5 109.312C95.965 109.312 109.312 95.965 109.312 79.5C109.312 63.035 95.965 49.6875 79.5 49.6875C63.035 49.6875 49.6875 63.035 49.6875 79.5C49.6875 95.965 63.035 109.312 79.5 109.312Z" fill="white"/>
<path d="M79.5 96.8906C74.0195 96.8906 69.5625 92.4337 69.5625 86.9531H74.5312C74.5312 89.6934 76.7597 91.9219 79.5 91.9219C82.2403 91.9219 84.4688 89.6934 84.4688 86.9531C84.4688 84.2129 82.2403 81.9844 79.5 81.9844C74.0195 81.9844 69.5625 77.5274 69.5625 72.0469C69.5625 66.5663 74.0195 62.1094 79.5 62.1094C84.9805 62.1094 89.4375 66.5663 89.4375 72.0469H84.4688C84.4688 69.3066 82.2403 67.0781 79.5 67.0781C76.7597 67.0781 74.5312 69.3066 74.5312 72.0469C74.5312 74.7871 76.7597 77.0156 79.5 77.0156C84.9805 77.0156 89.4375 81.4726 89.4375 86.9531C89.4375 92.4337 84.9805 96.8906 79.5 96.8906Z" fill="black"/>
<path d="M77.0156 57.1406H81.9844V64.5938H77.0156V57.1406Z" fill="black"/>
<path d="M77.0156 94.4062H81.9844V101.859H77.0156V94.4062Z" fill="black"/>
<path d="M52.1719 79.5H47.2031C47.2031 61.692 61.692 47.2031 79.5 47.2031V52.1719C64.4323 52.1719 52.1719 64.4323 52.1719 79.5Z" fill="black"/>
<path d="M79.5 111.797V106.828C94.5677 106.828 106.828 94.5677 106.828 79.5H111.797C111.797 97.308 97.308 111.797 79.5 111.797Z" fill="black"/>
<path d="M36.5701 38.1225L32.9951 34.6717C38.9204 28.5254 45.8741 23.6833 53.6626 20.2822L55.6501 24.8336C48.4603 27.9763 42.0407 32.4482 36.5701 38.1225Z" fill="black"/>
<path d="M60.4226 22.9927L58.8276 18.2848C60.512 17.7159 62.2511 17.2066 64.0001 16.7793L65.1901 21.6015C63.5753 21.999 61.9729 22.4685 60.4226 22.9927Z" fill="black"/>
<path d="M69.955 20.6356L69.1699 15.729C70.9015 15.4532 72.6406 15.2445 74.3374 15.1104L74.725 20.0642C73.1598 20.1859 71.5549 20.3772 69.955 20.6356Z" fill="black"/>
<path d="M7.45312 79.5H2.48438C2.48438 37.0321 37.0346 2.48438 79.5 2.48438C99.2433 2.48438 117.851 9.86297 132.174 23.3134L139.853 15.6342C140.563 14.9212 141.627 14.705 142.561 15.0951C143.488 15.4777 144.094 16.3869 144.094 17.3906V44.7188C144.094 46.0926 142.981 47.2031 141.609 47.2031H114.281C113.278 47.2031 112.371 46.5994 111.986 45.6703C111.601 44.7411 111.814 43.6728 112.525 42.9623L119.869 35.6185C108.836 25.4475 94.5951 19.875 79.5 19.875V14.9062C96.754 14.9062 112.974 21.624 125.175 33.8248C126.147 34.7962 126.147 36.3663 125.175 37.3377L120.279 42.2344H139.125V23.3879L133.957 28.5554C133.026 29.487 131.376 29.487 130.445 28.5554C116.838 14.9485 98.7465 7.45312 79.5 7.45312C39.7724 7.45312 7.45312 39.7748 7.45312 79.5Z" fill="black"/>
<path d="M105.338 138.717L103.35 134.166C110.54 131.023 116.96 126.554 122.433 120.877L126.008 124.328C120.08 130.474 113.129 135.316 105.338 138.717Z" fill="black"/>
<path d="M95.0001 142.22L93.8101 137.398C95.4224 137.001 97.0248 136.531 98.5751 136.007L100.17 140.715C98.4881 141.284 96.7491 141.79 95.0001 142.22Z" fill="black"/>
<path d="M84.6625 143.89L84.2749 138.936C85.8401 138.814 87.445 138.623 89.0449 138.367L89.83 143.274C88.0984 143.547 86.3593 143.756 84.6625 143.89Z" fill="black"/>
<path d="M79.5 156.516C59.7567 156.516 41.1487 149.137 26.8263 135.687L19.1471 143.366C18.4365 144.076 17.3683 144.292 16.4391 143.905C15.5124 143.522 14.9062 142.613 14.9062 141.609V114.281C14.9062 112.907 16.0193 111.797 17.3906 111.797H44.7188C45.7224 111.797 46.6292 112.401 47.0143 113.33C47.3994 114.259 47.1857 115.327 46.4752 116.038L39.1314 123.382C50.1645 133.553 64.4049 139.125 79.5 139.125V144.094C62.246 144.094 46.0255 137.376 33.8248 125.175C32.8534 124.204 32.8534 122.634 33.8248 121.662L38.7215 116.766H19.875V135.612L25.0425 130.445C25.9741 129.513 27.6238 129.513 28.5554 130.445C42.1623 144.052 60.2535 151.547 79.5 151.547C119.228 151.547 151.547 119.225 151.547 79.5H156.516C156.516 121.968 121.965 156.516 79.5 156.516Z" fill="black"/>
<path d="M79.5 121.734C56.2115 121.734 37.2656 102.789 37.2656 79.5C37.2656 56.2115 56.2115 37.2656 79.5 37.2656C102.789 37.2656 121.734 56.2115 121.734 79.5C121.734 102.789 102.789 121.734 79.5 121.734ZM79.5 42.2344C58.9517 42.2344 42.2344 58.9517 42.2344 79.5C42.2344 100.048 58.9517 116.766 79.5 116.766C100.048 116.766 116.766 100.048 116.766 79.5C116.766 58.9517 100.048 42.2344 79.5 42.2344Z" fill="black"/>
</svg>
