<svg width="37" height="37" viewBox="0 0 37 37" fill="none" xmlns="http://www.w3.org/2000/svg">
<g clip-path="url(#clip0)">
<path d="M29.8215 4.60274H28.7914L18.4989 6.09167L8.20631 4.60274H7.02744C5.75642 4.60274 4.72607 3.5724 4.72607 2.30137C4.726 1.03034 5.75642 0 7.02744 0H29.8215C31.0926 0 32.1229 1.03034 32.1229 2.30137C32.123 3.5724 31.0926 4.60274 29.8215 4.60274Z" fill="#B98080"/>
<path d="M29.9702 0H27.7368C29.0078 0 30.0382 1.03034 30.0382 2.30137C30.0382 3.5724 29.0078 4.60274 27.7368 4.60274H29.9702C31.2412 4.60274 32.2716 3.5724 32.2716 2.30137C32.2717 1.03034 31.2412 0 29.9702 0Z" fill="#AE6C6C"/>
<path d="M28.6427 7.49159V4.60254H8.20654V7.49159C8.20654 11.9733 11.0711 15.7854 15.0691 17.1981C15.6209 17.3931 15.9899 17.9146 15.9899 18.4997C15.9899 19.0849 15.6209 19.6064 15.0691 19.8013C11.0712 21.2141 8.20654 25.0262 8.20654 29.5079V32.3969H28.6427V29.5079C28.6427 25.0262 25.7781 21.2141 21.7801 19.8013C21.2283 19.6064 20.8593 19.0849 20.8593 18.4997H21.0082C21.0082 17.9145 21.2283 17.3931 21.7801 17.1981C25.7781 15.7855 28.6427 11.9733 28.6427 7.49159Z" fill="#EFEDEF"/>
<path d="M8.20654 4.60254V6.06162H25.1283C25.918 6.06162 26.5583 6.70186 26.5583 7.49159C26.5583 11.9594 23.7114 15.7617 19.7329 17.1848C19.2407 17.3609 18.8641 17.7812 18.7894 18.2986C18.6936 18.9625 19.0813 19.5843 19.6957 19.8013C23.6936 21.2141 26.5583 25.0262 26.5583 29.5079V32.3969H28.7917V29.5079C28.7917 25.0401 25.9448 21.2377 21.9663 19.8146C21.4741 19.6385 21.0975 19.2183 21.0228 18.7009C20.927 18.037 21.3147 17.4152 21.9291 17.1981C25.927 15.7854 28.7917 11.9732 28.7917 7.49159V6.06169V4.60254H8.20654Z" fill="#D7D0D6"/>
<path d="M29.8215 36.9999H7.02744C5.75642 36.9999 4.72607 35.9695 4.72607 34.6985C4.72607 33.4275 5.75642 32.3971 7.02744 32.3971H8.20646L18.499 30.9082L28.7916 32.3971H29.8217C31.0927 32.3971 32.123 33.4275 32.123 34.6985C32.123 35.9695 31.0926 36.9999 29.8215 36.9999Z" fill="#B98080"/>
<path d="M29.9702 32.3975H27.7368C29.0078 32.3975 30.0382 33.4278 30.0382 34.6988C30.0382 35.9699 29.0078 37.0002 27.7368 37.0002H29.9702C31.2412 37.0002 32.2716 35.9699 32.2716 34.6988C32.2717 33.4278 31.2412 32.3975 29.9702 32.3975Z" fill="#AE6C6C"/>
<path d="M23.4558 24.3232H22.3718C21.2817 24.3232 20.2027 23.5346 20.0244 22.4592L19.5821 19.7915C19.357 18.4338 20.4043 17.1986 21.7806 17.1986C24.4514 16.2549 26.6147 14.2394 27.7578 11.6699H9.09228C10.2353 14.2395 12.3988 16.2549 15.0695 17.1986C16.4458 17.1986 17.4931 18.4338 17.268 19.7915L16.8257 22.4592C16.6474 23.5346 15.7173 24.3232 14.6272 24.3232H13.3943C10.5524 24.3232 8.22252 26.6098 8.20718 29.4517C8.20711 29.4706 8.20703 29.4895 8.20703 29.5084V32.3974H28.6432V29.5084C28.6432 29.4895 28.6431 29.4706 28.643 29.4517C28.6276 26.6098 26.2977 24.3232 23.4558 24.3232Z" fill="#FED402"/>
<path d="M28.7912 29.4517C28.7758 26.6098 26.446 24.3232 23.604 24.3232H22.371C21.2809 24.3232 20.3509 23.5346 20.1726 22.4592L19.7303 19.7915C19.5051 18.4338 20.5525 17.1986 21.9288 17.1986C24.5995 16.2549 26.7629 14.2394 27.906 11.6699H25.6726C24.5295 14.2395 22.3661 16.2549 19.6954 17.1986C18.3191 17.1986 17.2717 18.4338 17.4969 19.7915L17.9392 22.4592C18.1175 23.5346 19.0476 24.3232 20.1376 24.3232H21.3706C24.2126 24.3232 26.5424 26.6098 26.5578 29.4517C26.5578 29.4706 26.5579 29.4895 26.5579 29.5084V32.3974H28.7913V29.5084C28.7913 29.4895 28.7912 29.4706 28.7912 29.4517Z" fill="#FAC600"/>
</g>
<defs>
<clipPath id="clip0">
<rect width="37" height="37" fill="white" transform="translate(-0.000976562)"/>
</clipPath>
</defs>
</svg>
