<svg width="44" height="44" viewBox="0 0 44 44" fill="none" xmlns="http://www.w3.org/2000/svg">
<g clip-path="url(#clip0)">
<path d="M22.0012 29.3332L17.1192 24.4512L22.0012 29.3332L23.4679 27.8665V9.5332C23.2187 9.5332 22.9766 9.54036 22.7345 9.55505C14.8068 9.92959 8.46426 16.2721 8.08971 24.1999C8.07503 24.4419 8.06787 24.684 8.06787 24.9332C8.06787 25.1824 8.07503 25.4245 8.08971 25.6665C8.46426 33.5943 14.8068 39.9368 22.7345 40.3114C22.9766 40.326 23.2187 40.3332 23.4679 40.3332V27.8665L22.0012 29.3332Z" fill="#FFCD00"/>
<path d="M38.8459 24.1999C38.4714 16.2721 32.1288 9.92959 24.2011 9.55505C23.959 9.54036 23.717 9.5332 23.4678 9.5332V27.8665L32.1944 19.1399L23.4678 27.8665V40.3332C23.717 40.3332 23.959 40.326 24.2011 40.3114C32.1288 39.9368 38.4714 33.5943 38.8459 25.6665C38.8606 25.4245 38.8678 25.1824 38.8678 24.9332C38.8678 24.684 38.8606 24.4419 38.8459 24.1999Z" fill="#FFDA44"/>
<path d="M36.4328 7.82422L34.1909 10.0661C35.7843 11.2173 37.183 12.616 38.3342 14.2094L40.5761 11.9675L36.4328 7.82422Z" fill="#CD2A00"/>
<path d="M29.3339 1.46667H17.6005C17.1955 1.46667 16.8672 1.13831 16.8672 0.733333C16.8672 0.328353 17.1955 0 17.6005 0H29.3339C29.7388 0 30.0672 0.328353 30.0672 0.733333C30.0672 1.13831 29.7388 1.46667 29.3339 1.46667Z" fill="#CD2A00"/>
<path d="M23.4672 7.33333C23.0622 7.33333 22.7339 7.00498 22.7339 6.6V0.733333C22.7339 0.328353 23.0622 0 23.4672 0C23.8722 0 24.2006 0.328353 24.2006 0.733333V6.6C24.2006 7.00498 23.8722 7.33333 23.4672 7.33333Z" fill="#CD2A00"/>
<path d="M23.4669 44.0002C16.4985 44.0013 10.0847 40.1993 6.74098 34.0855C6.54655 33.7303 6.67724 33.2845 7.03245 33.0901C7.38802 32.8957 7.83382 33.026 8.0279 33.3816C11.8876 40.4356 20.0377 43.9769 27.8279 41.985C35.6181 39.993 41.068 32.9744 41.068 24.9335C41.068 16.8927 35.6181 9.87407 27.8279 7.88211C20.0377 5.89015 11.8876 9.43149 8.0279 16.4855C7.83382 16.8411 7.38802 16.9714 7.03245 16.777C6.67724 16.5826 6.54655 16.1368 6.74098 15.7816C11.209 7.61571 20.92 3.86955 29.7142 6.91925C38.5085 9.9686 43.8159 18.9226 42.2693 28.1011C40.7228 37.2799 32.775 44.0006 23.4669 44.0002Z" fill="#FFBCAB"/>
<path d="M24.2006 37.4003V40.3118C23.9585 40.3265 23.7164 40.3337 23.4672 40.3337C23.218 40.3337 22.9759 40.3265 22.7339 40.3118V37.4003C22.7339 36.9953 23.0622 36.667 23.4672 36.667C23.8722 36.667 24.2006 36.9953 24.2006 37.4003Z" fill="#CD2A00"/>
<path d="M24.2006 9.55505V12.4665C24.2006 12.8715 23.8722 13.1999 23.4672 13.1999C23.0622 13.1999 22.7339 12.8715 22.7339 12.4665V9.55505C22.9759 9.54036 23.218 9.5332 23.4672 9.5332C23.7164 9.5332 23.9585 9.54036 24.2006 9.55505Z" fill="#CD2A00"/>
<path d="M8.08887 25.6669H11.0004C11.4053 25.6669 11.7337 25.3385 11.7337 24.9335C11.7337 24.5285 11.4053 24.2002 11.0004 24.2002H8.08887V25.6669Z" fill="#CD2A00"/>
<path d="M38.8678 24.9335C38.8678 25.1827 38.8606 25.4248 38.8459 25.6669H35.2011C34.7961 25.6669 34.4678 25.3385 34.4678 24.9335C34.4678 24.5285 34.7961 24.2002 35.2011 24.2002H38.8459C38.8606 24.4423 38.8678 24.6843 38.8678 24.9335Z" fill="#CD2A00"/>
<path d="M23.4671 26.4002C23.2726 26.4002 23.0861 26.3229 22.9486 26.1854L18.067 21.3034C17.7888 21.0159 17.7927 20.5582 18.0756 20.2754C18.3585 19.9925 18.8161 19.9885 19.1036 20.2668L23.4671 24.6299L33.1411 14.9558C33.429 14.678 33.8863 14.6819 34.1692 14.9648C34.452 15.2477 34.456 15.7049 34.1781 15.9928L23.9849 26.1861C23.8474 26.3232 23.6612 26.4002 23.4671 26.4002Z" fill="#CD2A00"/>
<path d="M5.86751 24.9335C5.86751 24.5285 5.53916 24.2002 5.13418 24.2002H-0.732487C-1.13747 24.2002 -1.46582 24.5285 -1.46582 24.9335C-1.46582 25.3385 -1.13747 25.6669 -0.732487 25.6669H5.13418C5.53916 25.6669 5.86751 25.3385 5.86751 24.9335Z" fill="#FF6243"/>
<path d="M0.733822 21.2665H5.86716C6.27214 21.2665 6.60049 20.9381 6.60049 20.5331C6.60049 20.1282 6.27214 19.7998 5.86716 19.7998H0.733822C0.328841 19.7998 0.000488281 20.1282 0.000488281 20.5331C0.000488281 20.9381 0.328841 21.2665 0.733822 21.2665Z" fill="#FF6243"/>
<path d="M6.60049 29.3329C6.60049 28.928 6.27214 28.5996 5.86716 28.5996H0.733822C0.328841 28.5996 0.000488281 28.928 0.000488281 29.3329C0.000488281 29.7379 0.328841 30.0663 0.733822 30.0663H5.86716C6.27214 30.0663 6.60049 29.7379 6.60049 29.3329Z" fill="#FF6243"/>
</g>
<defs>
<clipPath id="clip0">
<rect width="44" height="44" fill="white" transform="translate(0.000488281)"/>
</clipPath>
</defs>
</svg>
