<svg width="204" height="208" viewBox="0 0 204 208" fill="none" xmlns="http://www.w3.org/2000/svg">
<path d="M199.771 109.567L193.639 107.505L210.142 58.4379C210.713 56.7429 209.8 54.9094 208.107 54.3398L189.532 48.0921L189.932 26.7203C189.947 25.8278 189.595 24.9702 188.961 24.3471C188.324 23.7221 187.458 23.3904 186.567 23.4252L158.391 24.5429L153.063 3.26276C152.853 2.42479 152.318 1.70391 151.573 1.26434C150.834 0.815544 149.942 0.688987 149.109 0.914479L92.9181 15.5959L67.0402 6.89181C55.1866 2.91935 42.3541 9.2934 38.354 21.1377L1.22092 131.537C-2.75 143.391 3.62199 156.225 15.4666 160.224L156.533 207.672C158.226 208.242 160.062 207.33 160.632 205.636L173.01 168.836L179.142 170.899C185.917 173.178 193.256 169.533 195.535 162.76L207.912 125.96C210.192 119.184 206.547 111.846 199.771 109.567ZM197.708 115.7C201.096 116.84 202.919 120.508 201.779 123.897C200.639 127.284 196.97 129.106 193.582 127.966L187.45 125.903L191.576 113.638L197.708 115.7ZM202.976 59.4418L192.662 90.1074L188.777 88.8008L189.407 54.8779L202.976 59.4418ZM182.348 86.6382L173.408 83.6314L173.484 55.2689C173.488 53.8765 172.601 52.6358 171.28 52.1924C168.162 51.1546 165.587 48.9112 164.134 45.9639L162.941 43.561C162.38 42.4302 161.211 41.7282 159.947 41.7652L57.9329 44.791L54.6627 43.6911C50.5741 42.315 47.2058 39.3594 45.3136 35.4832L183.395 30.0417L182.348 86.6382ZM166.944 81.4571L75.6153 50.7385L158.07 48.2952L158.339 48.8407C160.188 52.5903 163.24 55.614 167.008 57.4247L166.944 81.4571ZM147.57 8.00321L151.772 24.808L71.0846 27.9889L147.57 8.00321ZM64.9772 13.0255L81.4926 18.5805L43.7166 28.4496C43.6794 26.6701 43.9394 24.8947 44.4877 23.2008C47.3453 14.7407 56.5113 10.1874 64.9772 13.0255ZM155.529 200.506L17.5299 154.09C9.07032 151.233 4.51886 142.067 7.35464 133.6L39.4335 38.2273C39.4537 38.264 39.4767 38.3 39.494 38.34C39.6534 38.6598 39.8332 38.9649 40.0065 39.2765C40.1777 39.5866 40.3571 39.9361 40.5534 40.2554C40.7506 40.575 40.9527 40.8467 41.1535 41.1401C41.3551 41.4338 41.566 41.7632 41.7909 42.0665C42.0178 42.3661 42.2506 42.6181 42.4794 42.8944C42.7084 43.17 42.9482 43.4748 43.2131 43.7556C43.4786 44.0349 43.739 44.2731 44.0022 44.5362C44.2659 44.7978 44.5133 45.0495 44.7883 45.3055C45.0641 45.5617 45.3979 45.8006 45.704 46.043C46.0113 46.2867 46.2347 46.4953 46.525 46.7008C46.8685 46.9541 47.2367 47.1746 47.6 47.4047C47.8829 47.5811 48.1312 47.769 48.4106 47.9306C48.83 48.1769 49.2806 48.3892 49.716 48.6084C49.9611 48.7294 50.1929 48.8672 50.4442 48.9826C51.1471 49.2994 51.8673 49.5802 52.5994 49.8255L56.5883 51.1672L56.5929 51.2988L56.9604 51.2924L190.598 96.2419L181.316 123.84L147.583 112.494C135.729 108.507 122.884 114.885 118.896 126.741C114.909 138.596 121.288 151.44 133.142 155.427L166.875 166.773L155.529 200.506ZM189.401 160.697C188.262 164.084 184.592 165.906 181.205 164.766L135.205 149.294C126.738 146.446 122.182 137.272 125.03 128.804C127.879 120.335 137.052 115.78 145.52 118.629L191.519 134.101C192.263 134.342 193.023 134.514 193.798 134.617C193.982 134.646 194.166 134.669 194.352 134.685C195.095 134.769 195.846 134.785 196.593 134.738L196.714 134.724C197.216 134.685 197.714 134.613 198.207 134.516L189.401 160.697Z" fill="white"/>
</svg>
