<svg width="129" height="57" viewBox="0 0 129 57" fill="none" xmlns="http://www.w3.org/2000/svg">
<g opacity="0.3">
<rect x="1" y="28" width="6.39568" height="1" fill="white"/>
<rect x="41.2012" y="28" width="6.39568" height="1" fill="white"/>
<rect x="81.4033" y="28" width="6.39568" height="1" fill="white"/>
<rect x="21.1006" y="28" width="6.39568" height="1" fill="white"/>
<rect x="61.3018" y="28" width="6.39568" height="1" fill="white"/>
<rect x="101.504" y="28" width="6.39568" height="1" fill="white"/>
<rect x="11.0508" y="28" width="6.39568" height="1" fill="white"/>
<rect x="51.252" y="28" width="6.39568" height="1" fill="white"/>
<rect x="91.4531" y="28" width="6.39568" height="1" fill="white"/>
<rect x="31.1514" y="28" width="6.39568" height="1" fill="white"/>
<rect x="71.3525" y="28" width="6.39568" height="1" fill="white"/>
<rect x="111.554" y="28" width="6.39568" height="1" fill="white"/>
<rect x="121.604" y="28" width="6.39568" height="1" fill="white"/>
</g>
<rect x="1" width="128" height="27" fill="url(#paint0_linear)"/>
<rect width="128" height="27" transform="matrix(1 0 0 -1 1 57)" fill="url(#paint1_linear)"/>
<path d="M1 27L4.5 36L7 31.5H12L17.5 9L22 17L24.5 9L27.5 28.5L29.5 23.5L32.5 31.5L34 22.5L41 45V36L45 41.5L49.5 25L51.5 38.5L58.5 22.5L65.5 33L68 17L69 23.5L71 19.5L76 31.5L78 28.5L79 12.5L82.5 19.5V28.5L90 21L91.5 27L96 30L97.5 22.5L100.5 25L102.5 17L105.5 21L107.5 19.5L111 25H116L119.5 18.5L121.5 30L122.5 23.5H125" stroke="url(#paint2_linear)" stroke-width="1.5"/>
<defs>
<linearGradient id="paint0_linear" x1="73.5" y1="27" x2="73.5" y2="8.5" gradientUnits="userSpaceOnUse">
<stop stop-color="#C4C4C4" stop-opacity="0.12"/>
<stop offset="1" stop-color="#C4C4C4" stop-opacity="0"/>
</linearGradient>
<linearGradient id="paint1_linear" x1="72.5" y1="27" x2="72.5" y2="8.5" gradientUnits="userSpaceOnUse">
<stop stop-color="#C4C4C4" stop-opacity="0.12"/>
<stop offset="1" stop-color="#C4C4C4" stop-opacity="0"/>
</linearGradient>
<linearGradient id="paint2_linear" x1="7.50001" y1="1.99999" x2="69.5" y2="41" gradientUnits="userSpaceOnUse">
<stop stop-color="#F6D2C7"/>
<stop offset="1" stop-color="#D989E6"/>
</linearGradient>
</defs>
</svg>
