<svg width="24" height="24" viewBox="0 0 24 24" fill="none" xmlns="http://www.w3.org/2000/svg">
<g id="Iconly/Light/Graph">
<g id="Graph">
<path id="Stroke 1" fill-rule="evenodd" clip-rule="evenodd" d="M17.2787 13.8896C17.9534 13.8896 18.5197 14.4465 18.4166 15.1128C17.8113 19.0328 14.4555 21.9433 10.4081 21.9433C5.93025 21.9433 2.30078 18.3138 2.30078 13.837C2.30078 10.1486 5.10289 6.71279 8.25762 5.93595C8.93552 5.76858 9.63025 6.24542 9.63025 6.94332C9.63025 11.6717 9.7892 12.8949 10.6871 13.5602C11.585 14.2254 12.6408 13.8896 17.2787 13.8896Z" stroke="white" stroke-width="1.5" stroke-linecap="round" stroke-linejoin="round"/>
<path id="Stroke 3" fill-rule="evenodd" clip-rule="evenodd" d="M21.6941 9.95121C21.7478 6.91331 18.0162 2.01647 13.4688 2.10068C13.1151 2.107 12.832 2.40173 12.8162 2.75437C12.7015 5.25226 12.8562 8.4891 12.9425 9.95647C12.9688 10.4133 13.3278 10.7723 13.7836 10.7986C15.292 10.8849 18.6467 11.0028 21.1088 10.6302C21.4436 10.5796 21.6888 10.2891 21.6941 9.95121Z" stroke="white" stroke-width="1.5" stroke-linecap="round" stroke-linejoin="round"/>
</g>
</g>
</svg>
