<svg width="148" height="148" viewBox="0 0 148 148" fill="none" xmlns="http://www.w3.org/2000/svg">
<g clip-path="url(#clip0)">
<path d="M145.662 74.0547C145.662 113.63 113.579 145.713 74.0034 145.713C34.4271 145.713 2.34521 113.63 2.34521 74.0547C2.34521 34.4783 34.4271 2.39648 74.0034 2.39648C113.579 2.39648 145.662 34.4783 145.662 74.0547Z" fill="#FF7043"/>
<path d="M136.416 74.0546C136.416 108.524 108.473 136.467 74.0038 136.467C39.5348 136.467 11.5918 108.524 11.5918 74.0546C11.5918 39.5855 39.5348 11.6426 74.0038 11.6426C108.473 11.6426 136.416 39.5855 136.416 74.0546Z" fill="white"/>
<path d="M127.169 74.0545C127.169 103.417 103.367 127.22 74.0037 127.22C44.6408 127.22 20.8379 103.417 20.8379 74.0545C20.8379 44.6916 44.6408 20.8887 74.0037 20.8887C103.367 20.8887 127.169 44.6916 127.169 74.0545Z" fill="#FF8A65"/>
<path d="M49 51H93V97H49V51Z" fill="#FFE082"/>
<path d="M92 97H93.1667L95.5 92.4L97.8333 97H99V51H92V97Z" fill="#FFD54F"/>
<path d="M48.5763 25.512C48.5763 38.2786 38.2274 48.6276 25.4608 48.6276C12.6942 48.6276 2.34521 38.2786 2.34521 25.512C2.34521 12.7454 12.6942 2.39648 25.4608 2.39648C38.2274 2.39648 48.5763 12.7454 48.5763 25.512Z" fill="#FFE082"/>
<path d="M20.3267 27.8232L13.9033 32.4464V45.5087C21.0479 49.6668 29.8743 49.6668 37.0189 45.5087V32.4464L30.5944 27.8232H20.3267Z" fill="#FF8A65"/>
<path d="M32.3957 23.2003C32.3957 27.0299 29.2907 30.135 25.461 30.135C21.6303 30.135 18.5264 27.0299 18.5264 23.2003C18.5264 19.3706 21.6303 16.2656 25.461 16.2656C29.2907 16.2656 32.3957 19.3706 32.3957 23.2003Z" fill="white"/>
<path d="M145.662 25.512C145.662 38.2786 135.313 48.6276 122.546 48.6276C109.78 48.6276 99.4307 38.2786 99.4307 25.512C99.4307 12.7454 109.78 2.39648 122.546 2.39648C135.313 2.39648 145.662 12.7454 145.662 25.512Z" fill="#FFE082"/>
<path d="M117.412 27.8232L110.989 32.4464V45.5087C118.133 49.6668 126.96 49.6668 134.104 45.5087V32.4464L127.68 27.8232H117.412Z" fill="#FF8A65"/>
<path d="M129.481 23.2003C129.481 27.0299 126.376 30.135 122.546 30.135C118.715 30.135 115.611 27.0299 115.611 23.2003C115.611 19.3706 118.715 16.2656 122.546 16.2656C126.376 16.2656 129.481 19.3706 129.481 23.2003Z" fill="white"/>
<path d="M48.5763 122.597C48.5763 135.364 38.2274 145.713 25.4608 145.713C12.6942 145.713 2.34521 135.364 2.34521 122.597C2.34521 109.83 12.6942 99.4814 25.4608 99.4814C38.2274 99.4814 48.5763 109.83 48.5763 122.597Z" fill="#FFE082"/>
<path d="M20.3267 124.909L13.9033 129.532V142.595C21.0479 146.753 29.8743 146.753 37.0189 142.595V129.532L30.5944 124.909H20.3267Z" fill="#FF8A65"/>
<path d="M32.3957 120.285C32.3957 124.115 29.2907 127.22 25.461 127.22C21.6303 127.22 18.5264 124.115 18.5264 120.285C18.5264 116.456 21.6303 113.351 25.461 113.351C29.2907 113.351 32.3957 116.456 32.3957 120.285Z" fill="white"/>
<path d="M145.662 122.597C145.662 135.364 135.313 145.713 122.546 145.713C109.78 145.713 99.4307 135.364 99.4307 122.597C99.4307 109.83 109.78 99.4814 122.546 99.4814C135.313 99.4814 145.662 109.83 145.662 122.597Z" fill="#FFE082"/>
<path d="M117.412 124.909L110.989 129.532V142.595C118.133 146.753 126.96 146.753 134.104 142.595V129.532L127.68 124.909H117.412Z" fill="#FF8A65"/>
<path d="M129.481 120.285C129.481 124.115 126.376 127.22 122.546 127.22C118.715 127.22 115.611 124.115 115.611 120.285C115.611 116.456 118.715 113.351 122.546 113.351C126.376 113.351 129.481 116.456 129.481 120.285Z" fill="white"/>
<path d="M75.5578 71.7424H70.9347C69.6581 71.7424 68.6231 70.7074 68.6231 69.4308C68.6231 68.1543 69.6581 67.1193 70.9347 67.1193H80.1809V62.4962H75.5578V57.873H70.9347V62.4962C67.1039 62.4962 64 65.6012 64 69.4308C64 73.2605 67.1039 76.3655 70.9347 76.3655H75.5578C76.8343 76.3655 77.8693 77.4005 77.8693 78.677C77.8693 79.9536 76.8343 80.9886 75.5578 80.9886H66.3116V85.6117H70.9347V90.2348H75.5578V85.6117C79.3874 85.6117 82.4924 82.5067 82.4924 78.677C82.4924 74.8474 79.3874 71.7424 75.5578 71.7424Z" fill="white"/>
<path d="M143.351 74.0543C143.366 83.6888 141.352 93.2195 137.44 102.024C136.175 101.109 134.831 100.311 133.423 99.6406C140.496 83.3119 140.496 64.7833 133.423 48.4534C142.503 44.1768 148.214 34.9543 147.994 24.9191C147.775 14.8839 141.665 5.91988 132.407 2.04396C123.147 -1.83083 112.474 0.11052 105.173 6.99778C95.4185 2.42772 84.775 0.0676296 74.0039 0.08456V4.70767C83.6384 4.69187 93.169 6.70545 101.974 10.6186C101.06 11.885 100.264 13.2338 99.5969 14.6469C83.2682 7.57341 64.7396 7.57341 48.4097 14.6469C44.1365 5.56435 34.9151 -0.150207 24.8788 0.0665009C14.8436 0.283209 5.8762 6.38942 1.99915 15.6492C-1.87789 24.9078 0.0611945 35.5818 6.94733 42.8856C2.37726 52.6397 0.0171757 63.2821 0.0341062 74.0543H4.65722C4.64142 64.4187 6.655 54.8892 10.567 46.0843C11.8346 46.9985 13.1833 47.7943 14.5965 48.4602C7.52296 64.7901 7.52296 83.3186 14.5965 99.6474C5.50938 103.919 -0.209691 113.143 0.00588876 123.182C0.221468 133.221 6.33106 142.191 15.5942 146.068C24.8562 149.945 35.5336 148.003 42.8374 141.11C52.5904 145.68 63.2328 148.041 74.0039 148.024V143.401C64.3683 143.417 54.8387 141.402 46.0338 137.49C46.9492 136.227 47.7472 134.882 48.4165 133.473C64.7464 140.547 83.2749 140.547 99.6037 133.473C103.88 142.553 113.104 148.265 123.139 148.044C133.173 147.825 142.138 141.716 146.013 132.457C149.888 123.197 147.947 112.525 141.059 105.223C145.629 95.469 147.991 84.8254 147.974 74.0543H143.351ZM122.547 4.70767C131.167 4.69526 138.899 10.0091 141.979 18.0612C145.058 26.1133 142.845 35.2297 136.416 40.9736V31.2646L130.824 27.2408C131.453 25.9857 131.784 24.6031 131.793 23.2001C131.793 18.0928 127.653 13.9539 122.547 13.9539C117.439 13.9539 113.3 18.0928 113.3 23.2001C113.308 24.602 113.64 25.9846 114.269 27.2386L108.677 31.2623V40.9713C102.249 35.2274 100.037 26.111 103.116 18.0601C106.195 10.0091 113.927 4.69639 122.547 4.70767ZM122.547 32.4463C124.436 32.4452 126.279 31.8606 127.823 30.7725L131.793 33.6292V44.0041H132.024C126.079 47.0798 119.013 47.0798 113.069 44.0041H113.3V33.6292L117.269 30.7725C118.814 31.8606 120.657 32.4452 122.547 32.4463ZM117.923 23.2001C117.923 20.647 119.993 18.577 122.547 18.577C125.1 18.577 127.17 20.647 127.17 23.2001C127.17 25.7532 125.1 27.8232 122.547 27.8232C119.993 27.8232 117.923 25.7532 117.923 23.2001ZM11.5919 31.2623V40.9713C5.16287 35.2207 2.94838 26.0997 6.02632 18.0409C9.10425 9.98317 16.8358 4.66027 25.4612 4.66027C34.0867 4.66027 41.8171 9.98317 44.895 18.0409C47.9729 26.0997 45.7596 35.2207 39.3306 40.9713V31.2623L33.739 27.2386C34.3666 25.9846 34.6984 24.602 34.7074 23.2001C34.7074 18.0928 30.5674 13.9539 25.4612 13.9539C20.3539 13.9539 16.215 18.0928 16.215 23.2001C16.2229 24.602 16.5547 25.9846 17.1834 27.2386L11.5919 31.2623ZM25.4612 32.4463C27.3506 32.4452 29.1938 31.8606 30.7378 30.7725L34.7074 33.6292V44.0041H34.9388C28.994 47.0798 21.9273 47.0798 15.9836 44.0041H16.215V33.6292L20.1835 30.7725C21.7286 31.8606 23.5718 32.4452 25.4612 32.4463ZM20.8381 23.2001C20.8381 20.647 22.9081 18.577 25.4612 18.577C28.0143 18.577 30.0843 20.647 30.0843 23.2001C30.0843 25.7532 28.0143 27.8232 25.4612 27.8232C22.9081 27.8232 20.8381 25.7532 20.8381 23.2001ZM25.4612 143.401C22.1621 143.399 18.9126 142.606 15.9836 141.089H16.215V130.717L20.1835 127.858C23.3483 130.089 27.5741 130.089 30.7378 127.858L34.7074 130.717V141.089H34.9388C32.0087 142.606 28.7593 143.399 25.4612 143.401ZM20.8381 120.285C20.8381 117.732 22.9081 115.662 25.4612 115.662C28.0143 115.662 30.0843 117.732 30.0843 120.285C30.0843 122.839 28.0143 124.909 25.4612 124.909C22.9081 124.909 20.8381 122.839 20.8381 120.285ZM39.3306 138.059V128.35L33.739 124.328C34.3677 123.073 34.6995 121.69 34.7074 120.285C34.7074 115.178 30.5674 111.039 25.4612 111.039C20.3539 111.039 16.215 115.178 16.215 120.285C16.2229 121.687 16.5547 123.07 17.1834 124.324L11.5919 128.345V138.054C5.16287 132.304 2.94838 123.183 6.02632 115.124C9.10425 107.066 16.8358 101.743 25.4612 101.743C34.0867 101.743 41.8171 107.066 44.895 115.124C47.9729 123.183 45.7596 132.304 39.3306 138.054V138.059ZM97.212 124.421C97.3249 126.009 97.589 127.584 97.9998 129.122C82.705 135.829 65.3017 135.829 50.0068 129.122C51.9166 122.077 50.6897 114.549 46.6411 108.475C42.5913 102.4 36.116 98.372 28.8778 97.4239C25.1237 90.2048 23.1598 82.1899 23.1497 74.0543H18.5266C18.5333 82.068 20.276 89.9858 23.635 97.2625C22.0458 97.3753 20.4702 97.6394 18.9306 98.0503C12.2273 82.7554 12.2273 65.3533 18.9306 50.0584C25.977 51.967 33.5043 50.7401 39.5789 46.6915C45.6535 42.6418 49.6829 36.1665 50.631 28.9282C57.8512 25.1753 65.8672 23.2114 74.0039 23.2001V18.577C65.9891 18.5838 58.0724 20.3265 50.7958 23.6855C50.6818 22.0963 50.4177 20.5206 50.0068 18.9811C65.3028 12.2778 82.705 12.2778 97.9998 18.9811C96.0901 26.0275 97.3181 33.5547 101.367 39.6293C105.415 45.7039 111.892 49.7333 119.13 50.6814C122.882 57.9017 124.847 65.9176 124.858 74.0543H129.481C129.473 66.0395 127.731 58.1229 124.373 50.8462C125.962 50.7322 127.537 50.4681 129.076 50.0584C135.78 65.3533 135.78 82.7554 129.076 98.0503C122.03 96.1405 114.502 97.3686 108.428 101.418C102.353 105.467 98.3238 111.943 97.3757 119.183C90.1554 122.934 82.1406 124.898 74.0039 124.909V129.532C82.0176 129.525 89.9353 127.782 97.212 124.423V124.421ZM122.547 143.401C119.247 143.399 115.998 142.606 113.069 141.089H113.3V130.717L117.269 127.858C120.434 130.089 124.659 130.089 127.823 127.858L131.793 130.717V141.089H132.024C129.094 142.606 125.845 143.399 122.547 143.401ZM117.923 120.285C117.923 117.732 119.993 115.662 122.547 115.662C125.1 115.662 127.17 117.732 127.17 120.285C127.17 122.839 125.1 124.909 122.547 124.909C119.993 124.909 117.923 122.839 117.923 120.285ZM143.351 122.597C143.346 128.503 140.823 134.128 136.416 138.059V128.35L130.824 124.328C131.453 123.073 131.785 121.69 131.793 120.285C131.793 115.178 127.653 111.039 122.547 111.039C117.439 111.039 113.3 115.178 113.3 120.285C113.308 121.687 113.64 123.07 114.269 124.324L108.677 128.345V138.054C101.566 131.676 99.7177 121.273 104.194 112.835C108.67 104.398 118.321 100.095 127.59 102.406C136.857 104.716 143.358 113.045 143.351 122.597Z" fill="black"/>
</g>
<defs>
<clipPath id="clip0">
<rect width="148" height="148" fill="white"/>
</clipPath>
</defs>
</svg>
