<svg width="22" height="22" viewBox="0 0 22 22" fill="none" xmlns="http://www.w3.org/2000/svg">
<path d="M6.48297 8.99525L4.59647 10.8818C3.82282 11.6554 3.38818 12.7047 3.38818 13.7988C3.38818 14.8929 3.82282 15.9422 4.59647 16.7159C5.37012 17.4895 6.41942 17.9242 7.51353 17.9242C8.60764 17.9242 9.65694 17.4895 10.4306 16.7159L12.9441 14.201C13.4106 13.7344 13.7584 13.1627 13.9583 12.5339C14.1581 11.9051 14.2042 11.2375 14.0927 10.5871C13.9812 9.93681 13.7153 9.32273 13.3173 8.79643C12.9193 8.27014 12.4009 7.84699 11.8056 7.5625L10.9998 8.36825C10.918 8.4502 10.8469 8.54213 10.7881 8.64187C11.2481 8.77411 11.6656 9.0241 11.9993 9.36713C12.3331 9.71016 12.5715 10.1344 12.6911 10.5978C12.8107 11.0612 12.8072 11.5478 12.6811 12.0095C12.555 12.4712 12.3105 12.892 11.972 13.2302L9.45985 15.7437C8.94383 16.2598 8.24397 16.5497 7.51422 16.5497C6.78447 16.5497 6.08461 16.2598 5.5686 15.7437C5.05258 15.2277 4.76269 14.5279 4.76269 13.7981C4.76269 13.0684 5.05258 12.3685 5.5686 11.8525L6.65897 10.7635C6.50513 10.187 6.44569 9.58938 6.48297 8.99387V8.99525Z" fill="#C6C6C6"/>
<path d="M9.05563 6.42394C8.5891 6.89053 8.24131 7.46223 8.04145 8.09106C7.84158 8.71988 7.79548 9.38747 7.90701 10.0378C8.01854 10.6881 8.28445 11.3022 8.68242 11.8285C9.08038 12.3548 9.59879 12.7779 10.1941 13.0624L11.2598 11.9954C10.7936 11.8704 10.3685 11.6248 10.0273 11.2835C9.68602 10.9421 9.44065 10.5169 9.3158 10.0507C9.19095 9.58442 9.19101 9.09352 9.31598 8.6273C9.44096 8.16108 9.68644 7.73597 10.0278 7.39468L12.5399 4.88119C13.0559 4.36517 13.7558 4.07528 14.4855 4.07528C15.2153 4.07528 15.9151 4.36517 16.4311 4.88119C16.9471 5.3972 17.237 6.09706 17.237 6.82681C17.237 7.55656 16.9471 8.25642 16.4311 8.77244L15.3408 9.86143C15.4948 10.4389 15.5539 11.0371 15.5168 11.6311L17.4033 9.74456C18.1769 8.97091 18.6115 7.92161 18.6115 6.8275C18.6115 5.73339 18.1769 4.68409 17.4033 3.91044C16.6296 3.13678 15.5803 2.70215 14.4862 2.70215C13.3921 2.70215 12.3428 3.13678 11.5691 3.91044L9.05563 6.42394Z" fill="#C6C6C6"/>
</svg>
