<svg width="55" height="55" viewBox="0 0 55 55" fill="none" xmlns="http://www.w3.org/2000/svg">
<g clip-path="url(#clip0)">
<path d="M46.7321 18.3789C46.7316 18.3789 46.7309 18.3789 46.7303 18.3789H0.787461C0.353071 18.3784 0.000459878 18.7301 4.49613e-07 19.1645C4.49613e-07 19.1651 4.49613e-07 19.1658 4.49613e-07 19.1664V41.2189C-0.000458979 41.6533 0.351233 42.0059 0.785623 42.0064C0.786197 42.0064 0.786886 42.0064 0.787461 42.0064H32.0286C32.4634 42.0064 32.816 41.6538 32.816 41.2189C32.816 40.7841 32.4634 40.4315 32.0286 40.4315H1.57492V19.9538H45.9428V21.9229C45.9424 22.3573 46.2941 22.7099 46.7285 22.7104C46.729 22.7104 46.7297 22.7104 46.7303 22.7104C47.1647 22.7109 47.5173 22.3592 47.5178 21.9248C47.5178 21.9242 47.5178 21.9235 47.5178 21.9229V19.1664C47.5182 18.732 47.1665 18.3795 46.7321 18.3789Z" fill="white"/>
<path d="M41.39 14.7233L4.63576 6.45363C4.43177 6.40803 4.21802 6.44501 4.04126 6.55654C3.86472 6.66898 3.73987 6.84667 3.69393 7.05088L1.85622 15.3206C1.7618 15.7453 2.02965 16.1662 2.45439 16.2606C2.87913 16.355 3.29997 16.0871 3.39438 15.6624L5.06027 8.16362L41.0445 16.2597C41.1015 16.2729 41.1597 16.2794 41.2182 16.279C41.653 16.2782 42.005 15.925 42.0043 15.4901C42.0036 15.1225 41.7486 14.8043 41.39 14.7233Z" fill="white"/>
<path d="M36.927 10.1656L14.8745 0.976998C14.4912 0.817231 14.0496 0.981362 13.8637 1.35281L12.026 5.02824C11.8185 5.41209 11.9614 5.89162 12.3453 6.09916C12.7292 6.30671 13.2087 6.16383 13.4163 5.77986C13.4244 5.76481 13.4321 5.74942 13.4392 5.7338V5.73564L14.9471 2.71812L36.3188 11.6228C36.7212 11.7907 37.1836 11.6007 37.3516 11.1982C37.5195 10.796 37.3295 10.3336 36.927 10.1656Z" fill="white"/>
<path d="M37.4839 22.0547H30.1909C29.7561 22.0547 29.4034 22.4073 29.4034 22.8421C29.4034 23.277 29.7561 23.6296 30.1909 23.6296H37.4839C37.9187 23.6296 38.2713 23.277 38.2713 22.8421C38.2713 22.4073 37.9187 22.0547 37.4839 22.0547Z" fill="white"/>
<path d="M22.8398 22.1064C18.3741 22.1064 14.7539 25.7266 14.7539 30.1924C14.7585 34.6562 18.376 38.2737 22.8398 38.2783C27.3056 38.2783 30.9258 34.6581 30.9258 30.1924C30.9258 25.7266 27.3056 22.1064 22.8398 22.1064ZM22.8398 36.8082C19.186 36.8082 16.2241 33.8462 16.2241 30.1924C16.2281 26.5403 19.1877 23.5806 22.8398 23.5766C26.4937 23.5766 29.4556 26.5385 29.4556 30.1924C29.4556 33.8462 26.4937 36.8082 22.8398 36.8082Z" fill="white"/>
<path d="M44.8925 24.6797C40.0225 24.6797 34.785 25.8301 34.785 28.3551V50.4077C34.785 52.9327 40.0225 54.0831 44.8925 54.0831C49.7624 54.0831 54.9999 52.9327 54.9999 50.4077V28.3551C54.9999 25.8301 49.7624 24.6797 44.8925 24.6797ZM53.1622 50.3939C53.0234 50.9038 50.2678 52.2454 44.8925 52.2454C39.5171 52.2454 36.7615 50.9038 36.6227 50.4077V48.9632C38.5781 49.9482 41.8079 50.4077 44.8925 50.4077C47.9771 50.4077 51.2078 49.9436 53.1622 48.9623V50.3939ZM53.1622 46.7185C53.0234 47.2284 50.2678 48.57 44.8925 48.57C39.5171 48.57 36.7615 47.2284 36.6227 46.7322V45.2878C38.5781 46.2728 41.8079 46.7322 44.8925 46.7322C47.9771 46.7322 51.2078 46.2682 53.1622 45.2869V46.7185ZM53.1622 43.043C53.0234 43.553 50.2678 44.8945 44.8925 44.8945C39.5171 44.8945 36.7615 43.553 36.6227 43.0568V41.6124C38.5781 42.5974 41.8079 43.0568 44.8925 43.0568C47.9771 43.0568 51.2078 42.5928 53.1622 41.6115V43.043ZM53.1622 39.3676C53.0234 39.8776 50.2678 41.2191 44.8925 41.2191C39.5171 41.2191 36.7615 39.8776 36.6227 39.3814V37.9369C38.5781 38.922 41.8079 39.3814 44.8925 39.3814C47.9771 39.3814 51.2078 38.9174 53.1622 37.936V39.3676ZM53.1622 35.6922C53.0234 36.2021 50.2678 37.5437 44.8925 37.5437C39.5171 37.5437 36.7615 36.2021 36.6227 35.706V34.2615C38.5781 35.2419 41.8079 35.706 44.8925 35.706C47.9771 35.706 51.2078 35.2419 53.1622 34.2606V35.6922ZM53.1622 32.0168C53.0234 32.5267 50.2678 33.8682 44.8925 33.8682C39.5171 33.8682 36.7615 32.5267 36.6227 32.0305V30.5861C38.5781 31.5665 41.8079 32.0305 44.8925 32.0305C47.9771 32.0305 51.2078 31.5665 53.1622 30.5852V32.0168ZM44.8925 30.1928C39.5254 30.1928 36.7707 28.855 36.6227 28.3717V28.3661C36.7707 27.8543 39.5254 26.5174 44.8925 26.5174C50.2218 26.5174 52.9784 27.835 53.1622 28.3551C52.9784 28.8752 50.2218 30.1928 44.8925 30.1928Z" fill="white"/>
<path d="M15.489 36.7555H8.54334L5.25016 33.1536V27.181L8.88699 23.6296H15.489C15.9238 23.6296 16.2764 23.277 16.2764 22.8422C16.2764 22.4073 15.9238 22.0547 15.489 22.0547H8.56723C8.36141 22.0542 8.16351 22.1344 8.01591 22.278L3.91138 26.2814C3.75805 26.4606 3.67397 26.6888 3.67432 26.9246V33.4595C3.67432 33.6561 3.74771 33.8455 3.88014 33.9906L7.61346 38.074C7.76266 38.2374 7.97376 38.3305 8.19509 38.3304H15.489C15.9238 38.3304 16.2764 37.9778 16.2764 37.5429C16.2764 37.1081 15.9239 36.7555 15.489 36.7555Z" fill="white"/>
<path d="M23.2994 29.2746H22.3805C22.0948 29.2746 21.9211 29.1147 21.9211 29.0449C21.9211 28.975 22.0948 28.8152 22.3805 28.8152H24.6777C25.1851 28.8152 25.5965 28.4037 25.5965 27.8963C25.5965 27.3889 25.1851 26.9774 24.6777 26.9774H23.7588C23.7588 26.47 23.3474 26.0586 22.8399 26.0586C22.3325 26.0586 21.9211 26.47 21.9211 26.9774V27.0188C20.902 27.1627 20.1299 28.0121 20.0834 29.0403C20.1492 30.245 21.1753 31.1706 22.3805 31.1123H23.2994C23.5851 31.1123 23.7588 31.2722 23.7588 31.342C23.7588 31.4118 23.5851 31.5717 23.2994 31.5717H21.0022C20.4948 31.5717 20.0834 31.9831 20.0834 32.4906C20.0834 32.998 20.4948 33.4094 21.0022 33.4094H21.9211C21.9211 33.9169 22.3325 34.3283 22.8399 34.3283C23.3474 34.3283 23.7588 33.9169 23.7588 33.4094V33.3681C24.7779 33.2242 25.55 32.3748 25.5965 31.3466C25.5307 30.1419 24.5046 29.2162 23.2994 29.2746Z" fill="white"/>
</g>
<defs>
<clipPath id="clip0">
<rect width="55" height="55" fill="white"/>
</clipPath>
</defs>
</svg>
