<svg width="74" height="74" viewBox="0 0 74 74" fill="none" xmlns="http://www.w3.org/2000/svg">
<g clip-path="url(#clip0)">
<path d="M5.1638 26.582C5.44607 26.8642 5.81592 27.0054 6.18578 27.0054C6.55563 27.0054 6.92548 26.8642 7.20775 26.582C7.77214 26.0176 7.77214 25.1025 7.20775 24.5381L7.19734 24.5277C6.63281 23.9634 5.71793 23.9634 5.1534 24.5277C4.589 25.0921 4.589 26.0072 5.1534 26.5716L5.1638 26.582Z" fill="white"/>
<path d="M48.8318 6.36922C49.113 6.65033 49.4801 6.79038 49.8475 6.79038C50.2178 6.79038 50.5882 6.64816 50.8715 6.36488C51.4359 5.80049 51.4317 4.88099 50.8673 4.31674C50.3027 3.75249 49.3879 3.75249 48.8233 4.31674C48.2589 4.88113 48.2589 5.7963 48.8233 6.36069L48.8318 6.36922Z" fill="white"/>
<path d="M72.9475 53.7941C72.6519 53.0527 71.8115 52.6911 71.0699 52.9871C70.3284 53.2828 69.9671 54.1234 70.2628 54.8647C71.6341 58.3029 71.3073 62.111 69.5047 65.2122C68.7662 63.1464 67.0506 61.5077 64.839 60.9241L64.4515 60.8218C64.9986 59.9115 65.3139 58.847 65.3139 57.7099V56.5059C65.3139 53.1644 62.5955 50.4459 59.2539 50.4459C55.9124 50.4459 53.1939 53.1644 53.1939 56.5059V57.7099C53.1939 58.847 53.5093 59.9114 54.0563 60.8216L53.6687 60.9239C51.4582 61.5074 49.743 63.1449 49.004 65.2096C46.3747 60.6758 46.9969 54.7591 50.874 50.8821C54.2078 47.5482 59.1987 46.5063 63.5894 48.229C64.3326 48.5206 65.171 48.1542 65.4625 47.4112C65.754 46.6682 65.3878 45.8295 64.6448 45.5381C59.185 43.3965 52.9768 44.6916 48.83 48.8383C48.1397 49.5286 47.5264 50.2755 46.9941 51.0681L33.8073 44.0171C35.7343 39.5558 35.7343 34.4549 33.8073 29.9937L46.9992 22.9399C47.5292 23.7324 48.139 24.4816 48.83 25.1723C51.6143 27.9567 55.3162 29.49 59.2538 29.49C63.1914 29.49 66.8932 27.9567 69.6776 25.1723C75.4253 19.4246 75.4253 10.0724 69.6776 4.32469C65.5052 0.15224 59.2669 -1.13133 53.786 1.05512C53.0446 1.35083 52.6831 2.19142 52.979 2.93272C53.2746 3.67416 54.1154 4.03635 54.8566 3.73977C59.264 1.98199 64.2793 3.01409 67.6339 6.36849C71.5111 10.2457 72.1333 16.1622 69.504 20.6959C68.7649 18.6315 67.0499 16.9936 64.8392 16.4103L64.4517 16.308C64.9987 15.3977 65.3141 14.3333 65.3141 13.1961V11.9922C65.3141 8.65063 62.5956 5.93216 59.2541 5.93216C55.9125 5.93216 53.194 8.65063 53.194 11.9922V13.1961C53.194 14.3333 53.5094 15.3976 54.0565 16.3078L53.6688 16.4102C51.4581 16.9936 49.7427 18.6315 49.0038 20.6965C47.2151 17.6151 46.8798 13.8319 48.2209 10.4127C48.5124 9.66971 48.1462 8.831 47.4032 8.53963C46.6601 8.24782 45.8216 8.61435 45.5299 9.35738C44.1089 12.9799 44.2022 16.9306 45.636 20.391L32.4451 27.4442C31.7801 26.4143 30.9982 25.4386 30.0972 24.5373C27.3613 21.8013 23.8946 20.074 20.0719 19.542C16.3751 19.027 12.5387 19.7144 9.26952 21.476C8.56681 21.8546 8.30405 22.7314 8.68258 23.4338C9.06139 24.1365 9.93826 24.3992 10.6404 24.0207C16.3233 20.9585 23.4839 22.0114 28.0531 26.5811C32.793 31.3209 33.6233 38.5116 30.546 44.1109C29.6259 41.5706 27.5101 39.5573 24.7859 38.8383L23.6963 38.5508C24.5658 37.332 25.0794 35.8429 25.0794 34.2351V32.6685C25.0794 28.5606 21.7374 25.2186 17.6294 25.2186C13.5215 25.2186 10.1793 28.5606 10.1793 32.6685V34.2351C10.1793 35.843 10.693 37.332 11.5625 38.5508L10.4729 38.8384C7.75282 39.5563 5.63935 41.5644 4.7171 44.0992C2.37209 39.7959 2.25314 34.4551 4.64512 30.0158C5.02379 29.3131 4.76118 28.4364 4.05847 28.058C3.35533 27.6792 2.47919 27.942 2.10066 28.6447C0.338837 31.9141 -0.347971 35.7505 0.166268 39.4472C0.698284 43.2698 2.42557 46.7367 5.16153 49.4727C8.5989 52.91 13.1142 54.6288 17.6294 54.6288C22.1447 54.6288 26.6599 52.91 30.0974 49.4727C30.9985 48.5715 31.7804 47.5958 32.4451 46.5659L45.6282 53.6149C44.8961 55.3813 44.5124 57.292 44.5124 59.2618C44.5124 63.1994 46.0457 66.9013 48.8301 69.6857C51.7045 72.5598 55.4794 73.9966 59.2542 73.9966C63.0292 73.9966 66.8043 72.5596 69.6782 69.6858C73.8503 65.5136 75.1338 59.2757 72.9475 53.7941ZM56.0847 11.9926C56.0847 10.2448 57.5066 8.82305 59.2542 8.82305C61.002 8.82305 62.4238 10.2449 62.4238 11.9926V13.1965C62.4238 14.9442 61.0019 16.3659 59.2542 16.3659C57.5066 16.3659 56.0847 14.9441 56.0847 13.1965V11.9926ZM51.4973 22.9817C51.4973 21.2102 52.6935 19.6575 54.4064 19.2054L56.5787 18.632C57.386 19.0311 58.2941 19.2564 59.2539 19.2564C60.2139 19.2564 61.1218 19.0311 61.929 18.6322L64.1013 19.2055C65.8143 19.6575 67.0104 21.2103 67.0104 22.9818V23.6961C67.0104 23.699 67.0109 23.7017 67.0109 23.7045C64.8571 25.5757 62.1348 26.5996 59.2538 26.5996C56.35 26.5996 53.6073 25.5595 51.4454 23.6601C51.478 23.5396 51.497 23.4134 51.497 23.2825L51.4973 22.9817ZM13.0701 32.6693C13.0701 30.1552 15.1153 28.1098 17.6297 28.1098C20.1438 28.1098 22.1892 30.155 22.1892 32.6693V34.2358C22.1892 36.7499 20.144 38.7955 17.6297 38.7955C15.1155 38.7955 13.0701 36.7502 13.0701 34.2358C13.0701 34.2357 13.0701 32.6693 13.0701 32.6693ZM7.20562 47.4291C7.16978 47.3933 7.13625 47.356 7.10084 47.32V46.9687C7.10084 44.4663 8.79083 42.2723 11.2106 41.6338L14.1982 40.8452C15.2259 41.381 16.3924 41.6858 17.6294 41.6858C18.8665 41.6858 20.0328 41.381 21.0606 40.8452L24.0482 41.6336C26.4678 42.2722 28.1579 44.466 28.1579 46.9685V47.3218C28.1229 47.3575 28.0887 47.3936 28.0533 47.429C22.3057 53.1768 12.9535 53.1768 7.20562 47.4291ZM56.0847 56.5062C56.0847 54.7584 57.5066 53.3367 59.2542 53.3367C61.002 53.3367 62.4238 54.7586 62.4238 56.5062V57.7102C62.4238 59.458 61.0019 60.8797 59.2542 60.8797C57.5066 60.8797 56.0847 59.4578 56.0847 57.7102V56.5062ZM51.4458 68.1736C51.4783 68.053 51.4973 67.9269 51.4973 67.7961V67.4954C51.4973 65.7239 52.6935 64.1711 54.4064 63.719L56.5785 63.1457C57.386 63.5447 58.2941 63.77 59.2539 63.77C60.2139 63.77 61.1218 63.5447 61.9293 63.1457L64.1013 63.719C65.8143 64.171 67.0104 65.7238 67.0104 67.4954V68.2096C67.0104 68.2122 67.0109 68.2148 67.0109 68.2174C62.5562 72.0817 55.8839 72.0672 51.4458 68.1736Z" fill="white"/>
<path d="M67.6427 48.8313L67.634 48.84C67.0696 49.4043 67.074 50.3152 67.6384 50.8794C67.9195 51.1605 68.2886 51.3006 68.6583 51.3006C69.0306 51.3006 69.4034 51.1585 69.6866 50.8752C70.251 50.3108 70.251 49.3957 69.6866 48.8313C69.1221 48.2672 68.2074 48.2672 67.6427 48.8313Z" fill="white"/>
</g>
<defs>
<clipPath id="clip0">
<rect width="74" height="74" fill="white"/>
</clipPath>
</defs>
</svg>
