<svg width="16" height="16" viewBox="0 0 16 16" fill="none" xmlns="http://www.w3.org/2000/svg">
<path d="M7.3003 8.09766L6.83398 10.0295C7.43354 10.1628 9.2655 10.7623 9.53197 9.66315C9.79844 8.53067 7.89986 8.2642 7.3003 8.09766Z" fill="#ED6C0C"/>
<path d="M9.53197 9.69636C9.83175 8.56387 7.89986 8.26409 7.3003 8.13086L6.83398 10.0294" fill="#E05A00"/>
<path d="M7.96621 5.4668L7.5332 7.23215C8.03283 7.36538 9.56502 7.86501 9.79818 6.86575C10.0313 5.83319 8.46584 5.60003 7.96621 5.4668Z" fill="#ED6C0C"/>
<path d="M9.79818 6.86575C10.0646 5.83319 8.46584 5.60003 7.96621 5.4668L7.5332 7.23215" fill="#E05A00"/>
<path d="M9.93175 0.23705C5.63496 -0.828821 1.30486 1.80255 0.238986 6.06603C-0.826886 10.3628 1.77118 14.6929 6.06797 15.7588C10.3648 16.8247 14.6949 14.2266 15.7607 9.92982C16.8266 5.66633 14.2285 1.33623 9.93175 0.23705ZM11.5306 6.86544C11.4306 7.63153 10.9976 8.03123 10.3981 8.16447C11.1975 8.56417 11.5972 9.19703 11.1975 10.2962C10.7312 11.6619 9.59867 11.7618 8.09978 11.4953L7.73339 12.9609L6.86737 12.6944L7.23377 11.2622C7.00061 11.1955 6.76745 11.1289 6.53429 11.0956L6.16789 12.5279L5.30187 12.2947L5.66827 10.8291C5.46842 10.7625 5.26857 10.7292 5.03541 10.6626L3.90292 10.3628L4.33593 9.36357L4.96879 9.53011C5.20195 9.59673 5.33518 9.43019 5.36849 9.33026L5.93473 7.03198C5.96804 7.03198 6.00135 7.03198 6.03466 7.06529C6.00135 7.06529 5.96804 7.03198 5.93473 7.03198L6.33444 5.39986C6.33444 5.20001 6.26782 4.96685 5.93473 4.90024L5.30187 4.73369L5.53503 3.80106L6.73414 4.10083C6.90068 4.13414 7.10053 4.20076 7.30038 4.23407L7.66678 2.8018L8.5328 3.03496L8.1664 4.43392C8.39956 4.50053 8.63272 4.53384 8.86588 4.60046L9.19897 3.2015L10.065 3.43466L9.69859 4.86693C10.8644 5.23332 11.6971 5.79957 11.5306 6.86544Z" fill="#FFB600"/>
<path d="M0.238986 6.06531C-0.826886 10.3621 1.77118 14.6922 6.06797 15.7581C10.3648 16.8239 14.6949 14.2259 15.7607 9.92909C16.8266 5.6323 14.2285 1.3022 9.93175 0.236328L0.238986 6.06531ZM11.5306 6.86471C11.4306 7.63081 10.9976 8.03051 10.3981 8.16374C11.1975 8.56345 11.5972 9.19631 11.1975 10.2955C10.7312 11.6611 9.59867 11.7611 8.09978 11.4946L7.73339 12.9602L6.86737 12.6937L7.23377 11.2614C7.00061 11.1948 6.76745 11.1282 6.53429 11.0949L6.16789 12.5272L5.30187 12.294L5.66827 10.8284C5.46842 10.7618 5.26857 10.7285 5.03541 10.6619L3.90292 10.3621L4.33593 9.36285L4.96879 9.52939C5.20195 9.59601 5.33518 9.42947 5.36849 9.32954L5.93473 7.03126C5.96804 7.03126 6.00135 7.03126 6.03466 7.06456C6.00135 7.06456 5.96804 7.03126 5.93473 7.03126L6.33444 5.39914C6.33444 5.19929 6.26782 4.96613 5.93473 4.89951L5.30187 4.73297L5.53503 3.80033L6.73414 4.10011C6.90068 4.13342 7.10053 4.20004 7.30038 4.23334L7.66678 2.80108L8.5328 3.03424L8.1664 4.4332C8.39956 4.49981 8.63272 4.53312 8.86588 4.59974L9.19897 3.20078L10.065 3.43394L9.69859 4.86621C10.8644 5.2326 11.6971 5.79884 11.5306 6.86471Z" fill="#F6921E"/>
<path d="M15.6948 10.2305L11.3647 5.90039C11.5313 6.16686 11.6312 6.49994 11.5646 6.89964C11.4646 7.66574 11.0316 8.06544 10.4321 8.19868C11.2315 8.59838 11.6312 9.23124 11.2315 10.3304C10.7652 11.6961 9.63268 11.796 8.1338 11.5295L7.76741 12.9951L6.86808 12.6953L7.23447 11.2631C7.00131 11.1964 6.76815 11.1298 6.53499 11.0965L6.1686 12.5288L5.96875 12.4622L9.36621 15.8596C12.2974 15.36 14.8288 13.2283 15.6948 10.2305Z" fill="#D85107"/>
<path d="M3.90234 10.3945L5.40122 11.8934L5.66769 10.8275C5.46784 10.7609 5.26799 10.7276 5.03483 10.661L3.90234 10.3945Z" fill="#E26600"/>
<path d="M9.89886 4.43359L9.76562 4.8666C10.1653 4.99984 10.5317 5.16638 10.8315 5.36623L9.89886 4.43359Z" fill="#E26600"/>
<path d="M8.56756 3.03516L8.20117 4.43411C8.43433 4.50073 8.66749 4.53404 8.90065 4.60065L9.13381 3.6014L8.56756 3.03516Z" fill="#ED6C0C"/>
<path d="M10.132 3.40234L9.76562 4.83461L9.79893 4.86792C10.7982 5.201 11.5643 5.73394 11.5643 6.63327L15.5613 10.6303C15.6279 10.3971 15.6945 10.164 15.7611 9.96411C15.8278 9.69764 15.8611 9.46449 15.8944 9.19802L10.132 3.40234Z" fill="#ED6C0C"/>
<path d="M10.8987 15.4592L7.86759 12.4281L7.73436 12.9278L6.86834 12.6946L7.13481 11.6621L6.53525 11.0625L6.16886 12.4948L5.30284 12.2616V12.2283L5.26953 12.2616L8.90015 15.8922C9.59963 15.8589 10.2658 15.6924 10.8987 15.4592Z" fill="#ED6C0C"/>
<path d="M11.7301 15.0583L8.1328 11.4609C8.1328 11.4609 8.1328 11.4609 8.0995 11.4609L7.7331 12.9265L6.90039 12.7267L9.93146 15.7577C10.5643 15.5912 11.1639 15.358 11.7301 15.0583Z" fill="#E05A00"/>
</svg>
