<svg width="55" height="55" viewBox="0 0 55 55" fill="none" xmlns="http://www.w3.org/2000/svg">
<g clip-path="url(#clip0)">
<path d="M32.528 27.6654C40.1676 27.6654 46.3607 21.4723 46.3607 13.8327C46.3607 6.19312 40.1676 0 32.528 0C24.8884 0 18.6953 6.19312 18.6953 13.8327C18.6953 21.4723 24.8884 27.6654 32.528 27.6654Z" fill="#FFBD3D"/>
<path d="M43.0404 13.8307C43.0404 14.1809 43.0232 14.5278 42.9889 14.8684C42.9373 15.4033 42.8438 15.9265 42.7139 16.4346C42.5409 17.1135 42.3003 17.7655 42.0017 18.3843C41.7707 18.8645 41.5032 19.3242 41.2046 19.7593C40.8125 20.3318 40.3656 20.8636 39.8704 21.3459C39.4912 21.7176 39.0852 22.0592 38.6533 22.3696C38.0937 22.7725 37.4932 23.1216 36.8594 23.4095C36.3792 23.6275 35.8808 23.8102 35.3651 23.9541C34.7077 24.1399 34.0234 24.2613 33.3209 24.314C33.0588 24.3344 32.7945 24.344 32.5271 24.344C32.2596 24.344 31.9953 24.3344 31.7332 24.314C31.0307 24.2613 30.3464 24.1399 29.689 23.9541C29.1733 23.8102 28.6749 23.6275 28.1947 23.4095C27.5609 23.1216 26.9605 22.7725 26.4008 22.3696C25.9689 22.0592 25.5629 21.7176 25.1837 21.3459C24.6885 20.8636 24.2416 20.3318 23.8495 19.7593C23.5498 19.3242 23.2834 18.8645 23.0514 18.3843V18.3832C22.7527 17.7655 22.5132 17.1135 22.3402 16.4346C22.2103 15.9265 22.1168 15.4033 22.0652 14.8684C22.0309 14.5278 22.0137 14.1809 22.0137 13.8307C22.0137 13.4805 22.0309 13.1346 22.0652 12.793C22.1168 12.258 22.2103 11.7349 22.3402 11.2268C22.5132 10.5489 22.7527 9.89688 23.0514 9.27813V9.27705C23.2834 8.79688 23.5498 8.33818 23.8495 7.90205C24.2405 7.33057 24.6874 6.79883 25.1826 6.3165C25.5618 5.94482 25.9679 5.60322 26.3997 5.29277C26.9594 4.88994 27.5609 4.54082 28.1947 4.25293C28.6749 4.03486 29.1733 3.85225 29.689 3.7083C30.3464 3.52246 31.0307 3.40107 31.7332 3.34844C31.9953 3.32803 32.2596 3.31836 32.5271 3.31836C32.7945 3.31836 33.0588 3.32803 33.3209 3.34844C34.0234 3.40107 34.7077 3.52246 35.3651 3.7083C35.8808 3.85225 36.3792 4.03486 36.8594 4.25293C37.4932 4.54082 38.0947 4.88994 38.6544 5.29277C39.0862 5.60322 39.4923 5.94482 39.8715 6.3165C40.3656 6.79883 40.8125 7.33057 41.2046 7.90205C41.5043 8.33818 41.7707 8.79795 42.0027 9.27813C42.3014 9.89688 42.5409 10.5489 42.7139 11.2268C42.8438 11.7349 42.9373 12.258 42.9889 12.793C43.0232 13.1346 43.0404 13.4805 43.0404 13.8307Z" fill="#FFCB70"/>
<path d="M13.8327 48.849C21.4723 48.849 27.6654 42.6559 27.6654 35.0163C27.6654 27.3767 21.4723 21.1836 13.8327 21.1836C6.19312 21.1836 0 27.3767 0 35.0163C0 42.6559 6.19312 48.849 13.8327 48.849Z" fill="#FFBD3D"/>
<path d="M24.346 35.0271C24.346 35.3773 24.3288 35.7232 24.2944 36.0648C24.2429 36.5998 24.1494 37.123 24.0194 37.6311C23.8465 38.3089 23.6069 38.961 23.3083 39.5797C23.0763 40.0599 22.8099 40.5197 22.5102 40.9558C22.1191 41.5273 21.6723 42.059 21.177 42.5414C20.7979 42.913 20.3907 43.2557 19.9589 43.5662C19.4003 43.969 18.7998 44.3171 18.166 44.606C17.6858 44.823 17.1863 45.0067 16.6718 45.1507C16.0133 45.3365 15.3301 45.4579 14.6265 45.5105C14.3644 45.5309 14.1001 45.5406 13.8326 45.5406C13.5651 45.5406 13.3009 45.5309 13.0388 45.5105C12.3352 45.4579 11.652 45.3354 10.9935 45.1507C10.4789 45.0067 9.98047 44.8241 9.50029 44.606C8.8665 44.3181 8.26602 43.969 7.70635 43.5662C7.27451 43.2557 6.86738 42.913 6.48818 42.5414C5.99404 42.059 5.54717 41.5273 5.15508 40.9558C4.85645 40.5197 4.59004 40.061 4.35801 39.5808V39.5797C4.05937 38.961 3.81982 38.3089 3.64688 37.6311C3.51689 37.123 3.42344 36.5998 3.37187 36.0648C3.3375 35.7232 3.32031 35.3773 3.32031 35.0271C3.32031 34.6769 3.3375 34.331 3.37187 33.9894C3.42344 33.4545 3.51689 32.9313 3.64688 32.4232C3.81982 31.7454 4.05937 31.0933 4.35801 30.4746V30.4735C4.59004 29.9933 4.85645 29.5346 5.15508 29.0985C5.54717 28.527 5.99404 27.9952 6.48818 27.5129C6.86738 27.1412 7.27344 26.7996 7.70527 26.4892C8.26494 26.0863 8.8665 25.7361 9.50029 25.4482C9.98047 25.2302 10.4789 25.0476 10.9935 24.9036C11.652 24.7188 12.3352 24.5964 13.0388 24.5438C13.3009 24.5233 13.5651 24.5137 13.8326 24.5137C14.1001 24.5137 14.3644 24.5233 14.6265 24.5438C15.3301 24.5964 16.0133 24.7178 16.6718 24.9036C17.1863 25.0476 17.6858 25.2313 18.166 25.4482C18.7998 25.7372 19.4003 26.0863 19.96 26.4892C20.3918 26.7996 20.7979 27.1412 21.177 27.5129C21.6723 27.9952 22.1191 28.527 22.5102 29.0985C22.8099 29.5346 23.0763 29.9944 23.3083 30.4746C23.6069 31.0933 23.8465 31.7454 24.0194 32.4232C24.1494 32.9313 24.2429 33.4545 24.2944 33.9894C24.3288 34.331 24.346 34.6769 24.346 35.0271Z" fill="#FFCB70"/>
<path d="M41.1667 55.0033C48.8063 55.0033 54.9994 48.8102 54.9994 41.1706C54.9994 33.531 48.8063 27.3379 41.1667 27.3379C33.5271 27.3379 27.334 33.531 27.334 41.1706C27.334 48.8102 33.5271 55.0033 41.1667 55.0033Z" fill="#FFBD3D"/>
<path d="M51.68 41.1618C51.68 41.512 51.6628 41.8579 51.6284 42.1995C51.5769 42.7345 51.4834 43.2565 51.3534 43.7647C51.1805 44.4436 50.9409 45.0956 50.6423 45.7144V45.7154L49.8452 47.0904C49.4531 47.6619 49.0063 48.1937 48.5121 48.676C48.1329 49.0477 47.7258 49.3903 47.2939 49.7008C46.7343 50.1036 46.1327 50.4527 45.4989 50.7396C45.0198 50.9576 44.5214 51.1402 44.0068 51.2842C43.3483 51.47 42.6651 51.5914 41.9615 51.644C41.6994 51.6645 41.4352 51.6741 41.1677 51.6741C40.9002 51.6741 40.6359 51.6645 40.3738 51.644C39.6702 51.5914 38.987 51.47 38.3285 51.2842C37.814 51.1402 37.3145 50.9576 36.8354 50.7396C36.2016 50.4517 35.6011 50.1036 35.0414 49.7008C34.6096 49.3903 34.2024 49.0477 33.8232 48.676C33.328 48.1937 32.8812 47.6619 32.4901 47.0904C32.1904 46.6543 31.924 46.1945 31.692 45.7144C31.3934 45.0956 31.1538 44.4436 30.9809 43.7647C30.8509 43.2565 30.7574 42.7345 30.7059 42.1995C30.6715 41.8579 30.6543 41.512 30.6543 41.1618C30.6543 40.8116 30.6715 40.4647 30.7059 40.1241C30.7574 39.5892 30.8509 39.066 30.9809 38.5579C31.1538 37.879 31.3934 37.227 31.692 36.6093C31.924 36.1291 32.1904 35.6693 32.4901 35.2332C32.8822 34.6606 33.3291 34.1289 33.8243 33.6466C34.2024 33.276 34.6096 32.9333 35.0403 32.6239C35.6 32.2211 36.2005 31.872 36.8343 31.583C37.3145 31.366 37.814 31.1823 38.3285 31.0384C38.987 30.8525 39.6702 30.7312 40.3738 30.6785C40.6359 30.6581 40.9002 30.6484 41.1677 30.6484C41.4352 30.6484 41.6994 30.6581 41.9615 30.6785C42.6641 30.7312 43.3483 30.8525 44.0058 31.0384C44.5214 31.1823 45.0198 31.3649 45.5 31.583C46.1338 31.8709 46.7343 32.22 47.2939 32.6229C47.7258 32.9333 48.1318 33.2749 48.511 33.6466C49.0052 34.1289 49.4531 34.6606 49.8452 35.2332C50.1439 35.6683 50.4103 36.128 50.6423 36.6082V36.6093C50.9409 37.227 51.1805 37.879 51.3534 38.5579C51.4834 39.0659 51.5769 39.5892 51.6284 40.1241C51.6628 40.4647 51.68 40.8116 51.68 41.1618Z" fill="#FFCB70"/>
<path d="M35.6517 11.7301V11.7176C35.6517 10.395 34.7643 9.27618 33.5538 8.92384V8.5498C33.5538 8.10475 33.1931 7.74414 32.7481 7.74414C32.303 7.74414 31.9424 8.10475 31.9424 8.5498V8.80772H31.4558V8.5498C31.4558 8.10475 31.0952 7.74414 30.6501 7.74414C30.2051 7.74414 29.8445 8.10475 29.8445 8.5498V8.80772H29.5615C29.1165 8.80772 28.7559 9.16833 28.7559 9.61338C28.7559 10.0584 29.1165 10.419 29.5615 10.419H29.8445V13.8343V17.2495H29.5615C29.1165 17.2495 28.7559 17.6101 28.7559 18.0552C28.7559 18.5002 29.1165 18.8608 29.5615 18.8608H29.8445V19.1189C29.8445 19.5639 30.2051 19.9245 30.6501 19.9245C31.0952 19.9245 31.4558 19.5639 31.4558 19.1189V18.8608H31.9424V19.1189C31.9424 19.5639 32.303 19.9245 32.7481 19.9245C33.1931 19.9245 33.5538 19.5639 33.5538 19.1189V18.7447C34.7643 18.3923 35.6517 17.2736 35.6517 15.9509V15.9385C35.6517 15.1115 35.3043 14.3646 34.7486 13.8343C35.3044 13.3039 35.6517 12.557 35.6517 11.7301ZM34.0404 15.9384V15.9508C34.0404 16.6669 33.4578 17.2494 32.7419 17.2494H31.4557V14.6398H32.7419C33.4578 14.6398 34.0404 15.2224 34.0404 15.9384ZM31.4558 13.0285V10.4189H32.742C33.4579 10.4189 34.0405 11.0015 34.0405 11.7175V11.73C34.0405 12.446 33.4579 13.0285 32.742 13.0285H31.4558Z" fill="#FE9400"/>
<path d="M33.334 3.47949V4.23037C33.334 4.6751 32.973 5.03604 32.5283 5.03604C32.0836 5.03604 31.7227 4.6751 31.7227 4.23037V3.47949C31.7227 3.43438 31.7259 3.39141 31.7345 3.34844C31.9966 3.32803 32.2608 3.31836 32.5283 3.31836C32.7958 3.31836 33.0601 3.32803 33.3222 3.34844C33.3308 3.39141 33.334 3.43438 33.334 3.47949Z" fill="#FE9400"/>
<path d="M33.334 23.4287V24.1796C33.334 24.2247 33.3308 24.2677 33.3222 24.3106C33.0601 24.3311 32.7958 24.3407 32.5283 24.3407C32.2608 24.3407 31.9966 24.3311 31.7345 24.3106C31.7259 24.2677 31.7227 24.2247 31.7227 24.1796V23.4287C31.7227 22.9829 32.0836 22.623 32.5283 22.623C32.973 22.623 33.334 22.9829 33.334 23.4287Z" fill="#FE9400"/>
<path d="M29.5198 5.56348C29.4285 5.5957 29.3351 5.61182 29.2437 5.61182C28.915 5.61182 28.6057 5.40879 28.4864 5.08115L28.2297 4.37539C28.2146 4.3335 28.2028 4.2916 28.1953 4.24971C28.6755 4.03164 29.1739 3.84902 29.6895 3.70508C29.711 3.74268 29.7293 3.78242 29.7443 3.82432L30.0011 4.53008C30.1536 4.94902 29.9377 5.41094 29.5198 5.56348Z" fill="#FE9400"/>
<path d="M36.8606 23.4037C36.3804 23.6218 35.882 23.8044 35.3663 23.9484C35.3449 23.9108 35.3266 23.87 35.3115 23.8281L35.0548 23.1223C34.9023 22.7044 35.1182 22.2425 35.5361 22.09C35.955 21.9374 36.4169 22.1533 36.5695 22.5712L36.8262 23.277C36.8412 23.3189 36.8531 23.3618 36.8606 23.4037Z" fill="#FE9400"/>
<path d="M26.8744 7.09531C26.724 7.22207 26.5403 7.28437 26.3566 7.28437C26.1268 7.28437 25.899 7.18662 25.739 6.99648L25.2566 6.4207C25.2287 6.38848 25.2051 6.3541 25.1836 6.31865C25.5628 5.94697 25.9688 5.60537 26.4007 5.29492C26.4329 5.3207 26.463 5.35186 26.4909 5.38516L26.9743 5.96094C27.2601 6.30146 27.2149 6.80957 26.8744 7.09531Z" fill="#FE9400"/>
<path d="M39.8706 21.3431C39.4914 21.7148 39.0854 22.0564 38.6535 22.3668C38.6213 22.3389 38.5923 22.3088 38.5644 22.2755L38.081 21.7008C37.7952 21.3592 37.8393 20.8511 38.1809 20.5653C38.5214 20.2796 39.0295 20.3236 39.3152 20.6652L39.7986 21.24C39.8266 21.2733 39.8502 21.3076 39.8706 21.3431Z" fill="#FE9400"/>
<path d="M24.9111 9.43613C24.7618 9.69394 24.4911 9.83896 24.2129 9.83896C24.0765 9.83896 23.9379 9.80352 23.8111 9.73047L23.1602 9.35449C23.1215 9.33193 23.086 9.30723 23.0527 9.28037V9.2793C23.2848 8.79912 23.5512 8.34043 23.8509 7.9043C23.8896 7.91934 23.9282 7.9376 23.9658 7.95908L24.6168 8.33506C25.0024 8.55742 25.1335 9.05049 24.9111 9.43613Z" fill="#FE9400"/>
<path d="M42.0035 18.3892C41.7725 18.8694 41.505 19.3291 41.2064 19.7642C41.1667 19.7492 41.128 19.7309 41.0904 19.7094L40.4405 19.3345C40.0548 19.1111 39.9227 18.6191 40.1451 18.2334C40.3674 17.8478 40.8605 17.7157 41.2461 17.938L41.896 18.314C41.9347 18.3366 41.9702 18.3613 42.0035 18.3892Z" fill="#FE9400"/>
<path d="M23.8668 12.301C23.798 12.692 23.4575 12.967 23.074 12.967C23.0278 12.967 22.9806 12.9638 22.9333 12.9552L22.1932 12.8241C22.1491 12.8166 22.1072 12.8059 22.0664 12.7908C22.118 12.2559 22.2114 11.7327 22.3414 11.2246C22.3844 11.2257 22.4295 11.2289 22.4735 11.2375L23.2126 11.3686C23.6509 11.4459 23.9441 11.8638 23.8668 12.301Z" fill="#FE9400"/>
<path d="M42.9905 14.8693C42.939 15.4043 42.8455 15.9274 42.7155 16.4355C42.6726 16.4345 42.6274 16.4312 42.5834 16.4226L41.8433 16.2927C41.405 16.2153 41.1128 15.7975 41.1901 15.3592C41.2675 14.9209 41.6854 14.6276 42.1236 14.706L42.8627 14.836C42.9067 14.8435 42.9497 14.8554 42.9905 14.8693Z" fill="#FE9400"/>
<path d="M23.2137 16.2927L22.4735 16.4226C22.4295 16.4312 22.3844 16.4345 22.3414 16.4355C22.2114 15.9274 22.118 15.4043 22.0664 14.8693C22.1072 14.8554 22.1491 14.8435 22.1932 14.836L22.9333 14.706C23.3716 14.6276 23.7894 14.9209 23.8668 15.3592C23.9441 15.7975 23.6509 16.2153 23.2137 16.2927Z" fill="#FE9400"/>
<path d="M42.9905 12.7908C42.9497 12.8048 42.9067 12.8166 42.8627 12.8241L42.1236 12.9552C42.0764 12.9638 42.0291 12.967 41.9829 12.967C41.5994 12.967 41.2589 12.692 41.1901 12.301C41.1128 11.8638 41.405 11.4459 41.8433 11.3686L42.5834 11.2375C42.6274 11.2289 42.6726 11.2257 42.7155 11.2246C42.8455 11.7327 42.939 12.2559 42.9905 12.7908Z" fill="#FE9400"/>
<path d="M24.6168 19.3243L23.9658 19.6992C23.9282 19.7207 23.8896 19.7389 23.8509 19.754C23.5512 19.3189 23.2848 18.8591 23.0527 18.379V18.3779C23.086 18.351 23.1215 18.3263 23.1602 18.3038L23.8111 17.9278C24.1957 17.7065 24.6888 17.8376 24.9111 18.2232C25.1335 18.6088 25.0024 19.1008 24.6168 19.3243Z" fill="#FE9400"/>
<path d="M42.0045 9.28037C41.9712 9.30723 41.9358 9.33193 41.8971 9.35449L41.2461 9.73047C41.1194 9.80352 40.9808 9.83896 40.8444 9.83896C40.5651 9.83896 40.2944 9.69394 40.1451 9.43613C39.9227 9.05049 40.0548 8.55742 40.4405 8.33506L41.0904 7.95908C41.128 7.9376 41.1667 7.91934 41.2064 7.9043C41.5061 8.34043 41.7725 8.8002 42.0045 9.28037Z" fill="#FE9400"/>
<path d="M26.9752 21.7008L26.4918 22.2766C26.4639 22.3099 26.4349 22.34 26.4026 22.3668C25.9708 22.0564 25.5647 21.7148 25.1855 21.3431C25.206 21.3076 25.2296 21.2733 25.2575 21.24L25.7398 20.6652C26.0267 20.3236 26.5348 20.2796 26.8753 20.5653C27.2158 20.8511 27.2609 21.3592 26.9752 21.7008Z" fill="#FE9400"/>
<path d="M39.8717 6.31865C39.8502 6.3541 39.8266 6.38848 39.7986 6.4207L39.3152 6.99648C39.1563 7.18662 38.9274 7.28437 38.6976 7.28437C38.515 7.28437 38.3313 7.22207 38.1809 7.09531C37.8393 6.80957 37.7952 6.30146 38.081 5.96094L38.5644 5.38516C38.5923 5.35186 38.6224 5.3207 38.6546 5.29492C39.0864 5.60537 39.4925 5.94697 39.8717 6.31865Z" fill="#FE9400"/>
<path d="M30.0011 23.1223L29.7443 23.8281C29.7293 23.87 29.711 23.9108 29.6895 23.9484C29.1739 23.8044 28.6755 23.6218 28.1953 23.4037C28.2028 23.3618 28.2146 23.3189 28.2297 23.277L28.4864 22.5712C28.639 22.1533 29.1009 21.9374 29.5198 22.09C29.9377 22.2425 30.1536 22.7044 30.0011 23.1223Z" fill="#FE9400"/>
<path d="M36.8606 4.24971C36.8531 4.2916 36.8412 4.33457 36.8262 4.37539L36.5695 5.08115C36.4502 5.40879 36.1408 5.61182 35.8121 5.61182C35.7198 5.61182 35.6274 5.5957 35.5361 5.56348C35.1182 5.41094 34.9023 4.94902 35.0548 4.53008L35.3115 3.82432C35.3266 3.78242 35.3449 3.74268 35.3663 3.70508C35.882 3.84902 36.3804 4.03164 36.8606 4.24971Z" fill="#FE9400"/>
<path d="M14.6387 24.6631V25.415C14.6387 25.8598 14.2777 26.2207 13.833 26.2207C13.3883 26.2207 13.0273 25.8598 13.0273 25.415V24.6631C13.0273 24.618 13.0306 24.575 13.0392 24.532C13.3013 24.5116 13.5655 24.502 13.833 24.502C14.1005 24.502 14.3648 24.5116 14.6269 24.532C14.6355 24.575 14.6387 24.618 14.6387 24.6631Z" fill="#FE9400"/>
<path d="M14.6387 44.6221V45.374C14.6387 45.4191 14.6355 45.4621 14.6269 45.5051C14.3648 45.5255 14.1005 45.5352 13.833 45.5352C13.5655 45.5352 13.3013 45.5255 13.0392 45.5051C13.0306 45.4621 13.0273 45.4191 13.0273 45.374V44.6221C13.0273 44.1773 13.3883 43.8164 13.833 43.8164C14.2777 43.8164 14.6387 44.1773 14.6387 44.6221Z" fill="#FE9400"/>
<path d="M10.8265 26.7471C10.7352 26.7804 10.6428 26.7965 10.5515 26.7965C10.2217 26.7965 9.91338 26.5935 9.79414 26.2658L9.5374 25.5601C9.52236 25.5182 9.51055 25.4752 9.50195 25.4333C9.98213 25.2152 10.4806 25.0326 10.9951 24.8887C11.0166 24.9273 11.0359 24.9671 11.051 25.009L11.3077 25.7147C11.4603 26.1326 11.2443 26.5956 10.8265 26.7471Z" fill="#FE9400"/>
<path d="M18.1679 44.5991C17.6877 44.816 17.1882 44.9997 16.6736 45.1437C16.6521 45.1061 16.6328 45.0653 16.6178 45.0234L16.361 44.3176C16.2095 43.8997 16.4244 43.4367 16.8433 43.2853C17.2612 43.1327 17.7231 43.3487 17.8757 43.7665L18.1324 44.4723C18.1474 44.5142 18.1593 44.5572 18.1679 44.5991Z" fill="#FE9400"/>
<path d="M8.18105 28.2789C8.03066 28.4057 7.84697 28.4669 7.66436 28.4669C7.43447 28.4669 7.20566 28.3691 7.04668 28.1801L6.56328 27.6043C6.53535 27.5721 6.51172 27.5377 6.49023 27.5022C6.86943 27.1306 7.27549 26.789 7.70732 26.4785C7.73955 26.5043 7.76963 26.5354 7.79756 26.5687L8.28096 27.1435C8.5667 27.4851 8.52266 27.9932 8.18105 28.2789Z" fill="#FE9400"/>
<path d="M21.1778 42.5355C20.7986 42.9071 20.3915 43.2498 19.9596 43.5603C19.9274 43.5323 19.8984 43.5023 19.8705 43.469L19.3881 42.8942C19.1013 42.5526 19.1464 42.0445 19.487 41.7588C19.8275 41.4731 20.3356 41.5171 20.6224 41.8576L21.1048 42.4334C21.1327 42.4656 21.1563 42.5 21.1778 42.5355Z" fill="#FE9400"/>
<path d="M6.21777 30.6187C6.06846 30.8775 5.79775 31.0215 5.51953 31.0215C5.38203 31.0215 5.24346 30.9871 5.1167 30.9141L4.4668 30.5381C4.42812 30.5155 4.39268 30.4908 4.35938 30.464V30.4629C4.59141 29.9827 4.85781 29.524 5.15645 29.0879C5.19619 29.1029 5.23486 29.1212 5.27246 29.1427L5.92236 29.5187C6.30801 29.741 6.44014 30.2341 6.21777 30.6187Z" fill="#FE9400"/>
<path d="M23.3102 39.5717C23.0781 40.0519 22.8117 40.5117 22.512 40.9478C22.4733 40.9328 22.4347 40.9145 22.3971 40.893L21.7461 40.517C21.3615 40.2947 21.2294 39.8027 21.4517 39.417C21.6741 39.0314 22.1672 38.8993 22.5517 39.1216L23.2027 39.4976C23.2414 39.5202 23.2768 39.5449 23.3102 39.5717Z" fill="#FE9400"/>
<path d="M5.17236 33.4846C5.10361 33.8756 4.76416 34.1506 4.37959 34.1506C4.3334 34.1506 4.28613 34.1463 4.23887 34.1388L3.4998 34.0077C3.45576 34.0002 3.41387 33.9884 3.37305 33.9744C3.42461 33.4395 3.51807 32.9163 3.64805 32.4082C3.69102 32.4093 3.73506 32.4136 3.7791 32.4211L4.51924 32.5511C4.95752 32.6284 5.24971 33.0463 5.17236 33.4846Z" fill="#FE9400"/>
<path d="M24.2952 36.0537C24.2436 36.5886 24.1502 37.1118 24.0202 37.6199C23.9772 37.6188 23.9321 37.6156 23.8881 37.607L23.149 37.477C22.7107 37.3997 22.4175 36.9818 22.4948 36.5435C22.5721 36.1052 22.99 35.812 23.4283 35.8893L24.1684 36.0204C24.2125 36.0279 24.2544 36.0397 24.2952 36.0537Z" fill="#FE9400"/>
<path d="M4.51924 37.477L3.7791 37.607C3.73506 37.6145 3.69102 37.6188 3.64805 37.6199C3.51807 37.1118 3.42461 36.5886 3.37305 36.0537C3.41387 36.0397 3.45576 36.0279 3.4998 36.0204L4.23887 35.8893C4.67715 35.812 5.09502 36.1052 5.17236 36.5435C5.24971 36.9818 4.95752 37.3997 4.51924 37.477Z" fill="#FE9400"/>
<path d="M24.2952 33.9744C24.2544 33.9884 24.2125 34.0002 24.1684 34.0077L23.4283 34.1388C23.381 34.1463 23.3338 34.1506 23.2876 34.1506C22.9041 34.1506 22.5635 33.8756 22.4948 33.4846C22.4175 33.0463 22.7107 32.6284 23.149 32.5511L23.8881 32.4211C23.9321 32.4125 23.9772 32.4093 24.0202 32.4082C24.1502 32.9163 24.2436 33.4395 24.2952 33.9744Z" fill="#FE9400"/>
<path d="M5.92236 40.517L5.27246 40.893C5.23486 40.9145 5.19619 40.9328 5.15645 40.9478C4.85781 40.5117 4.59141 40.053 4.35938 39.5728V39.5717C4.39268 39.5449 4.42812 39.5202 4.4668 39.4976L5.1167 39.1216C5.50234 38.8993 5.99541 39.0314 6.21777 39.417C6.44014 39.8016 6.30801 40.2947 5.92236 40.517Z" fill="#FE9400"/>
<path d="M23.3102 30.464C23.2768 30.4908 23.2414 30.5155 23.2027 30.5381L22.5517 30.9141C22.425 30.9871 22.2864 31.0215 22.15 31.0215C21.8718 31.0215 21.6011 30.8775 21.4517 30.6187C21.2294 30.2341 21.3615 29.741 21.7461 29.5187L22.3971 29.1427C22.4347 29.1212 22.4733 29.1029 22.512 29.0879C22.8117 29.524 23.0781 29.9838 23.3102 30.464Z" fill="#FE9400"/>
<path d="M8.28096 42.8849L7.79756 43.4596C7.76963 43.4929 7.74062 43.523 7.7084 43.5509C7.27656 43.2405 6.86943 42.8978 6.49023 42.5261C6.51172 42.4907 6.53535 42.4563 6.56328 42.4241L7.04668 41.8483C7.33242 41.5078 7.84053 41.4627 8.18105 41.7495C8.52266 42.0352 8.5667 42.5433 8.28096 42.8849Z" fill="#FE9400"/>
<path d="M21.1778 27.5022C21.1563 27.5377 21.1327 27.5721 21.1048 27.6043L20.6224 28.1801C20.4624 28.3691 20.2346 28.4669 20.0048 28.4669C19.8221 28.4669 19.6384 28.4057 19.487 28.2789C19.1464 27.9932 19.1013 27.4851 19.3881 27.1435L19.8705 26.5687C19.8984 26.5354 19.9285 26.5043 19.9607 26.4785C20.3925 26.789 20.7986 27.1306 21.1778 27.5022Z" fill="#FE9400"/>
<path d="M11.3077 44.3176L11.051 45.0234C11.0359 45.0653 11.0166 45.1061 10.9951 45.1437C10.4806 44.9997 9.98213 44.8171 9.50195 44.5991C9.51055 44.5572 9.52236 44.5142 9.5374 44.4723L9.79414 43.7665C9.94561 43.3487 10.4086 43.1327 10.8265 43.2853C11.2443 43.4367 11.4603 43.8997 11.3077 44.3176Z" fill="#FE9400"/>
<path d="M18.1679 25.4333C18.1593 25.4752 18.1475 25.5182 18.1324 25.5601L17.8757 26.2658C17.7564 26.5935 17.4471 26.7965 17.1183 26.7965C17.027 26.7965 16.9336 26.7804 16.8423 26.7471C16.4244 26.5956 16.2096 26.1326 16.361 25.7147L16.6178 25.009C16.6328 24.9671 16.6521 24.9273 16.6736 24.8887C17.1882 25.0326 17.6877 25.2163 18.1679 25.4333Z" fill="#FE9400"/>
<path d="M41.9746 30.8076V31.5585C41.9746 32.0043 41.6137 32.3642 41.1689 32.3642C40.7231 32.3642 40.3633 32.0043 40.3633 31.5585V30.8076C40.3633 30.7625 40.3665 30.7195 40.3751 30.6766C40.6372 30.6562 40.9015 30.6465 41.1689 30.6465C41.4364 30.6465 41.7007 30.6562 41.9628 30.6766C41.9714 30.7195 41.9746 30.7625 41.9746 30.8076Z" fill="#FE9400"/>
<path d="M41.9746 50.7568V51.5077C41.9746 51.5528 41.9714 51.5958 41.9628 51.6388C41.7007 51.6592 41.4364 51.6688 41.1689 51.6688C40.9015 51.6688 40.6372 51.6592 40.3751 51.6388C40.3665 51.5958 40.3633 51.5528 40.3633 51.5077V50.7568C40.3633 50.3121 40.7231 49.9512 41.1689 49.9512C41.6137 49.9512 41.9746 50.3121 41.9746 50.7568Z" fill="#FE9400"/>
<path d="M38.1604 32.9014C38.0702 32.9347 37.9768 32.9508 37.8854 32.9508C37.5567 32.9508 37.2474 32.7467 37.1281 32.4201L36.8714 31.7144C36.8563 31.6725 36.8445 31.6295 36.8359 31.5876C37.3161 31.3706 37.8156 31.1869 38.3302 31.043C38.3517 31.0806 38.371 31.1213 38.386 31.1633L38.6428 31.869C38.7942 32.2869 38.5794 32.7488 38.1604 32.9014Z" fill="#FE9400"/>
<path d="M45.5001 50.7431C45.021 50.9612 44.5226 51.1438 44.008 51.2878C43.9866 51.2502 43.9672 51.2104 43.9522 51.1685L43.6954 50.4628C43.5429 50.0438 43.7588 49.5819 44.1767 49.4294C44.5946 49.2779 45.0575 49.4928 45.209 49.9117L45.4657 50.6175C45.4808 50.6594 45.4926 50.7012 45.5001 50.7431Z" fill="#FE9400"/>
<path d="M35.5159 34.4332C35.3645 34.56 35.1808 34.6212 34.9981 34.6212C34.7683 34.6212 34.5405 34.5234 34.3805 34.3333L33.8981 33.7586C33.8702 33.7253 33.8466 33.6909 33.8262 33.6555C34.2043 33.2849 34.6114 32.9422 35.0422 32.6328C35.0744 32.6586 35.1045 32.6897 35.1324 32.723L35.6148 33.2978C35.9016 33.6394 35.8565 34.1475 35.5159 34.4332Z" fill="#FE9400"/>
<path d="M48.5124 48.6819C48.1332 49.0536 47.7261 49.3963 47.2942 49.7067C47.262 49.6788 47.233 49.6487 47.2051 49.6154L46.7217 49.0397C46.4359 48.6991 46.48 48.191 46.8205 47.9053C47.1621 47.6195 47.6702 47.6636 47.956 48.0041L48.4394 48.5799C48.4673 48.6121 48.4909 48.6465 48.5124 48.6819Z" fill="#FE9400"/>
<path d="M33.5518 36.7651C33.4024 37.024 33.1317 37.168 32.8535 37.168C32.7171 37.168 32.5785 37.1336 32.4518 37.0605L31.8008 36.6846C31.7621 36.662 31.7267 36.6373 31.6934 36.6104C31.9254 36.1303 32.1918 35.6705 32.4915 35.2344C32.5302 35.2494 32.5688 35.2677 32.6064 35.2892L33.2574 35.6641C33.642 35.8875 33.7741 36.3795 33.5518 36.7651Z" fill="#FE9400"/>
<path d="M50.6421 45.7163V45.7174L49.8451 47.0924C49.8053 47.0773 49.7667 47.0591 49.7291 47.0376L49.0791 46.6616C48.6935 46.4392 48.5614 45.9462 48.7837 45.5605C49.0061 45.176 49.4992 45.0438 49.8848 45.2662L50.5347 45.6422C50.5734 45.6647 50.6088 45.6894 50.6421 45.7163Z" fill="#FE9400"/>
<path d="M32.5074 39.6389C32.4387 40.0299 32.0981 40.3049 31.7146 40.3049C31.6685 40.3049 31.6212 40.3006 31.5739 40.292L30.8338 40.162C30.7897 40.1545 30.7479 40.1427 30.707 40.1287C30.7586 39.5938 30.8521 39.0706 30.982 38.5625C31.025 38.5636 31.069 38.5679 31.1142 38.5754L31.8532 38.7054C32.2915 38.7827 32.5848 39.2006 32.5074 39.6389Z" fill="#FE9400"/>
<path d="M51.6281 42.2002C51.5766 42.7351 51.4831 43.2572 51.3531 43.7653C51.3102 43.7642 51.2661 43.761 51.2221 43.7535L50.4819 43.6224C50.0437 43.5451 49.7515 43.1272 49.8288 42.69C49.9062 42.2517 50.324 41.9585 50.7623 42.0358L51.5014 42.1669C51.5454 42.1744 51.5873 42.1851 51.6281 42.2002Z" fill="#FE9400"/>
<path d="M31.8532 43.6224L31.1142 43.7535C31.0701 43.761 31.025 43.7642 30.982 43.7653C30.8521 43.2572 30.7586 42.7351 30.707 42.2002C30.7479 42.1851 30.7897 42.1744 30.8338 42.1669L31.5739 42.0358C32.0122 41.9585 32.4301 42.2517 32.5074 42.69C32.5848 43.1272 32.2915 43.5451 31.8532 43.6224Z" fill="#FE9400"/>
<path d="M51.6281 40.1287C51.5873 40.1427 51.5454 40.1545 51.5014 40.162L50.7623 40.292C50.715 40.3006 50.6678 40.3049 50.6216 40.3049C50.237 40.3049 49.8976 40.0299 49.8288 39.6389C49.7515 39.2006 50.0437 38.7827 50.4819 38.7054L51.2221 38.5754C51.2661 38.5679 51.3102 38.5636 51.3531 38.5625C51.4831 39.0706 51.5766 39.5938 51.6281 40.1287Z" fill="#FE9400"/>
<path d="M33.2574 46.6616L32.6064 47.0376C32.5689 47.0591 32.5302 47.0773 32.4915 47.0924C32.1918 46.6562 31.9254 46.1965 31.6934 45.7163C31.7267 45.6894 31.7621 45.6647 31.8008 45.6422L32.4518 45.2662C32.8374 45.0438 33.3294 45.176 33.5518 45.5605C33.7741 45.9462 33.6431 46.4392 33.2574 46.6616Z" fill="#FE9400"/>
<path d="M50.6421 36.6094V36.6104C50.6088 36.6373 50.5734 36.662 50.5347 36.6846L49.8848 37.0605C49.7581 37.1336 49.6195 37.168 49.482 37.168C49.2038 37.168 48.9331 37.024 48.7837 36.7651C48.5614 36.3795 48.6935 35.8875 49.0791 35.6641L49.7291 35.2892C49.7667 35.2677 49.8053 35.2494 49.8451 35.2344C50.1437 35.6694 50.4101 36.1292 50.6421 36.6094Z" fill="#FE9400"/>
<path d="M35.6139 49.0381L35.1315 49.6139C35.1036 49.6472 35.0746 49.6773 35.0424 49.7052C34.6106 49.3948 34.2034 49.0521 33.8242 48.6804C33.8457 48.645 33.8693 48.6106 33.8973 48.5784L34.3796 48.0026C34.6653 47.6621 35.1734 47.617 35.515 47.9038C35.8556 48.1895 35.9007 48.6976 35.6139 49.0381Z" fill="#FE9400"/>
<path d="M48.5113 33.6468C48.4909 33.6822 48.4673 33.7166 48.4394 33.7499L47.956 34.3246C47.797 34.5147 47.5682 34.6125 47.3383 34.6125C47.1557 34.6125 46.972 34.5513 46.8205 34.4245C46.48 34.1377 46.4359 33.6296 46.7217 33.2891L47.2051 32.7133C47.233 32.68 47.262 32.6499 47.2942 32.623C47.7261 32.9335 48.1321 33.2751 48.5113 33.6468Z" fill="#FE9400"/>
<path d="M38.6417 50.4628L38.385 51.1685C38.3699 51.2104 38.3506 51.2502 38.3291 51.2878C37.8145 51.1438 37.315 50.9612 36.8359 50.7431C36.8435 50.7012 36.8553 50.6594 36.8703 50.6175L37.127 49.9117C37.2796 49.4928 37.7415 49.2779 38.1594 49.4294C38.5783 49.5819 38.7932 50.0438 38.6417 50.4628Z" fill="#FE9400"/>
<path d="M45.5012 31.5876C45.4926 31.6295 45.4808 31.6725 45.4658 31.7144L45.209 32.4201C45.0898 32.7467 44.7815 32.9508 44.4517 32.9508C44.3604 32.9508 44.268 32.9347 44.1767 32.9014C43.7588 32.7488 43.5429 32.2869 43.6954 31.869L43.9522 31.1633C43.9672 31.1214 43.9855 31.0806 44.007 31.043C44.5226 31.1869 45.021 31.3695 45.5012 31.5876Z" fill="#FE9400"/>
<path d="M44.4208 44.1623H40.9619V41.7492C41.2515 41.6775 41.5751 41.598 41.9372 41.51C42.3696 41.4048 42.6349 40.9692 42.5299 40.5367C42.4247 40.1045 41.9892 39.8388 41.5566 39.9441C41.3456 39.9954 41.1481 40.0436 40.9619 40.0894V36.6846C40.9619 36.2395 40.6012 35.8789 40.1562 35.8789C39.7111 35.8789 39.3505 36.2395 39.3505 36.6846V40.493C38.6225 40.68 38.357 40.7571 38.3393 40.7624C37.9123 40.8872 37.6677 41.3344 37.7923 41.7614C37.8949 42.113 38.2165 42.3414 38.5654 42.3414C38.6399 42.3414 38.7159 42.3309 38.7912 42.309C38.7944 42.308 38.9512 42.2627 39.3505 42.1578V44.9678C39.3505 45.4128 39.7111 45.7734 40.1562 45.7734H44.4208C44.8659 45.7734 45.2265 45.4128 45.2265 44.9678C45.2265 44.5227 44.8658 44.1623 44.4208 44.1623Z" fill="#FE9400"/>
<path d="M17.085 35.0091L13.8959 34.2193C13.8557 34.2093 13.8137 34.2093 13.7734 34.2193L10.5843 35.0091C10.3621 35.0641 10.1857 34.8209 10.3072 34.6268L13.6187 29.3364C13.7185 29.1769 13.9506 29.1769 14.0504 29.3364L17.3619 34.6268C17.4835 34.8209 17.3073 35.0642 17.085 35.0091Z" fill="#FE9400"/>
<path d="M10.8985 36.1135L13.7348 34.8474C13.798 34.8191 13.8704 34.8191 13.9337 34.8474L16.77 36.1135C16.9207 36.1808 16.9626 36.3751 16.8529 36.4985L14.0166 39.6894C13.9195 39.7987 13.7489 39.7987 13.6518 39.6894L10.8156 36.4985C10.706 36.3751 10.7478 36.1808 10.8985 36.1135Z" fill="#FE9400"/>
</g>
<defs>
<clipPath id="clip0">
<rect width="55" height="55" fill="white"/>
</clipPath>
</defs>
</svg>
