<svg width="78" height="78" viewBox="0 0 78 78" fill="none" xmlns="http://www.w3.org/2000/svg">
<g opacity="0.12">
<path d="M77.5536 14.3075L63.6904 0.446215C63.4047 0.16057 63.0173 0 62.6133 0H21.6328C20.7914 0 20.1094 0.682195 20.1094 1.52344V8.22656H9.74802C8.90662 8.22656 8.22458 8.90876 8.22458 9.75C8.22458 10.5912 8.90662 11.2734 9.74802 11.2734H39.5314C40.3728 11.2734 41.0548 10.5912 41.0548 9.75C41.0548 8.90876 40.3728 8.22656 39.5314 8.22656H23.1562V3.04688H61.0898V15.3867C61.0898 16.228 61.7719 16.9102 62.6133 16.9102H74.9531V74.9531H33.5156V70.6875H36.5625C37.4039 70.6875 38.0859 70.0053 38.0859 69.1641V61.8516C38.0859 61.0103 37.4039 60.3281 36.5625 60.3281H33.5156V54.5391C33.5156 53.6978 32.8336 53.0156 31.9922 53.0156H22.3182C25.4289 50.5 27.4219 46.6545 27.4219 42.3516C27.4219 34.7914 21.2711 28.6406 13.7109 28.6406C6.15073 28.6406 0 34.7914 0 42.3516C0 46.6545 1.99296 50.5 5.10367 53.0156H1.52344C0.682043 53.0156 0 53.6978 0 54.5391V61.8516C0 62.6928 0.682043 63.375 1.52344 63.375H4.57031V67.6406H1.52344C0.682043 67.6406 0 68.3228 0 69.1641V76.4766C0 77.3178 0.682043 78 1.52344 78H31.9901H31.9922H76.4766C77.318 78 78 77.3178 78 76.4766V15.3847C78 14.9807 77.8394 14.5932 77.5536 14.3075ZM64.1367 13.8633V5.20102L72.8002 13.8633H64.1367ZM3.04688 42.3516C3.04688 36.4714 7.83077 31.6875 13.7109 31.6875C19.5911 31.6875 24.375 36.4714 24.375 42.3516C24.375 48.2317 19.5911 53.0156 13.7109 53.0156C7.83077 53.0156 3.04688 48.2317 3.04688 42.3516ZM3.04688 60.3281V56.0625H30.4688V60.3281H25.8984V59.0586C25.8984 58.2174 25.2164 57.5352 24.375 57.5352C23.5336 57.5352 22.8516 58.2174 22.8516 59.0586V60.3281H18.2812V59.0586C18.2812 58.2174 17.5992 57.5352 16.7578 57.5352C15.9164 57.5352 15.2344 58.2174 15.2344 59.0586V60.3281H10.6641V59.0586C10.6641 58.2174 9.98202 57.5352 9.14062 57.5352C8.29923 57.5352 7.61719 58.2174 7.61719 59.0586V60.3281H6.09375H3.04688ZM30.4688 74.9531H25.8984V74.1914C25.8984 73.3502 25.2164 72.668 24.375 72.668C23.5336 72.668 22.8516 73.3502 22.8516 74.1914V74.9531H18.2812V74.1914C18.2812 73.3502 17.5992 72.668 16.7578 72.668C15.9164 72.668 15.2344 73.3502 15.2344 74.1914V74.9531H10.6641V74.1914C10.6641 73.3502 9.98202 72.668 9.14062 72.668C8.29923 72.668 7.61719 73.3502 7.61719 74.1914V74.9531H3.04688V70.6875H6.09375H30.4688V74.9531ZM30.4688 67.6406V66.7266C30.4688 65.8853 29.7867 65.2031 28.9453 65.2031C28.1039 65.2031 27.4219 65.8853 27.4219 66.7266V67.6406H22.8516V66.7266C22.8516 65.8853 22.1695 65.2031 21.3281 65.2031C20.4867 65.2031 19.8047 65.8853 19.8047 66.7266V67.6406H15.2344V66.7266C15.2344 65.8853 14.5523 65.2031 13.7109 65.2031C12.8695 65.2031 12.1875 65.8853 12.1875 66.7266V67.6406H7.61719V63.375H31.9922H35.0391V67.6406H31.9922H30.4688Z" fill="black"/>
<path d="M13.7109 40.8467C12.7029 40.8467 11.8828 40.1655 11.8828 39.3282C11.8828 38.4911 12.7029 37.8101 13.7109 37.8101C14.719 37.8101 15.5391 38.4913 15.5391 39.3284C15.5391 40.1696 16.2211 40.8518 17.0625 40.8518C17.9039 40.8518 18.5859 40.1696 18.5859 39.3284C18.5859 37.3088 17.1777 35.5925 15.2329 34.9924C15.2172 34.1647 14.5424 33.498 13.7109 33.498C12.8794 33.498 12.2046 34.1647 12.189 34.9924C10.2442 35.5923 8.83594 37.3088 8.83594 39.3282C8.83594 41.8454 11.0228 43.8935 13.7109 43.8935C14.719 43.8935 15.5391 44.5747 15.5391 45.4118C15.5391 46.2489 14.719 46.93 13.7109 46.93C12.7029 46.93 11.8828 46.2489 11.8828 45.4118C11.8828 44.5705 11.2008 43.8883 10.3594 43.8883C9.51798 43.8883 8.83594 44.5705 8.83594 45.4118C8.83594 47.432 10.2451 49.1488 12.1909 49.7484C12.2254 50.559 12.8918 51.2063 13.7109 51.2063C14.5301 51.2063 15.1964 50.5592 15.231 49.7484C17.1768 49.1488 18.5859 47.432 18.5859 45.4118C18.5859 42.8946 16.399 40.8467 13.7109 40.8467Z" fill="black"/>
<path d="M33.875 14.9297H9.74805C8.90665 14.9297 8.22461 15.6119 8.22461 16.4531C8.22461 17.2944 8.90665 17.9766 9.74805 17.9766H33.875C34.7164 17.9766 35.3985 17.2944 35.3985 16.4531C35.3985 15.6119 34.7164 14.9297 33.875 14.9297Z" fill="black"/>
<path d="M46.1274 14.9297H41.1875C40.3461 14.9297 39.6641 15.6119 39.6641 16.4531C39.6641 17.2944 40.3461 17.9766 41.1875 17.9766H46.1274C46.9688 17.9766 47.6508 17.2944 47.6508 16.4531C47.6508 15.6119 46.9688 14.9297 46.1274 14.9297Z" fill="black"/>
<path d="M46.8759 8.67293C46.5925 8.38957 46.1995 8.22656 45.7988 8.22656C45.3966 8.22656 45.0051 8.38942 44.7218 8.67293C44.4369 8.95629 44.2754 9.34934 44.2754 9.75C44.2754 10.1507 44.4369 10.5437 44.7218 10.8269C45.0051 11.1104 45.3982 11.2734 45.7988 11.2734C46.1995 11.2734 46.5925 11.1104 46.8759 10.8269C47.1593 10.5437 47.3223 10.1507 47.3223 9.75C47.3223 9.34934 47.1593 8.95629 46.8759 8.67293Z" fill="black"/>
<path d="M26.9976 21.6328H9.74805C8.90665 21.6328 8.22461 22.315 8.22461 23.1562C8.22461 23.9975 8.90665 24.6797 9.74805 24.6797H26.9976C27.839 24.6797 28.5211 23.9975 28.5211 23.1562C28.5211 22.315 27.839 21.6328 26.9976 21.6328Z" fill="black"/>
<path d="M34.9521 22.0792C34.6687 21.7957 34.2757 21.6328 33.875 21.6328C33.4743 21.6328 33.0813 21.7957 32.7979 22.0792C32.5146 22.3625 32.3516 22.7556 32.3516 23.1562C32.3516 23.5569 32.5146 23.95 32.7979 24.2332C33.0813 24.5165 33.4743 24.6797 33.875 24.6797C34.2757 24.6797 34.6687 24.5167 34.9521 24.2332C35.2354 23.95 35.3984 23.5569 35.3984 23.1562C35.3984 22.7556 35.2354 22.3625 34.9521 22.0792Z" fill="black"/>
<path d="M42.2646 22.0792C41.9812 21.7958 41.5882 21.6328 41.1875 21.6328C40.7868 21.6328 40.3938 21.7957 40.1104 22.0792C39.8271 22.3625 39.6641 22.7556 39.6641 23.1562C39.6641 23.5569 39.8271 23.95 40.1104 24.2332C40.3938 24.5165 40.7868 24.6797 41.1875 24.6797C41.5882 24.6797 41.9812 24.5167 42.2646 24.2332C42.5479 23.95 42.7109 23.5569 42.7109 23.1562C42.7109 22.7556 42.5479 22.3625 42.2646 22.0792Z" fill="black"/>
<path d="M49.5771 22.0792C49.2937 21.7958 48.9007 21.6328 48.5 21.6328C48.0993 21.6328 47.7063 21.7957 47.4229 22.0792C47.1396 22.3625 46.9766 22.7556 46.9766 23.1562C46.9766 23.5569 47.1396 23.95 47.4229 24.2332C47.7063 24.5165 48.0993 24.6797 48.5 24.6797C48.9007 24.6797 49.2937 24.5167 49.5771 24.2332C49.8604 23.95 50.0234 23.5569 50.0234 23.1562C50.0234 22.7556 49.8604 22.3625 49.5771 22.0792Z" fill="black"/>
<path d="M70.002 66.7266H41.8945C41.0531 66.7266 40.3711 67.4088 40.3711 68.25C40.3711 69.0912 41.0531 69.7734 41.8945 69.7734H70.002C70.8433 69.7734 71.5254 69.0912 71.5254 68.25C71.5254 67.4088 70.8433 66.7266 70.002 66.7266Z" fill="black"/>
<path d="M69.3271 37.9405C69.0437 37.6571 68.6507 37.4941 68.25 37.4941C67.8493 37.4941 67.4563 37.657 67.1729 37.9405C66.8896 38.2254 66.7266 38.6169 66.7266 39.0191C66.7266 39.4198 66.8896 39.8113 67.1729 40.0947C67.4563 40.3797 67.8493 40.5412 68.25 40.5412C68.6522 40.5412 69.0437 40.3795 69.3271 40.0947C69.6104 39.8114 69.7734 39.4198 69.7734 39.0191C69.7734 38.6169 69.6104 38.2254 69.3271 37.9405Z" fill="black"/>
<path d="M68.25 43.8867C67.4086 43.8867 66.7266 44.5689 66.7266 45.4102V61.8581C66.7266 62.6993 67.4086 63.3815 68.25 63.3815C69.0914 63.3815 69.7734 62.6993 69.7734 61.8581V45.4102C69.7734 44.5689 69.0914 43.8867 68.25 43.8867Z" fill="black"/>
<path d="M62.1562 43.8867C61.3149 43.8867 60.6328 44.5689 60.6328 45.4102V61.8581C60.6328 62.6993 61.3149 63.3815 62.1562 63.3815C62.9976 63.3815 63.6797 62.6993 63.6797 61.8581V45.4102C63.6797 44.5689 62.9976 43.8867 62.1562 43.8867Z" fill="black"/>
<path d="M56.0625 50.0195C55.2211 50.0195 54.5391 50.7017 54.5391 51.543V61.8592C54.5391 62.7005 55.2211 63.3827 56.0625 63.3827C56.9039 63.3827 57.5859 62.7005 57.5859 61.8592V51.543C57.5859 50.7017 56.9039 50.0195 56.0625 50.0195Z" fill="black"/>
<path d="M49.9688 44.6367C49.1274 44.6367 48.4453 45.3189 48.4453 46.1602V61.8592C48.4453 62.7004 49.1274 63.3826 49.9688 63.3826C50.8101 63.3826 51.4922 62.7004 51.4922 61.8592V46.1602C51.4922 45.3189 50.8101 44.6367 49.9688 44.6367Z" fill="black"/>
<path d="M43.875 48.7598C43.0336 48.7598 42.3516 49.442 42.3516 50.2832V61.8593C42.3516 62.7006 43.0336 63.3828 43.875 63.3828C44.7164 63.3828 45.3984 62.7006 45.3984 61.8593V50.2832C45.3984 49.442 44.7164 48.7598 43.875 48.7598Z" fill="black"/>
<path d="M68.9183 24.2812H64.346C63.5046 24.2812 62.8226 24.9634 62.8226 25.8047C62.8226 26.6459 63.5046 27.3281 64.346 27.3281H65.2403L54.8357 37.7329L50.287 33.1842C50.0013 32.8986 49.6138 32.738 49.2098 32.738C48.8058 32.738 48.4182 32.8986 48.1325 33.1842L38.8115 42.5054C38.2165 43.1003 38.2165 44.0649 38.8114 44.6598C39.1088 44.9572 39.4988 45.106 39.8886 45.106C40.2785 45.106 40.6685 44.9572 40.9658 44.6598L49.2096 36.416L53.7583 40.9647C54.0439 41.2504 54.4315 41.4109 54.8355 41.4109C55.2395 41.4109 55.6271 41.2504 55.9127 40.9647L67.3949 29.4826V30.377C67.3949 31.2182 68.0769 31.9004 68.9183 31.9004C69.7597 31.9004 70.4418 31.2182 70.4418 30.377V25.8047C70.4418 24.9634 69.7597 24.2812 68.9183 24.2812Z" fill="black"/>
</g>
</svg>
