<svg width="15" height="15" viewBox="0 0 15 15" fill="none" xmlns="http://www.w3.org/2000/svg">
<g clip-path="url(#clip0)">
<path d="M7.5047 11.4348L3.3418 9.40234L7.50092 14.9992L8.12577 14.1583V11.1306L7.5047 11.4348Z" fill="#708299"/>
<path d="M7.5016 0L2.72461 8.57151H12.2787L7.5016 0Z" fill="#708299"/>
<path d="M12.2791 8.58421L7.50195 0V8.58421H12.2791Z" fill="#68788E"/>
<path d="M6.05664 4.75977H6.99414V5.69727H6.05664V4.75977Z" fill="white"/>
<path d="M7.50114 6.2433L7.48238 6.23438L2.72461 8.57813H2.72884L7.48661 10.9219L7.50538 10.913L8.12599 10.6092V6.54932L7.50114 6.2433Z" fill="#3C3C47"/>
<path d="M6.05664 2.98633H6.99414V3.92383H6.05664V2.98633Z" fill="white"/>
<path d="M7.50573 11.4366L7.50195 15.001L11.6641 9.40039L7.50573 11.4366Z" fill="#68788E"/>
<path d="M12.2694 8.57813L7.50119 6.2433L7.48242 6.23438L7.48666 10.9219L7.50542 10.913L12.2736 8.57813H12.2694Z" fill="#31313B"/>
</g>
<defs>
<clipPath id="clip0">
<rect width="15" height="15" fill="white"/>
</clipPath>
</defs>
</svg>
