<svg width="55" height="55" viewBox="0 0 55 55" fill="none" xmlns="http://www.w3.org/2000/svg">
<g clip-path="url(#clip0)">
<path d="M22.5147 38.052C33.0089 38.052 41.5157 29.5442 41.5157 19.0498C41.5157 8.55664 33.0089 0.0488281 22.5147 0.0488281C12.0204 0.0488281 3.51367 8.55664 3.51367 19.0498H22.5147V38.052Z" fill="#9DC6FB"/>
<path d="M29.7087 44.6602H24.2121C23.2817 44.6602 22.5273 45.4145 22.5273 46.345V54.9502H31.3934V46.3449C31.3935 45.4145 30.6392 44.6602 29.7087 44.6602Z" fill="#9DC6FB"/>
<path d="M27.0203 44.6602C26.0896 44.6602 25.336 45.4138 25.336 46.3445V54.9498H22.5273V46.3445C22.5273 45.4138 23.2821 44.6602 24.2117 44.6602H27.0203Z" fill="#80B4FB"/>
<path d="M41.5134 22.9727H36.0168C35.0863 22.9727 34.332 23.727 34.332 24.6575V54.9495H43.1981V24.6575C43.1981 23.727 42.4439 22.9727 41.5134 22.9727Z" fill="#F6E266"/>
<path d="M38.8239 22.9728C37.8944 22.9728 37.1396 23.7264 37.1396 24.6571V54.9491H34.332V24.657C34.332 23.7263 35.0857 22.9727 36.0163 22.9727H38.8239V22.9728Z" fill="#FFC250"/>
<path d="M53.3161 35.5352H47.8196C46.8891 35.5352 46.1348 36.2895 46.1348 37.22V54.9503H55.0009V37.22C55.0009 36.2895 54.2466 35.5352 53.3161 35.5352Z" fill="#DD636E"/>
<path d="M50.6277 35.5352C49.697 35.5352 48.9434 36.2888 48.9434 37.2194V54.95H46.1348V37.2194C46.1348 36.2888 46.8895 35.5352 47.8202 35.5352H50.6277Z" fill="#CB5769"/>
<path d="M19.001 41.5646V22.5625H0C0 33.0568 8.50674 41.5646 19.001 41.5646Z" fill="#DD636E"/>
<path d="M10.5893 47.8889H1.12877C0.670293 47.8889 0.298828 47.5173 0.298828 47.0589C0.298828 46.6006 0.6704 46.229 1.12877 46.229H10.0582L14.1657 37.3224C14.3577 36.9063 14.8508 36.7243 15.267 36.9164C15.6833 37.1083 15.865 37.6014 15.6732 38.0177L11.3431 47.4065C11.2074 47.7006 10.9132 47.8889 10.5893 47.8889Z" fill="#81A7C6"/>
<path d="M8.02407 44.3142H1.12877C0.670293 44.3142 0.298828 43.9426 0.298828 43.4842C0.298828 43.0259 0.6704 42.6543 1.12877 42.6543H8.02407C8.48255 42.6543 8.85401 43.0259 8.85401 43.4842C8.85412 43.9425 8.48255 44.3142 8.02407 44.3142Z" fill="#407093"/>
<path d="M34.1301 15.106C33.9925 15.106 33.8532 15.0717 33.7247 14.9996C33.325 14.7753 33.1828 14.2694 33.4071 13.8697L38.915 4.05464C39.0619 3.79285 39.3387 3.63086 39.6387 3.63086H51.3509C51.8094 3.63086 52.1809 4.00243 52.1809 4.4608C52.1809 4.91917 51.8093 5.29074 51.3509 5.29074H40.1248L34.8547 14.682C34.7025 14.9533 34.4206 15.106 34.1301 15.106Z" fill="#81A7C6"/>
<path d="M51.3526 1.98605H43.1756C42.7172 1.98605 42.3457 1.61448 42.3457 1.15611C42.3457 0.697744 42.7173 0.326172 43.1756 0.326172H51.3526C51.8111 0.326172 52.1825 0.697744 52.1825 1.15611C52.1825 1.61448 51.8111 1.98605 51.3526 1.98605Z" fill="#407093"/>
<path d="M53.3405 19.5271H47.3104C46.8519 19.5271 46.4805 19.1555 46.4805 18.6971C46.4805 18.2388 46.852 17.8672 47.3104 17.8672H53.3405C53.799 17.8672 54.1705 18.2388 54.1705 18.6971C54.1705 19.1555 53.799 19.5271 53.3405 19.5271Z" fill="#407093"/>
<path d="M53.3405 23.1032H47.3104C46.8519 23.1032 46.4805 22.7317 46.4805 22.2733C46.4805 21.8149 46.852 21.4434 47.3104 21.4434H53.3405C53.799 21.4434 54.1705 21.8149 54.1705 22.2733C54.1706 22.7317 53.799 23.1032 53.3405 23.1032Z" fill="#407093"/>
<path d="M53.3405 26.6814H47.3104C46.8519 26.6814 46.4805 26.3098 46.4805 25.8514C46.4805 25.3931 46.852 25.0215 47.3104 25.0215H53.3405C53.799 25.0215 54.1705 25.3931 54.1705 25.8514C54.1705 26.3098 53.799 26.6814 53.3405 26.6814Z" fill="#407093"/>
</g>
<defs>
<clipPath id="clip0">
<rect width="55" height="55" fill="white"/>
</clipPath>
</defs>
</svg>
