<svg width="55" height="55" viewBox="0 0 55 55" fill="none" xmlns="http://www.w3.org/2000/svg">
<g clip-path="url(#clip0)">
<path d="M2.52344 35.6973V47.9022L3.54685 51.4505C4.28827 52.0076 5.20995 52.3377 6.20865 52.3377H48.7893C51.2389 52.3377 53.2247 50.3519 53.2247 47.9022V35.6973H2.52344Z" fill="#C38C66"/>
<path d="M3.54957 39.0247C3.54957 37.7993 4.75624 36.9501 5.91199 37.3574C6.64257 37.6149 7.38754 37.8592 8.14733 38.0881L8.17816 38.0975L8.20932 38.1056L12.1789 39.1464L12.209 39.1544L12.2392 39.1613C17.0864 40.2522 22.2213 40.8055 27.5013 40.8055C32.7917 40.8055 37.9363 40.2501 42.792 39.1549L42.8215 39.1483L42.8507 39.1405L46.714 38.1295L46.7442 38.1215L46.7742 38.1125C49.0572 37.4282 51.2161 36.6131 53.2271 35.6972V30.1602H1.77539V47.9021C1.77539 49.3485 2.47814 50.6405 3.54957 51.4501V39.0247Z" fill="#B57F5F"/>
<path d="M36.3711 6.20898H38.1453V15.08H36.3711V6.20898Z" fill="#B57F5F"/>
<path d="M16.8555 6.20898H18.6296V15.08H16.8555V6.20898Z" fill="#B57F5F"/>
<path d="M37.2585 7.51101C37.0887 7.51101 36.9168 7.48673 36.7461 7.43517C34.0808 6.63262 30.8833 6.20852 27.4995 6.20852C24.1158 6.20852 20.9182 6.63262 18.253 7.43517C17.3143 7.7193 16.3254 7.18563 16.0426 6.24794C15.7602 5.30972 16.2917 4.31993 17.2298 4.03752C20.2226 3.13668 23.774 2.66016 27.4995 2.66016C31.225 2.66016 34.7765 3.13657 37.7692 4.03763C38.7074 4.32004 39.2388 5.30982 38.9564 6.24805C38.7251 7.01558 38.0209 7.51101 37.2585 7.51101Z" fill="#D19A6E"/>
<path d="M51.4517 13.6074H3.54825C1.48103 14.3381 0 16.3096 0 18.627V31.2181C0 32.2438 0.588779 33.1735 1.511 33.6227C3.68801 34.6834 6.08416 35.6129 8.65799 36.3886L12.6275 37.4294C17.211 38.4611 22.2334 39.0303 27.5 39.0303C32.7772 39.0303 37.8092 38.4587 42.4003 37.4232L46.2636 36.4121C48.8672 35.6318 51.29 34.6941 53.489 33.6227C54.4111 33.1735 55 32.2439 55 31.2182V18.627C55 16.3096 53.519 14.3381 51.4517 13.6074Z" fill="#D19A6E"/>
<path d="M8.87109 31.9355V36.4464C8.87109 36.4464 9.66548 38.551 10.6453 38.551C11.6251 38.551 12.4195 38.3567 12.4195 37.3768V31.9355H8.87109Z" fill="#F9EAC7"/>
<path d="M46.1284 31.9355V36.4464C46.1284 37.4262 45.3341 38.2825 44.3543 38.2825C43.3745 38.2825 42.5801 38.3567 42.5801 37.3768V31.9355H46.1284Z" fill="#F9EAC7"/>
<path d="M46.1284 36.4453V38.1441C46.1284 39.1239 45.3341 39.9183 44.3543 39.9183C43.3745 39.9183 42.5801 39.1239 42.5801 38.1441V37.3757L46.1284 36.4453Z" fill="#F4DBB3"/>
<path d="M50.4075 31.1369C51.0482 30.858 51.4521 30.2147 51.4521 29.516V13.6079C50.8964 13.4111 50.301 13.3047 49.6779 13.3047H5.32301C4.69996 13.3047 4.10452 13.4111 3.54883 13.6079V29.516C3.54883 30.2147 3.95273 30.858 4.59329 31.1369C11.0448 33.9464 19.1028 35.4821 27.5004 35.4821C35.898 35.4821 43.9559 33.9464 50.4075 31.1369Z" fill="#E2A975"/>
<path d="M8.87109 36.4453V38.1441C8.87109 39.1239 9.66548 39.9183 10.6453 39.9183C11.6251 39.9183 12.4195 39.1239 12.4195 38.1441V37.3757L8.87109 36.4453Z" fill="#F4DBB3"/>
</g>
<defs>
<clipPath id="clip0">
<rect width="55" height="55" fill="white"/>
</clipPath>
</defs>
</svg>
