<svg width="24" height="24" viewBox="0 0 24 24" fill="none" xmlns="http://www.w3.org/2000/svg">
<path fill-rule="evenodd" clip-rule="evenodd" d="M15.1609 12.0526C15.1609 13.7986 13.7449 15.2136 11.9989 15.2136C10.2529 15.2136 8.83789 13.7986 8.83789 12.0526C8.83789 10.3056 10.2529 8.89062 11.9989 8.89062C13.7449 8.89062 15.1609 10.3056 15.1609 12.0526Z" stroke="url(#paint0_linear)" stroke-width="1.5" stroke-linecap="round" stroke-linejoin="round"/>
<path fill-rule="evenodd" clip-rule="evenodd" d="M11.998 19.354C15.806 19.354 19.289 16.616 21.25 12.052C19.289 7.488 15.806 4.75 11.998 4.75H12.002C8.194 4.75 4.711 7.488 2.75 12.052C4.711 16.616 8.194 19.354 12.002 19.354H11.998Z" stroke="url(#paint1_linear)" stroke-width="1.5" stroke-linecap="round" stroke-linejoin="round"/>
<defs>
<linearGradient id="paint0_linear" x1="15.1609" y1="8.60658" x2="9.28248" y2="14.6702" gradientUnits="userSpaceOnUse">
<stop stop-color="#0058C4"/>
<stop offset="1" stop-color="#001F54"/>
</linearGradient>
<linearGradient id="paint1_linear" x1="21.25" y1="4.09396" x2="8.13823" y2="21.2271" gradientUnits="userSpaceOnUse">
<stop stop-color="#0058C4"/>
<stop offset="1" stop-color="#001F54"/>
</linearGradient>
</defs>
</svg>
