<svg width="55" height="55" viewBox="0 0 55 55" fill="none" xmlns="http://www.w3.org/2000/svg">
<g clip-path="url(#clip0)">
<path d="M39.9199 24.3958V25.0183C39.9199 25.7811 40.0429 26.5388 40.2841 27.2624L41.6941 31.4925H44.3554V21.7344H42.5812C41.1114 21.7345 39.9199 22.9259 39.9199 24.3958Z" fill="#5A4146"/>
<path d="M52.0655 26.2368L50.5644 31.4908L43.4675 25.2812C42.4876 25.2812 41.6934 24.4868 41.6934 23.507C41.6934 22.0372 42.8849 20.8457 44.3546 20.8457H50.5643C51.5442 20.8457 52.3384 21.6401 52.3384 22.6199V24.2873C52.3385 24.9465 52.2466 25.6027 52.0655 26.2368Z" fill="#694B4B"/>
<path d="M48.7893 34.1543H43.4668V38.0805H48.7893V34.1543Z" fill="#E6AF78"/>
<path d="M43.4688 35.7838C44.2915 36.1181 45.1887 36.3063 46.13 36.3063C47.0714 36.3063 47.9685 36.1181 48.7913 35.7838V34.1543H43.4688V35.7838Z" fill="#D29B6E"/>
<path d="M53.0695 37.5275L48.7898 36.3048L46.1287 38.0707L43.4674 36.3047L39.188 37.5275C38.0454 37.8539 37.2578 38.8982 37.2578 40.0864V46.5721C37.2578 47.062 37.655 47.4592 38.1449 47.4592H54.1126C54.6026 47.4592 54.9997 47.062 54.9997 46.5721V40.0864C54.9997 38.8981 54.212 37.8539 53.0695 37.5275Z" fill="#D5DCED"/>
<path d="M47.0164 47.4583H45.2422L45.6857 38.0781H46.5728L47.0164 47.4583Z" fill="#AFB9D2"/>
<path d="M46.1292 35.0402C43.1896 35.0402 40.8066 32.6571 40.8066 29.7176V28.6783C40.8066 28.2078 40.9936 27.7565 41.3262 27.4237L42.9349 25.8151C43.2755 25.4745 43.7413 25.2786 44.2228 25.2938C47.0585 25.3833 49.5685 25.9907 50.9406 27.3308C51.2765 27.6589 51.4518 28.1178 51.4518 28.5872V29.7176C51.4518 32.6572 49.0688 35.0402 46.1292 35.0402Z" fill="#F0C087"/>
<path d="M43.4679 28.8984C43.4679 27.8751 44.3273 27.0617 45.3485 27.1268C47.1394 27.2411 49.7968 27.5404 51.4271 28.3246C51.3739 27.9503 51.2131 27.597 50.9406 27.3308C49.5685 25.9907 47.0585 25.3833 44.2228 25.2938L44.2227 25.2939V25.2938C43.7413 25.2786 43.2754 25.4746 42.9349 25.8151L41.3263 27.4236C40.9936 27.7563 40.8066 28.2076 40.8066 28.6782V29.7175C40.8066 32.1448 42.4331 34.1885 44.6545 34.8286C43.9151 33.9163 43.468 32.7583 43.468 31.4917L43.4679 28.8984Z" fill="#E6AF78"/>
<path d="M51.4512 42.7297C51.4512 42.0239 51.7315 41.347 52.2306 40.8479L54.5141 38.5645C54.8193 39.0007 54.9995 39.5259 54.9995 40.0865V46.5722C54.9995 47.0622 54.6024 47.4593 54.1124 47.4593H51.4512V42.7297Z" fill="#C7CFE2"/>
<path d="M46.5728 39.8523H45.6857C45.4408 39.8523 45.2422 39.6537 45.2422 39.4088V38.0781H47.0164V39.4088C47.0164 39.6537 46.8178 39.8523 46.5728 39.8523Z" fill="#959CB5"/>
<path d="M46.1287 38.0721L44.6251 39.2206C44.3661 39.4184 43.9916 39.3391 43.8351 39.0532L42.4863 36.59L43.0292 35.7619C43.1497 35.5782 43.4063 35.5469 43.5673 35.6963L46.1287 38.0721Z" fill="#C7CFE2"/>
<path d="M46.1289 38.0739L47.6325 39.2225C47.8915 39.4204 48.266 39.3411 48.4225 39.0551L49.7713 36.592L49.2283 35.7638C49.1079 35.5802 48.8513 35.5489 48.6903 35.6982L46.1289 38.0739Z" fill="#C7CFE2"/>
<path d="M15.8789 34.6699C15.1208 32.6614 14.5196 29.2085 14.3897 27.4108C14.1427 23.9898 11.5646 21.2012 8.07966 21.2012C4.59468 21.2012 2.01666 23.99 1.76959 27.4108C1.63972 29.2084 1.03848 32.6614 0.280403 34.6699C0.113362 35.1127 0.306185 35.601 0.74221 35.7986C1.55453 36.1668 3.2865 36.888 5.37532 37.1689H10.7839C12.8629 36.8873 14.607 36.1657 15.417 35.7986C15.8531 35.601 16.046 35.1127 15.8789 34.6699Z" fill="#5A4146"/>
<path d="M15.418 35.7986C15.854 35.601 16.0469 35.1127 15.8797 34.6699C15.1218 32.6614 14.5204 29.2085 14.3907 27.4108C14.1437 23.9898 11.5656 21.2012 8.0807 21.2012C8.07189 21.2012 8.06319 21.2012 8.05438 21.2013C5.38033 21.2121 4.43534 24.859 6.73728 26.2197C6.87554 26.3015 6.96416 26.3408 6.96416 26.3408L8.98036 37.1689H10.7849C12.864 36.8871 14.6081 36.1656 15.418 35.7986Z" fill="#694B4B"/>
<path d="M14.4966 38.9493L11.6258 37.5141C11.0247 37.2135 10.645 36.599 10.6451 35.927L10.6453 33.2656H5.32254V35.9271C5.32254 36.5991 4.94291 37.2134 4.34178 37.5139L1.47104 38.9493C0.569443 39.4001 0 40.3215 0 41.3295V46.5719C0 47.0617 0.397139 47.459 0.88709 47.459H15.0806C15.5706 47.459 15.9677 47.0617 15.9677 46.5719V41.3296C15.9677 40.3215 15.3982 39.4001 14.4966 38.9493Z" fill="#E6AF78"/>
<path d="M7.98468 36.814C8.93987 36.814 9.85478 36.6171 10.6935 36.2666C10.6715 36.1547 10.6458 36.0436 10.6458 35.927L10.6461 33.2656H5.3233V35.9271C5.3233 36.0443 5.29763 36.156 5.27539 36.2683C6.11468 36.617 7.02916 36.814 7.98468 36.814Z" fill="#D29B6E"/>
<path d="M14.4966 38.9504L12.4515 37.9278C11.5032 39.3922 9.85843 40.3634 7.98392 40.3634C6.1094 40.3634 4.46456 39.3922 3.51624 37.9277L1.47114 38.9504C0.569551 39.4011 0 40.3226 0 41.3305V46.5729C0 47.0629 0.397139 47.46 0.88709 47.46H15.0806C15.5706 47.46 15.9677 47.0629 15.9677 46.5729V41.3306C15.9677 40.3226 15.3982 39.4011 14.4966 38.9504Z" fill="#D5DCED"/>
<path d="M7.98353 35.0399C5.27736 35.0399 3.04298 33.0204 2.70514 30.4063C2.65616 30.0275 2.83824 29.6561 3.17919 29.4841C3.58761 29.2781 4.18112 28.9307 4.74938 28.4237C5.3822 27.8591 5.75345 27.2636 5.96314 26.8265C6.14372 26.4501 6.55879 26.2372 6.96334 26.3404C10.0867 27.1371 12.2132 28.7621 12.9847 29.4255C13.1918 29.6036 13.3111 29.8662 13.2898 30.1387C13.0749 32.8811 10.7813 35.0399 7.98353 35.0399Z" fill="#F0C087"/>
<path d="M12.9845 29.4255C12.2131 28.7621 10.0866 27.1371 6.96321 26.3404C6.55866 26.2372 6.14358 26.4501 5.963 26.8265C5.80424 27.1576 5.5418 27.5793 5.1524 28.0099C5.15229 28.011 5.15197 28.0118 5.15186 28.0129C5.03101 28.1499 4.90232 28.2871 4.74935 28.4238C4.18109 28.9309 3.58759 29.2782 3.17917 29.4843C2.83821 29.6562 2.65624 30.0277 2.70511 30.4065C3.00858 32.7542 4.84571 34.6229 7.17655 34.9793C6.11447 34.2568 5.32223 33.2631 5.32223 31.4917V30.2267C5.52376 30.078 5.72668 29.9296 5.93056 29.7476C6.42363 29.3076 6.85407 28.7988 7.19922 28.2509C9.5886 28.9966 11.2085 30.2385 11.8227 30.7665C11.9908 30.9139 12.408 31.2985 12.8961 31.7564C13.1061 31.251 13.245 30.7088 13.2896 30.1389C13.311 29.8663 13.1916 29.6037 12.9845 29.4255Z" fill="#E6AF78"/>
<path d="M0.540762 39.7305C0.199053 40.184 0 40.7403 0 41.3295V46.572C0 47.0619 0.397139 47.459 0.88709 47.459H3.54836V42.9892C3.54836 42.4503 3.30333 41.9405 2.88245 41.6038L0.540762 39.7305Z" fill="#C7CFE2"/>
<path d="M40.2454 37.7381L32.8231 35.0391L27.5006 36.8134L22.178 35.0392L14.7557 37.7383C13.3534 38.2482 12.4199 39.5809 12.4199 41.0729V46.5714C12.4199 47.0613 12.8171 47.4585 13.307 47.4585H41.6941C42.184 47.4585 42.5812 47.0613 42.5812 46.5714V41.0729C42.5812 39.5808 41.6478 38.2481 40.2454 37.7381Z" fill="#FF507D"/>
<path d="M26.5695 38.5898L25.7246 47.4606H29.273L28.4281 38.5898H26.5695Z" fill="#707487"/>
<path d="M28.431 39.8074H26.5683C26.2253 39.8074 25.9473 39.5294 25.9473 39.1864V36.8145H29.0519V39.1864C29.052 39.5293 28.774 39.8074 28.431 39.8074Z" fill="#5B5D6E"/>
<path d="M41.6255 38.6562C42.2245 39.2992 42.5804 40.1554 42.5804 41.0739V46.5724C42.5804 47.0623 42.1832 47.4595 41.6933 47.4595H37.2578V44.4938C37.2578 43.5526 37.6316 42.6501 38.2971 41.9847L41.6255 38.6562Z" fill="#D23C69"/>
<path d="M37.2584 16.7447V9.31324C37.2584 8.33334 36.464 7.53906 35.4842 7.53906H24.839C20.9196 7.53906 17.7422 10.7164 17.7422 14.6359V16.7447C17.7422 17.6982 17.8959 18.6454 18.1974 19.5499L18.4927 20.4358C18.5832 20.7072 18.6293 20.9913 18.6293 21.2774V21.7326H36.3712V21.2774C36.3712 20.9913 36.4173 20.7072 36.5077 20.4358L36.803 19.5499C37.1047 18.6453 37.2584 17.6981 37.2584 16.7447Z" fill="#5A4146"/>
<path d="M22.1777 11.1429C22.1777 13.1332 23.7912 14.7466 25.7815 14.7466H26.2805L26.5213 21.7325H36.3712V21.2772C36.3712 20.9912 36.4173 20.707 36.5077 20.4357L36.803 19.5498C37.1045 18.6453 37.2583 17.6981 37.2583 16.7446V9.31324C37.2583 8.33334 36.4639 7.53906 35.4841 7.53906H25.7815C23.7912 7.53906 22.1777 9.15254 22.1777 11.1429Z" fill="#694B4B"/>
<path d="M32.8233 28.832H22.1777V36.8156H32.8233V28.832Z" fill="#E6AF78"/>
<path d="M22.1778 31.8297C23.7449 32.7375 25.5592 33.2655 27.5004 33.2655C29.4416 33.2655 31.256 32.7375 32.8229 31.8297V28.8301H22.1777L22.1778 31.8297Z" fill="#D29B6E"/>
<path d="M27.501 36.8137L24.6717 39.643C24.2915 40.0233 23.6629 39.9804 23.3379 39.552L20.4043 35.6865L21.1716 34.0695C21.3981 33.5924 21.9887 33.4175 22.4383 33.6946L27.501 36.8137Z" fill="#D23C69"/>
<path d="M27.5 36.8137L30.3293 39.643C30.7096 40.0233 31.3381 39.9804 31.6631 39.552L34.5967 35.6865L33.8294 34.0695C33.603 33.5924 33.0124 33.4175 32.5627 33.6946L27.5 36.8137Z" fill="#D23C69"/>
<path d="M27.4999 31.492C22.6006 31.492 18.6289 27.5203 18.6289 22.621V21.5817C18.6289 21.1112 18.8158 20.6599 19.1485 20.3271L19.8834 19.5922C20.2161 19.2595 20.403 18.8083 20.403 18.3376V16.2111C20.403 15.8003 20.6788 15.4435 21.0786 15.3491C23.1766 14.8535 29.7054 13.6797 34.1485 16.9475C34.437 17.1597 34.5965 17.5082 34.5965 17.8664V18.3376C34.5965 18.8081 34.7834 19.2594 35.1161 19.5922L35.851 20.3271C36.1837 20.6598 36.3706 21.1111 36.3706 21.5817V22.621C36.3709 27.5203 32.3992 31.492 27.4999 31.492Z" fill="#F0C087"/>
<path d="M34.1486 16.948C31.0237 14.6497 26.8728 14.5502 23.9516 14.8648C22.7193 14.9975 21.7012 15.2026 21.0788 15.3495C20.6791 15.4439 20.4032 15.8008 20.4032 16.2116V18.338C20.4032 18.8086 20.2163 19.2599 19.8835 19.5927L19.1486 20.3276C18.8158 20.6603 18.6289 21.1116 18.6289 21.5822V22.6214C18.6289 27.1572 22.0353 30.8913 26.4279 31.4214C24.8973 29.8274 23.9514 27.6673 23.9514 25.2827V18.7986C23.9514 17.8996 24.6199 17.1483 25.5119 17.0365C27.6407 16.7695 31.5399 16.609 34.5965 18.3382V17.8668C34.5967 17.5087 34.4369 17.16 34.1486 16.948Z" fill="#E6AF78"/>
<path d="M13.3748 38.6562C12.7758 39.2992 12.4199 40.1554 12.4199 41.0739V46.5724C12.4199 47.0623 12.8171 47.4595 13.307 47.4595H17.7425V44.4938C17.7425 43.5526 17.3686 42.6501 16.7031 41.9847L13.3748 38.6562Z" fill="#D23C69"/>
</g>
<defs>
<clipPath id="clip0">
<rect width="55" height="55" fill="white"/>
</clipPath>
</defs>
</svg>
